<svg width="1203" height="231" viewBox="0 0 1203 231" fill="none" xmlns="http://www.w3.org/2000/svg">
<line x1="41" y1="110.5" x2="296" y2="110.5" stroke="#00FF00" stroke-width="3"/>
<line x1="349" y1="110.5" x2="513" y2="110.5" stroke="#00FF00" stroke-width="3"/>
<line x1="566" y1="110.5" x2="866" y2="110.5" stroke="#00FF00" stroke-width="3"/>
<line x1="926" y1="110.5" x2="1162" y2="110.5" stroke="#00FF00" stroke-width="3"/>
<line x1="77" y1="31.5" x2="222" y2="31.5" stroke="white" stroke-width="3"/>
<circle cx="14" cy="112" r="10.5" stroke="white" stroke-width="7"/>
<circle cx="322" cy="111" r="10.5" stroke="white" stroke-width="7"/>
<circle cx="539" cy="110" r="10.5" stroke="white" stroke-width="7"/>
<circle cx="14" cy="14" r="10.5" transform="matrix(1 0 0 -1 881 125)" stroke="white" stroke-width="7"/>
<line x1="2.93934" y1="105.939" x2="77.9393" y2="30.9393" stroke="white" stroke-width="3"/>
<line x1="602" y1="30.5" x2="778" y2="30.5" stroke="white" stroke-width="3"/>
<line x1="527.939" y1="104.939" x2="602.939" y2="29.9393" stroke="white" stroke-width="3"/>
<line x1="398" y1="203.5" x2="478" y2="203.5" stroke="white" stroke-width="3"/>
<line x1="310.061" y1="114.939" x2="399.061" y2="203.939" stroke="white" stroke-width="3"/>
<line x1="971" y1="202.5" x2="1062" y2="202.5" stroke="white" stroke-width="3"/>
<line x1="883.061" y1="113.939" x2="972.061" y2="202.939" stroke="white" stroke-width="3"/>
<path d="M78.8281 17.5977V8.19922C78.3203 8.19141 77.9453 8.07812 77.7031 7.85938C77.4609 7.63281 77.3398 7.34375 77.3398 6.99219C77.3398 6.63281 77.4609 6.34375 77.7031 6.125C77.9531 5.89844 78.3672 5.78516 78.9453 5.78516L83.9727 5.79688C84.7539 5.79688 85.5156 5.94141 86.2578 6.23047C87.0078 6.51953 87.6094 6.88672 88.0625 7.33203C88.4062 7.66797 88.7617 8.12891 89.1289 8.71484C89.5039 9.30078 89.7852 9.88281 89.9727 10.4609C90.1602 11.0391 90.2539 11.7461 90.2539 12.582V13.7305C90.2539 14.7461 90.082 15.6484 89.7383 16.4375C89.3945 17.2188 88.9414 17.8594 88.3789 18.3594C87.8242 18.8516 87.3008 19.2148 86.8086 19.4492C86.0273 19.8164 85.0156 20 83.7734 20H78.9453C78.3672 20 77.9531 19.8906 77.7031 19.6719C77.4609 19.4453 77.3398 19.1523 77.3398 18.793C77.3398 18.4414 77.4609 18.1523 77.7031 17.9258C77.9531 17.6992 78.3281 17.5898 78.8281 17.5977ZM81.2305 17.5977H83.7852C84.7383 17.5977 85.457 17.4609 85.9414 17.1875C86.5742 16.8281 87.0508 16.3711 87.3711 15.8164C87.6914 15.2617 87.8516 14.543 87.8516 13.6602V12.5234C87.8516 11.7656 87.707 11.1016 87.418 10.5312C86.9648 9.64062 86.4531 9.03125 85.8828 8.70312C85.3203 8.36719 84.6133 8.19922 83.7617 8.19922H81.2305V17.5977ZM100.777 20V19.4375C100.176 19.7578 99.5117 19.9961 98.7852 20.1523C98.0586 20.3164 97.3984 20.3984 96.8047 20.3984C95.5156 20.3984 94.4688 20.0586 93.6641 19.3789C92.8594 18.6914 92.457 17.9336 92.457 17.1055C92.457 16.0977 92.9688 15.1641 93.9922 14.3047C95.0234 13.4375 96.4453 13.0039 98.2578 13.0039C98.9844 13.0039 99.8242 13.082 100.777 13.2383V12.6641C100.777 12.3047 100.621 12.0117 100.309 11.7852C100.004 11.5586 99.418 11.4453 98.5508 11.4453C97.8398 11.4453 96.918 11.5859 95.7852 11.8672C95.3633 11.9688 95.0352 12.0195 94.8008 12.0195C94.4805 12.0195 94.207 11.9062 93.9805 11.6797C93.7617 11.4453 93.6523 11.1484 93.6523 10.7891C93.6523 10.5859 93.6914 10.4102 93.7695 10.2617C93.8477 10.1133 93.957 9.99609 94.0977 9.91016C94.2383 9.81641 94.5312 9.70703 94.9766 9.58203C95.5703 9.41797 96.1758 9.28906 96.793 9.19531C97.4102 9.09375 97.9688 9.04297 98.4688 9.04297C99.9609 9.04297 101.117 9.36719 101.938 10.0156C102.766 10.6562 103.18 11.5352 103.18 12.6523V17.5977H103.59C104.168 17.5977 104.578 17.7109 104.82 17.9375C105.07 18.1562 105.195 18.4453 105.195 18.8047C105.195 19.1562 105.07 19.4453 104.82 19.6719C104.578 19.8906 104.168 20 103.59 20H100.777ZM100.777 15.6992C99.8164 15.5117 98.9297 15.418 98.1172 15.418C97.1406 15.418 96.3008 15.6562 95.5977 16.1328C95.1602 16.4375 94.9414 16.7461 94.9414 17.0586C94.9414 17.2852 95.0469 17.4688 95.2578 17.6094C95.6484 17.8672 96.1836 17.9961 96.8633 17.9961C97.4414 17.9961 98.0938 17.8828 98.8203 17.6562C99.5547 17.4297 100.207 17.1211 100.777 16.7305V15.6992ZM111.688 19.918L107.527 11.7617C107.137 11.7148 106.84 11.582 106.637 11.3633C106.434 11.1445 106.332 10.8789 106.332 10.5664C106.332 10.207 106.453 9.91797 106.695 9.69922C106.945 9.47266 107.359 9.35938 107.938 9.35938H110.129C110.707 9.35938 111.117 9.47266 111.359 9.69922C111.609 9.91797 111.734 10.207 111.734 10.5664C111.734 10.918 111.609 11.207 111.359 11.4336C111.117 11.6523 110.73 11.7617 110.199 11.7617L113.035 17.2812L115.848 11.7617C115.332 11.7617 114.949 11.6523 114.699 11.4336C114.457 11.207 114.336 10.9141 114.336 10.5547C114.336 10.2031 114.457 9.91797 114.699 9.69922C114.949 9.47266 115.363 9.35938 115.941 9.35938H118.203C118.773 9.35938 119.18 9.47266 119.422 9.69922C119.672 9.91797 119.797 10.207 119.797 10.5664C119.797 10.8867 119.691 11.1602 119.48 11.3867C119.27 11.6055 118.957 11.7305 118.543 11.7617L113.035 22.6133C113.637 22.6133 114.031 22.6719 114.219 22.7891C114.594 23.0312 114.781 23.375 114.781 23.8203C114.781 24.1719 114.656 24.457 114.406 24.6758C114.164 24.9023 113.754 25.0156 113.176 25.0156H107.938C107.359 25.0156 106.945 24.9023 106.695 24.6758C106.453 24.457 106.332 24.1719 106.332 23.8203C106.332 23.4609 106.453 23.168 106.695 22.9414C106.945 22.7227 107.359 22.6133 107.938 22.6133H110.328L111.688 19.918ZM136.953 17.5977V8.19922H136.578C136 8.19922 135.586 8.08984 135.336 7.87109C135.094 7.64453 134.973 7.35156 134.973 6.99219C134.973 6.63281 135.094 6.34375 135.336 6.125C135.586 5.89844 136 5.78516 136.578 5.78516H142.602C144.039 5.78516 145.195 6.1875 146.07 6.99219C146.945 7.78906 147.383 8.73828 147.383 9.83984C147.383 10.3633 147.281 10.8555 147.078 11.3164C146.875 11.7773 146.566 12.2031 146.152 12.5938C146.91 13.0469 147.477 13.5781 147.852 14.1875C148.234 14.7891 148.426 15.4727 148.426 16.2383C148.426 16.8477 148.289 17.4141 148.016 17.9375C147.812 18.3359 147.562 18.6523 147.266 18.8867C146.867 19.2148 146.379 19.4844 145.801 19.6953C145.223 19.8984 144.5 20 143.633 20H136.578C136 20 135.586 19.8906 135.336 19.6719C135.094 19.4453 134.973 19.1523 134.973 18.793C134.973 18.4414 135.098 18.1562 135.348 17.9375C135.598 17.7109 136.008 17.5977 136.578 17.5977H136.953ZM139.355 11.6914H141.992C142.938 11.6914 143.723 11.4531 144.348 10.9766C144.77 10.6562 144.98 10.2578 144.98 9.78125C144.98 9.35938 144.781 8.99219 144.383 8.67969C143.984 8.35938 143.352 8.19922 142.484 8.19922H139.355V11.6914ZM139.355 17.5977H143.504C144.48 17.5977 145.168 17.4531 145.566 17.1641C145.871 16.9453 146.023 16.6328 146.023 16.2266C146.023 15.7422 145.723 15.2656 145.121 14.7969C144.52 14.3281 143.656 14.0938 142.531 14.0938H139.355V17.5977ZM162.301 15.8984H152.445C152.695 16.5234 153.137 17.0273 153.77 17.4102C154.41 17.793 155.273 17.9844 156.359 17.9844C157.25 17.9844 158.434 17.793 159.91 17.4102C160.52 17.2539 160.941 17.1758 161.176 17.1758C161.496 17.1758 161.766 17.2891 161.984 17.5156C162.203 17.7422 162.312 18.0273 162.312 18.3711C162.312 18.6836 162.195 18.9492 161.961 19.168C161.648 19.457 160.887 19.7344 159.676 20C158.465 20.2578 157.301 20.3867 156.184 20.3867C154.262 20.3867 152.723 19.8438 151.566 18.7578C150.418 17.6719 149.844 16.3359 149.844 14.75C149.844 13.0625 150.465 11.6914 151.707 10.6367C152.957 9.57422 154.395 9.04297 156.02 9.04297C156.996 9.04297 157.891 9.21484 158.703 9.55859C159.523 9.90234 160.133 10.2734 160.531 10.6719C161.094 11.25 161.559 11.9648 161.926 12.8164C162.176 13.4102 162.301 14.0977 162.301 14.8789V15.8984ZM159.641 13.4961C159.273 12.8086 158.793 12.2969 158.199 11.9609C157.605 11.6172 156.898 11.4453 156.078 11.4453C155.266 11.4453 154.562 11.6172 153.969 11.9609C153.375 12.2969 152.891 12.8086 152.516 13.4961H159.641ZM173.328 10.0742V9.35938H176.141C176.719 9.35938 177.129 9.47266 177.371 9.69922C177.621 9.91797 177.746 10.207 177.746 10.5664C177.746 10.918 177.621 11.207 177.371 11.4336C177.129 11.6523 176.719 11.7617 176.141 11.7617H175.73V20.5039C175.73 21.3477 175.551 22.082 175.191 22.707C174.84 23.3398 174.297 23.8828 173.562 24.3359C172.828 24.7891 172 25.0156 171.078 25.0156H168.359C167.781 25.0156 167.367 24.9023 167.117 24.6758C166.875 24.457 166.754 24.1719 166.754 23.8203C166.754 23.4609 166.875 23.168 167.117 22.9414C167.367 22.7227 167.781 22.6133 168.359 22.6133H171.008C171.742 22.6133 172.312 22.4141 172.719 22.0156C173.125 21.6172 173.328 21.1133 173.328 20.5039V19.332C172.797 19.6758 172.254 19.9336 171.699 20.1055C171.152 20.2773 170.59 20.3633 170.012 20.3633C168.379 20.3633 167.012 19.8203 165.91 18.7344C164.809 17.6406 164.258 16.293 164.258 14.6914C164.258 13.082 164.809 11.7344 165.91 10.6484C167.012 9.55469 168.379 9.00781 170.012 9.00781C170.621 9.00781 171.199 9.09766 171.746 9.27734C172.301 9.44922 172.828 9.71484 173.328 10.0742ZM173.316 14.6797C173.316 13.7969 172.988 13.0312 172.332 12.3828C171.684 11.7344 170.902 11.4102 169.988 11.4102C169.074 11.4102 168.289 11.7344 167.633 12.3828C166.984 13.0312 166.66 13.7969 166.66 14.6797C166.66 15.5703 166.984 16.3398 167.633 16.9883C168.289 17.6289 169.074 17.9492 169.988 17.9492C170.902 17.9492 171.684 17.6289 172.332 16.9883C172.988 16.3398 173.316 15.5703 173.316 14.6797ZM185.961 4.80078V7.34375H183.102V4.80078H185.961ZM186.289 9.35938V17.5977H189.172C189.75 17.5977 190.16 17.7109 190.402 17.9375C190.652 18.1562 190.777 18.4453 190.777 18.8047C190.777 19.1562 190.652 19.4453 190.402 19.6719C190.16 19.8906 189.75 20 189.172 20H181.004C180.426 20 180.012 19.8906 179.762 19.6719C179.52 19.4453 179.398 19.1523 179.398 18.793C179.398 18.4414 179.52 18.1562 179.762 17.9375C180.012 17.7109 180.426 17.5977 181.004 17.5977H183.887V11.7617H181.953C181.383 11.7617 180.973 11.6523 180.723 11.4336C180.473 11.207 180.348 10.9141 180.348 10.5547C180.348 10.2031 180.469 9.91797 180.711 9.69922C180.961 9.47266 181.375 9.35938 181.953 9.35938H186.289ZM197.082 9.35938V10.168C197.52 9.79297 198 9.51172 198.523 9.32422C199.055 9.13672 199.629 9.04297 200.246 9.04297C201.668 9.04297 202.793 9.48438 203.621 10.3672C204.277 11.0703 204.605 11.9922 204.605 13.1328V17.5977C205.113 17.5977 205.488 17.7109 205.73 17.9375C205.973 18.1562 206.094 18.4453 206.094 18.8047C206.094 19.1562 205.969 19.4453 205.719 19.6719C205.477 19.8906 205.066 20 204.488 20H202.32C201.742 20 201.328 19.8906 201.078 19.6719C200.836 19.4453 200.715 19.1523 200.715 18.793C200.715 18.4414 200.836 18.1562 201.078 17.9375C201.32 17.7109 201.695 17.5977 202.203 17.5977V13.0625C202.203 12.5391 202.062 12.1562 201.781 11.9141C201.414 11.6016 200.863 11.4453 200.129 11.4453C199.574 11.4453 199.086 11.5547 198.664 11.7734C198.25 11.9844 197.723 12.4375 197.082 13.1328V17.5977C197.699 17.5977 198.098 17.6562 198.277 17.7734C198.66 18.0078 198.852 18.3516 198.852 18.8047C198.852 19.1562 198.727 19.4453 198.477 19.6719C198.234 19.8906 197.824 20 197.246 20H194.516C193.938 20 193.523 19.8906 193.273 19.6719C193.031 19.4453 192.91 19.1523 192.91 18.793C192.91 18.3555 193.098 18.0156 193.473 17.7734C193.66 17.6562 194.062 17.5977 194.68 17.5977V11.7617C194.172 11.7617 193.797 11.6484 193.555 11.4219C193.312 11.1953 193.191 10.9062 193.191 10.5547C193.191 10.2031 193.312 9.91797 193.555 9.69922C193.805 9.47266 194.219 9.35938 194.797 9.35938H197.082ZM216.523 12.1719C216.133 11.9297 215.723 11.75 215.293 11.6328C214.863 11.5078 214.414 11.4453 213.945 11.4453C213.016 11.4453 212.277 11.5977 211.73 11.9023C211.488 12.0352 211.367 12.1797 211.367 12.3359C211.367 12.5156 211.531 12.6914 211.859 12.8633C212.109 12.9883 212.668 13.1094 213.535 13.2266C215.129 13.4453 216.238 13.6641 216.863 13.8828C217.684 14.1719 218.316 14.6016 218.762 15.1719C219.207 15.7422 219.43 16.3438 219.43 16.9766C219.43 17.8359 219.051 18.5547 218.293 19.1328C217.207 19.9688 215.797 20.3867 214.062 20.3867C213.367 20.3867 212.723 20.3242 212.129 20.1992C211.543 20.082 211.004 19.9062 210.512 19.6719C210.395 19.7734 210.27 19.8516 210.137 19.9062C210.004 19.9609 209.867 19.9883 209.727 19.9883C209.352 19.9883 209.051 19.8672 208.824 19.625C208.605 19.375 208.496 18.9609 208.496 18.3828V17.5742C208.496 16.9961 208.605 16.5859 208.824 16.3438C209.051 16.0938 209.344 15.9688 209.703 15.9688C209.992 15.9688 210.234 16.0508 210.43 16.2148C210.625 16.3711 210.777 16.6445 210.887 17.0352C211.254 17.3477 211.695 17.5859 212.211 17.75C212.727 17.9062 213.32 17.9844 213.992 17.9844C215.094 17.9844 215.949 17.8125 216.559 17.4688C216.848 17.2969 216.992 17.1172 216.992 16.9297C216.992 16.6172 216.785 16.3594 216.371 16.1562C215.957 15.9531 215.102 15.7812 213.805 15.6406C211.875 15.4375 210.586 15.0469 209.938 14.4688C209.289 13.8984 208.965 13.1953 208.965 12.3594C208.965 11.5 209.328 10.7852 210.055 10.2148C211.039 9.43359 212.328 9.04297 213.922 9.04297C214.477 9.04297 215.008 9.09766 215.516 9.20703C216.031 9.30859 216.523 9.46875 216.992 9.6875C217.141 9.57812 217.277 9.49609 217.402 9.44141C217.535 9.38672 217.656 9.35938 217.766 9.35938C218.094 9.35938 218.367 9.48438 218.586 9.73438C218.805 9.97656 218.914 10.3867 218.914 10.9648V11.5508C218.914 12.0742 218.852 12.4297 218.727 12.6172C218.477 12.9766 218.137 13.1562 217.707 13.1562C217.418 13.1562 217.164 13.0664 216.945 12.8867C216.727 12.707 216.586 12.4688 216.523 12.1719Z" fill="white"/>
<path d="M408.199 180.199V189.598H413.379V187.324C413.379 186.746 413.488 186.336 413.707 186.094C413.934 185.844 414.227 185.719 414.586 185.719C414.938 185.719 415.223 185.844 415.441 186.094C415.668 186.336 415.781 186.746 415.781 187.324V192H404.402C403.824 192 403.41 191.891 403.16 191.672C402.918 191.445 402.797 191.152 402.797 190.793C402.797 190.441 402.918 190.156 403.16 189.938C403.41 189.711 403.824 189.598 404.402 189.598H405.797V180.199H404.402C403.824 180.199 403.41 180.09 403.16 179.871C402.918 179.645 402.797 179.352 402.797 178.992C402.797 178.633 402.918 178.344 403.16 178.125C403.41 177.898 403.824 177.785 404.402 177.785L409.605 177.797C410.184 177.797 410.594 177.906 410.836 178.125C411.086 178.344 411.211 178.633 411.211 178.992C411.211 179.352 411.086 179.645 410.836 179.871C410.594 180.09 410.184 180.199 409.605 180.199H408.199ZM428.719 181.359V189.598C429.227 189.598 429.602 189.711 429.844 189.938C430.086 190.164 430.207 190.453 430.207 190.805C430.207 191.156 430.082 191.445 429.832 191.672C429.59 191.891 429.18 192 428.602 192H426.316V191.449C425.629 191.762 424.973 191.996 424.348 192.152C423.723 192.309 423.129 192.387 422.566 192.387C421.777 192.387 421.094 192.223 420.516 191.895C419.938 191.559 419.48 191.098 419.145 190.512C418.902 190.09 418.781 189.562 418.781 188.93V183.762H418.371C417.793 183.762 417.379 183.652 417.129 183.434C416.887 183.207 416.766 182.914 416.766 182.555C416.766 182.203 416.887 181.918 417.129 181.699C417.379 181.473 417.793 181.359 418.371 181.359H421.184V188.508C421.184 189.016 421.305 189.391 421.547 189.633C421.797 189.867 422.176 189.984 422.684 189.984C423.168 189.984 423.688 189.891 424.242 189.703C424.805 189.508 425.496 189.16 426.316 188.66V183.762H425.449C424.871 183.762 424.457 183.652 424.207 183.434C423.965 183.207 423.844 182.914 423.844 182.555C423.844 182.203 423.965 181.918 424.207 181.699C424.457 181.473 424.871 181.359 425.449 181.359H428.719ZM435.598 181.359V182.168C436.035 181.793 436.516 181.512 437.039 181.324C437.57 181.137 438.145 181.043 438.762 181.043C440.184 181.043 441.309 181.484 442.137 182.367C442.793 183.07 443.121 183.992 443.121 185.133V189.598C443.629 189.598 444.004 189.711 444.246 189.938C444.488 190.156 444.609 190.445 444.609 190.805C444.609 191.156 444.484 191.445 444.234 191.672C443.992 191.891 443.582 192 443.004 192H440.836C440.258 192 439.844 191.891 439.594 191.672C439.352 191.445 439.23 191.152 439.23 190.793C439.23 190.441 439.352 190.156 439.594 189.938C439.836 189.711 440.211 189.598 440.719 189.598V185.062C440.719 184.539 440.578 184.156 440.297 183.914C439.93 183.602 439.379 183.445 438.645 183.445C438.09 183.445 437.602 183.555 437.18 183.773C436.766 183.984 436.238 184.438 435.598 185.133V189.598C436.215 189.598 436.613 189.656 436.793 189.773C437.176 190.008 437.367 190.352 437.367 190.805C437.367 191.156 437.242 191.445 436.992 191.672C436.75 191.891 436.34 192 435.762 192H433.031C432.453 192 432.039 191.891 431.789 191.672C431.547 191.445 431.426 191.152 431.426 190.793C431.426 190.355 431.613 190.016 431.988 189.773C432.176 189.656 432.578 189.598 433.195 189.598V183.762C432.688 183.762 432.312 183.648 432.07 183.422C431.828 183.195 431.707 182.906 431.707 182.555C431.707 182.203 431.828 181.918 432.07 181.699C432.32 181.473 432.734 181.359 433.312 181.359H435.598ZM456.188 181.793C456.477 181.52 456.773 181.383 457.078 181.383C457.422 181.383 457.703 181.508 457.922 181.758C458.148 182 458.262 182.406 458.262 182.977V184.523C458.262 185.102 458.148 185.512 457.922 185.754C457.703 185.996 457.414 186.117 457.055 186.117C456.727 186.117 456.449 186.023 456.223 185.836C456.059 185.695 455.93 185.41 455.836 184.98C455.742 184.543 455.516 184.219 455.156 184.008C454.523 183.633 453.715 183.445 452.73 183.445C451.598 183.445 450.688 183.777 450 184.441C449.32 185.105 448.98 185.945 448.98 186.961C448.98 187.898 449.309 188.641 449.965 189.188C450.621 189.727 451.711 189.996 453.234 189.996C454.234 189.996 455.051 189.895 455.684 189.691C456.059 189.566 456.414 189.355 456.75 189.059C457.086 188.754 457.391 188.602 457.664 188.602C457.992 188.602 458.273 188.723 458.508 188.965C458.75 189.207 458.871 189.492 458.871 189.82C458.871 190.352 458.508 190.855 457.781 191.332C456.703 192.043 455.125 192.398 453.047 192.398C451.18 192.398 449.727 192.012 448.688 191.238C447.281 190.199 446.578 188.777 446.578 186.973C446.578 185.262 447.148 183.848 448.289 182.73C449.43 181.605 450.918 181.043 452.754 181.043C453.418 181.043 454.035 181.105 454.605 181.23C455.176 181.355 455.703 181.543 456.188 181.793ZM464.379 176.801V181.922C464.879 181.625 465.383 181.406 465.891 181.266C466.406 181.117 466.926 181.043 467.449 181.043C468.277 181.043 469.016 181.184 469.664 181.465C470.312 181.746 470.848 182.191 471.27 182.801C471.699 183.402 471.914 184.164 471.914 185.086V189.598C472.523 189.598 472.922 189.656 473.109 189.773C473.484 190.016 473.672 190.359 473.672 190.805C473.672 191.156 473.551 191.445 473.309 191.672C473.066 191.891 472.656 192 472.078 192H469.336C468.766 192 468.355 191.891 468.105 191.672C467.863 191.445 467.742 191.152 467.742 190.793C467.742 190.355 467.93 190.016 468.305 189.773C468.5 189.648 468.898 189.59 469.5 189.598V185.25C469.5 184.633 469.359 184.199 469.078 183.949C468.711 183.613 468.168 183.445 467.449 183.445C466.918 183.445 466.445 183.551 466.031 183.762C465.625 183.965 465.074 184.41 464.379 185.098V189.598C464.996 189.598 465.395 189.656 465.574 189.773C465.957 190.016 466.148 190.359 466.148 190.805C466.148 191.156 466.023 191.445 465.773 191.672C465.531 191.891 465.121 192 464.543 192H461.812C461.234 192 460.82 191.891 460.57 191.672C460.328 191.445 460.207 191.152 460.207 190.793C460.207 190.355 460.398 190.016 460.781 189.773C460.969 189.648 461.367 189.59 461.977 189.598V179.203H461.566C460.988 179.203 460.574 179.094 460.324 178.875C460.082 178.648 459.961 178.355 459.961 177.996C459.961 177.645 460.082 177.359 460.324 177.141C460.574 176.914 460.988 176.801 461.566 176.801H464.379Z" fill="white"/>
<path d="M615.969 8.40625C616.117 8.20312 616.277 8.05078 616.449 7.94922C616.629 7.84766 616.82 7.79688 617.023 7.79688C617.375 7.79688 617.66 7.91797 617.879 8.16016C618.105 8.40234 618.219 8.8125 618.219 9.39062V11.4297C618.219 12.0078 618.105 12.4219 617.879 12.6719C617.66 12.9141 617.375 13.0352 617.023 13.0352C616.703 13.0352 616.445 12.9453 616.25 12.7656C616.055 12.5859 615.91 12.25 615.816 11.7578C615.762 11.4297 615.652 11.1758 615.488 10.9961C615.168 10.6445 614.719 10.3633 614.141 10.1523C613.57 9.94141 612.996 9.83594 612.418 9.83594C611.699 9.83594 611.039 9.99219 610.438 10.3047C609.836 10.6172 609.305 11.125 608.844 11.8281C608.383 12.5312 608.152 13.3672 608.152 14.3359V15.8945C608.152 17.0508 608.57 18.0156 609.406 18.7891C610.25 19.5625 611.418 19.9492 612.91 19.9492C613.801 19.9492 614.555 19.8281 615.172 19.5859C615.531 19.4453 615.914 19.168 616.32 18.7539C616.57 18.5039 616.766 18.3438 616.906 18.2734C617.047 18.1953 617.207 18.1562 617.387 18.1562C617.707 18.1562 617.988 18.2773 618.23 18.5195C618.473 18.7617 618.594 19.0469 618.594 19.375C618.594 19.7031 618.43 20.0547 618.102 20.4297C617.625 20.9766 617.012 21.4062 616.262 21.7188C615.254 22.1406 614.141 22.3516 612.922 22.3516C611.5 22.3516 610.219 22.0586 609.078 21.4727C608.156 21.0039 607.371 20.2656 606.723 19.2578C606.074 18.2422 605.75 17.1367 605.75 15.9414V14.3125C605.75 13.0625 606.039 11.8984 606.617 10.8203C607.203 9.73438 608.012 8.89844 609.043 8.3125C610.074 7.72656 611.168 7.43359 612.324 7.43359C613.02 7.43359 613.668 7.51562 614.27 7.67969C614.879 7.83594 615.445 8.07812 615.969 8.40625ZM624.137 6.80078V11.9219C624.637 11.625 625.141 11.4062 625.648 11.2656C626.164 11.1172 626.684 11.043 627.207 11.043C628.035 11.043 628.773 11.1836 629.422 11.4648C630.07 11.7461 630.605 12.1914 631.027 12.8008C631.457 13.4023 631.672 14.1641 631.672 15.0859V19.5977C632.281 19.5977 632.68 19.6562 632.867 19.7734C633.242 20.0156 633.43 20.3594 633.43 20.8047C633.43 21.1562 633.309 21.4453 633.066 21.6719C632.824 21.8906 632.414 22 631.836 22H629.094C628.523 22 628.113 21.8906 627.863 21.6719C627.621 21.4453 627.5 21.1523 627.5 20.793C627.5 20.3555 627.688 20.0156 628.062 19.7734C628.258 19.6484 628.656 19.5898 629.258 19.5977V15.25C629.258 14.6328 629.117 14.1992 628.836 13.9492C628.469 13.6133 627.926 13.4453 627.207 13.4453C626.676 13.4453 626.203 13.5508 625.789 13.7617C625.383 13.9648 624.832 14.4102 624.137 15.0977V19.5977C624.754 19.5977 625.152 19.6562 625.332 19.7734C625.715 20.0156 625.906 20.3594 625.906 20.8047C625.906 21.1562 625.781 21.4453 625.531 21.6719C625.289 21.8906 624.879 22 624.301 22H621.57C620.992 22 620.578 21.8906 620.328 21.6719C620.086 21.4453 619.965 21.1523 619.965 20.793C619.965 20.3555 620.156 20.0156 620.539 19.7734C620.727 19.6484 621.125 19.5898 621.734 19.5977V9.20312H621.324C620.746 9.20312 620.332 9.09375 620.082 8.875C619.84 8.64844 619.719 8.35547 619.719 7.99609C619.719 7.64453 619.84 7.35938 620.082 7.14062C620.332 6.91406 620.746 6.80078 621.324 6.80078H624.137ZM643.191 22V21.4375C642.59 21.7578 641.926 21.9961 641.199 22.1523C640.473 22.3164 639.812 22.3984 639.219 22.3984C637.93 22.3984 636.883 22.0586 636.078 21.3789C635.273 20.6914 634.871 19.9336 634.871 19.1055C634.871 18.0977 635.383 17.1641 636.406 16.3047C637.438 15.4375 638.859 15.0039 640.672 15.0039C641.398 15.0039 642.238 15.082 643.191 15.2383V14.6641C643.191 14.3047 643.035 14.0117 642.723 13.7852C642.418 13.5586 641.832 13.4453 640.965 13.4453C640.254 13.4453 639.332 13.5859 638.199 13.8672C637.777 13.9688 637.449 14.0195 637.215 14.0195C636.895 14.0195 636.621 13.9062 636.395 13.6797C636.176 13.4453 636.066 13.1484 636.066 12.7891C636.066 12.5859 636.105 12.4102 636.184 12.2617C636.262 12.1133 636.371 11.9961 636.512 11.9102C636.652 11.8164 636.945 11.707 637.391 11.582C637.984 11.418 638.59 11.2891 639.207 11.1953C639.824 11.0938 640.383 11.043 640.883 11.043C642.375 11.043 643.531 11.3672 644.352 12.0156C645.18 12.6562 645.594 13.5352 645.594 14.6523V19.5977H646.004C646.582 19.5977 646.992 19.7109 647.234 19.9375C647.484 20.1562 647.609 20.4453 647.609 20.8047C647.609 21.1562 647.484 21.4453 647.234 21.6719C646.992 21.8906 646.582 22 646.004 22H643.191ZM643.191 17.6992C642.23 17.5117 641.344 17.418 640.531 17.418C639.555 17.418 638.715 17.6562 638.012 18.1328C637.574 18.4375 637.355 18.7461 637.355 19.0586C637.355 19.2852 637.461 19.4688 637.672 19.6094C638.062 19.8672 638.598 19.9961 639.277 19.9961C639.855 19.9961 640.508 19.8828 641.234 19.6562C641.969 19.4297 642.621 19.1211 643.191 18.7305V17.6992ZM656.645 6.80078V19.5977H659.527C660.105 19.5977 660.516 19.7109 660.758 19.9375C661.008 20.1562 661.133 20.4453 661.133 20.8047C661.133 21.1562 661.008 21.4453 660.758 21.6719C660.516 21.8906 660.105 22 659.527 22H651.359C650.781 22 650.367 21.8906 650.117 21.6719C649.875 21.4453 649.754 21.1523 649.754 20.793C649.754 20.4414 649.875 20.1562 650.117 19.9375C650.367 19.7109 650.781 19.5977 651.359 19.5977H654.242V9.20312H652.309C651.738 9.20312 651.328 9.09375 651.078 8.875C650.828 8.64844 650.703 8.35547 650.703 7.99609C650.703 7.64453 650.824 7.35938 651.066 7.14062C651.316 6.91406 651.73 6.80078 652.309 6.80078H656.645ZM671.059 6.80078V19.5977H673.941C674.52 19.5977 674.93 19.7109 675.172 19.9375C675.422 20.1562 675.547 20.4453 675.547 20.8047C675.547 21.1562 675.422 21.4453 675.172 21.6719C674.93 21.8906 674.52 22 673.941 22H665.773C665.195 22 664.781 21.8906 664.531 21.6719C664.289 21.4453 664.168 21.1523 664.168 20.793C664.168 20.4414 664.289 20.1562 664.531 19.9375C664.781 19.7109 665.195 19.5977 665.773 19.5977H668.656V9.20312H666.723C666.152 9.20312 665.742 9.09375 665.492 8.875C665.242 8.64844 665.117 8.35547 665.117 7.99609C665.117 7.64453 665.238 7.35938 665.48 7.14062C665.73 6.91406 666.145 6.80078 666.723 6.80078H671.059ZM690.301 17.8984H680.445C680.695 18.5234 681.137 19.0273 681.77 19.4102C682.41 19.793 683.273 19.9844 684.359 19.9844C685.25 19.9844 686.434 19.793 687.91 19.4102C688.52 19.2539 688.941 19.1758 689.176 19.1758C689.496 19.1758 689.766 19.2891 689.984 19.5156C690.203 19.7422 690.312 20.0273 690.312 20.3711C690.312 20.6836 690.195 20.9492 689.961 21.168C689.648 21.457 688.887 21.7344 687.676 22C686.465 22.2578 685.301 22.3867 684.184 22.3867C682.262 22.3867 680.723 21.8438 679.566 20.7578C678.418 19.6719 677.844 18.3359 677.844 16.75C677.844 15.0625 678.465 13.6914 679.707 12.6367C680.957 11.5742 682.395 11.043 684.02 11.043C684.996 11.043 685.891 11.2148 686.703 11.5586C687.523 11.9023 688.133 12.2734 688.531 12.6719C689.094 13.25 689.559 13.9648 689.926 14.8164C690.176 15.4102 690.301 16.0977 690.301 16.8789V17.8984ZM687.641 15.4961C687.273 14.8086 686.793 14.2969 686.199 13.9609C685.605 13.6172 684.898 13.4453 684.078 13.4453C683.266 13.4453 682.562 13.6172 681.969 13.9609C681.375 14.2969 680.891 14.8086 680.516 15.4961H687.641ZM696.254 11.3594V12.168C696.691 11.793 697.172 11.5117 697.695 11.3242C698.227 11.1367 698.801 11.043 699.418 11.043C700.84 11.043 701.965 11.4844 702.793 12.3672C703.449 13.0703 703.777 13.9922 703.777 15.1328V19.5977C704.285 19.5977 704.66 19.7109 704.902 19.9375C705.145 20.1562 705.266 20.4453 705.266 20.8047C705.266 21.1562 705.141 21.4453 704.891 21.6719C704.648 21.8906 704.238 22 703.66 22H701.492C700.914 22 700.5 21.8906 700.25 21.6719C700.008 21.4453 699.887 21.1523 699.887 20.793C699.887 20.4414 700.008 20.1562 700.25 19.9375C700.492 19.7109 700.867 19.5977 701.375 19.5977V15.0625C701.375 14.5391 701.234 14.1562 700.953 13.9141C700.586 13.6016 700.035 13.4453 699.301 13.4453C698.746 13.4453 698.258 13.5547 697.836 13.7734C697.422 13.9844 696.895 14.4375 696.254 15.1328V19.5977C696.871 19.5977 697.27 19.6562 697.449 19.7734C697.832 20.0078 698.023 20.3516 698.023 20.8047C698.023 21.1562 697.898 21.4453 697.648 21.6719C697.406 21.8906 696.996 22 696.418 22H693.688C693.109 22 692.695 21.8906 692.445 21.6719C692.203 21.4453 692.082 21.1523 692.082 20.793C692.082 20.3555 692.27 20.0156 692.645 19.7734C692.832 19.6562 693.234 19.5977 693.852 19.5977V13.7617C693.344 13.7617 692.969 13.6484 692.727 13.4219C692.484 13.1953 692.363 12.9062 692.363 12.5547C692.363 12.2031 692.484 11.918 692.727 11.6992C692.977 11.4727 693.391 11.3594 693.969 11.3594H696.254ZM715.742 12.0742V11.3594H718.555C719.133 11.3594 719.543 11.4727 719.785 11.6992C720.035 11.918 720.16 12.207 720.16 12.5664C720.16 12.918 720.035 13.207 719.785 13.4336C719.543 13.6523 719.133 13.7617 718.555 13.7617H718.145V22.5039C718.145 23.3477 717.965 24.082 717.605 24.707C717.254 25.3398 716.711 25.8828 715.977 26.3359C715.242 26.7891 714.414 27.0156 713.492 27.0156H710.773C710.195 27.0156 709.781 26.9023 709.531 26.6758C709.289 26.457 709.168 26.1719 709.168 25.8203C709.168 25.4609 709.289 25.168 709.531 24.9414C709.781 24.7227 710.195 24.6133 710.773 24.6133H713.422C714.156 24.6133 714.727 24.4141 715.133 24.0156C715.539 23.6172 715.742 23.1133 715.742 22.5039V21.332C715.211 21.6758 714.668 21.9336 714.113 22.1055C713.566 22.2773 713.004 22.3633 712.426 22.3633C710.793 22.3633 709.426 21.8203 708.324 20.7344C707.223 19.6406 706.672 18.293 706.672 16.6914C706.672 15.082 707.223 13.7344 708.324 12.6484C709.426 11.5547 710.793 11.0078 712.426 11.0078C713.035 11.0078 713.613 11.0977 714.16 11.2773C714.715 11.4492 715.242 11.7148 715.742 12.0742ZM715.73 16.6797C715.73 15.7969 715.402 15.0312 714.746 14.3828C714.098 13.7344 713.316 13.4102 712.402 13.4102C711.488 13.4102 710.703 13.7344 710.047 14.3828C709.398 15.0312 709.074 15.7969 709.074 16.6797C709.074 17.5703 709.398 18.3398 710.047 18.9883C710.703 19.6289 711.488 19.9492 712.402 19.9492C713.316 19.9492 714.098 19.6289 714.746 18.9883C715.402 18.3398 715.73 17.5703 715.73 16.6797ZM733.543 17.8984H723.688C723.938 18.5234 724.379 19.0273 725.012 19.4102C725.652 19.793 726.516 19.9844 727.602 19.9844C728.492 19.9844 729.676 19.793 731.152 19.4102C731.762 19.2539 732.184 19.1758 732.418 19.1758C732.738 19.1758 733.008 19.2891 733.227 19.5156C733.445 19.7422 733.555 20.0273 733.555 20.3711C733.555 20.6836 733.438 20.9492 733.203 21.168C732.891 21.457 732.129 21.7344 730.918 22C729.707 22.2578 728.543 22.3867 727.426 22.3867C725.504 22.3867 723.965 21.8438 722.809 20.7578C721.66 19.6719 721.086 18.3359 721.086 16.75C721.086 15.0625 721.707 13.6914 722.949 12.6367C724.199 11.5742 725.637 11.043 727.262 11.043C728.238 11.043 729.133 11.2148 729.945 11.5586C730.766 11.9023 731.375 12.2734 731.773 12.6719C732.336 13.25 732.801 13.9648 733.168 14.8164C733.418 15.4102 733.543 16.0977 733.543 16.8789V17.8984ZM730.883 15.4961C730.516 14.8086 730.035 14.2969 729.441 13.9609C728.848 13.6172 728.141 13.4453 727.32 13.4453C726.508 13.4453 725.805 13.6172 725.211 13.9609C724.617 14.2969 724.133 14.8086 723.758 15.4961H730.883ZM759.887 11.1836H760.449C761.027 11.1836 761.438 11.2969 761.68 11.5234C761.93 11.7422 762.055 12.0312 762.055 12.3906C762.055 12.7422 761.934 13.0312 761.691 13.2578C761.449 13.4766 761.039 13.5859 760.461 13.5859H759.711L759.535 16.2109H759.957C760.535 16.2109 760.945 16.3242 761.188 16.5508C761.438 16.7695 761.562 17.0586 761.562 17.418C761.562 17.7695 761.441 18.0586 761.199 18.2852C760.957 18.5039 760.547 18.6133 759.969 18.6133H759.359L759.078 22.7383C759.07 22.8008 759.012 23.0781 758.902 23.5703C758.824 23.7578 758.684 23.918 758.48 24.0508C758.277 24.1836 758.062 24.25 757.836 24.25C757.516 24.25 757.238 24.1289 757.004 23.8867C756.777 23.6523 756.664 23.3555 756.664 22.9961C756.664 22.9336 756.672 22.7852 756.688 22.5508L756.969 18.6133H755.176L754.895 22.7266C754.863 23.1406 754.832 23.3867 754.801 23.4648C754.715 23.6992 754.566 23.8867 754.355 24.0273C754.152 24.1758 753.926 24.25 753.676 24.25C753.332 24.25 753.043 24.1328 752.809 23.8984C752.582 23.6641 752.469 23.3633 752.469 22.9961C752.469 22.9102 752.477 22.7656 752.492 22.5625L752.762 18.6133H752.176C751.598 18.6133 751.184 18.5039 750.934 18.2852C750.691 18.0586 750.57 17.7656 750.57 17.4062C750.57 17.0547 750.691 16.7695 750.934 16.5508C751.184 16.3242 751.598 16.2109 752.176 16.2109H752.938L753.113 13.5859H752.68C752.102 13.5859 751.688 13.4766 751.438 13.2578C751.195 13.0312 751.074 12.7383 751.074 12.3789C751.074 12.0273 751.195 11.7422 751.438 11.5234C751.688 11.2969 752.098 11.1836 752.668 11.1836H753.289L753.57 7.05859C753.602 6.65234 753.637 6.39844 753.676 6.29688C753.762 6.07031 753.906 5.88672 754.109 5.74609C754.32 5.60547 754.551 5.53516 754.801 5.53516C755.129 5.53516 755.41 5.65234 755.645 5.88672C755.879 6.12109 755.996 6.43359 755.996 6.82422C755.996 6.91797 755.988 7.05469 755.973 7.23438L755.703 11.1836H757.484L757.766 7.05859C757.797 6.49609 757.922 6.10156 758.141 5.875C758.367 5.64844 758.652 5.53516 758.996 5.53516C759.332 5.53516 759.617 5.65625 759.852 5.89844C760.086 6.13281 760.203 6.42188 760.203 6.76562C760.203 6.84375 760.199 6.91016 760.191 6.96484L760.156 7.23438L759.887 11.1836ZM757.309 13.5859H755.527L755.352 16.2109H757.133L757.309 13.5859ZM768.512 19.5977H773.773C774.062 19.3633 774.336 19.2461 774.594 19.2461C774.961 19.2461 775.25 19.3672 775.461 19.6094C775.68 19.8516 775.789 20.2656 775.789 20.8516V22H764.844V19.457C769.172 15.8867 771.785 13.5898 772.684 12.5664C773.137 12.043 773.363 11.5469 773.363 11.0781C773.363 10.4922 773.105 9.97656 772.59 9.53125C772.082 9.07812 771.402 8.85156 770.551 8.85156C769.691 8.85156 768.977 9.10156 768.406 9.60156C768.109 9.86719 767.871 10.2617 767.691 10.7852C767.582 11.1133 767.43 11.3477 767.234 11.4883C767.047 11.6289 766.812 11.6992 766.531 11.6992C766.203 11.6992 765.918 11.582 765.676 11.3477C765.441 11.1133 765.324 10.8398 765.324 10.5273C765.324 10.0586 765.539 9.47266 765.969 8.76953C766.406 8.06641 767.039 7.50391 767.867 7.08203C768.703 6.66016 769.609 6.44922 770.586 6.44922C772.102 6.44922 773.344 6.91016 774.312 7.83203C775.281 8.74609 775.766 9.85547 775.766 11.1602C775.766 11.8242 775.625 12.4414 775.344 13.0117C775.07 13.5742 774.406 14.3555 773.352 15.3555C772.523 16.1445 770.91 17.5586 768.512 19.5977Z" fill="white"/>
<path d="M973.828 188.598V179.199C973.32 179.191 972.945 179.078 972.703 178.859C972.461 178.633 972.34 178.344 972.34 177.992C972.34 177.633 972.461 177.344 972.703 177.125C972.953 176.898 973.367 176.785 973.945 176.785L978.973 176.797C979.754 176.797 980.516 176.941 981.258 177.23C982.008 177.52 982.609 177.887 983.062 178.332C983.406 178.668 983.762 179.129 984.129 179.715C984.504 180.301 984.785 180.883 984.973 181.461C985.16 182.039 985.254 182.746 985.254 183.582V184.73C985.254 185.746 985.082 186.648 984.738 187.438C984.395 188.219 983.941 188.859 983.379 189.359C982.824 189.852 982.301 190.215 981.809 190.449C981.027 190.816 980.016 191 978.773 191H973.945C973.367 191 972.953 190.891 972.703 190.672C972.461 190.445 972.34 190.152 972.34 189.793C972.34 189.441 972.461 189.152 972.703 188.926C972.953 188.699 973.328 188.59 973.828 188.598ZM976.23 188.598H978.785C979.738 188.598 980.457 188.461 980.941 188.188C981.574 187.828 982.051 187.371 982.371 186.816C982.691 186.262 982.852 185.543 982.852 184.66V183.523C982.852 182.766 982.707 182.102 982.418 181.531C981.965 180.641 981.453 180.031 980.883 179.703C980.32 179.367 979.613 179.199 978.762 179.199H976.23V188.598ZM994.477 175.801V178.344H991.617V175.801H994.477ZM994.805 180.359V188.598H997.688C998.266 188.598 998.676 188.711 998.918 188.938C999.168 189.156 999.293 189.445 999.293 189.805C999.293 190.156 999.168 190.445 998.918 190.672C998.676 190.891 998.266 191 997.688 191H989.52C988.941 191 988.527 190.891 988.277 190.672C988.035 190.445 987.914 190.152 987.914 189.793C987.914 189.441 988.035 189.156 988.277 188.938C988.527 188.711 988.941 188.598 989.52 188.598H992.402V182.762H990.469C989.898 182.762 989.488 182.652 989.238 182.434C988.988 182.207 988.863 181.914 988.863 181.555C988.863 181.203 988.984 180.918 989.227 180.699C989.477 180.473 989.891 180.359 990.469 180.359H994.805ZM1005.6 180.359V181.168C1006.04 180.793 1006.52 180.512 1007.04 180.324C1007.57 180.137 1008.14 180.043 1008.76 180.043C1010.18 180.043 1011.31 180.484 1012.14 181.367C1012.79 182.07 1013.12 182.992 1013.12 184.133V188.598C1013.63 188.598 1014 188.711 1014.25 188.938C1014.49 189.156 1014.61 189.445 1014.61 189.805C1014.61 190.156 1014.48 190.445 1014.23 190.672C1013.99 190.891 1013.58 191 1013 191H1010.84C1010.26 191 1009.84 190.891 1009.59 190.672C1009.35 190.445 1009.23 190.152 1009.23 189.793C1009.23 189.441 1009.35 189.156 1009.59 188.938C1009.84 188.711 1010.21 188.598 1010.72 188.598V184.062C1010.72 183.539 1010.58 183.156 1010.3 182.914C1009.93 182.602 1009.38 182.445 1008.64 182.445C1008.09 182.445 1007.6 182.555 1007.18 182.773C1006.77 182.984 1006.24 183.438 1005.6 184.133V188.598C1006.21 188.598 1006.61 188.656 1006.79 188.773C1007.18 189.008 1007.37 189.352 1007.37 189.805C1007.37 190.156 1007.24 190.445 1006.99 190.672C1006.75 190.891 1006.34 191 1005.76 191H1003.03C1002.45 191 1002.04 190.891 1001.79 190.672C1001.55 190.445 1001.43 190.152 1001.43 189.793C1001.43 189.355 1001.61 189.016 1001.99 188.773C1002.18 188.656 1002.58 188.598 1003.2 188.598V182.762C1002.69 182.762 1002.31 182.648 1002.07 182.422C1001.83 182.195 1001.71 181.906 1001.71 181.555C1001.71 181.203 1001.83 180.918 1002.07 180.699C1002.32 180.473 1002.73 180.359 1003.31 180.359H1005.6ZM1020.01 180.359V181.168C1020.45 180.793 1020.93 180.512 1021.45 180.324C1021.98 180.137 1022.56 180.043 1023.18 180.043C1024.6 180.043 1025.72 180.484 1026.55 181.367C1027.21 182.07 1027.54 182.992 1027.54 184.133V188.598C1028.04 188.598 1028.42 188.711 1028.66 188.938C1028.9 189.156 1029.02 189.445 1029.02 189.805C1029.02 190.156 1028.9 190.445 1028.65 190.672C1028.41 190.891 1028 191 1027.42 191H1025.25C1024.67 191 1024.26 190.891 1024.01 190.672C1023.77 190.445 1023.64 190.152 1023.64 189.793C1023.64 189.441 1023.77 189.156 1024.01 188.938C1024.25 188.711 1024.62 188.598 1025.13 188.598V184.062C1025.13 183.539 1024.99 183.156 1024.71 182.914C1024.34 182.602 1023.79 182.445 1023.06 182.445C1022.5 182.445 1022.02 182.555 1021.59 182.773C1021.18 182.984 1020.65 183.438 1020.01 184.133V188.598C1020.63 188.598 1021.03 188.656 1021.21 188.773C1021.59 189.008 1021.78 189.352 1021.78 189.805C1021.78 190.156 1021.66 190.445 1021.41 190.672C1021.16 190.891 1020.75 191 1020.18 191H1017.45C1016.87 191 1016.45 190.891 1016.2 190.672C1015.96 190.445 1015.84 190.152 1015.84 189.793C1015.84 189.355 1016.03 189.016 1016.4 188.773C1016.59 188.656 1016.99 188.598 1017.61 188.598V182.762C1017.1 182.762 1016.73 182.648 1016.48 182.422C1016.24 182.195 1016.12 181.906 1016.12 181.555C1016.12 181.203 1016.24 180.918 1016.48 180.699C1016.73 180.473 1017.15 180.359 1017.73 180.359H1020.01ZM1042.89 186.898H1033.03C1033.28 187.523 1033.72 188.027 1034.36 188.41C1035 188.793 1035.86 188.984 1036.95 188.984C1037.84 188.984 1039.02 188.793 1040.5 188.41C1041.11 188.254 1041.53 188.176 1041.76 188.176C1042.08 188.176 1042.35 188.289 1042.57 188.516C1042.79 188.742 1042.9 189.027 1042.9 189.371C1042.9 189.684 1042.78 189.949 1042.55 190.168C1042.23 190.457 1041.47 190.734 1040.26 191C1039.05 191.258 1037.89 191.387 1036.77 191.387C1034.85 191.387 1033.31 190.844 1032.15 189.758C1031 188.672 1030.43 187.336 1030.43 185.75C1030.43 184.062 1031.05 182.691 1032.29 181.637C1033.54 180.574 1034.98 180.043 1036.61 180.043C1037.58 180.043 1038.48 180.215 1039.29 180.559C1040.11 180.902 1040.72 181.273 1041.12 181.672C1041.68 182.25 1042.14 182.965 1042.51 183.816C1042.76 184.41 1042.89 185.098 1042.89 185.879V186.898ZM1040.23 184.496C1039.86 183.809 1039.38 183.297 1038.79 182.961C1038.19 182.617 1037.48 182.445 1036.66 182.445C1035.85 182.445 1035.15 182.617 1034.55 182.961C1033.96 183.297 1033.48 183.809 1033.1 184.496H1040.23ZM1050.77 180.359V181.859C1051.78 181.133 1052.57 180.648 1053.15 180.406C1053.74 180.164 1054.29 180.043 1054.79 180.043C1055.57 180.043 1056.33 180.332 1057.07 180.91C1057.57 181.301 1057.82 181.699 1057.82 182.105C1057.82 182.449 1057.7 182.742 1057.45 182.984C1057.22 183.219 1056.93 183.336 1056.6 183.336C1056.3 183.336 1055.99 183.188 1055.66 182.891C1055.33 182.594 1055.04 182.445 1054.78 182.445C1054.45 182.445 1053.94 182.656 1053.27 183.078C1052.61 183.5 1051.77 184.133 1050.77 184.977V188.598H1054.2C1054.77 188.598 1055.18 188.711 1055.43 188.938C1055.68 189.156 1055.8 189.445 1055.8 189.805C1055.8 190.156 1055.68 190.445 1055.43 190.672C1055.18 190.891 1054.77 191 1054.2 191H1046.94C1046.36 191 1045.95 190.891 1045.7 190.672C1045.46 190.445 1045.34 190.152 1045.34 189.793C1045.34 189.441 1045.46 189.156 1045.7 188.938C1045.95 188.711 1046.36 188.598 1046.94 188.598H1048.37V182.762H1047.5C1046.93 182.762 1046.51 182.652 1046.26 182.434C1046.02 182.207 1045.9 181.914 1045.9 181.555C1045.9 181.203 1046.02 180.918 1046.26 180.699C1046.51 180.473 1046.93 180.359 1047.5 180.359H1050.77Z" fill="white"/>
<path d="M3.576 155.264V153.224H1.464V149.936H4.512V152H9.936V149.096H3.576V147.056H1.464V141.752H3.576V139.688H10.872V141.752H13.008V153.224H10.872V155.264H3.576ZM4.512 145.856H9.936V142.976H4.512V145.856ZM15.9249 153.152V149.864H18.9729V153.152H15.9249ZM15.9249 149.12V145.856H18.9729V149.12H15.9249ZM24.0135 155.264V153.224H21.9015V141.752H24.0135V139.688H31.3095V141.752H33.4455V153.224H31.3095V155.264H24.0135ZM24.9495 152H30.3735V142.976H24.9495V152ZM38.4744 155.264V153.224H36.3624V141.752H38.4744V139.688H45.7704V141.752H47.9064V153.224H45.7704V155.264H38.4744ZM39.4104 152H44.8344V142.976H39.4104V152ZM50.8234 155.264V143.792H52.9354V141.752H55.0474V139.688H58.1194V141.752H60.2314V143.792H62.3674V155.264H59.2954V151.16H53.8714V155.264H50.8234ZM53.8714 147.872H59.2954V145.016H57.1834V142.976H55.9834V145.016H53.8714V147.872ZM65.2843 155.264V141.752H67.3963V139.688H70.4443V141.752H72.5803V145.856H73.7563V141.752H75.8923V139.688H78.9643V141.752H81.0523V155.264H78.0283V142.976H76.8283V147.056H74.6923V153.224H71.6443V147.056H69.5083V142.976H68.3323V155.264H65.2843Z" fill="#00FF00"/>
<path d="M313.688 83.264V70.976H312.512V73.016H309.464V69.752H311.576V67.688H314.624V69.752H316.76V83.264H313.688ZM321.795 83.264V81.224H319.683V75.872H321.795V73.856H328.155V70.976H322.731V73.016H319.683V69.752H321.795V67.688H329.091V69.752H331.227V75.056H329.091V77.096H322.731V80H328.155V77.936H331.227V81.224H329.091V83.264H321.795ZM334.144 81.152V77.864H337.192V81.152H334.144ZM334.144 77.12V73.856H337.192V77.12H334.144ZM342.232 83.264V81.224H340.12V77.936H343.168V80H348.592V77.096H342.232V73.856H348.592V70.976H343.168V73.016H340.12V69.752H342.232V67.688H349.528V69.752H351.664V75.056H349.528V75.872H351.664V81.224H349.528V83.264H342.232ZM356.693 83.264V81.224H354.581V69.752H356.693V67.688H363.989V69.752H366.125V81.224H363.989V83.264H356.693ZM357.629 80H363.053V70.976H357.629V80ZM369.042 83.264V69.752H371.154V67.688H378.45V69.752H380.586V77.096H378.45V79.16H372.09V83.264H369.042ZM372.09 75.872H377.514V70.976H372.09V75.872ZM383.503 83.264V69.752H385.615V67.688H388.663V69.752H390.799V73.856H391.975V69.752H394.111V67.688H397.183V69.752H399.271V83.264H396.247V70.976H395.047V75.056H392.911V81.224H389.863V75.056H387.727V70.976H386.551V83.264H383.503Z" fill="#00FF00"/>
<path d="M528.576 155.264V153.224H526.464V147.872H528.576V145.856H534.936V142.976H529.512V145.016H526.464V141.752H528.576V139.688H535.872V141.752H538.008V147.056H535.872V149.096H529.512V152H534.936V149.936H538.008V153.224H535.872V155.264H528.576ZM540.925 153.152V149.864H543.973V153.152H540.925ZM540.925 149.12V145.856H543.973V149.12H540.925ZM549.014 155.264V153.224H546.902V149.936H549.95V152H555.374V149.096H549.014V145.856H555.374V142.976H549.95V145.016H546.902V141.752H549.014V139.688H556.31V141.752H558.446V147.056H556.31V147.872H558.446V153.224H556.31V155.264H549.014ZM563.474 155.264V153.224H561.362V141.752H563.474V139.688H570.77V141.752H572.906V153.224H570.77V155.264H563.474ZM564.41 152H569.834V142.976H564.41V152ZM575.823 155.264V141.752H577.935V139.688H585.231V141.752H587.367V149.096H585.231V151.16H578.871V155.264H575.823ZM578.871 147.872H584.295V142.976H578.871V147.872ZM590.284 155.264V141.752H592.396V139.688H595.444V141.752H597.58V145.856H598.756V141.752H600.892V139.688H603.964V141.752H606.052V155.264H603.028V142.976H601.828V147.056H599.692V153.224H596.644V147.056H594.508V142.976H593.332V155.264H590.284Z" fill="#00FF00"/>
<path d="M884.576 83.264V81.224H882.464V69.752H884.576V67.688H891.872V69.752H894.008V73.016H890.936V70.976H885.512V73.856H891.872V75.872H894.008V81.224H891.872V83.264H884.576ZM885.512 80H890.936V77.096H885.512V80ZM896.925 81.152V77.864H899.973V81.152H896.925ZM896.925 77.12V73.856H899.973V77.12H896.925ZM905.014 83.264V81.224H902.902V69.752H905.014V67.688H912.31V69.752H914.446V81.224H912.31V83.264H905.014ZM905.95 80H911.374V70.976H905.95V80ZM919.474 83.264V81.224H917.362V69.752H919.474V67.688H926.77V69.752H928.906V81.224H926.77V83.264H919.474ZM920.41 80H925.834V70.976H920.41V80ZM931.823 83.264V69.752H933.935V67.688H941.231V69.752H943.367V77.096H941.231V79.16H934.871V83.264H931.823ZM934.871 75.872H940.295V70.976H934.871V75.872ZM946.284 83.264V69.752H948.396V67.688H951.444V69.752H953.58V73.856H954.756V69.752H956.892V67.688H959.964V69.752H962.052V83.264H959.028V70.976H957.828V75.056H955.692V81.224H952.644V75.056H950.508V70.976H949.332V83.264H946.284Z" fill="#00FF00"/>
<path d="M401.211 225.016L403.707 213.273H402.383C402.164 213.273 402.016 213.242 401.938 213.18C401.859 213.109 401.82 213.008 401.82 212.875C401.82 212.719 401.883 212.582 402.008 212.465C402.141 212.348 402.336 212.289 402.594 212.289H408.781C409.859 212.289 410.703 212.57 411.312 213.133C411.93 213.688 412.238 214.363 412.238 215.16C412.238 215.91 412.02 216.586 411.582 217.188C411.145 217.781 410.488 218.305 409.613 218.758C410.426 219.07 411.012 219.469 411.371 219.953C411.73 220.43 411.91 220.965 411.91 221.559C411.91 222.137 411.75 222.727 411.43 223.328C411.117 223.922 410.738 224.406 410.293 224.781C409.848 225.148 409.281 225.465 408.594 225.73C408.125 225.91 407.605 226 407.035 226H399.676C399.457 226 399.309 225.965 399.23 225.895C399.152 225.824 399.113 225.727 399.113 225.602C399.113 225.445 399.176 225.309 399.301 225.191C399.434 225.074 399.629 225.016 399.887 225.016H401.211ZM403.602 218.383H407.082C407.848 218.383 408.559 218.246 409.215 217.973C409.871 217.691 410.371 217.297 410.715 216.789C411.059 216.281 411.23 215.812 411.23 215.383C411.23 214.812 410.996 214.32 410.527 213.906C410.066 213.484 409.418 213.273 408.582 213.273H404.691L403.602 218.383ZM402.195 225.016H407.176C407.832 225.016 408.449 224.855 409.027 224.535C409.613 224.207 410.07 223.785 410.398 223.27C410.727 222.754 410.891 222.266 410.891 221.805C410.891 221.031 410.555 220.434 409.883 220.012C409.219 219.59 408.234 219.379 406.93 219.379H403.391L402.195 225.016ZM422.984 226L423.289 224.559C421.688 225.777 420.094 226.387 418.508 226.387C417.727 226.387 417.105 226.164 416.645 225.719C416.191 225.266 415.965 224.691 415.965 223.996C415.965 223.746 415.996 223.48 416.059 223.199L417.406 216.848H416.082C415.863 216.848 415.715 216.812 415.637 216.742C415.559 216.672 415.52 216.574 415.52 216.449C415.52 216.293 415.582 216.156 415.707 216.039C415.84 215.914 416.035 215.852 416.293 215.852H418.602L417.043 223.199C417.012 223.363 416.996 223.531 416.996 223.703C416.996 224.219 417.148 224.633 417.453 224.945C417.758 225.25 418.172 225.402 418.695 225.402C420.312 225.402 421.941 224.668 423.582 223.199L424.93 216.848H423.113C422.895 216.848 422.746 216.812 422.668 216.742C422.59 216.672 422.551 216.574 422.551 216.449C422.551 216.293 422.613 216.156 422.738 216.039C422.871 215.914 423.066 215.852 423.324 215.852H426.125L424.18 225.016H425.012C425.23 225.016 425.379 225.051 425.457 225.121C425.535 225.184 425.574 225.277 425.574 225.402C425.574 225.566 425.508 225.707 425.375 225.824C425.25 225.941 425.059 226 424.801 226H422.984ZM437.738 210.801L437.199 213.344H435.758L436.297 210.801H437.738ZM436.707 215.852L434.762 225.016H438.629C438.848 225.016 438.996 225.051 439.074 225.121C439.152 225.184 439.191 225.277 439.191 225.402C439.191 225.566 439.125 225.707 438.992 225.824C438.867 225.941 438.676 226 438.418 226H429.699C429.48 226 429.332 225.965 429.254 225.895C429.176 225.824 429.137 225.727 429.137 225.602C429.137 225.445 429.199 225.309 429.324 225.191C429.457 225.074 429.652 225.016 429.91 225.016H433.777L435.512 216.848H432.641C432.422 216.848 432.27 216.812 432.184 216.742C432.105 216.672 432.066 216.574 432.066 216.449C432.066 216.293 432.133 216.156 432.266 216.039C432.398 215.914 432.594 215.852 432.852 215.852H436.707ZM452.082 211.293L449.164 225.016H453.031C453.25 225.016 453.398 225.051 453.477 225.121C453.555 225.184 453.594 225.277 453.594 225.402C453.594 225.566 453.527 225.707 453.395 225.824C453.27 225.941 453.078 226 452.82 226H444.102C443.883 226 443.734 225.965 443.656 225.895C443.578 225.824 443.539 225.727 443.539 225.602C443.539 225.445 443.602 225.309 443.727 225.191C443.859 225.074 444.055 225.016 444.312 225.016H448.18L450.887 212.289H448.039C447.82 212.289 447.672 212.254 447.594 212.184C447.516 212.113 447.477 212.016 447.477 211.891C447.477 211.734 447.539 211.598 447.664 211.48C447.797 211.355 447.992 211.293 448.25 211.293H452.082ZM470.797 211.293L467.879 225.016H469.203C469.422 225.016 469.57 225.051 469.648 225.121C469.727 225.184 469.766 225.277 469.766 225.402C469.766 225.566 469.699 225.707 469.566 225.824C469.441 225.941 469.25 226 468.992 226H466.672L467.094 224.043C465.625 225.605 463.996 226.387 462.207 226.387C461.02 226.387 460.035 225.988 459.254 225.191C458.473 224.395 458.082 223.355 458.082 222.074C458.082 221.035 458.395 219.98 459.02 218.91C459.652 217.832 460.484 216.996 461.516 216.402C462.547 215.801 463.566 215.5 464.574 215.5C466.293 215.5 467.574 216.281 468.418 217.844L469.59 212.289H468.277C468.059 212.289 467.906 212.254 467.82 212.184C467.742 212.113 467.703 212.016 467.703 211.891C467.703 211.734 467.77 211.598 467.902 211.48C468.035 211.355 468.23 211.293 468.488 211.293H470.797ZM462.488 225.402C463.191 225.402 463.852 225.258 464.469 224.969C465.094 224.672 465.656 224.281 466.156 223.797C466.664 223.305 467.074 222.715 467.387 222.027C467.699 221.34 467.855 220.637 467.855 219.918C467.855 218.934 467.531 218.117 466.883 217.469C466.242 216.82 465.434 216.496 464.457 216.496C463.074 216.496 461.832 217.047 460.73 218.148C459.637 219.25 459.09 220.5 459.09 221.898C459.09 222.93 459.41 223.773 460.051 224.43C460.699 225.078 461.512 225.402 462.488 225.402ZM480.98 210.801L480.441 213.344H479L479.539 210.801H480.98ZM479.949 215.852L478.004 225.016H481.871C482.09 225.016 482.238 225.051 482.316 225.121C482.395 225.184 482.434 225.277 482.434 225.402C482.434 225.566 482.367 225.707 482.234 225.824C482.109 225.941 481.918 226 481.66 226H472.941C472.723 226 472.574 225.965 472.496 225.895C472.418 225.824 472.379 225.727 472.379 225.602C472.379 225.445 472.441 225.309 472.566 225.191C472.699 225.074 472.895 225.016 473.152 225.016H477.02L478.754 216.848H475.883C475.664 216.848 475.512 216.812 475.426 216.742C475.348 216.672 475.309 216.574 475.309 216.449C475.309 216.293 475.375 216.156 475.508 216.039C475.641 215.914 475.836 215.852 476.094 215.852H479.949ZM490.66 215.852L490.344 217.34C491.203 216.629 491.934 216.145 492.535 215.887C493.145 215.629 493.801 215.5 494.504 215.5C495.473 215.5 496.23 215.758 496.777 216.273C497.332 216.789 497.609 217.457 497.609 218.277C497.609 218.434 497.59 218.613 497.551 218.816L496.227 225.016H497.059C497.277 225.016 497.426 225.051 497.504 225.121C497.582 225.184 497.621 225.277 497.621 225.402C497.621 225.566 497.555 225.707 497.422 225.824C497.297 225.941 497.105 226 496.848 226H494.199C493.98 226 493.832 225.965 493.754 225.895C493.676 225.824 493.637 225.727 493.637 225.602C493.637 225.445 493.699 225.309 493.824 225.191C493.957 225.074 494.152 225.016 494.41 225.016H495.242L496.52 218.98C496.559 218.801 496.578 218.629 496.578 218.465C496.578 217.895 496.379 217.426 495.98 217.059C495.582 216.684 495.012 216.496 494.27 216.496C493.59 216.496 492.98 216.633 492.441 216.906C491.91 217.18 491.105 217.824 490.027 218.84L488.715 225.016H489.828C490.047 225.016 490.195 225.051 490.273 225.121C490.352 225.184 490.391 225.277 490.391 225.402C490.391 225.566 490.324 225.707 490.191 225.824C490.066 225.941 489.875 226 489.617 226H486.406C486.188 226 486.039 225.965 485.961 225.895C485.883 225.824 485.844 225.727 485.844 225.602C485.844 225.445 485.906 225.309 486.031 225.191C486.164 225.074 486.359 225.016 486.617 225.016H487.73L489.465 216.848H488.633C488.414 216.848 488.266 216.812 488.188 216.742C488.109 216.672 488.07 216.574 488.07 216.449C488.07 216.293 488.133 216.156 488.258 216.039C488.391 215.914 488.586 215.852 488.844 215.852H490.66ZM511.18 217.656L511.566 215.852H513.875C514.094 215.852 514.238 215.883 514.309 215.945C514.402 216.023 514.449 216.125 514.449 216.25C514.449 216.406 514.383 216.547 514.25 216.672C514.117 216.789 513.922 216.848 513.664 216.848H512.352L510.254 226.68C510.121 227.312 509.867 227.887 509.492 228.402C509.227 228.762 508.824 229.129 508.285 229.504C507.746 229.879 507.289 230.141 506.914 230.289C506.539 230.445 506.047 230.523 505.438 230.523H502.648C502.43 230.523 502.281 230.488 502.203 230.418C502.125 230.348 502.086 230.254 502.086 230.137C502.086 229.973 502.148 229.828 502.273 229.703C502.406 229.586 502.602 229.527 502.859 229.527L505.684 229.539C506.238 229.539 506.777 229.398 507.301 229.117C507.824 228.836 508.309 228.398 508.754 227.805C509.004 227.477 509.184 227.055 509.293 226.539L509.926 223.586C508.559 225.031 507.031 225.754 505.344 225.754C504.211 225.754 503.27 225.375 502.52 224.617C501.77 223.852 501.395 222.871 501.395 221.676C501.395 220.84 501.59 220.039 501.98 219.273C502.371 218.5 502.844 217.852 503.398 217.328C503.953 216.797 504.582 216.359 505.285 216.016C505.996 215.672 506.758 215.5 507.57 215.5C509.234 215.5 510.438 216.219 511.18 217.656ZM505.613 224.758C506.277 224.758 506.902 224.621 507.488 224.348C508.074 224.074 508.602 223.715 509.07 223.27C509.539 222.816 509.918 222.273 510.207 221.641C510.504 221 510.652 220.348 510.652 219.684C510.652 218.77 510.348 218.012 509.738 217.41C509.129 216.801 508.363 216.496 507.441 216.496C506.137 216.496 504.969 217.008 503.938 218.031C502.914 219.055 502.402 220.211 502.402 221.5C502.402 222.453 502.707 223.234 503.316 223.844C503.926 224.453 504.691 224.758 505.613 224.758ZM538.578 211.094L535.625 225.016H539C539.219 225.016 539.367 225.051 539.445 225.121C539.523 225.184 539.562 225.277 539.562 225.402C539.562 225.566 539.496 225.707 539.363 225.824C539.238 225.941 539.047 226 538.789 226H531.055C530.836 226 530.688 225.965 530.609 225.895C530.531 225.824 530.492 225.727 530.492 225.602C530.492 225.445 530.555 225.309 530.68 225.191C530.812 225.074 531.008 225.016 531.266 225.016H534.641L537.301 212.453L533.879 213.461C533.715 213.508 533.594 213.531 533.516 213.531C533.422 213.531 533.34 213.496 533.27 213.426C533.199 213.348 533.164 213.254 533.164 213.145C533.164 213.012 533.207 212.891 533.293 212.781C533.379 212.672 533.543 212.582 533.785 212.512L538.578 211.094ZM547.73 219.777C548.559 218.848 549.34 218.176 550.074 217.762C550.816 217.348 551.582 217.141 552.371 217.141C553.238 217.141 553.973 217.465 554.574 218.113C555.184 218.754 555.488 219.602 555.488 220.656C555.488 221.398 555.312 222.145 554.961 222.895C554.617 223.645 554.199 224.266 553.707 224.758C553.215 225.25 552.676 225.641 552.09 225.93C551.504 226.211 550.867 226.352 550.18 226.352C549.133 226.352 548.277 225.973 547.613 225.215C546.949 224.457 546.617 223.258 546.617 221.617C546.617 219.438 547.07 217.523 547.977 215.875C548.891 214.219 550.215 212.918 551.949 211.973C553.215 211.285 554.465 210.941 555.699 210.941C556.285 210.941 556.777 211.059 557.176 211.293C557.348 211.402 557.434 211.535 557.434 211.691C557.434 211.855 557.375 211.996 557.258 212.113C557.148 212.23 557.02 212.289 556.871 212.289C556.762 212.289 556.645 212.25 556.52 212.172C556.238 212.016 555.859 211.938 555.383 211.938C554.508 211.938 553.59 212.18 552.629 212.664C551.668 213.148 550.805 213.801 550.039 214.621C549.281 215.441 548.711 216.324 548.328 217.27C548.07 217.902 547.871 218.738 547.73 219.777ZM547.613 221.406C547.613 222.836 547.863 223.855 548.363 224.465C548.871 225.066 549.562 225.367 550.438 225.367C551.453 225.367 552.379 224.91 553.215 223.996C554.051 223.082 554.469 222.023 554.469 220.82C554.469 220.016 554.238 219.367 553.777 218.875C553.316 218.375 552.762 218.125 552.113 218.125C551.348 218.125 550.555 218.438 549.734 219.062C549.156 219.5 548.449 220.281 547.613 221.406ZM567.383 218.371C567.984 218.699 568.434 219.102 568.73 219.578C569.035 220.055 569.188 220.609 569.188 221.242C569.188 222.008 568.945 222.801 568.461 223.621C567.977 224.441 567.277 225.102 566.363 225.602C565.457 226.102 564.547 226.352 563.633 226.352C562.586 226.352 561.719 226.02 561.031 225.355C560.344 224.691 560 223.879 560 222.918C560 222.02 560.289 221.16 560.867 220.34C561.445 219.512 562.277 218.855 563.363 218.371C562.809 218.004 562.402 217.617 562.145 217.211C561.895 216.797 561.77 216.297 561.77 215.711C561.77 215.133 561.918 214.555 562.215 213.977C562.512 213.391 562.891 212.883 563.352 212.453C563.82 212.016 564.363 211.656 564.98 211.375C565.605 211.086 566.277 210.941 566.996 210.941C567.996 210.941 568.816 211.258 569.457 211.891C570.105 212.516 570.43 213.293 570.43 214.223C570.43 215.012 570.188 215.766 569.703 216.484C569.219 217.195 568.445 217.824 567.383 218.371ZM565.473 217.879C566.535 217.879 567.453 217.523 568.227 216.812C569.008 216.102 569.398 215.305 569.398 214.422C569.398 213.711 569.152 213.121 568.66 212.652C568.168 212.176 567.535 211.938 566.762 211.938C565.699 211.938 564.766 212.316 563.961 213.074C563.164 213.832 562.766 214.668 562.766 215.582C562.766 216.199 563.016 216.738 563.516 217.199C564.016 217.652 564.668 217.879 565.473 217.879ZM563.879 225.367C565.098 225.367 566.117 224.941 566.938 224.09C567.758 223.238 568.168 222.363 568.168 221.465C568.168 220.73 567.906 220.113 567.383 219.613C566.859 219.105 566.16 218.852 565.285 218.852C564.129 218.852 563.125 219.254 562.273 220.059C561.43 220.855 561.008 221.73 561.008 222.684C561.008 223.449 561.27 224.09 561.793 224.605C562.324 225.113 563.02 225.367 563.879 225.367Z" fill="white"/>
<path d="M974.211 225.016L976.707 213.273H975.383C975.164 213.273 975.016 213.242 974.938 213.18C974.859 213.109 974.82 213.008 974.82 212.875C974.82 212.719 974.883 212.582 975.008 212.465C975.141 212.348 975.336 212.289 975.594 212.289H981.781C982.859 212.289 983.703 212.57 984.312 213.133C984.93 213.688 985.238 214.363 985.238 215.16C985.238 215.91 985.02 216.586 984.582 217.188C984.145 217.781 983.488 218.305 982.613 218.758C983.426 219.07 984.012 219.469 984.371 219.953C984.73 220.43 984.91 220.965 984.91 221.559C984.91 222.137 984.75 222.727 984.43 223.328C984.117 223.922 983.738 224.406 983.293 224.781C982.848 225.148 982.281 225.465 981.594 225.73C981.125 225.91 980.605 226 980.035 226H972.676C972.457 226 972.309 225.965 972.23 225.895C972.152 225.824 972.113 225.727 972.113 225.602C972.113 225.445 972.176 225.309 972.301 225.191C972.434 225.074 972.629 225.016 972.887 225.016H974.211ZM976.602 218.383H980.082C980.848 218.383 981.559 218.246 982.215 217.973C982.871 217.691 983.371 217.297 983.715 216.789C984.059 216.281 984.23 215.812 984.23 215.383C984.23 214.812 983.996 214.32 983.527 213.906C983.066 213.484 982.418 213.273 981.582 213.273H977.691L976.602 218.383ZM975.195 225.016H980.176C980.832 225.016 981.449 224.855 982.027 224.535C982.613 224.207 983.07 223.785 983.398 223.27C983.727 222.754 983.891 222.266 983.891 221.805C983.891 221.031 983.555 220.434 982.883 220.012C982.219 219.59 981.234 219.379 979.93 219.379H976.391L975.195 225.016ZM995.984 226L996.289 224.559C994.688 225.777 993.094 226.387 991.508 226.387C990.727 226.387 990.105 226.164 989.645 225.719C989.191 225.266 988.965 224.691 988.965 223.996C988.965 223.746 988.996 223.48 989.059 223.199L990.406 216.848H989.082C988.863 216.848 988.715 216.812 988.637 216.742C988.559 216.672 988.52 216.574 988.52 216.449C988.52 216.293 988.582 216.156 988.707 216.039C988.84 215.914 989.035 215.852 989.293 215.852H991.602L990.043 223.199C990.012 223.363 989.996 223.531 989.996 223.703C989.996 224.219 990.148 224.633 990.453 224.945C990.758 225.25 991.172 225.402 991.695 225.402C993.312 225.402 994.941 224.668 996.582 223.199L997.93 216.848H996.113C995.895 216.848 995.746 216.812 995.668 216.742C995.59 216.672 995.551 216.574 995.551 216.449C995.551 216.293 995.613 216.156 995.738 216.039C995.871 215.914 996.066 215.852 996.324 215.852H999.125L997.18 225.016H998.012C998.23 225.016 998.379 225.051 998.457 225.121C998.535 225.184 998.574 225.277 998.574 225.402C998.574 225.566 998.508 225.707 998.375 225.824C998.25 225.941 998.059 226 997.801 226H995.984ZM1010.74 210.801L1010.2 213.344H1008.76L1009.3 210.801H1010.74ZM1009.71 215.852L1007.76 225.016H1011.63C1011.85 225.016 1012 225.051 1012.07 225.121C1012.15 225.184 1012.19 225.277 1012.19 225.402C1012.19 225.566 1012.12 225.707 1011.99 225.824C1011.87 225.941 1011.68 226 1011.42 226H1002.7C1002.48 226 1002.33 225.965 1002.25 225.895C1002.18 225.824 1002.14 225.727 1002.14 225.602C1002.14 225.445 1002.2 225.309 1002.32 225.191C1002.46 225.074 1002.65 225.016 1002.91 225.016H1006.78L1008.51 216.848H1005.64C1005.42 216.848 1005.27 216.812 1005.18 216.742C1005.11 216.672 1005.07 216.574 1005.07 216.449C1005.07 216.293 1005.13 216.156 1005.27 216.039C1005.4 215.914 1005.59 215.852 1005.85 215.852H1009.71ZM1025.08 211.293L1022.16 225.016H1026.03C1026.25 225.016 1026.4 225.051 1026.48 225.121C1026.55 225.184 1026.59 225.277 1026.59 225.402C1026.59 225.566 1026.53 225.707 1026.39 225.824C1026.27 225.941 1026.08 226 1025.82 226H1017.1C1016.88 226 1016.73 225.965 1016.66 225.895C1016.58 225.824 1016.54 225.727 1016.54 225.602C1016.54 225.445 1016.6 225.309 1016.73 225.191C1016.86 225.074 1017.05 225.016 1017.31 225.016H1021.18L1023.89 212.289H1021.04C1020.82 212.289 1020.67 212.254 1020.59 212.184C1020.52 212.113 1020.48 212.016 1020.48 211.891C1020.48 211.734 1020.54 211.598 1020.66 211.48C1020.8 211.355 1020.99 211.293 1021.25 211.293H1025.08ZM1043.8 211.293L1040.88 225.016H1042.2C1042.42 225.016 1042.57 225.051 1042.65 225.121C1042.73 225.184 1042.77 225.277 1042.77 225.402C1042.77 225.566 1042.7 225.707 1042.57 225.824C1042.44 225.941 1042.25 226 1041.99 226H1039.67L1040.09 224.043C1038.62 225.605 1037 226.387 1035.21 226.387C1034.02 226.387 1033.04 225.988 1032.25 225.191C1031.47 224.395 1031.08 223.355 1031.08 222.074C1031.08 221.035 1031.39 219.98 1032.02 218.91C1032.65 217.832 1033.48 216.996 1034.52 216.402C1035.55 215.801 1036.57 215.5 1037.57 215.5C1039.29 215.5 1040.57 216.281 1041.42 217.844L1042.59 212.289H1041.28C1041.06 212.289 1040.91 212.254 1040.82 212.184C1040.74 212.113 1040.7 212.016 1040.7 211.891C1040.7 211.734 1040.77 211.598 1040.9 211.48C1041.04 211.355 1041.23 211.293 1041.49 211.293H1043.8ZM1035.49 225.402C1036.19 225.402 1036.85 225.258 1037.47 224.969C1038.09 224.672 1038.66 224.281 1039.16 223.797C1039.66 223.305 1040.07 222.715 1040.39 222.027C1040.7 221.34 1040.86 220.637 1040.86 219.918C1040.86 218.934 1040.53 218.117 1039.88 217.469C1039.24 216.82 1038.43 216.496 1037.46 216.496C1036.07 216.496 1034.83 217.047 1033.73 218.148C1032.64 219.25 1032.09 220.5 1032.09 221.898C1032.09 222.93 1032.41 223.773 1033.05 224.43C1033.7 225.078 1034.51 225.402 1035.49 225.402ZM1053.98 210.801L1053.44 213.344H1052L1052.54 210.801H1053.98ZM1052.95 215.852L1051 225.016H1054.87C1055.09 225.016 1055.24 225.051 1055.32 225.121C1055.39 225.184 1055.43 225.277 1055.43 225.402C1055.43 225.566 1055.37 225.707 1055.23 225.824C1055.11 225.941 1054.92 226 1054.66 226H1045.94C1045.72 226 1045.57 225.965 1045.5 225.895C1045.42 225.824 1045.38 225.727 1045.38 225.602C1045.38 225.445 1045.44 225.309 1045.57 225.191C1045.7 225.074 1045.89 225.016 1046.15 225.016H1050.02L1051.75 216.848H1048.88C1048.66 216.848 1048.51 216.812 1048.43 216.742C1048.35 216.672 1048.31 216.574 1048.31 216.449C1048.31 216.293 1048.38 216.156 1048.51 216.039C1048.64 215.914 1048.84 215.852 1049.09 215.852H1052.95ZM1063.66 215.852L1063.34 217.34C1064.2 216.629 1064.93 216.145 1065.54 215.887C1066.14 215.629 1066.8 215.5 1067.5 215.5C1068.47 215.5 1069.23 215.758 1069.78 216.273C1070.33 216.789 1070.61 217.457 1070.61 218.277C1070.61 218.434 1070.59 218.613 1070.55 218.816L1069.23 225.016H1070.06C1070.28 225.016 1070.43 225.051 1070.5 225.121C1070.58 225.184 1070.62 225.277 1070.62 225.402C1070.62 225.566 1070.55 225.707 1070.42 225.824C1070.3 225.941 1070.11 226 1069.85 226H1067.2C1066.98 226 1066.83 225.965 1066.75 225.895C1066.68 225.824 1066.64 225.727 1066.64 225.602C1066.64 225.445 1066.7 225.309 1066.82 225.191C1066.96 225.074 1067.15 225.016 1067.41 225.016H1068.24L1069.52 218.98C1069.56 218.801 1069.58 218.629 1069.58 218.465C1069.58 217.895 1069.38 217.426 1068.98 217.059C1068.58 216.684 1068.01 216.496 1067.27 216.496C1066.59 216.496 1065.98 216.633 1065.44 216.906C1064.91 217.18 1064.11 217.824 1063.03 218.84L1061.71 225.016H1062.83C1063.05 225.016 1063.2 225.051 1063.27 225.121C1063.35 225.184 1063.39 225.277 1063.39 225.402C1063.39 225.566 1063.32 225.707 1063.19 225.824C1063.07 225.941 1062.88 226 1062.62 226H1059.41C1059.19 226 1059.04 225.965 1058.96 225.895C1058.88 225.824 1058.84 225.727 1058.84 225.602C1058.84 225.445 1058.91 225.309 1059.03 225.191C1059.16 225.074 1059.36 225.016 1059.62 225.016H1060.73L1062.46 216.848H1061.63C1061.41 216.848 1061.27 216.812 1061.19 216.742C1061.11 216.672 1061.07 216.574 1061.07 216.449C1061.07 216.293 1061.13 216.156 1061.26 216.039C1061.39 215.914 1061.59 215.852 1061.84 215.852H1063.66ZM1084.18 217.656L1084.57 215.852H1086.88C1087.09 215.852 1087.24 215.883 1087.31 215.945C1087.4 216.023 1087.45 216.125 1087.45 216.25C1087.45 216.406 1087.38 216.547 1087.25 216.672C1087.12 216.789 1086.92 216.848 1086.66 216.848H1085.35L1083.25 226.68C1083.12 227.312 1082.87 227.887 1082.49 228.402C1082.23 228.762 1081.82 229.129 1081.29 229.504C1080.75 229.879 1080.29 230.141 1079.91 230.289C1079.54 230.445 1079.05 230.523 1078.44 230.523H1075.65C1075.43 230.523 1075.28 230.488 1075.2 230.418C1075.12 230.348 1075.09 230.254 1075.09 230.137C1075.09 229.973 1075.15 229.828 1075.27 229.703C1075.41 229.586 1075.6 229.527 1075.86 229.527L1078.68 229.539C1079.24 229.539 1079.78 229.398 1080.3 229.117C1080.82 228.836 1081.31 228.398 1081.75 227.805C1082 227.477 1082.18 227.055 1082.29 226.539L1082.93 223.586C1081.56 225.031 1080.03 225.754 1078.34 225.754C1077.21 225.754 1076.27 225.375 1075.52 224.617C1074.77 223.852 1074.39 222.871 1074.39 221.676C1074.39 220.84 1074.59 220.039 1074.98 219.273C1075.37 218.5 1075.84 217.852 1076.4 217.328C1076.95 216.797 1077.58 216.359 1078.29 216.016C1079 215.672 1079.76 215.5 1080.57 215.5C1082.23 215.5 1083.44 216.219 1084.18 217.656ZM1078.61 224.758C1079.28 224.758 1079.9 224.621 1080.49 224.348C1081.07 224.074 1081.6 223.715 1082.07 223.27C1082.54 222.816 1082.92 222.273 1083.21 221.641C1083.5 221 1083.65 220.348 1083.65 219.684C1083.65 218.77 1083.35 218.012 1082.74 217.41C1082.13 216.801 1081.36 216.496 1080.44 216.496C1079.14 216.496 1077.97 217.008 1076.94 218.031C1075.91 219.055 1075.4 220.211 1075.4 221.5C1075.4 222.453 1075.71 223.234 1076.32 223.844C1076.93 224.453 1077.69 224.758 1078.61 224.758ZM1111.58 211.094L1108.62 225.016H1112C1112.22 225.016 1112.37 225.051 1112.45 225.121C1112.52 225.184 1112.56 225.277 1112.56 225.402C1112.56 225.566 1112.5 225.707 1112.36 225.824C1112.24 225.941 1112.05 226 1111.79 226H1104.05C1103.84 226 1103.69 225.965 1103.61 225.895C1103.53 225.824 1103.49 225.727 1103.49 225.602C1103.49 225.445 1103.55 225.309 1103.68 225.191C1103.81 225.074 1104.01 225.016 1104.27 225.016H1107.64L1110.3 212.453L1106.88 213.461C1106.71 213.508 1106.59 213.531 1106.52 213.531C1106.42 213.531 1106.34 213.496 1106.27 213.426C1106.2 213.348 1106.16 213.254 1106.16 213.145C1106.16 213.012 1106.21 212.891 1106.29 212.781C1106.38 212.672 1106.54 212.582 1106.79 212.512L1111.58 211.094ZM1120.73 219.777C1121.56 218.848 1122.34 218.176 1123.07 217.762C1123.82 217.348 1124.58 217.141 1125.37 217.141C1126.24 217.141 1126.97 217.465 1127.57 218.113C1128.18 218.754 1128.49 219.602 1128.49 220.656C1128.49 221.398 1128.31 222.145 1127.96 222.895C1127.62 223.645 1127.2 224.266 1126.71 224.758C1126.21 225.25 1125.68 225.641 1125.09 225.93C1124.5 226.211 1123.87 226.352 1123.18 226.352C1122.13 226.352 1121.28 225.973 1120.61 225.215C1119.95 224.457 1119.62 223.258 1119.62 221.617C1119.62 219.438 1120.07 217.523 1120.98 215.875C1121.89 214.219 1123.21 212.918 1124.95 211.973C1126.21 211.285 1127.46 210.941 1128.7 210.941C1129.29 210.941 1129.78 211.059 1130.18 211.293C1130.35 211.402 1130.43 211.535 1130.43 211.691C1130.43 211.855 1130.38 211.996 1130.26 212.113C1130.15 212.23 1130.02 212.289 1129.87 212.289C1129.76 212.289 1129.64 212.25 1129.52 212.172C1129.24 212.016 1128.86 211.938 1128.38 211.938C1127.51 211.938 1126.59 212.18 1125.63 212.664C1124.67 213.148 1123.8 213.801 1123.04 214.621C1122.28 215.441 1121.71 216.324 1121.33 217.27C1121.07 217.902 1120.87 218.738 1120.73 219.777ZM1120.61 221.406C1120.61 222.836 1120.86 223.855 1121.36 224.465C1121.87 225.066 1122.56 225.367 1123.44 225.367C1124.45 225.367 1125.38 224.91 1126.21 223.996C1127.05 223.082 1127.47 222.023 1127.47 220.82C1127.47 220.016 1127.24 219.367 1126.78 218.875C1126.32 218.375 1125.76 218.125 1125.11 218.125C1124.35 218.125 1123.55 218.438 1122.73 219.062C1122.16 219.5 1121.45 220.281 1120.61 221.406ZM1140.38 218.371C1140.98 218.699 1141.43 219.102 1141.73 219.578C1142.04 220.055 1142.19 220.609 1142.19 221.242C1142.19 222.008 1141.95 222.801 1141.46 223.621C1140.98 224.441 1140.28 225.102 1139.36 225.602C1138.46 226.102 1137.55 226.352 1136.63 226.352C1135.59 226.352 1134.72 226.02 1134.03 225.355C1133.34 224.691 1133 223.879 1133 222.918C1133 222.02 1133.29 221.16 1133.87 220.34C1134.45 219.512 1135.28 218.855 1136.36 218.371C1135.81 218.004 1135.4 217.617 1135.14 217.211C1134.89 216.797 1134.77 216.297 1134.77 215.711C1134.77 215.133 1134.92 214.555 1135.21 213.977C1135.51 213.391 1135.89 212.883 1136.35 212.453C1136.82 212.016 1137.36 211.656 1137.98 211.375C1138.61 211.086 1139.28 210.941 1140 210.941C1141 210.941 1141.82 211.258 1142.46 211.891C1143.11 212.516 1143.43 213.293 1143.43 214.223C1143.43 215.012 1143.19 215.766 1142.7 216.484C1142.22 217.195 1141.45 217.824 1140.38 218.371ZM1138.47 217.879C1139.54 217.879 1140.45 217.523 1141.23 216.812C1142.01 216.102 1142.4 215.305 1142.4 214.422C1142.4 213.711 1142.15 213.121 1141.66 212.652C1141.17 212.176 1140.54 211.938 1139.76 211.938C1138.7 211.938 1137.77 212.316 1136.96 213.074C1136.16 213.832 1135.77 214.668 1135.77 215.582C1135.77 216.199 1136.02 216.738 1136.52 217.199C1137.02 217.652 1137.67 217.879 1138.47 217.879ZM1136.88 225.367C1138.1 225.367 1139.12 224.941 1139.94 224.09C1140.76 223.238 1141.17 222.363 1141.17 221.465C1141.17 220.73 1140.91 220.113 1140.38 219.613C1139.86 219.105 1139.16 218.852 1138.29 218.852C1137.13 218.852 1136.12 219.254 1135.27 220.059C1134.43 220.855 1134.01 221.73 1134.01 222.684C1134.01 223.449 1134.27 224.09 1134.79 224.605C1135.32 225.113 1136.02 225.367 1136.88 225.367Z" fill="white"/>
<circle cx="1188.5" cy="113" r="10.5" transform="rotate(180 1188.5 113)" stroke="white" stroke-width="7"/>
<line x1="1123" y1="32.5" x2="1017" y2="32.5" stroke="white" stroke-width="3"/>
<line x1="1199.94" y1="109.061" x2="1121.94" y2="31.0607" stroke="white" stroke-width="3"/>
<path d="M1029.21 15.1797L1026.98 22H1024.29L1022.86 10.1992C1022.49 10.1523 1022.21 10.0273 1022.02 9.82422C1021.84 9.61328 1021.74 9.34766 1021.74 9.02734C1021.74 8.65234 1021.86 8.35156 1022.11 8.125C1022.36 7.89844 1022.77 7.78516 1023.35 7.78516L1026.55 7.79688C1027.12 7.79688 1027.54 7.90625 1027.78 8.125C1028.03 8.34375 1028.15 8.63281 1028.15 8.99219C1028.15 9.35156 1028.03 9.64453 1027.78 9.87109C1027.54 10.0898 1027.12 10.1992 1026.55 10.1992H1025.29L1026.09 16.9141L1027.98 11.3242H1030.47L1032.35 16.9141L1033.14 10.1992H1031.89C1031.31 10.1992 1030.9 10.0898 1030.65 9.87109C1030.41 9.64453 1030.29 9.35156 1030.29 8.99219C1030.29 8.63281 1030.41 8.34375 1030.65 8.125C1030.9 7.89844 1031.31 7.78516 1031.89 7.78516L1035.08 7.79688C1035.66 7.79688 1036.07 7.90625 1036.31 8.125C1036.56 8.34375 1036.68 8.63281 1036.68 8.99219C1036.68 9.29688 1036.59 9.55859 1036.39 9.77734C1036.2 9.99609 1035.91 10.1367 1035.55 10.1992L1034.16 22H1031.52L1029.21 15.1797ZM1043.12 11.3594V12.8594C1044.12 12.1328 1044.92 11.6484 1045.5 11.4062C1046.08 11.1641 1046.63 11.043 1047.14 11.043C1047.92 11.043 1048.68 11.332 1049.41 11.9102C1049.91 12.3008 1050.16 12.6992 1050.16 13.1055C1050.16 13.4492 1050.04 13.7422 1049.8 13.9844C1049.56 14.2188 1049.28 14.3359 1048.94 14.3359C1048.64 14.3359 1048.33 14.1875 1048 13.8906C1047.68 13.5938 1047.38 13.4453 1047.12 13.4453C1046.79 13.4453 1046.29 13.6562 1045.61 14.0781C1044.95 14.5 1044.12 15.1328 1043.12 15.9766V19.5977H1046.54C1047.12 19.5977 1047.53 19.7109 1047.77 19.9375C1048.02 20.1562 1048.14 20.4453 1048.14 20.8047C1048.14 21.1562 1048.02 21.4453 1047.77 21.6719C1047.53 21.8906 1047.12 22 1046.54 22H1039.29C1038.71 22 1038.29 21.8906 1038.04 21.6719C1037.8 21.4453 1037.68 21.1523 1037.68 20.793C1037.68 20.4414 1037.8 20.1562 1038.04 19.9375C1038.29 19.7109 1038.71 19.5977 1039.29 19.5977H1040.71V13.7617H1039.85C1039.27 13.7617 1038.86 13.6523 1038.61 13.4336C1038.36 13.207 1038.24 12.9141 1038.24 12.5547C1038.24 12.2031 1038.36 11.918 1038.61 11.6992C1038.86 11.4727 1039.27 11.3594 1039.85 11.3594H1043.12ZM1060.19 22V21.4375C1059.59 21.7578 1058.93 21.9961 1058.2 22.1523C1057.47 22.3164 1056.81 22.3984 1056.22 22.3984C1054.93 22.3984 1053.88 22.0586 1053.08 21.3789C1052.27 20.6914 1051.87 19.9336 1051.87 19.1055C1051.87 18.0977 1052.38 17.1641 1053.41 16.3047C1054.44 15.4375 1055.86 15.0039 1057.67 15.0039C1058.4 15.0039 1059.24 15.082 1060.19 15.2383V14.6641C1060.19 14.3047 1060.04 14.0117 1059.72 13.7852C1059.42 13.5586 1058.83 13.4453 1057.96 13.4453C1057.25 13.4453 1056.33 13.5859 1055.2 13.8672C1054.78 13.9688 1054.45 14.0195 1054.21 14.0195C1053.89 14.0195 1053.62 13.9062 1053.39 13.6797C1053.18 13.4453 1053.07 13.1484 1053.07 12.7891C1053.07 12.5859 1053.11 12.4102 1053.18 12.2617C1053.26 12.1133 1053.37 11.9961 1053.51 11.9102C1053.65 11.8164 1053.95 11.707 1054.39 11.582C1054.98 11.418 1055.59 11.2891 1056.21 11.1953C1056.82 11.0938 1057.38 11.043 1057.88 11.043C1059.38 11.043 1060.53 11.3672 1061.35 12.0156C1062.18 12.6562 1062.59 13.5352 1062.59 14.6523V19.5977H1063C1063.58 19.5977 1063.99 19.7109 1064.23 19.9375C1064.48 20.1562 1064.61 20.4453 1064.61 20.8047C1064.61 21.1562 1064.48 21.4453 1064.23 21.6719C1063.99 21.8906 1063.58 22 1063 22H1060.19ZM1060.19 17.6992C1059.23 17.5117 1058.34 17.418 1057.53 17.418C1056.55 17.418 1055.71 17.6562 1055.01 18.1328C1054.57 18.4375 1054.36 18.7461 1054.36 19.0586C1054.36 19.2852 1054.46 19.4688 1054.67 19.6094C1055.06 19.8672 1055.6 19.9961 1056.28 19.9961C1056.86 19.9961 1057.51 19.8828 1058.23 19.6562C1058.97 19.4297 1059.62 19.1211 1060.19 18.7305V17.6992ZM1069.46 20.6758V24.6133H1070.9C1071.48 24.6133 1071.89 24.7227 1072.13 24.9414C1072.38 25.168 1072.51 25.4609 1072.51 25.8203C1072.51 26.1719 1072.38 26.457 1072.13 26.6758C1071.89 26.9023 1071.48 27.0156 1070.9 27.0156H1066.65C1066.07 27.0156 1065.66 26.9023 1065.41 26.6758C1065.16 26.457 1065.04 26.1719 1065.04 25.8203C1065.04 25.4609 1065.17 25.168 1065.42 24.9414C1065.67 24.7227 1066.08 24.6133 1066.65 24.6133H1067.06V13.7617H1066.65C1066.07 13.7617 1065.66 13.6523 1065.41 13.4336C1065.16 13.207 1065.04 12.9141 1065.04 12.5547C1065.04 12.2031 1065.16 11.918 1065.41 11.6992C1065.66 11.4727 1066.07 11.3594 1066.65 11.3594H1069.46V12.1797C1070.02 11.7969 1070.61 11.5117 1071.21 11.3242C1071.81 11.1367 1072.43 11.043 1073.06 11.043C1074.7 11.043 1076.1 11.6016 1077.25 12.7188C1078.41 13.8281 1078.99 15.1016 1078.99 16.5391C1078.99 18.125 1078.3 19.4336 1076.94 20.4648C1075.8 21.3242 1074.51 21.7539 1073.08 21.7539C1072.46 21.7539 1071.86 21.6641 1071.25 21.4844C1070.65 21.3047 1070.05 21.0352 1069.46 20.6758ZM1076.59 16.5508C1076.59 16.2148 1076.45 15.7891 1076.19 15.2734C1075.92 14.75 1075.51 14.3164 1074.96 13.9727C1074.41 13.6211 1073.77 13.4453 1073.02 13.4453C1071.83 13.4453 1070.88 13.8945 1070.18 14.793C1069.7 15.4102 1069.46 16.0039 1069.46 16.5742C1069.46 17.2148 1069.8 17.8398 1070.48 18.4492C1071.17 19.0508 1072.02 19.3516 1073.02 19.3516C1074.04 19.3516 1074.89 19.0508 1075.57 18.4492C1076.25 17.8477 1076.59 17.2148 1076.59 16.5508ZM1106.76 10.1992V17.0078C1106.76 18.4922 1106.23 19.7539 1105.16 20.793C1104.09 21.832 1102.81 22.3516 1101.31 22.3516C1100.57 22.3516 1099.87 22.2227 1099.21 21.9648C1098.57 21.6992 1097.98 21.3125 1097.46 20.8047C1096.94 20.2969 1096.54 19.7695 1096.25 19.2227C1095.96 18.668 1095.82 17.9297 1095.82 17.0078V10.1992C1095.31 10.1992 1094.93 10.0859 1094.69 9.85938C1094.45 9.63281 1094.33 9.34375 1094.33 8.99219C1094.33 8.63281 1094.45 8.34375 1094.69 8.125C1094.93 7.90625 1095.35 7.79688 1095.93 7.79688L1099.09 7.78516C1099.66 7.78516 1100.07 7.89844 1100.32 8.125C1100.57 8.34375 1100.69 8.63281 1100.69 8.99219C1100.69 9.35156 1100.57 9.64453 1100.32 9.87109C1100.07 10.0898 1099.66 10.1992 1099.09 10.1992H1098.22V17.2188C1098.22 17.9375 1098.52 18.5742 1099.11 19.1289C1099.71 19.6758 1100.43 19.9492 1101.28 19.9492C1101.84 19.9492 1102.37 19.8164 1102.86 19.5508C1103.35 19.2852 1103.75 18.8984 1104.07 18.3906C1104.26 18.0703 1104.36 17.6797 1104.36 17.2188V10.1992H1103.49C1102.91 10.1992 1102.5 10.0898 1102.25 9.87109C1102.01 9.64453 1101.89 9.35156 1101.89 8.99219C1101.89 8.63281 1102.01 8.34375 1102.25 8.125C1102.5 7.89844 1102.91 7.78516 1103.49 7.78516L1106.64 7.79688C1107.22 7.79688 1107.63 7.90625 1107.88 8.125C1108.12 8.34375 1108.25 8.63281 1108.25 8.99219C1108.25 9.34375 1108.13 9.63281 1107.89 9.85938C1107.64 10.0859 1107.27 10.1992 1106.76 10.1992ZM1112.7 20.6758V24.6133H1114.14C1114.72 24.6133 1115.13 24.7227 1115.38 24.9414C1115.62 25.168 1115.75 25.4609 1115.75 25.8203C1115.75 26.1719 1115.62 26.457 1115.38 26.6758C1115.13 26.9023 1114.72 27.0156 1114.14 27.0156H1109.89C1109.31 27.0156 1108.9 26.9023 1108.65 26.6758C1108.41 26.457 1108.29 26.1719 1108.29 25.8203C1108.29 25.4609 1108.41 25.168 1108.66 24.9414C1108.91 24.7227 1109.32 24.6133 1109.89 24.6133H1110.3V13.7617H1109.89C1109.31 13.7617 1108.9 13.6523 1108.65 13.4336C1108.41 13.207 1108.29 12.9141 1108.29 12.5547C1108.29 12.2031 1108.41 11.918 1108.65 11.6992C1108.9 11.4727 1109.31 11.3594 1109.89 11.3594H1112.7V12.1797C1113.27 11.7969 1113.85 11.5117 1114.45 11.3242C1115.05 11.1367 1115.67 11.043 1116.3 11.043C1117.94 11.043 1119.34 11.6016 1120.5 12.7188C1121.65 13.8281 1122.23 15.1016 1122.23 16.5391C1122.23 18.125 1121.55 19.4336 1120.18 20.4648C1119.04 21.3242 1117.75 21.7539 1116.32 21.7539C1115.71 21.7539 1115.1 21.6641 1114.5 21.4844C1113.89 21.3047 1113.3 21.0352 1112.7 20.6758ZM1119.83 16.5508C1119.83 16.2148 1119.7 15.7891 1119.43 15.2734C1119.16 14.75 1118.75 14.3164 1118.2 13.9727C1117.65 13.6211 1117.01 13.4453 1116.27 13.4453C1115.07 13.4453 1114.12 13.8945 1113.42 14.793C1112.94 15.4102 1112.7 16.0039 1112.7 16.5742C1112.7 17.2148 1113.04 17.8398 1113.72 18.4492C1114.41 19.0508 1115.26 19.3516 1116.27 19.3516C1117.28 19.3516 1118.13 19.0508 1118.81 18.4492C1119.49 17.8477 1119.83 17.2148 1119.83 16.5508Z" fill="white"/>
<path d="M1123.58 153.264V151.224H1121.46V147.936H1124.51V150H1129.94V147.096H1123.58V145.056H1121.46V139.752H1123.58V137.688H1130.87V139.752H1133.01V151.224H1130.87V153.264H1123.58ZM1124.51 143.856H1129.94V140.976H1124.51V143.856ZM1135.92 151.152V147.864H1138.97V151.152H1135.92ZM1135.92 147.12V143.856H1138.97V147.12H1135.92ZM1144.01 153.264V151.224H1141.9V139.752H1144.01V137.688H1151.31V139.752H1153.45V151.224H1151.31V153.264H1144.01ZM1144.95 150H1150.37V140.976H1144.95V150ZM1158.47 153.264V151.224H1156.36V139.752H1158.47V137.688H1165.77V139.752H1167.91V151.224H1165.77V153.264H1158.47ZM1159.41 150H1164.83V140.976H1159.41V150ZM1170.82 153.264V139.752H1172.94V137.688H1180.23V139.752H1182.37V147.096H1180.23V149.16H1173.87V153.264H1170.82ZM1173.87 145.872H1179.3V140.976H1173.87V145.872ZM1185.28 153.264V139.752H1187.4V137.688H1190.44V139.752H1192.58V143.856H1193.76V139.752H1195.89V137.688H1198.96V139.752H1201.05V153.264H1198.03V140.976H1196.83V145.056H1194.69V151.224H1191.64V145.056H1189.51V140.976H1188.33V153.264H1185.28Z" fill="#00FF00"/>
</svg>
