<svg width="363" height="506" viewBox="0 0 363 506" fill="none" xmlns="http://www.w3.org/2000/svg">
<path d="M14 72V318M39 472H14V318M39 318H14M39 172H14" stroke="#00FF00" stroke-width="5"/>
<path d="M50.5909 17.636V15.227H28.9091V12.818H26.5V10.409H24.0909V8H2.40909V10.409H0V53.771H2.40909V56.18H50.5909V53.771H53V17.636H50.5909ZM48.1818 51.362H4.81818V12.818H21.6818V15.227H24.0909V17.636H26.5V20.045H48.1818V51.362Z" fill="#00FF00"/>
<path d="M103.591 158.636V156.227H81.9091V153.818H79.5V151.409H77.0909V149H55.4091V151.409H53V194.771H55.4091V197.18H103.591V194.771H106V158.636H103.591ZM101.182 192.362H57.8182V153.818H74.6818V156.227H77.0909V158.636H79.5V161.045H101.182V192.362Z" fill="#00FF00"/>
<path d="M103.591 457.636V455.227H81.9091V452.818H79.5V450.409H77.0909V448H55.4091V450.409H53V493.771H55.4091V496.18H103.591V493.771H106V457.636H103.591ZM101.182 491.362H57.8182V452.818H74.6818V455.227H77.0909V457.636H79.5V460.045H101.182V491.362Z" fill="#00FF00"/>
<path d="M137.062 160.797V148.266H136.562C135.792 148.266 135.24 148.12 134.906 147.828C134.583 147.526 134.422 147.135 134.422 146.656C134.422 146.177 134.583 145.792 134.906 145.5C135.24 145.198 135.792 145.047 136.562 145.047H144.594C146.51 145.047 148.052 145.583 149.219 146.656C150.385 147.719 150.969 148.984 150.969 150.453C150.969 151.151 150.833 151.807 150.562 152.422C150.292 153.036 149.88 153.604 149.328 154.125C150.339 154.729 151.094 155.438 151.594 156.25C152.104 157.052 152.359 157.964 152.359 158.984C152.359 159.797 152.177 160.552 151.812 161.25C151.542 161.781 151.208 162.203 150.812 162.516C150.281 162.953 149.63 163.312 148.859 163.594C148.089 163.865 147.125 164 145.969 164H136.562C135.792 164 135.24 163.854 134.906 163.562C134.583 163.26 134.422 162.87 134.422 162.391C134.422 161.922 134.589 161.542 134.922 161.25C135.255 160.948 135.802 160.797 136.562 160.797H137.062ZM140.266 152.922H143.781C145.042 152.922 146.089 152.604 146.922 151.969C147.484 151.542 147.766 151.01 147.766 150.375C147.766 149.812 147.5 149.323 146.969 148.906C146.438 148.479 145.594 148.266 144.438 148.266H140.266V152.922ZM140.266 160.797H145.797C147.099 160.797 148.016 160.604 148.547 160.219C148.953 159.927 149.156 159.51 149.156 158.969C149.156 158.323 148.755 157.688 147.953 157.062C147.151 156.438 146 156.125 144.5 156.125H140.266V160.797ZM165.703 164V163.25C164.901 163.677 164.016 163.995 163.047 164.203C162.078 164.422 161.198 164.531 160.406 164.531C158.688 164.531 157.292 164.078 156.219 163.172C155.146 162.255 154.609 161.245 154.609 160.141C154.609 158.797 155.292 157.552 156.656 156.406C158.031 155.25 159.927 154.672 162.344 154.672C163.312 154.672 164.432 154.776 165.703 154.984V154.219C165.703 153.74 165.495 153.349 165.078 153.047C164.672 152.745 163.891 152.594 162.734 152.594C161.786 152.594 160.557 152.781 159.047 153.156C158.484 153.292 158.047 153.359 157.734 153.359C157.307 153.359 156.943 153.208 156.641 152.906C156.349 152.594 156.203 152.198 156.203 151.719C156.203 151.448 156.255 151.214 156.359 151.016C156.464 150.818 156.609 150.661 156.797 150.547C156.984 150.422 157.375 150.276 157.969 150.109C158.76 149.891 159.568 149.719 160.391 149.594C161.214 149.458 161.958 149.391 162.625 149.391C164.615 149.391 166.156 149.823 167.25 150.688C168.354 151.542 168.906 152.714 168.906 154.203V160.797H169.453C170.224 160.797 170.771 160.948 171.094 161.25C171.427 161.542 171.594 161.927 171.594 162.406C171.594 162.875 171.427 163.26 171.094 163.562C170.771 163.854 170.224 164 169.453 164H165.703ZM165.703 158.266C164.422 158.016 163.24 157.891 162.156 157.891C160.854 157.891 159.734 158.208 158.797 158.844C158.214 159.25 157.922 159.661 157.922 160.078C157.922 160.38 158.062 160.625 158.344 160.812C158.865 161.156 159.578 161.328 160.484 161.328C161.255 161.328 162.125 161.177 163.094 160.875C164.073 160.573 164.943 160.161 165.703 159.641V158.266ZM187.031 150.391C187.417 150.026 187.812 149.844 188.219 149.844C188.677 149.844 189.052 150.01 189.344 150.344C189.646 150.667 189.797 151.208 189.797 151.969V154.031C189.797 154.802 189.646 155.349 189.344 155.672C189.052 155.995 188.667 156.156 188.188 156.156C187.75 156.156 187.38 156.031 187.078 155.781C186.859 155.594 186.688 155.214 186.562 154.641C186.438 154.057 186.135 153.625 185.656 153.344C184.812 152.844 183.734 152.594 182.422 152.594C180.911 152.594 179.698 153.036 178.781 153.922C177.875 154.807 177.422 155.927 177.422 157.281C177.422 158.531 177.859 159.521 178.734 160.25C179.609 160.969 181.062 161.328 183.094 161.328C184.427 161.328 185.516 161.193 186.359 160.922C186.859 160.755 187.333 160.474 187.781 160.078C188.229 159.672 188.635 159.469 189 159.469C189.438 159.469 189.812 159.63 190.125 159.953C190.448 160.276 190.609 160.656 190.609 161.094C190.609 161.802 190.125 162.474 189.156 163.109C187.719 164.057 185.615 164.531 182.844 164.531C180.354 164.531 178.417 164.016 177.031 162.984C175.156 161.599 174.219 159.703 174.219 157.297C174.219 155.016 174.979 153.13 176.5 151.641C178.021 150.141 180.005 149.391 182.453 149.391C183.339 149.391 184.161 149.474 184.922 149.641C185.682 149.807 186.385 150.057 187.031 150.391ZM198.625 158.672V164H194.875C194.104 164 193.552 163.854 193.219 163.562C192.896 163.26 192.734 162.87 192.734 162.391C192.734 161.922 192.901 161.542 193.234 161.25C193.568 160.948 194.115 160.797 194.875 160.797H195.422V146.938H194.875C194.104 146.938 193.552 146.792 193.219 146.5C192.896 146.198 192.734 145.807 192.734 145.328C192.734 144.859 192.896 144.479 193.219 144.188C193.552 143.885 194.104 143.734 194.875 143.734H198.625V154.531L201.125 152.516C200.865 152.068 200.734 151.703 200.734 151.422C200.734 150.943 200.896 150.557 201.219 150.266C201.542 149.964 202.089 149.812 202.859 149.812H206.516C207.286 149.812 207.833 149.964 208.156 150.266C208.49 150.557 208.656 150.943 208.656 151.422C208.656 151.891 208.49 152.276 208.156 152.578C207.833 152.87 207.286 153.016 206.516 153.016H205.625L201.734 156.172L206.969 160.797H207.906C208.677 160.797 209.224 160.948 209.547 161.25C209.88 161.542 210.047 161.927 210.047 162.406C210.047 162.875 209.88 163.26 209.547 163.562C209.224 163.854 208.677 164 207.906 164H204.219C203.448 164 202.896 163.854 202.562 163.562C202.24 163.26 202.078 162.87 202.078 162.391C202.078 161.984 202.255 161.583 202.609 161.188L199.219 158.188L198.625 158.672ZM236.406 156.094V160.797H244.578V159.062C244.578 158.292 244.724 157.745 245.016 157.422C245.318 157.089 245.708 156.922 246.188 156.922C246.656 156.922 247.036 157.089 247.328 157.422C247.63 157.745 247.781 158.292 247.781 159.062V164H232.703C231.932 164 231.38 163.854 231.047 163.562C230.724 163.26 230.562 162.87 230.562 162.391C230.562 161.922 230.729 161.542 231.062 161.25C231.396 160.948 231.943 160.797 232.703 160.797H233.203V148.266H232.703C231.932 148.266 231.38 148.12 231.047 147.828C230.724 147.526 230.562 147.135 230.562 146.656C230.562 146.177 230.724 145.792 231.047 145.5C231.38 145.198 231.932 145.047 232.703 145.047L247.078 145.062V149.938C247.078 150.698 246.932 151.245 246.641 151.578C246.349 151.901 245.964 152.062 245.484 152.062C245.005 152.062 244.615 151.901 244.312 151.578C244.021 151.255 243.875 150.708 243.875 149.938V148.266H236.406V152.891H239.219C239.219 152.057 239.297 151.521 239.453 151.281C239.776 150.771 240.234 150.516 240.828 150.516C241.297 150.516 241.677 150.682 241.969 151.016C242.271 151.339 242.422 151.885 242.422 152.656V156.344C242.422 157.042 242.339 157.51 242.172 157.75C241.839 158.24 241.391 158.484 240.828 158.484C240.234 158.484 239.776 158.229 239.453 157.719C239.297 157.479 239.219 156.938 239.219 156.094H236.406ZM255.672 149.812V150.891C256.255 150.391 256.896 150.016 257.594 149.766C258.302 149.516 259.068 149.391 259.891 149.391C261.786 149.391 263.286 149.979 264.391 151.156C265.266 152.094 265.703 153.323 265.703 154.844V160.797C266.38 160.797 266.88 160.948 267.203 161.25C267.526 161.542 267.688 161.927 267.688 162.406C267.688 162.875 267.521 163.26 267.188 163.562C266.865 163.854 266.318 164 265.547 164H262.656C261.885 164 261.333 163.854 261 163.562C260.677 163.26 260.516 162.87 260.516 162.391C260.516 161.922 260.677 161.542 261 161.25C261.323 160.948 261.823 160.797 262.5 160.797V154.75C262.5 154.052 262.312 153.542 261.938 153.219C261.448 152.802 260.714 152.594 259.734 152.594C258.995 152.594 258.344 152.74 257.781 153.031C257.229 153.312 256.526 153.917 255.672 154.844V160.797C256.495 160.797 257.026 160.875 257.266 161.031C257.776 161.344 258.031 161.802 258.031 162.406C258.031 162.875 257.865 163.26 257.531 163.562C257.208 163.854 256.661 164 255.891 164H252.25C251.479 164 250.927 163.854 250.594 163.562C250.271 163.26 250.109 162.87 250.109 162.391C250.109 161.807 250.359 161.354 250.859 161.031C251.109 160.875 251.646 160.797 252.469 160.797V153.016C251.792 153.016 251.292 152.865 250.969 152.562C250.646 152.26 250.484 151.875 250.484 151.406C250.484 150.938 250.646 150.557 250.969 150.266C251.302 149.964 251.854 149.812 252.625 149.812H255.672ZM285.484 143.734V160.797H286.031C286.792 160.797 287.339 160.948 287.672 161.25C288.005 161.542 288.172 161.927 288.172 162.406C288.172 162.875 288.005 163.26 287.672 163.562C287.349 163.854 286.802 164 286.031 164H282.281V163.219C281.552 163.646 280.786 163.969 279.984 164.188C279.193 164.406 278.37 164.516 277.516 164.516C275.109 164.516 273.172 163.823 271.703 162.438C270.234 161.042 269.5 159.307 269.5 157.234C269.5 155.068 270.271 153.219 271.812 151.688C273.354 150.156 275.234 149.391 277.453 149.391C278.286 149.391 279.104 149.521 279.906 149.781C280.708 150.031 281.5 150.411 282.281 150.922V146.938H281.734C280.964 146.938 280.411 146.792 280.078 146.5C279.755 146.198 279.594 145.812 279.594 145.344C279.594 144.865 279.755 144.479 280.078 144.188C280.411 143.885 280.964 143.734 281.734 143.734H285.484ZM282.281 157.328C282.281 156.005 281.818 154.885 280.891 153.969C279.964 153.052 278.828 152.594 277.484 152.594C276.151 152.594 275.021 153.052 274.094 153.969C273.167 154.885 272.703 155.99 272.703 157.281C272.703 158.458 273.12 159.427 273.953 160.188C274.786 160.938 275.964 161.312 277.484 161.312C278.995 161.312 280.172 160.938 281.016 160.188C281.859 159.427 282.281 158.474 282.281 157.328ZM143.609 190.906L140.641 200H137.047L135.141 184.266C134.651 184.203 134.281 184.036 134.031 183.766C133.781 183.484 133.656 183.13 133.656 182.703C133.656 182.203 133.818 181.802 134.141 181.5C134.474 181.198 135.026 181.047 135.797 181.047L140.062 181.062C140.833 181.062 141.38 181.208 141.703 181.5C142.036 181.792 142.203 182.177 142.203 182.656C142.203 183.135 142.036 183.526 141.703 183.828C141.38 184.12 140.833 184.266 140.062 184.266H138.391L139.453 193.219L141.969 185.766H145.297L147.797 193.219L148.859 184.266H147.188C146.417 184.266 145.865 184.12 145.531 183.828C145.208 183.526 145.047 183.135 145.047 182.656C145.047 182.177 145.208 181.792 145.531 181.5C145.865 181.198 146.417 181.047 147.188 181.047L151.438 181.062C152.208 181.062 152.755 181.208 153.078 181.5C153.411 181.792 153.578 182.177 153.578 182.656C153.578 183.062 153.448 183.411 153.188 183.703C152.927 183.995 152.552 184.182 152.062 184.266L150.219 200H146.688L143.609 190.906ZM171.141 193.172C171.141 194.401 170.797 195.594 170.109 196.75C169.432 197.896 168.417 198.812 167.062 199.5C165.719 200.177 164.312 200.516 162.844 200.516C161.385 200.516 159.99 200.182 158.656 199.516C157.323 198.839 156.307 197.922 155.609 196.766C154.911 195.609 154.562 194.401 154.562 193.141C154.562 191.859 154.917 190.604 155.625 189.375C156.333 188.135 157.349 187.161 158.672 186.453C160.005 185.745 161.396 185.391 162.844 185.391C164.302 185.391 165.703 185.755 167.047 186.484C168.401 187.203 169.422 188.177 170.109 189.406C170.797 190.625 171.141 191.88 171.141 193.172ZM167.938 193.188C167.938 192.156 167.568 191.208 166.828 190.344C165.818 189.177 164.49 188.594 162.844 188.594C161.396 188.594 160.188 189.057 159.219 189.984C158.25 190.911 157.766 191.984 157.766 193.203C157.766 194.203 158.255 195.141 159.234 196.016C160.214 196.88 161.417 197.312 162.844 197.312C164.281 197.312 165.49 196.88 166.469 196.016C167.448 195.141 167.938 194.198 167.938 193.188ZM181.375 185.812V187.812C182.719 186.844 183.776 186.198 184.547 185.875C185.328 185.552 186.057 185.391 186.734 185.391C187.776 185.391 188.786 185.776 189.766 186.547C190.432 187.068 190.766 187.599 190.766 188.141C190.766 188.599 190.604 188.99 190.281 189.312C189.969 189.625 189.589 189.781 189.141 189.781C188.745 189.781 188.328 189.583 187.891 189.188C187.453 188.792 187.062 188.594 186.719 188.594C186.271 188.594 185.599 188.875 184.703 189.438C183.818 190 182.708 190.844 181.375 191.969V196.797H185.938C186.708 196.797 187.255 196.948 187.578 197.25C187.911 197.542 188.078 197.927 188.078 198.406C188.078 198.875 187.911 199.26 187.578 199.562C187.255 199.854 186.708 200 185.938 200H176.266C175.495 200 174.943 199.854 174.609 199.562C174.286 199.26 174.125 198.87 174.125 198.391C174.125 197.922 174.286 197.542 174.609 197.25C174.943 196.948 175.495 196.797 176.266 196.797H178.172V189.016H177.016C176.245 189.016 175.693 188.87 175.359 188.578C175.036 188.276 174.875 187.885 174.875 187.406C174.875 186.938 175.036 186.557 175.359 186.266C175.693 185.964 176.245 185.812 177.016 185.812H181.375ZM198.625 194.672V200H194.875C194.104 200 193.552 199.854 193.219 199.562C192.896 199.26 192.734 198.87 192.734 198.391C192.734 197.922 192.901 197.542 193.234 197.25C193.568 196.948 194.115 196.797 194.875 196.797H195.422V182.938H194.875C194.104 182.938 193.552 182.792 193.219 182.5C192.896 182.198 192.734 181.807 192.734 181.328C192.734 180.859 192.896 180.479 193.219 180.188C193.552 179.885 194.104 179.734 194.875 179.734H198.625V190.531L201.125 188.516C200.865 188.068 200.734 187.703 200.734 187.422C200.734 186.943 200.896 186.557 201.219 186.266C201.542 185.964 202.089 185.812 202.859 185.812H206.516C207.286 185.812 207.833 185.964 208.156 186.266C208.49 186.557 208.656 186.943 208.656 187.422C208.656 187.891 208.49 188.276 208.156 188.578C207.833 188.87 207.286 189.016 206.516 189.016H205.625L201.734 192.172L206.969 196.797H207.906C208.677 196.797 209.224 196.948 209.547 197.25C209.88 197.542 210.047 197.927 210.047 198.406C210.047 198.875 209.88 199.26 209.547 199.562C209.224 199.854 208.677 200 207.906 200H204.219C203.448 200 202.896 199.854 202.562 199.562C202.24 199.26 202.078 198.87 202.078 198.391C202.078 197.984 202.255 197.583 202.609 197.188L199.219 194.188L198.625 194.672ZM223.938 189.562C223.417 189.24 222.87 189 222.297 188.844C221.724 188.677 221.125 188.594 220.5 188.594C219.26 188.594 218.276 188.797 217.547 189.203C217.224 189.38 217.062 189.573 217.062 189.781C217.062 190.021 217.281 190.255 217.719 190.484C218.052 190.651 218.797 190.812 219.953 190.969C222.078 191.26 223.557 191.552 224.391 191.844C225.484 192.229 226.328 192.802 226.922 193.562C227.516 194.323 227.812 195.125 227.812 195.969C227.812 197.115 227.307 198.073 226.297 198.844C224.849 199.958 222.969 200.516 220.656 200.516C219.729 200.516 218.87 200.432 218.078 200.266C217.297 200.109 216.578 199.875 215.922 199.562C215.766 199.698 215.599 199.802 215.422 199.875C215.245 199.948 215.062 199.984 214.875 199.984C214.375 199.984 213.974 199.823 213.672 199.5C213.38 199.167 213.234 198.615 213.234 197.844V196.766C213.234 195.995 213.38 195.448 213.672 195.125C213.974 194.792 214.365 194.625 214.844 194.625C215.229 194.625 215.552 194.734 215.812 194.953C216.073 195.161 216.276 195.526 216.422 196.047C216.911 196.464 217.5 196.781 218.188 197C218.875 197.208 219.667 197.312 220.562 197.312C222.031 197.312 223.172 197.083 223.984 196.625C224.37 196.396 224.562 196.156 224.562 195.906C224.562 195.49 224.286 195.146 223.734 194.875C223.182 194.604 222.042 194.375 220.312 194.188C217.74 193.917 216.021 193.396 215.156 192.625C214.292 191.865 213.859 190.927 213.859 189.812C213.859 188.667 214.344 187.714 215.312 186.953C216.625 185.911 218.344 185.391 220.469 185.391C221.208 185.391 221.917 185.464 222.594 185.609C223.281 185.745 223.938 185.958 224.562 186.25C224.76 186.104 224.943 185.995 225.109 185.922C225.286 185.849 225.448 185.812 225.594 185.812C226.031 185.812 226.396 185.979 226.688 186.312C226.979 186.635 227.125 187.182 227.125 187.953V188.734C227.125 189.432 227.042 189.906 226.875 190.156C226.542 190.635 226.089 190.875 225.516 190.875C225.13 190.875 224.792 190.755 224.5 190.516C224.208 190.276 224.021 189.958 223.938 189.562ZM236.391 179.734V186.562C237.057 186.167 237.729 185.875 238.406 185.688C239.094 185.49 239.786 185.391 240.484 185.391C241.589 185.391 242.573 185.578 243.438 185.953C244.302 186.328 245.016 186.922 245.578 187.734C246.151 188.536 246.438 189.552 246.438 190.781V196.797C247.25 196.797 247.781 196.875 248.031 197.031C248.531 197.354 248.781 197.812 248.781 198.406C248.781 198.875 248.62 199.26 248.297 199.562C247.974 199.854 247.427 200 246.656 200H243C242.24 200 241.693 199.854 241.359 199.562C241.036 199.26 240.875 198.87 240.875 198.391C240.875 197.807 241.125 197.354 241.625 197.031C241.885 196.865 242.417 196.786 243.219 196.797V191C243.219 190.177 243.031 189.599 242.656 189.266C242.167 188.818 241.443 188.594 240.484 188.594C239.776 188.594 239.146 188.734 238.594 189.016C238.052 189.286 237.318 189.88 236.391 190.797V196.797C237.214 196.797 237.745 196.875 237.984 197.031C238.495 197.354 238.75 197.812 238.75 198.406C238.75 198.875 238.583 199.26 238.25 199.562C237.927 199.854 237.38 200 236.609 200H232.969C232.198 200 231.646 199.854 231.312 199.562C230.99 199.26 230.828 198.87 230.828 198.391C230.828 197.807 231.083 197.354 231.594 197.031C231.844 196.865 232.375 196.786 233.188 196.797V182.938H232.641C231.87 182.938 231.318 182.792 230.984 182.5C230.661 182.198 230.5 181.807 230.5 181.328C230.5 180.859 230.661 180.479 230.984 180.188C231.318 179.885 231.87 179.734 232.641 179.734H236.391ZM267.234 193.172C267.234 194.401 266.891 195.594 266.203 196.75C265.526 197.896 264.51 198.812 263.156 199.5C261.812 200.177 260.406 200.516 258.938 200.516C257.479 200.516 256.083 200.182 254.75 199.516C253.417 198.839 252.401 197.922 251.703 196.766C251.005 195.609 250.656 194.401 250.656 193.141C250.656 191.859 251.01 190.604 251.719 189.375C252.427 188.135 253.443 187.161 254.766 186.453C256.099 185.745 257.49 185.391 258.938 185.391C260.396 185.391 261.797 185.755 263.141 186.484C264.495 187.203 265.516 188.177 266.203 189.406C266.891 190.625 267.234 191.88 267.234 193.172ZM264.031 193.188C264.031 192.156 263.661 191.208 262.922 190.344C261.911 189.177 260.583 188.594 258.938 188.594C257.49 188.594 256.281 189.057 255.312 189.984C254.344 190.911 253.859 191.984 253.859 193.203C253.859 194.203 254.349 195.141 255.328 196.016C256.307 196.88 257.51 197.312 258.938 197.312C260.375 197.312 261.583 196.88 262.562 196.016C263.542 195.141 264.031 194.198 264.031 193.188ZM274.156 198.234V203.484H276.078C276.849 203.484 277.396 203.63 277.719 203.922C278.052 204.224 278.219 204.615 278.219 205.094C278.219 205.562 278.052 205.943 277.719 206.234C277.396 206.536 276.849 206.688 276.078 206.688H270.406C269.635 206.688 269.083 206.536 268.75 206.234C268.427 205.943 268.266 205.562 268.266 205.094C268.266 204.615 268.432 204.224 268.766 203.922C269.099 203.63 269.646 203.484 270.406 203.484H270.953V189.016H270.406C269.635 189.016 269.083 188.87 268.75 188.578C268.427 188.276 268.266 187.885 268.266 187.406C268.266 186.938 268.427 186.557 268.75 186.266C269.083 185.964 269.635 185.812 270.406 185.812H274.156V186.906C274.906 186.396 275.682 186.016 276.484 185.766C277.286 185.516 278.109 185.391 278.953 185.391C281.141 185.391 283.005 186.135 284.547 187.625C286.089 189.104 286.859 190.802 286.859 192.719C286.859 194.833 285.948 196.578 284.125 197.953C282.604 199.099 280.891 199.672 278.984 199.672C278.161 199.672 277.349 199.552 276.547 199.312C275.745 199.073 274.948 198.714 274.156 198.234ZM283.656 192.734C283.656 192.286 283.479 191.719 283.125 191.031C282.771 190.333 282.224 189.755 281.484 189.297C280.755 188.828 279.896 188.594 278.906 188.594C277.312 188.594 276.047 189.193 275.109 190.391C274.474 191.214 274.156 192.005 274.156 192.766C274.156 193.62 274.609 194.453 275.516 195.266C276.432 196.068 277.562 196.469 278.906 196.469C280.26 196.469 281.391 196.068 282.297 195.266C283.203 194.464 283.656 193.62 283.656 192.734Z" fill="white"/>
<path d="M89.6094 17.9062L86.6406 27H83.0469L81.1406 11.2656C80.651 11.2031 80.2812 11.0365 80.0312 10.7656C79.7812 10.4844 79.6562 10.1302 79.6562 9.70312C79.6562 9.20312 79.8177 8.80208 80.1406 8.5C80.474 8.19792 81.026 8.04688 81.7969 8.04688L86.0625 8.0625C86.8333 8.0625 87.3802 8.20833 87.7031 8.5C88.0365 8.79167 88.2031 9.17708 88.2031 9.65625C88.2031 10.1354 88.0365 10.526 87.7031 10.8281C87.3802 11.1198 86.8333 11.2656 86.0625 11.2656H84.3906L85.4531 20.2188L87.9688 12.7656H91.2969L93.7969 20.2188L94.8594 11.2656H93.1875C92.4167 11.2656 91.8646 11.1198 91.5312 10.8281C91.2083 10.526 91.0469 10.1354 91.0469 9.65625C91.0469 9.17708 91.2083 8.79167 91.5312 8.5C91.8646 8.19792 92.4167 8.04688 93.1875 8.04688L97.4375 8.0625C98.2083 8.0625 98.7552 8.20833 99.0781 8.5C99.4115 8.79167 99.5781 9.17708 99.5781 9.65625C99.5781 10.0625 99.4479 10.4115 99.1875 10.7031C98.9271 10.9948 98.5521 11.1823 98.0625 11.2656L96.2188 27H92.6875L89.6094 17.9062ZM117.141 20.1719C117.141 21.401 116.797 22.5938 116.109 23.75C115.432 24.8958 114.417 25.8125 113.062 26.5C111.719 27.1771 110.312 27.5156 108.844 27.5156C107.385 27.5156 105.99 27.1823 104.656 26.5156C103.323 25.8385 102.307 24.9219 101.609 23.7656C100.911 22.6094 100.562 21.401 100.562 20.1406C100.562 18.8594 100.917 17.6042 101.625 16.375C102.333 15.1354 103.349 14.1615 104.672 13.4531C106.005 12.7448 107.396 12.3906 108.844 12.3906C110.302 12.3906 111.703 12.7552 113.047 13.4844C114.401 14.2031 115.422 15.1771 116.109 16.4062C116.797 17.625 117.141 18.8802 117.141 20.1719ZM113.938 20.1875C113.938 19.1562 113.568 18.2083 112.828 17.3438C111.818 16.1771 110.49 15.5938 108.844 15.5938C107.396 15.5938 106.188 16.0573 105.219 16.9844C104.25 17.9115 103.766 18.9844 103.766 20.2031C103.766 21.2031 104.255 22.1406 105.234 23.0156C106.214 23.8802 107.417 24.3125 108.844 24.3125C110.281 24.3125 111.49 23.8802 112.469 23.0156C113.448 22.1406 113.938 21.1979 113.938 20.1875ZM127.375 12.8125V14.8125C128.719 13.8438 129.776 13.1979 130.547 12.875C131.328 12.5521 132.057 12.3906 132.734 12.3906C133.776 12.3906 134.786 12.776 135.766 13.5469C136.432 14.0677 136.766 14.599 136.766 15.1406C136.766 15.599 136.604 15.9896 136.281 16.3125C135.969 16.625 135.589 16.7812 135.141 16.7812C134.745 16.7812 134.328 16.5833 133.891 16.1875C133.453 15.7917 133.062 15.5938 132.719 15.5938C132.271 15.5938 131.599 15.875 130.703 16.4375C129.818 17 128.708 17.8438 127.375 18.9688V23.7969H131.938C132.708 23.7969 133.255 23.9479 133.578 24.25C133.911 24.5417 134.078 24.9271 134.078 25.4062C134.078 25.875 133.911 26.2604 133.578 26.5625C133.255 26.8542 132.708 27 131.938 27H122.266C121.495 27 120.943 26.8542 120.609 26.5625C120.286 26.2604 120.125 25.8698 120.125 25.3906C120.125 24.9219 120.286 24.5417 120.609 24.25C120.943 23.9479 121.495 23.7969 122.266 23.7969H124.172V16.0156H123.016C122.245 16.0156 121.693 15.8698 121.359 15.5781C121.036 15.276 120.875 14.8854 120.875 14.4062C120.875 13.9375 121.036 13.5573 121.359 13.2656C121.693 12.9635 122.245 12.8125 123.016 12.8125H127.375ZM144.625 21.6719V27H140.875C140.104 27 139.552 26.8542 139.219 26.5625C138.896 26.2604 138.734 25.8698 138.734 25.3906C138.734 24.9219 138.901 24.5417 139.234 24.25C139.568 23.9479 140.115 23.7969 140.875 23.7969H141.422V9.9375H140.875C140.104 9.9375 139.552 9.79167 139.219 9.5C138.896 9.19792 138.734 8.80729 138.734 8.32812C138.734 7.85938 138.896 7.47917 139.219 7.1875C139.552 6.88542 140.104 6.73438 140.875 6.73438H144.625V17.5312L147.125 15.5156C146.865 15.0677 146.734 14.7031 146.734 14.4219C146.734 13.9427 146.896 13.5573 147.219 13.2656C147.542 12.9635 148.089 12.8125 148.859 12.8125H152.516C153.286 12.8125 153.833 12.9635 154.156 13.2656C154.49 13.5573 154.656 13.9427 154.656 14.4219C154.656 14.8906 154.49 15.276 154.156 15.5781C153.833 15.8698 153.286 16.0156 152.516 16.0156H151.625L147.734 19.1719L152.969 23.7969H153.906C154.677 23.7969 155.224 23.9479 155.547 24.25C155.88 24.5417 156.047 24.9271 156.047 25.4062C156.047 25.875 155.88 26.2604 155.547 26.5625C155.224 26.8542 154.677 27 153.906 27H150.219C149.448 27 148.896 26.8542 148.562 26.5625C148.24 26.2604 148.078 25.8698 148.078 25.3906C148.078 24.9844 148.255 24.5833 148.609 24.1875L145.219 21.1875L144.625 21.6719ZM169.938 16.5625C169.417 16.2396 168.87 16 168.297 15.8438C167.724 15.6771 167.125 15.5938 166.5 15.5938C165.26 15.5938 164.276 15.7969 163.547 16.2031C163.224 16.3802 163.062 16.5729 163.062 16.7812C163.062 17.0208 163.281 17.2552 163.719 17.4844C164.052 17.651 164.797 17.8125 165.953 17.9688C168.078 18.2604 169.557 18.5521 170.391 18.8438C171.484 19.2292 172.328 19.8021 172.922 20.5625C173.516 21.3229 173.812 22.125 173.812 22.9688C173.812 24.1146 173.307 25.0729 172.297 25.8438C170.849 26.9583 168.969 27.5156 166.656 27.5156C165.729 27.5156 164.87 27.4323 164.078 27.2656C163.297 27.1094 162.578 26.875 161.922 26.5625C161.766 26.6979 161.599 26.8021 161.422 26.875C161.245 26.9479 161.062 26.9844 160.875 26.9844C160.375 26.9844 159.974 26.8229 159.672 26.5C159.38 26.1667 159.234 25.6146 159.234 24.8438V23.7656C159.234 22.9948 159.38 22.4479 159.672 22.125C159.974 21.7917 160.365 21.625 160.844 21.625C161.229 21.625 161.552 21.7344 161.812 21.9531C162.073 22.1615 162.276 22.526 162.422 23.0469C162.911 23.4635 163.5 23.7812 164.188 24C164.875 24.2083 165.667 24.3125 166.562 24.3125C168.031 24.3125 169.172 24.0833 169.984 23.625C170.37 23.3958 170.562 23.1562 170.562 22.9062C170.562 22.4896 170.286 22.1458 169.734 21.875C169.182 21.6042 168.042 21.375 166.312 21.1875C163.74 20.9167 162.021 20.3958 161.156 19.625C160.292 18.8646 159.859 17.9271 159.859 16.8125C159.859 15.6667 160.344 14.7135 161.312 13.9531C162.625 12.9115 164.344 12.3906 166.469 12.3906C167.208 12.3906 167.917 12.4635 168.594 12.6094C169.281 12.7448 169.938 12.9583 170.562 13.25C170.76 13.1042 170.943 12.9948 171.109 12.9219C171.286 12.849 171.448 12.8125 171.594 12.8125C172.031 12.8125 172.396 12.9792 172.688 13.3125C172.979 13.6354 173.125 14.1823 173.125 14.9531V15.7344C173.125 16.4323 173.042 16.9062 172.875 17.1562C172.542 17.6354 172.089 17.875 171.516 17.875C171.13 17.875 170.792 17.7552 170.5 17.5156C170.208 17.276 170.021 16.9583 169.938 16.5625ZM182.391 6.73438V13.5625C183.057 13.1667 183.729 12.875 184.406 12.6875C185.094 12.4896 185.786 12.3906 186.484 12.3906C187.589 12.3906 188.573 12.5781 189.438 12.9531C190.302 13.3281 191.016 13.9219 191.578 14.7344C192.151 15.5365 192.438 16.5521 192.438 17.7812V23.7969C193.25 23.7969 193.781 23.875 194.031 24.0312C194.531 24.3542 194.781 24.8125 194.781 25.4062C194.781 25.875 194.62 26.2604 194.297 26.5625C193.974 26.8542 193.427 27 192.656 27H189C188.24 27 187.693 26.8542 187.359 26.5625C187.036 26.2604 186.875 25.8698 186.875 25.3906C186.875 24.8073 187.125 24.3542 187.625 24.0312C187.885 23.8646 188.417 23.7865 189.219 23.7969V18C189.219 17.1771 189.031 16.599 188.656 16.2656C188.167 15.8177 187.443 15.5938 186.484 15.5938C185.776 15.5938 185.146 15.7344 184.594 16.0156C184.052 16.2865 183.318 16.8802 182.391 17.7969V23.7969C183.214 23.7969 183.745 23.875 183.984 24.0312C184.495 24.3542 184.75 24.8125 184.75 25.4062C184.75 25.875 184.583 26.2604 184.25 26.5625C183.927 26.8542 183.38 27 182.609 27H178.969C178.198 27 177.646 26.8542 177.312 26.5625C176.99 26.2604 176.828 25.8698 176.828 25.3906C176.828 24.8073 177.083 24.3542 177.594 24.0312C177.844 23.8646 178.375 23.7865 179.188 23.7969V9.9375H178.641C177.87 9.9375 177.318 9.79167 176.984 9.5C176.661 9.19792 176.5 8.80729 176.5 8.32812C176.5 7.85938 176.661 7.47917 176.984 7.1875C177.318 6.88542 177.87 6.73438 178.641 6.73438H182.391ZM213.234 20.1719C213.234 21.401 212.891 22.5938 212.203 23.75C211.526 24.8958 210.51 25.8125 209.156 26.5C207.812 27.1771 206.406 27.5156 204.938 27.5156C203.479 27.5156 202.083 27.1823 200.75 26.5156C199.417 25.8385 198.401 24.9219 197.703 23.7656C197.005 22.6094 196.656 21.401 196.656 20.1406C196.656 18.8594 197.01 17.6042 197.719 16.375C198.427 15.1354 199.443 14.1615 200.766 13.4531C202.099 12.7448 203.49 12.3906 204.938 12.3906C206.396 12.3906 207.797 12.7552 209.141 13.4844C210.495 14.2031 211.516 15.1771 212.203 16.4062C212.891 17.625 213.234 18.8802 213.234 20.1719ZM210.031 20.1875C210.031 19.1562 209.661 18.2083 208.922 17.3438C207.911 16.1771 206.583 15.5938 204.938 15.5938C203.49 15.5938 202.281 16.0573 201.312 16.9844C200.344 17.9115 199.859 18.9844 199.859 20.2031C199.859 21.2031 200.349 22.1406 201.328 23.0156C202.307 23.8802 203.51 24.3125 204.938 24.3125C206.375 24.3125 207.583 23.8802 208.562 23.0156C209.542 22.1406 210.031 21.1979 210.031 20.1875ZM220.156 25.2344V30.4844H222.078C222.849 30.4844 223.396 30.6302 223.719 30.9219C224.052 31.224 224.219 31.6146 224.219 32.0938C224.219 32.5625 224.052 32.9427 223.719 33.2344C223.396 33.5365 222.849 33.6875 222.078 33.6875H216.406C215.635 33.6875 215.083 33.5365 214.75 33.2344C214.427 32.9427 214.266 32.5625 214.266 32.0938C214.266 31.6146 214.432 31.224 214.766 30.9219C215.099 30.6302 215.646 30.4844 216.406 30.4844H216.953V16.0156H216.406C215.635 16.0156 215.083 15.8698 214.75 15.5781C214.427 15.276 214.266 14.8854 214.266 14.4062C214.266 13.9375 214.427 13.5573 214.75 13.2656C215.083 12.9635 215.635 12.8125 216.406 12.8125H220.156V13.9062C220.906 13.3958 221.682 13.0156 222.484 12.7656C223.286 12.5156 224.109 12.3906 224.953 12.3906C227.141 12.3906 229.005 13.1354 230.547 14.625C232.089 16.1042 232.859 17.8021 232.859 19.7188C232.859 21.8333 231.948 23.5781 230.125 24.9531C228.604 26.099 226.891 26.6719 224.984 26.6719C224.161 26.6719 223.349 26.5521 222.547 26.3125C221.745 26.0729 220.948 25.7135 220.156 25.2344ZM229.656 19.7344C229.656 19.2865 229.479 18.7188 229.125 18.0312C228.771 17.3333 228.224 16.7552 227.484 16.2969C226.755 15.8281 225.896 15.5938 224.906 15.5938C223.312 15.5938 222.047 16.1927 221.109 17.3906C220.474 18.2135 220.156 19.0052 220.156 19.7656C220.156 20.6198 220.609 21.4531 221.516 22.2656C222.432 23.0677 223.562 23.4688 224.906 23.4688C226.26 23.4688 227.391 23.0677 228.297 22.2656C229.203 21.4635 229.656 20.6198 229.656 19.7344ZM246.812 16.5625C246.292 16.2396 245.745 16 245.172 15.8438C244.599 15.6771 244 15.5938 243.375 15.5938C242.135 15.5938 241.151 15.7969 240.422 16.2031C240.099 16.3802 239.938 16.5729 239.938 16.7812C239.938 17.0208 240.156 17.2552 240.594 17.4844C240.927 17.651 241.672 17.8125 242.828 17.9688C244.953 18.2604 246.432 18.5521 247.266 18.8438C248.359 19.2292 249.203 19.8021 249.797 20.5625C250.391 21.3229 250.688 22.125 250.688 22.9688C250.688 24.1146 250.182 25.0729 249.172 25.8438C247.724 26.9583 245.844 27.5156 243.531 27.5156C242.604 27.5156 241.745 27.4323 240.953 27.2656C240.172 27.1094 239.453 26.875 238.797 26.5625C238.641 26.6979 238.474 26.8021 238.297 26.875C238.12 26.9479 237.938 26.9844 237.75 26.9844C237.25 26.9844 236.849 26.8229 236.547 26.5C236.255 26.1667 236.109 25.6146 236.109 24.8438V23.7656C236.109 22.9948 236.255 22.4479 236.547 22.125C236.849 21.7917 237.24 21.625 237.719 21.625C238.104 21.625 238.427 21.7344 238.688 21.9531C238.948 22.1615 239.151 22.526 239.297 23.0469C239.786 23.4635 240.375 23.7812 241.062 24C241.75 24.2083 242.542 24.3125 243.438 24.3125C244.906 24.3125 246.047 24.0833 246.859 23.625C247.245 23.3958 247.438 23.1562 247.438 22.9062C247.438 22.4896 247.161 22.1458 246.609 21.875C246.057 21.6042 244.917 21.375 243.188 21.1875C240.615 20.9167 238.896 20.3958 238.031 19.625C237.167 18.8646 236.734 17.9271 236.734 16.8125C236.734 15.6667 237.219 14.7135 238.188 13.9531C239.5 12.9115 241.219 12.3906 243.344 12.3906C244.083 12.3906 244.792 12.4635 245.469 12.6094C246.156 12.7448 246.812 12.9583 247.438 13.25C247.635 13.1042 247.818 12.9948 247.984 12.9219C248.161 12.849 248.323 12.8125 248.469 12.8125C248.906 12.8125 249.271 12.9792 249.562 13.3125C249.854 13.6354 250 14.1823 250 14.9531V15.7344C250 16.4323 249.917 16.9062 249.75 17.1562C249.417 17.6354 248.964 17.875 248.391 17.875C248.005 17.875 247.667 17.7552 247.375 17.5156C247.083 17.276 246.896 16.9583 246.812 16.5625ZM84.9219 62.1875C84.6406 62.5208 84.4115 62.7344 84.2344 62.8281C84.0677 62.9219 83.8594 62.9688 83.6094 62.9688C83.1198 62.9688 82.724 62.8073 82.4219 62.4844C82.1302 62.151 81.9844 61.6042 81.9844 60.8438V58.6875C81.9844 57.9167 82.1302 57.3698 82.4219 57.0469C82.724 56.7135 83.1198 56.5469 83.6094 56.5469C83.9844 56.5469 84.2969 56.6458 84.5469 56.8438C84.8073 57.0417 85.0052 57.375 85.1406 57.8438C85.276 58.3021 85.4167 58.6146 85.5625 58.7812C85.8646 59.1042 86.401 59.4323 87.1719 59.7656C87.9427 60.099 88.7865 60.2656 89.7031 60.2656C91.1302 60.2656 92.3021 59.9323 93.2188 59.2656C93.8021 58.8594 94.0938 58.3594 94.0938 57.7656C94.0938 57.3698 93.9531 57 93.6719 56.6562C93.3906 56.3021 92.9323 56.0104 92.2969 55.7812C91.8802 55.625 90.9479 55.4115 89.5 55.1406C87.75 54.8177 86.4271 54.4271 85.5312 53.9688C84.6354 53.5104 83.9271 52.8646 83.4062 52.0312C82.8854 51.1979 82.625 50.2969 82.625 49.3281C82.625 47.7969 83.2656 46.4583 84.5469 45.3125C85.8281 44.1562 87.4948 43.5781 89.5469 43.5781C90.3698 43.5781 91.1302 43.6719 91.8281 43.8594C92.5365 44.0365 93.1771 44.3125 93.75 44.6875C94.1667 44.2812 94.5833 44.0781 95 44.0781C95.4688 44.0781 95.849 44.2448 96.1406 44.5781C96.4427 44.901 96.5938 45.4427 96.5938 46.2031V48.6094C96.5938 49.3802 96.4427 49.9323 96.1406 50.2656C95.849 50.5885 95.4688 50.75 95 50.75C94.6042 50.75 94.2604 50.6302 93.9688 50.3906C93.7396 50.2135 93.5677 49.8594 93.4531 49.3281C93.3385 48.7969 93.1927 48.4167 93.0156 48.1875C92.7135 47.7917 92.2604 47.4583 91.6562 47.1875C91.0521 46.9167 90.3542 46.7812 89.5625 46.7812C88.4062 46.7812 87.4896 47.0521 86.8125 47.5938C86.1458 48.125 85.8125 48.6823 85.8125 49.2656C85.8125 49.6615 85.9479 50.0469 86.2188 50.4219C86.5 50.7865 86.9062 51.0729 87.4375 51.2812C87.7917 51.4271 88.7865 51.6615 90.4219 51.9844C92.0677 52.3073 93.3281 52.6615 94.2031 53.0469C95.0885 53.4323 95.8229 54.0365 96.4062 54.8594C96.9896 55.6823 97.2812 56.6615 97.2812 57.7969C97.2812 59.3802 96.724 60.6458 95.6094 61.5938C94.1302 62.8438 92.2448 63.4688 89.9531 63.4688C89.0677 63.4688 88.2031 63.3594 87.3594 63.1406C86.526 62.9323 85.7135 62.6146 84.9219 62.1875ZM116.859 57.5312H103.719C104.052 58.3646 104.641 59.0365 105.484 59.5469C106.339 60.0573 107.49 60.3125 108.938 60.3125C110.125 60.3125 111.703 60.0573 113.672 59.5469C114.484 59.3385 115.047 59.2344 115.359 59.2344C115.786 59.2344 116.146 59.3854 116.438 59.6875C116.729 59.9896 116.875 60.3698 116.875 60.8281C116.875 61.2448 116.719 61.599 116.406 61.8906C115.99 62.276 114.974 62.6458 113.359 63C111.745 63.3438 110.193 63.5156 108.703 63.5156C106.141 63.5156 104.089 62.7917 102.547 61.3438C101.016 59.8958 100.25 58.1146 100.25 56C100.25 53.75 101.078 51.9219 102.734 50.5156C104.401 49.099 106.318 48.3906 108.484 48.3906C109.786 48.3906 110.979 48.6198 112.062 49.0781C113.156 49.5365 113.969 50.0312 114.5 50.5625C115.25 51.3333 115.87 52.2865 116.359 53.4219C116.693 54.2135 116.859 55.1302 116.859 56.1719V57.5312ZM113.312 54.3281C112.823 53.4115 112.182 52.7292 111.391 52.2812C110.599 51.8229 109.656 51.5938 108.562 51.5938C107.479 51.5938 106.542 51.8229 105.75 52.2812C104.958 52.7292 104.312 53.4115 103.812 54.3281H113.312ZM127.375 48.8125V50.8125C128.719 49.8438 129.776 49.1979 130.547 48.875C131.328 48.5521 132.057 48.3906 132.734 48.3906C133.776 48.3906 134.786 48.776 135.766 49.5469C136.432 50.0677 136.766 50.599 136.766 51.1406C136.766 51.599 136.604 51.9896 136.281 52.3125C135.969 52.625 135.589 52.7812 135.141 52.7812C134.745 52.7812 134.328 52.5833 133.891 52.1875C133.453 51.7917 133.062 51.5938 132.719 51.5938C132.271 51.5938 131.599 51.875 130.703 52.4375C129.818 53 128.708 53.8438 127.375 54.9688V59.7969H131.938C132.708 59.7969 133.255 59.9479 133.578 60.25C133.911 60.5417 134.078 60.9271 134.078 61.4062C134.078 61.875 133.911 62.2604 133.578 62.5625C133.255 62.8542 132.708 63 131.938 63H122.266C121.495 63 120.943 62.8542 120.609 62.5625C120.286 62.2604 120.125 61.8698 120.125 61.3906C120.125 60.9219 120.286 60.5417 120.609 60.25C120.943 59.9479 121.495 59.7969 122.266 59.7969H124.172V52.0156H123.016C122.245 52.0156 121.693 51.8698 121.359 51.5781C121.036 51.276 120.875 50.8854 120.875 50.4062C120.875 49.9375 121.036 49.5573 121.359 49.2656C121.693 48.9635 122.245 48.8125 123.016 48.8125H127.375ZM148.406 42.7344V46.125H144.594V42.7344H148.406ZM148.844 48.8125V59.7969H152.688C153.458 59.7969 154.005 59.9479 154.328 60.25C154.661 60.5417 154.828 60.9271 154.828 61.4062C154.828 61.875 154.661 62.2604 154.328 62.5625C154.005 62.8542 153.458 63 152.688 63H141.797C141.026 63 140.474 62.8542 140.141 62.5625C139.818 62.2604 139.656 61.8698 139.656 61.3906C139.656 60.9219 139.818 60.5417 140.141 60.25C140.474 59.9479 141.026 59.7969 141.797 59.7969H145.641V52.0156H143.062C142.302 52.0156 141.755 51.8698 141.422 51.5781C141.089 51.276 140.922 50.8854 140.922 50.4062C140.922 49.9375 141.083 49.5573 141.406 49.2656C141.74 48.9635 142.292 48.8125 143.062 48.8125H148.844ZM174.516 57.5312H161.375C161.708 58.3646 162.297 59.0365 163.141 59.5469C163.995 60.0573 165.146 60.3125 166.594 60.3125C167.781 60.3125 169.359 60.0573 171.328 59.5469C172.141 59.3385 172.703 59.2344 173.016 59.2344C173.443 59.2344 173.802 59.3854 174.094 59.6875C174.385 59.9896 174.531 60.3698 174.531 60.8281C174.531 61.2448 174.375 61.599 174.062 61.8906C173.646 62.276 172.63 62.6458 171.016 63C169.401 63.3438 167.849 63.5156 166.359 63.5156C163.797 63.5156 161.745 62.7917 160.203 61.3438C158.672 59.8958 157.906 58.1146 157.906 56C157.906 53.75 158.734 51.9219 160.391 50.5156C162.057 49.099 163.974 48.3906 166.141 48.3906C167.443 48.3906 168.635 48.6198 169.719 49.0781C170.812 49.5365 171.625 50.0312 172.156 50.5625C172.906 51.3333 173.526 52.2865 174.016 53.4219C174.349 54.2135 174.516 55.1302 174.516 56.1719V57.5312ZM170.969 54.3281C170.479 53.4115 169.839 52.7292 169.047 52.2812C168.255 51.8229 167.312 51.5938 166.219 51.5938C165.135 51.5938 164.198 51.8229 163.406 52.2812C162.615 52.7292 161.969 53.4115 161.469 54.3281H170.969ZM189.156 52.5625C188.635 52.2396 188.089 52 187.516 51.8438C186.943 51.6771 186.344 51.5938 185.719 51.5938C184.479 51.5938 183.495 51.7969 182.766 52.2031C182.443 52.3802 182.281 52.5729 182.281 52.7812C182.281 53.0208 182.5 53.2552 182.938 53.4844C183.271 53.651 184.016 53.8125 185.172 53.9688C187.297 54.2604 188.776 54.5521 189.609 54.8438C190.703 55.2292 191.547 55.8021 192.141 56.5625C192.734 57.3229 193.031 58.125 193.031 58.9688C193.031 60.1146 192.526 61.0729 191.516 61.8438C190.068 62.9583 188.188 63.5156 185.875 63.5156C184.948 63.5156 184.089 63.4323 183.297 63.2656C182.516 63.1094 181.797 62.875 181.141 62.5625C180.984 62.6979 180.818 62.8021 180.641 62.875C180.464 62.9479 180.281 62.9844 180.094 62.9844C179.594 62.9844 179.193 62.8229 178.891 62.5C178.599 62.1667 178.453 61.6146 178.453 60.8438V59.7656C178.453 58.9948 178.599 58.4479 178.891 58.125C179.193 57.7917 179.583 57.625 180.062 57.625C180.448 57.625 180.771 57.7344 181.031 57.9531C181.292 58.1615 181.495 58.526 181.641 59.0469C182.13 59.4635 182.719 59.7812 183.406 60C184.094 60.2083 184.885 60.3125 185.781 60.3125C187.25 60.3125 188.391 60.0833 189.203 59.625C189.589 59.3958 189.781 59.1562 189.781 58.9062C189.781 58.4896 189.505 58.1458 188.953 57.875C188.401 57.6042 187.26 57.375 185.531 57.1875C182.958 56.9167 181.24 56.3958 180.375 55.625C179.51 54.8646 179.078 53.9271 179.078 52.8125C179.078 51.6667 179.562 50.7135 180.531 49.9531C181.844 48.9115 183.562 48.3906 185.688 48.3906C186.427 48.3906 187.135 48.4635 187.812 48.6094C188.5 48.7448 189.156 48.9583 189.781 49.25C189.979 49.1042 190.161 48.9948 190.328 48.9219C190.505 48.849 190.667 48.8125 190.812 48.8125C191.25 48.8125 191.615 48.9792 191.906 49.3125C192.198 49.6354 192.344 50.1823 192.344 50.9531V51.7344C192.344 52.4323 192.26 52.9062 192.094 53.1562C191.76 53.6354 191.307 53.875 190.734 53.875C190.349 53.875 190.01 53.7552 189.719 53.5156C189.427 53.276 189.24 52.9583 189.156 52.5625Z" fill="white"/>
<path d="M136.438 457.797V445.266C135.76 445.255 135.26 445.104 134.938 444.812C134.615 444.51 134.453 444.125 134.453 443.656C134.453 443.177 134.615 442.792 134.938 442.5C135.271 442.198 135.823 442.047 136.594 442.047L143.297 442.062C144.339 442.062 145.354 442.255 146.344 442.641C147.344 443.026 148.146 443.516 148.75 444.109C149.208 444.557 149.682 445.172 150.172 445.953C150.672 446.734 151.047 447.51 151.297 448.281C151.547 449.052 151.672 449.995 151.672 451.109V452.641C151.672 453.995 151.443 455.198 150.984 456.25C150.526 457.292 149.922 458.146 149.172 458.812C148.432 459.469 147.734 459.953 147.078 460.266C146.036 460.755 144.688 461 143.031 461H136.594C135.823 461 135.271 460.854 134.938 460.562C134.615 460.26 134.453 459.87 134.453 459.391C134.453 458.922 134.615 458.536 134.938 458.234C135.271 457.932 135.771 457.786 136.438 457.797ZM139.641 457.797H143.047C144.318 457.797 145.276 457.615 145.922 457.25C146.766 456.771 147.401 456.161 147.828 455.422C148.255 454.682 148.469 453.724 148.469 452.547V451.031C148.469 450.021 148.276 449.135 147.891 448.375C147.286 447.188 146.604 446.375 145.844 445.938C145.094 445.49 144.151 445.266 143.016 445.266H139.641V457.797ZM170.859 455.531H157.719C158.052 456.365 158.641 457.036 159.484 457.547C160.339 458.057 161.49 458.312 162.938 458.312C164.125 458.312 165.703 458.057 167.672 457.547C168.484 457.339 169.047 457.234 169.359 457.234C169.786 457.234 170.146 457.385 170.438 457.688C170.729 457.99 170.875 458.37 170.875 458.828C170.875 459.245 170.719 459.599 170.406 459.891C169.99 460.276 168.974 460.646 167.359 461C165.745 461.344 164.193 461.516 162.703 461.516C160.141 461.516 158.089 460.792 156.547 459.344C155.016 457.896 154.25 456.115 154.25 454C154.25 451.75 155.078 449.922 156.734 448.516C158.401 447.099 160.318 446.391 162.484 446.391C163.786 446.391 164.979 446.62 166.062 447.078C167.156 447.536 167.969 448.031 168.5 448.562C169.25 449.333 169.87 450.286 170.359 451.422C170.693 452.214 170.859 453.13 170.859 454.172V455.531ZM167.312 452.328C166.823 451.411 166.182 450.729 165.391 450.281C164.599 449.823 163.656 449.594 162.562 449.594C161.479 449.594 160.542 449.823 159.75 450.281C158.958 450.729 158.312 451.411 157.812 452.328H167.312ZM182.062 457.109L185.516 450.016C184.661 450.016 184.115 449.943 183.875 449.797C183.354 449.474 183.094 449.01 183.094 448.406C183.094 447.938 183.255 447.557 183.578 447.266C183.911 446.964 184.464 446.812 185.234 446.812H189.625C190.396 446.812 190.943 446.964 191.266 447.266C191.599 447.557 191.766 447.943 191.766 448.422C191.766 448.891 191.599 449.276 191.266 449.578C190.943 449.87 190.396 450.016 189.625 450.016H189.094L183.734 461H180.391L175.031 450.016H174.578C173.807 450.016 173.255 449.87 172.922 449.578C172.599 449.276 172.438 448.885 172.438 448.406C172.438 447.938 172.599 447.557 172.922 447.266C173.255 446.964 173.807 446.812 174.578 446.812H178.875C179.635 446.812 180.177 446.964 180.5 447.266C180.833 447.557 181 447.943 181 448.422C181 449.016 180.75 449.469 180.25 449.781C180 449.938 179.443 450.016 178.578 450.016L182.062 457.109ZM210.25 451.531C210.25 454.375 209.344 456.745 207.531 458.641C205.729 460.526 203.641 461.469 201.266 461.469C199.13 461.469 197.203 460.682 195.484 459.109C193.359 457.161 192.297 454.635 192.297 451.531C192.297 448.427 193.359 445.896 195.484 443.938C197.203 442.365 199.13 441.578 201.266 441.578C203.641 441.578 205.729 442.526 207.531 444.422C209.344 446.307 210.25 448.677 210.25 451.531ZM207.047 451.531C207.047 449.583 206.458 447.974 205.281 446.703C204.104 445.422 202.766 444.781 201.266 444.781C199.776 444.781 198.443 445.422 197.266 446.703C196.089 447.984 195.5 449.594 195.5 451.531C195.5 453.469 196.089 455.078 197.266 456.359C198.443 457.63 199.776 458.266 201.266 458.266C202.766 458.266 204.104 457.63 205.281 456.359C206.458 455.089 207.047 453.479 207.047 451.531ZM216.5 459.234V464.484H218.422C219.193 464.484 219.74 464.63 220.062 464.922C220.396 465.224 220.562 465.615 220.562 466.094C220.562 466.562 220.396 466.943 220.062 467.234C219.74 467.536 219.193 467.688 218.422 467.688H212.75C211.979 467.688 211.427 467.536 211.094 467.234C210.771 466.943 210.609 466.562 210.609 466.094C210.609 465.615 210.776 465.224 211.109 464.922C211.443 464.63 211.99 464.484 212.75 464.484H213.297V450.016H212.75C211.979 450.016 211.427 449.87 211.094 449.578C210.771 449.276 210.609 448.885 210.609 448.406C210.609 447.938 210.771 447.557 211.094 447.266C211.427 446.964 211.979 446.812 212.75 446.812H216.5V447.906C217.25 447.396 218.026 447.016 218.828 446.766C219.63 446.516 220.453 446.391 221.297 446.391C223.484 446.391 225.349 447.135 226.891 448.625C228.432 450.104 229.203 451.802 229.203 453.719C229.203 455.833 228.292 457.578 226.469 458.953C224.948 460.099 223.234 460.672 221.328 460.672C220.505 460.672 219.693 460.552 218.891 460.312C218.089 460.073 217.292 459.714 216.5 459.234ZM226 453.734C226 453.286 225.823 452.719 225.469 452.031C225.115 451.333 224.568 450.755 223.828 450.297C223.099 449.828 222.24 449.594 221.25 449.594C219.656 449.594 218.391 450.193 217.453 451.391C216.818 452.214 216.5 453.005 216.5 453.766C216.5 454.62 216.953 455.453 217.859 456.266C218.776 457.068 219.906 457.469 221.25 457.469C222.604 457.469 223.734 457.068 224.641 456.266C225.547 455.464 226 454.62 226 453.734ZM243.156 450.562C242.635 450.24 242.089 450 241.516 449.844C240.943 449.677 240.344 449.594 239.719 449.594C238.479 449.594 237.495 449.797 236.766 450.203C236.443 450.38 236.281 450.573 236.281 450.781C236.281 451.021 236.5 451.255 236.938 451.484C237.271 451.651 238.016 451.812 239.172 451.969C241.297 452.26 242.776 452.552 243.609 452.844C244.703 453.229 245.547 453.802 246.141 454.562C246.734 455.323 247.031 456.125 247.031 456.969C247.031 458.115 246.526 459.073 245.516 459.844C244.068 460.958 242.188 461.516 239.875 461.516C238.948 461.516 238.089 461.432 237.297 461.266C236.516 461.109 235.797 460.875 235.141 460.562C234.984 460.698 234.818 460.802 234.641 460.875C234.464 460.948 234.281 460.984 234.094 460.984C233.594 460.984 233.193 460.823 232.891 460.5C232.599 460.167 232.453 459.615 232.453 458.844V457.766C232.453 456.995 232.599 456.448 232.891 456.125C233.193 455.792 233.583 455.625 234.062 455.625C234.448 455.625 234.771 455.734 235.031 455.953C235.292 456.161 235.495 456.526 235.641 457.047C236.13 457.464 236.719 457.781 237.406 458C238.094 458.208 238.885 458.312 239.781 458.312C241.25 458.312 242.391 458.083 243.203 457.625C243.589 457.396 243.781 457.156 243.781 456.906C243.781 456.49 243.505 456.146 242.953 455.875C242.401 455.604 241.26 455.375 239.531 455.188C236.958 454.917 235.24 454.396 234.375 453.625C233.51 452.865 233.078 451.927 233.078 450.812C233.078 449.667 233.562 448.714 234.531 447.953C235.844 446.911 237.562 446.391 239.688 446.391C240.427 446.391 241.135 446.464 241.812 446.609C242.5 446.745 243.156 446.958 243.781 447.25C243.979 447.104 244.161 446.995 244.328 446.922C244.505 446.849 244.667 446.812 244.812 446.812C245.25 446.812 245.615 446.979 245.906 447.312C246.198 447.635 246.344 448.182 246.344 448.953V449.734C246.344 450.432 246.26 450.906 246.094 451.156C245.76 451.635 245.307 451.875 244.734 451.875C244.349 451.875 244.01 451.755 243.719 451.516C243.427 451.276 243.24 450.958 243.156 450.562ZM143.609 487.906L140.641 497H137.047L135.141 481.266C134.651 481.203 134.281 481.036 134.031 480.766C133.781 480.484 133.656 480.13 133.656 479.703C133.656 479.203 133.818 478.802 134.141 478.5C134.474 478.198 135.026 478.047 135.797 478.047L140.062 478.062C140.833 478.062 141.38 478.208 141.703 478.5C142.036 478.792 142.203 479.177 142.203 479.656C142.203 480.135 142.036 480.526 141.703 480.828C141.38 481.12 140.833 481.266 140.062 481.266H138.391L139.453 490.219L141.969 482.766H145.297L147.797 490.219L148.859 481.266H147.188C146.417 481.266 145.865 481.12 145.531 480.828C145.208 480.526 145.047 480.135 145.047 479.656C145.047 479.177 145.208 478.792 145.531 478.5C145.865 478.198 146.417 478.047 147.188 478.047L151.438 478.062C152.208 478.062 152.755 478.208 153.078 478.5C153.411 478.792 153.578 479.177 153.578 479.656C153.578 480.062 153.448 480.411 153.188 480.703C152.927 480.995 152.552 481.182 152.062 481.266L150.219 497H146.688L143.609 487.906ZM171.141 490.172C171.141 491.401 170.797 492.594 170.109 493.75C169.432 494.896 168.417 495.812 167.062 496.5C165.719 497.177 164.312 497.516 162.844 497.516C161.385 497.516 159.99 497.182 158.656 496.516C157.323 495.839 156.307 494.922 155.609 493.766C154.911 492.609 154.562 491.401 154.562 490.141C154.562 488.859 154.917 487.604 155.625 486.375C156.333 485.135 157.349 484.161 158.672 483.453C160.005 482.745 161.396 482.391 162.844 482.391C164.302 482.391 165.703 482.755 167.047 483.484C168.401 484.203 169.422 485.177 170.109 486.406C170.797 487.625 171.141 488.88 171.141 490.172ZM167.938 490.188C167.938 489.156 167.568 488.208 166.828 487.344C165.818 486.177 164.49 485.594 162.844 485.594C161.396 485.594 160.188 486.057 159.219 486.984C158.25 487.911 157.766 488.984 157.766 490.203C157.766 491.203 158.255 492.141 159.234 493.016C160.214 493.88 161.417 494.312 162.844 494.312C164.281 494.312 165.49 493.88 166.469 493.016C167.448 492.141 167.938 491.198 167.938 490.188ZM181.375 482.812V484.812C182.719 483.844 183.776 483.198 184.547 482.875C185.328 482.552 186.057 482.391 186.734 482.391C187.776 482.391 188.786 482.776 189.766 483.547C190.432 484.068 190.766 484.599 190.766 485.141C190.766 485.599 190.604 485.99 190.281 486.312C189.969 486.625 189.589 486.781 189.141 486.781C188.745 486.781 188.328 486.583 187.891 486.188C187.453 485.792 187.062 485.594 186.719 485.594C186.271 485.594 185.599 485.875 184.703 486.438C183.818 487 182.708 487.844 181.375 488.969V493.797H185.938C186.708 493.797 187.255 493.948 187.578 494.25C187.911 494.542 188.078 494.927 188.078 495.406C188.078 495.875 187.911 496.26 187.578 496.562C187.255 496.854 186.708 497 185.938 497H176.266C175.495 497 174.943 496.854 174.609 496.562C174.286 496.26 174.125 495.87 174.125 495.391C174.125 494.922 174.286 494.542 174.609 494.25C174.943 493.948 175.495 493.797 176.266 493.797H178.172V486.016H177.016C176.245 486.016 175.693 485.87 175.359 485.578C175.036 485.276 174.875 484.885 174.875 484.406C174.875 483.938 175.036 483.557 175.359 483.266C175.693 482.964 176.245 482.812 177.016 482.812H181.375ZM198.625 491.672V497H194.875C194.104 497 193.552 496.854 193.219 496.562C192.896 496.26 192.734 495.87 192.734 495.391C192.734 494.922 192.901 494.542 193.234 494.25C193.568 493.948 194.115 493.797 194.875 493.797H195.422V479.938H194.875C194.104 479.938 193.552 479.792 193.219 479.5C192.896 479.198 192.734 478.807 192.734 478.328C192.734 477.859 192.896 477.479 193.219 477.188C193.552 476.885 194.104 476.734 194.875 476.734H198.625V487.531L201.125 485.516C200.865 485.068 200.734 484.703 200.734 484.422C200.734 483.943 200.896 483.557 201.219 483.266C201.542 482.964 202.089 482.812 202.859 482.812H206.516C207.286 482.812 207.833 482.964 208.156 483.266C208.49 483.557 208.656 483.943 208.656 484.422C208.656 484.891 208.49 485.276 208.156 485.578C207.833 485.87 207.286 486.016 206.516 486.016H205.625L201.734 489.172L206.969 493.797H207.906C208.677 493.797 209.224 493.948 209.547 494.25C209.88 494.542 210.047 494.927 210.047 495.406C210.047 495.875 209.88 496.26 209.547 496.562C209.224 496.854 208.677 497 207.906 497H204.219C203.448 497 202.896 496.854 202.562 496.562C202.24 496.26 202.078 495.87 202.078 495.391C202.078 494.984 202.255 494.583 202.609 494.188L199.219 491.188L198.625 491.672ZM223.938 486.562C223.417 486.24 222.87 486 222.297 485.844C221.724 485.677 221.125 485.594 220.5 485.594C219.26 485.594 218.276 485.797 217.547 486.203C217.224 486.38 217.062 486.573 217.062 486.781C217.062 487.021 217.281 487.255 217.719 487.484C218.052 487.651 218.797 487.812 219.953 487.969C222.078 488.26 223.557 488.552 224.391 488.844C225.484 489.229 226.328 489.802 226.922 490.562C227.516 491.323 227.812 492.125 227.812 492.969C227.812 494.115 227.307 495.073 226.297 495.844C224.849 496.958 222.969 497.516 220.656 497.516C219.729 497.516 218.87 497.432 218.078 497.266C217.297 497.109 216.578 496.875 215.922 496.562C215.766 496.698 215.599 496.802 215.422 496.875C215.245 496.948 215.062 496.984 214.875 496.984C214.375 496.984 213.974 496.823 213.672 496.5C213.38 496.167 213.234 495.615 213.234 494.844V493.766C213.234 492.995 213.38 492.448 213.672 492.125C213.974 491.792 214.365 491.625 214.844 491.625C215.229 491.625 215.552 491.734 215.812 491.953C216.073 492.161 216.276 492.526 216.422 493.047C216.911 493.464 217.5 493.781 218.188 494C218.875 494.208 219.667 494.312 220.562 494.312C222.031 494.312 223.172 494.083 223.984 493.625C224.37 493.396 224.562 493.156 224.562 492.906C224.562 492.49 224.286 492.146 223.734 491.875C223.182 491.604 222.042 491.375 220.312 491.188C217.74 490.917 216.021 490.396 215.156 489.625C214.292 488.865 213.859 487.927 213.859 486.812C213.859 485.667 214.344 484.714 215.312 483.953C216.625 482.911 218.344 482.391 220.469 482.391C221.208 482.391 221.917 482.464 222.594 482.609C223.281 482.745 223.938 482.958 224.562 483.25C224.76 483.104 224.943 482.995 225.109 482.922C225.286 482.849 225.448 482.812 225.594 482.812C226.031 482.812 226.396 482.979 226.688 483.312C226.979 483.635 227.125 484.182 227.125 484.953V485.734C227.125 486.432 227.042 486.906 226.875 487.156C226.542 487.635 226.089 487.875 225.516 487.875C225.13 487.875 224.792 487.755 224.5 487.516C224.208 487.276 224.021 486.958 223.938 486.562ZM236.391 476.734V483.562C237.057 483.167 237.729 482.875 238.406 482.688C239.094 482.49 239.786 482.391 240.484 482.391C241.589 482.391 242.573 482.578 243.438 482.953C244.302 483.328 245.016 483.922 245.578 484.734C246.151 485.536 246.438 486.552 246.438 487.781V493.797C247.25 493.797 247.781 493.875 248.031 494.031C248.531 494.354 248.781 494.812 248.781 495.406C248.781 495.875 248.62 496.26 248.297 496.562C247.974 496.854 247.427 497 246.656 497H243C242.24 497 241.693 496.854 241.359 496.562C241.036 496.26 240.875 495.87 240.875 495.391C240.875 494.807 241.125 494.354 241.625 494.031C241.885 493.865 242.417 493.786 243.219 493.797V488C243.219 487.177 243.031 486.599 242.656 486.266C242.167 485.818 241.443 485.594 240.484 485.594C239.776 485.594 239.146 485.734 238.594 486.016C238.052 486.286 237.318 486.88 236.391 487.797V493.797C237.214 493.797 237.745 493.875 237.984 494.031C238.495 494.354 238.75 494.812 238.75 495.406C238.75 495.875 238.583 496.26 238.25 496.562C237.927 496.854 237.38 497 236.609 497H232.969C232.198 497 231.646 496.854 231.312 496.562C230.99 496.26 230.828 495.87 230.828 495.391C230.828 494.807 231.083 494.354 231.594 494.031C231.844 493.865 232.375 493.786 233.188 493.797V479.938H232.641C231.87 479.938 231.318 479.792 230.984 479.5C230.661 479.198 230.5 478.807 230.5 478.328C230.5 477.859 230.661 477.479 230.984 477.188C231.318 476.885 231.87 476.734 232.641 476.734H236.391ZM267.234 490.172C267.234 491.401 266.891 492.594 266.203 493.75C265.526 494.896 264.51 495.812 263.156 496.5C261.812 497.177 260.406 497.516 258.938 497.516C257.479 497.516 256.083 497.182 254.75 496.516C253.417 495.839 252.401 494.922 251.703 493.766C251.005 492.609 250.656 491.401 250.656 490.141C250.656 488.859 251.01 487.604 251.719 486.375C252.427 485.135 253.443 484.161 254.766 483.453C256.099 482.745 257.49 482.391 258.938 482.391C260.396 482.391 261.797 482.755 263.141 483.484C264.495 484.203 265.516 485.177 266.203 486.406C266.891 487.625 267.234 488.88 267.234 490.172ZM264.031 490.188C264.031 489.156 263.661 488.208 262.922 487.344C261.911 486.177 260.583 485.594 258.938 485.594C257.49 485.594 256.281 486.057 255.312 486.984C254.344 487.911 253.859 488.984 253.859 490.203C253.859 491.203 254.349 492.141 255.328 493.016C256.307 493.88 257.51 494.312 258.938 494.312C260.375 494.312 261.583 493.88 262.562 493.016C263.542 492.141 264.031 491.198 264.031 490.188ZM274.156 495.234V500.484H276.078C276.849 500.484 277.396 500.63 277.719 500.922C278.052 501.224 278.219 501.615 278.219 502.094C278.219 502.562 278.052 502.943 277.719 503.234C277.396 503.536 276.849 503.688 276.078 503.688H270.406C269.635 503.688 269.083 503.536 268.75 503.234C268.427 502.943 268.266 502.562 268.266 502.094C268.266 501.615 268.432 501.224 268.766 500.922C269.099 500.63 269.646 500.484 270.406 500.484H270.953V486.016H270.406C269.635 486.016 269.083 485.87 268.75 485.578C268.427 485.276 268.266 484.885 268.266 484.406C268.266 483.938 268.427 483.557 268.75 483.266C269.083 482.964 269.635 482.812 270.406 482.812H274.156V483.906C274.906 483.396 275.682 483.016 276.484 482.766C277.286 482.516 278.109 482.391 278.953 482.391C281.141 482.391 283.005 483.135 284.547 484.625C286.089 486.104 286.859 487.802 286.859 489.719C286.859 491.833 285.948 493.578 284.125 494.953C282.604 496.099 280.891 496.672 278.984 496.672C278.161 496.672 277.349 496.552 276.547 496.312C275.745 496.073 274.948 495.714 274.156 495.234ZM283.656 489.734C283.656 489.286 283.479 488.719 283.125 488.031C282.771 487.333 282.224 486.755 281.484 486.297C280.755 485.828 279.896 485.594 278.906 485.594C277.312 485.594 276.047 486.193 275.109 487.391C274.474 488.214 274.156 489.005 274.156 489.766C274.156 490.62 274.609 491.453 275.516 492.266C276.432 493.068 277.562 493.469 278.906 493.469C280.26 493.469 281.391 493.068 282.297 492.266C283.203 491.464 283.656 490.62 283.656 489.734Z" fill="white"/>
<path d="M141.406 300.109V304.797H144.688C145.458 304.797 146.005 304.948 146.328 305.25C146.661 305.542 146.828 305.927 146.828 306.406C146.828 306.875 146.661 307.26 146.328 307.562C146.005 307.854 145.458 308 144.688 308H137.703C136.932 308 136.38 307.854 136.047 307.562C135.724 307.26 135.562 306.87 135.562 306.391C135.562 305.922 135.729 305.542 136.062 305.25C136.396 304.948 136.943 304.797 137.703 304.797H138.203V292.266H137.703C136.932 292.266 136.38 292.12 136.047 291.828C135.724 291.526 135.562 291.135 135.562 290.656C135.562 290.177 135.724 289.792 136.047 289.5C136.38 289.198 136.932 289.047 137.703 289.047L152.781 289.062V293.953C152.781 294.714 152.63 295.26 152.328 295.594C152.036 295.917 151.651 296.078 151.172 296.078C150.703 296.078 150.318 295.917 150.016 295.594C149.724 295.271 149.578 294.724 149.578 293.953V292.266H141.406V296.906H144.219C144.219 296.073 144.297 295.536 144.453 295.297C144.776 294.786 145.234 294.531 145.828 294.531C146.297 294.531 146.677 294.698 146.969 295.031C147.271 295.354 147.422 295.901 147.422 296.672V300.359C147.422 301.13 147.271 301.682 146.969 302.016C146.677 302.339 146.292 302.5 145.812 302.5C145.229 302.5 144.776 302.245 144.453 301.734C144.297 301.495 144.219 300.953 144.219 300.109H141.406ZM162.156 293.812V295.812C163.5 294.844 164.557 294.198 165.328 293.875C166.109 293.552 166.839 293.391 167.516 293.391C168.557 293.391 169.568 293.776 170.547 294.547C171.214 295.068 171.547 295.599 171.547 296.141C171.547 296.599 171.385 296.99 171.062 297.312C170.75 297.625 170.37 297.781 169.922 297.781C169.526 297.781 169.109 297.583 168.672 297.188C168.234 296.792 167.844 296.594 167.5 296.594C167.052 296.594 166.38 296.875 165.484 297.438C164.599 298 163.49 298.844 162.156 299.969V304.797H166.719C167.49 304.797 168.036 304.948 168.359 305.25C168.693 305.542 168.859 305.927 168.859 306.406C168.859 306.875 168.693 307.26 168.359 307.562C168.036 307.854 167.49 308 166.719 308H157.047C156.276 308 155.724 307.854 155.391 307.562C155.068 307.26 154.906 306.87 154.906 306.391C154.906 305.922 155.068 305.542 155.391 305.25C155.724 304.948 156.276 304.797 157.047 304.797H158.953V297.016H157.797C157.026 297.016 156.474 296.87 156.141 296.578C155.818 296.276 155.656 295.885 155.656 295.406C155.656 294.938 155.818 294.557 156.141 294.266C156.474 293.964 157.026 293.812 157.797 293.812H162.156ZM190.359 301.172C190.359 302.401 190.016 303.594 189.328 304.75C188.651 305.896 187.635 306.812 186.281 307.5C184.938 308.177 183.531 308.516 182.062 308.516C180.604 308.516 179.208 308.182 177.875 307.516C176.542 306.839 175.526 305.922 174.828 304.766C174.13 303.609 173.781 302.401 173.781 301.141C173.781 299.859 174.135 298.604 174.844 297.375C175.552 296.135 176.568 295.161 177.891 294.453C179.224 293.745 180.615 293.391 182.062 293.391C183.521 293.391 184.922 293.755 186.266 294.484C187.62 295.203 188.641 296.177 189.328 297.406C190.016 298.625 190.359 299.88 190.359 301.172ZM187.156 301.188C187.156 300.156 186.786 299.208 186.047 298.344C185.036 297.177 183.708 296.594 182.062 296.594C180.615 296.594 179.406 297.057 178.438 297.984C177.469 298.911 176.984 299.984 176.984 301.203C176.984 302.203 177.474 303.141 178.453 304.016C179.432 304.88 180.635 305.312 182.062 305.312C183.5 305.312 184.708 304.88 185.688 304.016C186.667 303.141 187.156 302.198 187.156 301.188ZM198.016 293.812V294.891C198.599 294.391 199.24 294.016 199.938 293.766C200.646 293.516 201.411 293.391 202.234 293.391C204.13 293.391 205.63 293.979 206.734 295.156C207.609 296.094 208.047 297.323 208.047 298.844V304.797C208.724 304.797 209.224 304.948 209.547 305.25C209.87 305.542 210.031 305.927 210.031 306.406C210.031 306.875 209.865 307.26 209.531 307.562C209.208 307.854 208.661 308 207.891 308H205C204.229 308 203.677 307.854 203.344 307.562C203.021 307.26 202.859 306.87 202.859 306.391C202.859 305.922 203.021 305.542 203.344 305.25C203.667 304.948 204.167 304.797 204.844 304.797V298.75C204.844 298.052 204.656 297.542 204.281 297.219C203.792 296.802 203.057 296.594 202.078 296.594C201.339 296.594 200.688 296.74 200.125 297.031C199.573 297.312 198.87 297.917 198.016 298.844V304.797C198.839 304.797 199.37 304.875 199.609 305.031C200.12 305.344 200.375 305.802 200.375 306.406C200.375 306.875 200.208 307.26 199.875 307.562C199.552 307.854 199.005 308 198.234 308H194.594C193.823 308 193.271 307.854 192.938 307.562C192.615 307.26 192.453 306.87 192.453 306.391C192.453 305.807 192.703 305.354 193.203 305.031C193.453 304.875 193.99 304.797 194.812 304.797V297.016C194.135 297.016 193.635 296.865 193.312 296.562C192.99 296.26 192.828 295.875 192.828 295.406C192.828 294.938 192.99 294.557 193.312 294.266C193.646 293.964 194.198 293.812 194.969 293.812H198.016ZM219.688 297.016V303.438C219.688 304.125 219.828 304.578 220.109 304.797C220.547 305.141 221.328 305.312 222.453 305.312C224.089 305.312 225.599 304.964 226.984 304.266C227.516 303.995 227.932 303.859 228.234 303.859C228.651 303.859 229.01 304.016 229.312 304.328C229.625 304.641 229.781 305.021 229.781 305.469C229.781 305.885 229.615 306.245 229.281 306.547C228.771 307.036 227.76 307.49 226.25 307.906C224.75 308.312 223.484 308.516 222.453 308.516C220.464 308.516 218.969 308.089 217.969 307.234C216.979 306.37 216.484 305.312 216.484 304.062V297.016H215.328C214.557 297.016 214.005 296.87 213.672 296.578C213.349 296.276 213.188 295.885 213.188 295.406C213.188 294.938 213.349 294.557 213.672 294.266C214.005 293.964 214.557 293.812 215.328 293.812H216.484V290.922C216.484 290.151 216.63 289.604 216.922 289.281C217.224 288.948 217.615 288.781 218.094 288.781C218.562 288.781 218.943 288.948 219.234 289.281C219.536 289.604 219.688 290.151 219.688 290.922V293.812H225.609C226.38 293.812 226.927 293.964 227.25 294.266C227.583 294.557 227.75 294.943 227.75 295.422C227.75 295.891 227.583 296.276 227.25 296.578C226.927 296.87 226.38 297.016 225.609 297.016H219.688ZM255.625 300.094V304.797H263.797V303.062C263.797 302.292 263.943 301.745 264.234 301.422C264.536 301.089 264.927 300.922 265.406 300.922C265.875 300.922 266.255 301.089 266.547 301.422C266.849 301.745 267 302.292 267 303.062V308H251.922C251.151 308 250.599 307.854 250.266 307.562C249.943 307.26 249.781 306.87 249.781 306.391C249.781 305.922 249.948 305.542 250.281 305.25C250.615 304.948 251.161 304.797 251.922 304.797H252.422V292.266H251.922C251.151 292.266 250.599 292.12 250.266 291.828C249.943 291.526 249.781 291.135 249.781 290.656C249.781 290.177 249.943 289.792 250.266 289.5C250.599 289.198 251.151 289.047 251.922 289.047L266.297 289.062V293.938C266.297 294.698 266.151 295.245 265.859 295.578C265.568 295.901 265.182 296.062 264.703 296.062C264.224 296.062 263.833 295.901 263.531 295.578C263.24 295.255 263.094 294.708 263.094 293.938V292.266H255.625V296.891H258.438C258.438 296.057 258.516 295.521 258.672 295.281C258.995 294.771 259.453 294.516 260.047 294.516C260.516 294.516 260.896 294.682 261.188 295.016C261.49 295.339 261.641 295.885 261.641 296.656V300.344C261.641 301.042 261.557 301.51 261.391 301.75C261.057 302.24 260.609 302.484 260.047 302.484C259.453 302.484 258.995 302.229 258.672 301.719C258.516 301.479 258.438 300.938 258.438 300.094H255.625ZM274.891 293.812V294.891C275.474 294.391 276.115 294.016 276.812 293.766C277.521 293.516 278.286 293.391 279.109 293.391C281.005 293.391 282.505 293.979 283.609 295.156C284.484 296.094 284.922 297.323 284.922 298.844V304.797C285.599 304.797 286.099 304.948 286.422 305.25C286.745 305.542 286.906 305.927 286.906 306.406C286.906 306.875 286.74 307.26 286.406 307.562C286.083 307.854 285.536 308 284.766 308H281.875C281.104 308 280.552 307.854 280.219 307.562C279.896 307.26 279.734 306.87 279.734 306.391C279.734 305.922 279.896 305.542 280.219 305.25C280.542 304.948 281.042 304.797 281.719 304.797V298.75C281.719 298.052 281.531 297.542 281.156 297.219C280.667 296.802 279.932 296.594 278.953 296.594C278.214 296.594 277.562 296.74 277 297.031C276.448 297.312 275.745 297.917 274.891 298.844V304.797C275.714 304.797 276.245 304.875 276.484 305.031C276.995 305.344 277.25 305.802 277.25 306.406C277.25 306.875 277.083 307.26 276.75 307.562C276.427 307.854 275.88 308 275.109 308H271.469C270.698 308 270.146 307.854 269.812 307.562C269.49 307.26 269.328 306.87 269.328 306.391C269.328 305.807 269.578 305.354 270.078 305.031C270.328 304.875 270.865 304.797 271.688 304.797V297.016C271.01 297.016 270.51 296.865 270.188 296.562C269.865 296.26 269.703 295.875 269.703 295.406C269.703 294.938 269.865 294.557 270.188 294.266C270.521 293.964 271.073 293.812 271.844 293.812H274.891ZM304.703 287.734V304.797H305.25C306.01 304.797 306.557 304.948 306.891 305.25C307.224 305.542 307.391 305.927 307.391 306.406C307.391 306.875 307.224 307.26 306.891 307.562C306.568 307.854 306.021 308 305.25 308H301.5V307.219C300.771 307.646 300.005 307.969 299.203 308.188C298.411 308.406 297.589 308.516 296.734 308.516C294.328 308.516 292.391 307.823 290.922 306.438C289.453 305.042 288.719 303.307 288.719 301.234C288.719 299.068 289.49 297.219 291.031 295.688C292.573 294.156 294.453 293.391 296.672 293.391C297.505 293.391 298.323 293.521 299.125 293.781C299.927 294.031 300.719 294.411 301.5 294.922V290.938H300.953C300.182 290.938 299.63 290.792 299.297 290.5C298.974 290.198 298.812 289.812 298.812 289.344C298.812 288.865 298.974 288.479 299.297 288.188C299.63 287.885 300.182 287.734 300.953 287.734H304.703ZM301.5 301.328C301.5 300.005 301.036 298.885 300.109 297.969C299.182 297.052 298.047 296.594 296.703 296.594C295.37 296.594 294.24 297.052 293.312 297.969C292.385 298.885 291.922 299.99 291.922 301.281C291.922 302.458 292.339 303.427 293.172 304.188C294.005 304.938 295.182 305.312 296.703 305.312C298.214 305.312 299.391 304.938 300.234 304.188C301.078 303.427 301.5 302.474 301.5 301.328ZM143.609 334.906L140.641 344H137.047L135.141 328.266C134.651 328.203 134.281 328.036 134.031 327.766C133.781 327.484 133.656 327.13 133.656 326.703C133.656 326.203 133.818 325.802 134.141 325.5C134.474 325.198 135.026 325.047 135.797 325.047L140.062 325.062C140.833 325.062 141.38 325.208 141.703 325.5C142.036 325.792 142.203 326.177 142.203 326.656C142.203 327.135 142.036 327.526 141.703 327.828C141.38 328.12 140.833 328.266 140.062 328.266H138.391L139.453 337.219L141.969 329.766H145.297L147.797 337.219L148.859 328.266H147.188C146.417 328.266 145.865 328.12 145.531 327.828C145.208 327.526 145.047 327.135 145.047 326.656C145.047 326.177 145.208 325.792 145.531 325.5C145.865 325.198 146.417 325.047 147.188 325.047L151.438 325.062C152.208 325.062 152.755 325.208 153.078 325.5C153.411 325.792 153.578 326.177 153.578 326.656C153.578 327.062 153.448 327.411 153.188 327.703C152.927 327.995 152.552 328.182 152.062 328.266L150.219 344H146.688L143.609 334.906ZM171.141 337.172C171.141 338.401 170.797 339.594 170.109 340.75C169.432 341.896 168.417 342.812 167.062 343.5C165.719 344.177 164.312 344.516 162.844 344.516C161.385 344.516 159.99 344.182 158.656 343.516C157.323 342.839 156.307 341.922 155.609 340.766C154.911 339.609 154.562 338.401 154.562 337.141C154.562 335.859 154.917 334.604 155.625 333.375C156.333 332.135 157.349 331.161 158.672 330.453C160.005 329.745 161.396 329.391 162.844 329.391C164.302 329.391 165.703 329.755 167.047 330.484C168.401 331.203 169.422 332.177 170.109 333.406C170.797 334.625 171.141 335.88 171.141 337.172ZM167.938 337.188C167.938 336.156 167.568 335.208 166.828 334.344C165.818 333.177 164.49 332.594 162.844 332.594C161.396 332.594 160.188 333.057 159.219 333.984C158.25 334.911 157.766 335.984 157.766 337.203C157.766 338.203 158.255 339.141 159.234 340.016C160.214 340.88 161.417 341.312 162.844 341.312C164.281 341.312 165.49 340.88 166.469 340.016C167.448 339.141 167.938 338.198 167.938 337.188ZM181.375 329.812V331.812C182.719 330.844 183.776 330.198 184.547 329.875C185.328 329.552 186.057 329.391 186.734 329.391C187.776 329.391 188.786 329.776 189.766 330.547C190.432 331.068 190.766 331.599 190.766 332.141C190.766 332.599 190.604 332.99 190.281 333.312C189.969 333.625 189.589 333.781 189.141 333.781C188.745 333.781 188.328 333.583 187.891 333.188C187.453 332.792 187.062 332.594 186.719 332.594C186.271 332.594 185.599 332.875 184.703 333.438C183.818 334 182.708 334.844 181.375 335.969V340.797H185.938C186.708 340.797 187.255 340.948 187.578 341.25C187.911 341.542 188.078 341.927 188.078 342.406C188.078 342.875 187.911 343.26 187.578 343.562C187.255 343.854 186.708 344 185.938 344H176.266C175.495 344 174.943 343.854 174.609 343.562C174.286 343.26 174.125 342.87 174.125 342.391C174.125 341.922 174.286 341.542 174.609 341.25C174.943 340.948 175.495 340.797 176.266 340.797H178.172V333.016H177.016C176.245 333.016 175.693 332.87 175.359 332.578C175.036 332.276 174.875 331.885 174.875 331.406C174.875 330.938 175.036 330.557 175.359 330.266C175.693 329.964 176.245 329.812 177.016 329.812H181.375ZM198.625 338.672V344H194.875C194.104 344 193.552 343.854 193.219 343.562C192.896 343.26 192.734 342.87 192.734 342.391C192.734 341.922 192.901 341.542 193.234 341.25C193.568 340.948 194.115 340.797 194.875 340.797H195.422V326.938H194.875C194.104 326.938 193.552 326.792 193.219 326.5C192.896 326.198 192.734 325.807 192.734 325.328C192.734 324.859 192.896 324.479 193.219 324.188C193.552 323.885 194.104 323.734 194.875 323.734H198.625V334.531L201.125 332.516C200.865 332.068 200.734 331.703 200.734 331.422C200.734 330.943 200.896 330.557 201.219 330.266C201.542 329.964 202.089 329.812 202.859 329.812H206.516C207.286 329.812 207.833 329.964 208.156 330.266C208.49 330.557 208.656 330.943 208.656 331.422C208.656 331.891 208.49 332.276 208.156 332.578C207.833 332.87 207.286 333.016 206.516 333.016H205.625L201.734 336.172L206.969 340.797H207.906C208.677 340.797 209.224 340.948 209.547 341.25C209.88 341.542 210.047 341.927 210.047 342.406C210.047 342.875 209.88 343.26 209.547 343.562C209.224 343.854 208.677 344 207.906 344H204.219C203.448 344 202.896 343.854 202.562 343.562C202.24 343.26 202.078 342.87 202.078 342.391C202.078 341.984 202.255 341.583 202.609 341.188L199.219 338.188L198.625 338.672ZM223.938 333.562C223.417 333.24 222.87 333 222.297 332.844C221.724 332.677 221.125 332.594 220.5 332.594C219.26 332.594 218.276 332.797 217.547 333.203C217.224 333.38 217.062 333.573 217.062 333.781C217.062 334.021 217.281 334.255 217.719 334.484C218.052 334.651 218.797 334.812 219.953 334.969C222.078 335.26 223.557 335.552 224.391 335.844C225.484 336.229 226.328 336.802 226.922 337.562C227.516 338.323 227.812 339.125 227.812 339.969C227.812 341.115 227.307 342.073 226.297 342.844C224.849 343.958 222.969 344.516 220.656 344.516C219.729 344.516 218.87 344.432 218.078 344.266C217.297 344.109 216.578 343.875 215.922 343.562C215.766 343.698 215.599 343.802 215.422 343.875C215.245 343.948 215.062 343.984 214.875 343.984C214.375 343.984 213.974 343.823 213.672 343.5C213.38 343.167 213.234 342.615 213.234 341.844V340.766C213.234 339.995 213.38 339.448 213.672 339.125C213.974 338.792 214.365 338.625 214.844 338.625C215.229 338.625 215.552 338.734 215.812 338.953C216.073 339.161 216.276 339.526 216.422 340.047C216.911 340.464 217.5 340.781 218.188 341C218.875 341.208 219.667 341.312 220.562 341.312C222.031 341.312 223.172 341.083 223.984 340.625C224.37 340.396 224.562 340.156 224.562 339.906C224.562 339.49 224.286 339.146 223.734 338.875C223.182 338.604 222.042 338.375 220.312 338.188C217.74 337.917 216.021 337.396 215.156 336.625C214.292 335.865 213.859 334.927 213.859 333.812C213.859 332.667 214.344 331.714 215.312 330.953C216.625 329.911 218.344 329.391 220.469 329.391C221.208 329.391 221.917 329.464 222.594 329.609C223.281 329.745 223.938 329.958 224.562 330.25C224.76 330.104 224.943 329.995 225.109 329.922C225.286 329.849 225.448 329.812 225.594 329.812C226.031 329.812 226.396 329.979 226.688 330.312C226.979 330.635 227.125 331.182 227.125 331.953V332.734C227.125 333.432 227.042 333.906 226.875 334.156C226.542 334.635 226.089 334.875 225.516 334.875C225.13 334.875 224.792 334.755 224.5 334.516C224.208 334.276 224.021 333.958 223.938 333.562ZM236.391 323.734V330.562C237.057 330.167 237.729 329.875 238.406 329.688C239.094 329.49 239.786 329.391 240.484 329.391C241.589 329.391 242.573 329.578 243.438 329.953C244.302 330.328 245.016 330.922 245.578 331.734C246.151 332.536 246.438 333.552 246.438 334.781V340.797C247.25 340.797 247.781 340.875 248.031 341.031C248.531 341.354 248.781 341.812 248.781 342.406C248.781 342.875 248.62 343.26 248.297 343.562C247.974 343.854 247.427 344 246.656 344H243C242.24 344 241.693 343.854 241.359 343.562C241.036 343.26 240.875 342.87 240.875 342.391C240.875 341.807 241.125 341.354 241.625 341.031C241.885 340.865 242.417 340.786 243.219 340.797V335C243.219 334.177 243.031 333.599 242.656 333.266C242.167 332.818 241.443 332.594 240.484 332.594C239.776 332.594 239.146 332.734 238.594 333.016C238.052 333.286 237.318 333.88 236.391 334.797V340.797C237.214 340.797 237.745 340.875 237.984 341.031C238.495 341.354 238.75 341.812 238.75 342.406C238.75 342.875 238.583 343.26 238.25 343.562C237.927 343.854 237.38 344 236.609 344H232.969C232.198 344 231.646 343.854 231.312 343.562C230.99 343.26 230.828 342.87 230.828 342.391C230.828 341.807 231.083 341.354 231.594 341.031C231.844 340.865 232.375 340.786 233.188 340.797V326.938H232.641C231.87 326.938 231.318 326.792 230.984 326.5C230.661 326.198 230.5 325.807 230.5 325.328C230.5 324.859 230.661 324.479 230.984 324.188C231.318 323.885 231.87 323.734 232.641 323.734H236.391ZM267.234 337.172C267.234 338.401 266.891 339.594 266.203 340.75C265.526 341.896 264.51 342.812 263.156 343.5C261.812 344.177 260.406 344.516 258.938 344.516C257.479 344.516 256.083 344.182 254.75 343.516C253.417 342.839 252.401 341.922 251.703 340.766C251.005 339.609 250.656 338.401 250.656 337.141C250.656 335.859 251.01 334.604 251.719 333.375C252.427 332.135 253.443 331.161 254.766 330.453C256.099 329.745 257.49 329.391 258.938 329.391C260.396 329.391 261.797 329.755 263.141 330.484C264.495 331.203 265.516 332.177 266.203 333.406C266.891 334.625 267.234 335.88 267.234 337.172ZM264.031 337.188C264.031 336.156 263.661 335.208 262.922 334.344C261.911 333.177 260.583 332.594 258.938 332.594C257.49 332.594 256.281 333.057 255.312 333.984C254.344 334.911 253.859 335.984 253.859 337.203C253.859 338.203 254.349 339.141 255.328 340.016C256.307 340.88 257.51 341.312 258.938 341.312C260.375 341.312 261.583 340.88 262.562 340.016C263.542 339.141 264.031 338.198 264.031 337.188ZM274.156 342.234V347.484H276.078C276.849 347.484 277.396 347.63 277.719 347.922C278.052 348.224 278.219 348.615 278.219 349.094C278.219 349.562 278.052 349.943 277.719 350.234C277.396 350.536 276.849 350.688 276.078 350.688H270.406C269.635 350.688 269.083 350.536 268.75 350.234C268.427 349.943 268.266 349.562 268.266 349.094C268.266 348.615 268.432 348.224 268.766 347.922C269.099 347.63 269.646 347.484 270.406 347.484H270.953V333.016H270.406C269.635 333.016 269.083 332.87 268.75 332.578C268.427 332.276 268.266 331.885 268.266 331.406C268.266 330.938 268.427 330.557 268.75 330.266C269.083 329.964 269.635 329.812 270.406 329.812H274.156V330.906C274.906 330.396 275.682 330.016 276.484 329.766C277.286 329.516 278.109 329.391 278.953 329.391C281.141 329.391 283.005 330.135 284.547 331.625C286.089 333.104 286.859 334.802 286.859 336.719C286.859 338.833 285.948 340.578 284.125 341.953C282.604 343.099 280.891 343.672 278.984 343.672C278.161 343.672 277.349 343.552 276.547 343.312C275.745 343.073 274.948 342.714 274.156 342.234ZM283.656 336.734C283.656 336.286 283.479 335.719 283.125 335.031C282.771 334.333 282.224 333.755 281.484 333.297C280.755 332.828 279.896 332.594 278.906 332.594C277.312 332.594 276.047 333.193 275.109 334.391C274.474 335.214 274.156 336.005 274.156 336.766C274.156 337.62 274.609 338.453 275.516 339.266C276.432 340.068 277.562 340.469 278.906 340.469C280.26 340.469 281.391 340.068 282.297 339.266C283.203 338.464 283.656 337.62 283.656 336.734Z" fill="white"/>
<path d="M108 302.636V338.773H105.591V341.182H57.4091V338.773H55V295.409H57.4091V293H79.0909V295.409H81.5V297.818H83.9091V300.227H105.591V302.636H108Z" fill="#00FF00"/>
</svg>
