<svg width="286" height="610" viewBox="0 0 286 610" fill="none" xmlns="http://www.w3.org/2000/svg">
<line x1="15" y1="53" x2="15" y2="126" stroke="#00FF00" stroke-width="2"/>
<line x1="13" y1="192" x2="13" y2="337" stroke="#00FF00" stroke-width="2"/>
<line x1="12" y1="422" x2="12" y2="515" stroke="#00FF00" stroke-width="2"/>
<path d="M35.8281 43.5977V34.1992C35.3203 34.1914 34.9453 34.0781 34.7031 33.8594C34.4609 33.6328 34.3398 33.3438 34.3398 32.9922C34.3398 32.6328 34.4609 32.3438 34.7031 32.125C34.9531 31.8984 35.3672 31.7852 35.9453 31.7852L40.9727 31.7969C41.7539 31.7969 42.5156 31.9414 43.2578 32.2305C44.0078 32.5195 44.6094 32.8867 45.0625 33.332C45.4062 33.668 45.7617 34.1289 46.1289 34.7148C46.5039 35.3008 46.7852 35.8828 46.9727 36.4609C47.1602 37.0391 47.2539 37.7461 47.2539 38.582V39.7305C47.2539 40.7461 47.082 41.6484 46.7383 42.4375C46.3945 43.2188 45.9414 43.8594 45.3789 44.3594C44.8242 44.8516 44.3008 45.2148 43.8086 45.4492C43.0273 45.8164 42.0156 46 40.7734 46H35.9453C35.3672 46 34.9531 45.8906 34.7031 45.6719C34.4609 45.4453 34.3398 45.1523 34.3398 44.793C34.3398 44.4414 34.4609 44.1523 34.7031 43.9258C34.9531 43.6992 35.3281 43.5898 35.8281 43.5977ZM38.2305 43.5977H40.7852C41.7383 43.5977 42.457 43.4609 42.9414 43.1875C43.5742 42.8281 44.0508 42.3711 44.3711 41.8164C44.6914 41.2617 44.8516 40.543 44.8516 39.6602V38.5234C44.8516 37.7656 44.707 37.1016 44.418 36.5312C43.9648 35.6406 43.4531 35.0312 42.8828 34.7031C42.3203 34.3672 41.6133 34.1992 40.7617 34.1992H38.2305V43.5977ZM57.7773 46V45.4375C57.1758 45.7578 56.5117 45.9961 55.7852 46.1523C55.0586 46.3164 54.3984 46.3984 53.8047 46.3984C52.5156 46.3984 51.4688 46.0586 50.6641 45.3789C49.8594 44.6914 49.457 43.9336 49.457 43.1055C49.457 42.0977 49.9688 41.1641 50.9922 40.3047C52.0234 39.4375 53.4453 39.0039 55.2578 39.0039C55.9844 39.0039 56.8242 39.082 57.7773 39.2383V38.6641C57.7773 38.3047 57.6211 38.0117 57.3086 37.7852C57.0039 37.5586 56.418 37.4453 55.5508 37.4453C54.8398 37.4453 53.918 37.5859 52.7852 37.8672C52.3633 37.9688 52.0352 38.0195 51.8008 38.0195C51.4805 38.0195 51.207 37.9062 50.9805 37.6797C50.7617 37.4453 50.6523 37.1484 50.6523 36.7891C50.6523 36.5859 50.6914 36.4102 50.7695 36.2617C50.8477 36.1133 50.957 35.9961 51.0977 35.9102C51.2383 35.8164 51.5312 35.707 51.9766 35.582C52.5703 35.418 53.1758 35.2891 53.793 35.1953C54.4102 35.0938 54.9688 35.043 55.4688 35.043C56.9609 35.043 58.1172 35.3672 58.9375 36.0156C59.7656 36.6562 60.1797 37.5352 60.1797 38.6523V43.5977H60.5898C61.168 43.5977 61.5781 43.7109 61.8203 43.9375C62.0703 44.1562 62.1953 44.4453 62.1953 44.8047C62.1953 45.1562 62.0703 45.4453 61.8203 45.6719C61.5781 45.8906 61.168 46 60.5898 46H57.7773ZM57.7773 41.6992C56.8164 41.5117 55.9297 41.418 55.1172 41.418C54.1406 41.418 53.3008 41.6562 52.5977 42.1328C52.1602 42.4375 51.9414 42.7461 51.9414 43.0586C51.9414 43.2852 52.0469 43.4688 52.2578 43.6094C52.6484 43.8672 53.1836 43.9961 53.8633 43.9961C54.4414 43.9961 55.0938 43.8828 55.8203 43.6562C56.5547 43.4297 57.207 43.1211 57.7773 42.7305V41.6992ZM68.6875 45.918L64.5273 37.7617C64.1367 37.7148 63.8398 37.582 63.6367 37.3633C63.4336 37.1445 63.332 36.8789 63.332 36.5664C63.332 36.207 63.4531 35.918 63.6953 35.6992C63.9453 35.4727 64.3594 35.3594 64.9375 35.3594H67.1289C67.707 35.3594 68.1172 35.4727 68.3594 35.6992C68.6094 35.918 68.7344 36.207 68.7344 36.5664C68.7344 36.918 68.6094 37.207 68.3594 37.4336C68.1172 37.6523 67.7305 37.7617 67.1992 37.7617L70.0352 43.2812L72.8477 37.7617C72.332 37.7617 71.9492 37.6523 71.6992 37.4336C71.457 37.207 71.3359 36.9141 71.3359 36.5547C71.3359 36.2031 71.457 35.918 71.6992 35.6992C71.9492 35.4727 72.3633 35.3594 72.9414 35.3594H75.2031C75.7734 35.3594 76.1797 35.4727 76.4219 35.6992C76.6719 35.918 76.7969 36.207 76.7969 36.5664C76.7969 36.8867 76.6914 37.1602 76.4805 37.3867C76.2695 37.6055 75.957 37.7305 75.543 37.7617L70.0352 48.6133C70.6367 48.6133 71.0312 48.6719 71.2188 48.7891C71.5938 49.0312 71.7812 49.375 71.7812 49.8203C71.7812 50.1719 71.6562 50.457 71.4062 50.6758C71.1641 50.9023 70.7539 51.0156 70.1758 51.0156H64.9375C64.3594 51.0156 63.9453 50.9023 63.6953 50.6758C63.4531 50.457 63.332 50.1719 63.332 49.8203C63.332 49.4609 63.4531 49.168 63.6953 48.9414C63.9453 48.7227 64.3594 48.6133 64.9375 48.6133H67.3281L68.6875 45.918ZM93.9531 43.5977V34.1992H93.5781C93 34.1992 92.5859 34.0898 92.3359 33.8711C92.0938 33.6445 91.9727 33.3516 91.9727 32.9922C91.9727 32.6328 92.0938 32.3438 92.3359 32.125C92.5859 31.8984 93 31.7852 93.5781 31.7852H99.6016C101.039 31.7852 102.195 32.1875 103.07 32.9922C103.945 33.7891 104.383 34.7383 104.383 35.8398C104.383 36.3633 104.281 36.8555 104.078 37.3164C103.875 37.7773 103.566 38.2031 103.152 38.5938C103.91 39.0469 104.477 39.5781 104.852 40.1875C105.234 40.7891 105.426 41.4727 105.426 42.2383C105.426 42.8477 105.289 43.4141 105.016 43.9375C104.812 44.3359 104.562 44.6523 104.266 44.8867C103.867 45.2148 103.379 45.4844 102.801 45.6953C102.223 45.8984 101.5 46 100.633 46H93.5781C93 46 92.5859 45.8906 92.3359 45.6719C92.0938 45.4453 91.9727 45.1523 91.9727 44.793C91.9727 44.4414 92.0977 44.1562 92.3477 43.9375C92.5977 43.7109 93.0078 43.5977 93.5781 43.5977H93.9531ZM96.3555 37.6914H98.9922C99.9375 37.6914 100.723 37.4531 101.348 36.9766C101.77 36.6562 101.98 36.2578 101.98 35.7812C101.98 35.3594 101.781 34.9922 101.383 34.6797C100.984 34.3594 100.352 34.1992 99.4844 34.1992H96.3555V37.6914ZM96.3555 43.5977H100.504C101.48 43.5977 102.168 43.4531 102.566 43.1641C102.871 42.9453 103.023 42.6328 103.023 42.2266C103.023 41.7422 102.723 41.2656 102.121 40.7969C101.52 40.3281 100.656 40.0938 99.5312 40.0938H96.3555V43.5977ZM119.301 41.8984H109.445C109.695 42.5234 110.137 43.0273 110.77 43.4102C111.41 43.793 112.273 43.9844 113.359 43.9844C114.25 43.9844 115.434 43.793 116.91 43.4102C117.52 43.2539 117.941 43.1758 118.176 43.1758C118.496 43.1758 118.766 43.2891 118.984 43.5156C119.203 43.7422 119.312 44.0273 119.312 44.3711C119.312 44.6836 119.195 44.9492 118.961 45.168C118.648 45.457 117.887 45.7344 116.676 46C115.465 46.2578 114.301 46.3867 113.184 46.3867C111.262 46.3867 109.723 45.8438 108.566 44.7578C107.418 43.6719 106.844 42.3359 106.844 40.75C106.844 39.0625 107.465 37.6914 108.707 36.6367C109.957 35.5742 111.395 35.043 113.02 35.043C113.996 35.043 114.891 35.2148 115.703 35.5586C116.523 35.9023 117.133 36.2734 117.531 36.6719C118.094 37.25 118.559 37.9648 118.926 38.8164C119.176 39.4102 119.301 40.0977 119.301 40.8789V41.8984ZM116.641 39.4961C116.273 38.8086 115.793 38.2969 115.199 37.9609C114.605 37.6172 113.898 37.4453 113.078 37.4453C112.266 37.4453 111.562 37.6172 110.969 37.9609C110.375 38.2969 109.891 38.8086 109.516 39.4961H116.641ZM130.328 36.0742V35.3594H133.141C133.719 35.3594 134.129 35.4727 134.371 35.6992C134.621 35.918 134.746 36.207 134.746 36.5664C134.746 36.918 134.621 37.207 134.371 37.4336C134.129 37.6523 133.719 37.7617 133.141 37.7617H132.73V46.5039C132.73 47.3477 132.551 48.082 132.191 48.707C131.84 49.3398 131.297 49.8828 130.562 50.3359C129.828 50.7891 129 51.0156 128.078 51.0156H125.359C124.781 51.0156 124.367 50.9023 124.117 50.6758C123.875 50.457 123.754 50.1719 123.754 49.8203C123.754 49.4609 123.875 49.168 124.117 48.9414C124.367 48.7227 124.781 48.6133 125.359 48.6133H128.008C128.742 48.6133 129.312 48.4141 129.719 48.0156C130.125 47.6172 130.328 47.1133 130.328 46.5039V45.332C129.797 45.6758 129.254 45.9336 128.699 46.1055C128.152 46.2773 127.59 46.3633 127.012 46.3633C125.379 46.3633 124.012 45.8203 122.91 44.7344C121.809 43.6406 121.258 42.293 121.258 40.6914C121.258 39.082 121.809 37.7344 122.91 36.6484C124.012 35.5547 125.379 35.0078 127.012 35.0078C127.621 35.0078 128.199 35.0977 128.746 35.2773C129.301 35.4492 129.828 35.7148 130.328 36.0742ZM130.316 40.6797C130.316 39.7969 129.988 39.0312 129.332 38.3828C128.684 37.7344 127.902 37.4102 126.988 37.4102C126.074 37.4102 125.289 37.7344 124.633 38.3828C123.984 39.0312 123.66 39.7969 123.66 40.6797C123.66 41.5703 123.984 42.3398 124.633 42.9883C125.289 43.6289 126.074 43.9492 126.988 43.9492C127.902 43.9492 128.684 43.6289 129.332 42.9883C129.988 42.3398 130.316 41.5703 130.316 40.6797ZM142.961 30.8008V33.3438H140.102V30.8008H142.961ZM143.289 35.3594V43.5977H146.172C146.75 43.5977 147.16 43.7109 147.402 43.9375C147.652 44.1562 147.777 44.4453 147.777 44.8047C147.777 45.1562 147.652 45.4453 147.402 45.6719C147.16 45.8906 146.75 46 146.172 46H138.004C137.426 46 137.012 45.8906 136.762 45.6719C136.52 45.4453 136.398 45.1523 136.398 44.793C136.398 44.4414 136.52 44.1562 136.762 43.9375C137.012 43.7109 137.426 43.5977 138.004 43.5977H140.887V37.7617H138.953C138.383 37.7617 137.973 37.6523 137.723 37.4336C137.473 37.207 137.348 36.9141 137.348 36.5547C137.348 36.2031 137.469 35.918 137.711 35.6992C137.961 35.4727 138.375 35.3594 138.953 35.3594H143.289ZM154.082 35.3594V36.168C154.52 35.793 155 35.5117 155.523 35.3242C156.055 35.1367 156.629 35.043 157.246 35.043C158.668 35.043 159.793 35.4844 160.621 36.3672C161.277 37.0703 161.605 37.9922 161.605 39.1328V43.5977C162.113 43.5977 162.488 43.7109 162.73 43.9375C162.973 44.1562 163.094 44.4453 163.094 44.8047C163.094 45.1562 162.969 45.4453 162.719 45.6719C162.477 45.8906 162.066 46 161.488 46H159.32C158.742 46 158.328 45.8906 158.078 45.6719C157.836 45.4453 157.715 45.1523 157.715 44.793C157.715 44.4414 157.836 44.1562 158.078 43.9375C158.32 43.7109 158.695 43.5977 159.203 43.5977V39.0625C159.203 38.5391 159.062 38.1562 158.781 37.9141C158.414 37.6016 157.863 37.4453 157.129 37.4453C156.574 37.4453 156.086 37.5547 155.664 37.7734C155.25 37.9844 154.723 38.4375 154.082 39.1328V43.5977C154.699 43.5977 155.098 43.6562 155.277 43.7734C155.66 44.0078 155.852 44.3516 155.852 44.8047C155.852 45.1562 155.727 45.4453 155.477 45.6719C155.234 45.8906 154.824 46 154.246 46H151.516C150.938 46 150.523 45.8906 150.273 45.6719C150.031 45.4453 149.91 45.1523 149.91 44.793C149.91 44.3555 150.098 44.0156 150.473 43.7734C150.66 43.6562 151.062 43.5977 151.68 43.5977V37.7617C151.172 37.7617 150.797 37.6484 150.555 37.4219C150.312 37.1953 150.191 36.9062 150.191 36.5547C150.191 36.2031 150.312 35.918 150.555 35.6992C150.805 35.4727 151.219 35.3594 151.797 35.3594H154.082ZM173.523 38.1719C173.133 37.9297 172.723 37.75 172.293 37.6328C171.863 37.5078 171.414 37.4453 170.945 37.4453C170.016 37.4453 169.277 37.5977 168.73 37.9023C168.488 38.0352 168.367 38.1797 168.367 38.3359C168.367 38.5156 168.531 38.6914 168.859 38.8633C169.109 38.9883 169.668 39.1094 170.535 39.2266C172.129 39.4453 173.238 39.6641 173.863 39.8828C174.684 40.1719 175.316 40.6016 175.762 41.1719C176.207 41.7422 176.43 42.3438 176.43 42.9766C176.43 43.8359 176.051 44.5547 175.293 45.1328C174.207 45.9688 172.797 46.3867 171.062 46.3867C170.367 46.3867 169.723 46.3242 169.129 46.1992C168.543 46.082 168.004 45.9062 167.512 45.6719C167.395 45.7734 167.27 45.8516 167.137 45.9062C167.004 45.9609 166.867 45.9883 166.727 45.9883C166.352 45.9883 166.051 45.8672 165.824 45.625C165.605 45.375 165.496 44.9609 165.496 44.3828V43.5742C165.496 42.9961 165.605 42.5859 165.824 42.3438C166.051 42.0938 166.344 41.9688 166.703 41.9688C166.992 41.9688 167.234 42.0508 167.43 42.2148C167.625 42.3711 167.777 42.6445 167.887 43.0352C168.254 43.3477 168.695 43.5859 169.211 43.75C169.727 43.9062 170.32 43.9844 170.992 43.9844C172.094 43.9844 172.949 43.8125 173.559 43.4688C173.848 43.2969 173.992 43.1172 173.992 42.9297C173.992 42.6172 173.785 42.3594 173.371 42.1562C172.957 41.9531 172.102 41.7812 170.805 41.6406C168.875 41.4375 167.586 41.0469 166.938 40.4688C166.289 39.8984 165.965 39.1953 165.965 38.3594C165.965 37.5 166.328 36.7852 167.055 36.2148C168.039 35.4336 169.328 35.043 170.922 35.043C171.477 35.043 172.008 35.0977 172.516 35.207C173.031 35.3086 173.523 35.4688 173.992 35.6875C174.141 35.5781 174.277 35.4961 174.402 35.4414C174.535 35.3867 174.656 35.3594 174.766 35.3594C175.094 35.3594 175.367 35.4844 175.586 35.7344C175.805 35.9766 175.914 36.3867 175.914 36.9648V37.5508C175.914 38.0742 175.852 38.4297 175.727 38.6172C175.477 38.9766 175.137 39.1562 174.707 39.1562C174.418 39.1562 174.164 39.0664 173.945 38.8867C173.727 38.707 173.586 38.4688 173.523 38.1719Z" fill="white"/>
<path d="M44.582 13.6953C43.9805 14.2109 43.4297 14.5781 42.9297 14.7969C42.4297 15.0078 41.9023 15.1133 41.3477 15.1133C40.0586 15.1133 38.9297 14.5977 37.9609 13.5664C37 12.5352 36.5195 11.2539 36.5195 9.72266C36.5195 8.52734 36.8516 7.44141 37.5156 6.46484C38.4219 5.12109 39.6992 4.44922 41.3477 4.44922C42.5273 4.44922 43.5586 4.80469 44.4414 5.51562C45.3242 6.21875 45.9727 7.23828 46.3867 8.57422C46.8008 9.90234 47.0078 11.2891 47.0078 12.7344C47.0078 15.1875 46.0586 17.1562 44.1602 18.6406C42.6914 19.7812 41.082 20.3516 39.332 20.3516C38.3633 20.3516 37.6133 20.1562 37.082 19.7656C36.7227 19.5078 36.543 19.168 36.543 18.7461C36.543 18.4023 36.6562 18.1172 36.8828 17.8906C37.1172 17.6562 37.4023 17.5391 37.7383 17.5391C37.9258 17.5391 38.1367 17.5977 38.3711 17.7148C38.6758 17.8711 38.9961 17.9492 39.332 17.9492C40.543 17.9492 41.6602 17.5391 42.6836 16.7188C43.707 15.8906 44.3398 14.8828 44.582 13.6953ZM44.2422 9.91016C43.9844 8.80078 43.6016 8.01562 43.0938 7.55469C42.5938 7.08594 42.0195 6.85156 41.3711 6.85156C40.6914 6.85156 40.1133 7.11328 39.6367 7.63672C39.1602 8.15234 38.9219 8.83984 38.9219 9.69922C38.9219 10.5977 39.1602 11.3242 39.6367 11.8789C40.1211 12.4336 40.6719 12.7109 41.2891 12.7109C42.375 12.7109 43.3594 11.7773 44.2422 9.91016ZM57.4258 10.9648C57.4258 11.418 57.2656 11.7969 56.9453 12.1016C56.625 12.4062 56.1836 12.5586 55.6211 12.5586C55.0586 12.5586 54.6172 12.4062 54.2969 12.1016C53.9766 11.7969 53.8164 11.418 53.8164 10.9648C53.8164 10.5117 53.9766 10.1328 54.2969 9.82812C54.6172 9.52344 55.0586 9.37109 55.6211 9.37109C56.1836 9.37109 56.625 9.52344 56.9453 9.82812C57.2656 10.1328 57.4258 10.5117 57.4258 10.9648ZM57.4492 18.8281C57.4492 19.2812 57.2891 19.6602 56.9688 19.9648C56.6484 20.2695 56.207 20.4219 55.6445 20.4219C55.082 20.4219 54.6406 20.2695 54.3203 19.9648C54 19.6602 53.8398 19.2812 53.8398 18.8281C53.8398 18.375 54 17.9961 54.3203 17.6914C54.6406 17.3867 55.082 17.2344 55.6445 17.2344C56.207 17.2344 56.6484 17.3867 56.9688 17.6914C57.2891 17.9961 57.4492 18.375 57.4492 18.8281ZM75.2734 11.082V13.7188C75.2734 15.2812 74.8203 16.7773 73.9141 18.207C73.0156 19.6367 71.7266 20.3516 70.0469 20.3516C69.0781 20.3516 68.2578 20.1406 67.5859 19.7188C66.9219 19.2891 66.2891 18.5039 65.6875 17.3633C65.0938 16.2148 64.7969 15 64.7969 13.7188V11.082C64.7969 9.52734 65.2461 8.03516 66.1445 6.60547C67.043 5.16797 68.332 4.44922 70.0117 4.44922C70.9727 4.44922 71.7852 4.66016 72.4492 5.08203C73.1211 5.50391 73.7578 6.28906 74.3594 7.4375C74.9688 8.57812 75.2734 9.79297 75.2734 11.082ZM72.8594 11.082C72.8594 9.77734 72.4961 8.63672 71.7695 7.66016C71.3555 7.12109 70.7734 6.85156 70.0234 6.85156C69.2969 6.85156 68.7031 7.14844 68.2422 7.74219C67.5469 8.64062 67.1992 9.75391 67.1992 11.082V13.7188C67.1992 15.0312 67.5664 16.1719 68.3008 17.1406C68.707 17.6797 69.2891 17.9492 70.0469 17.9492C70.7656 17.9492 71.3555 17.6523 71.8164 17.0586C72.5117 16.1602 72.8594 15.0469 72.8594 13.7188V11.082ZM89.6875 11.082V13.7188C89.6875 15.2812 89.2344 16.7773 88.3281 18.207C87.4297 19.6367 86.1406 20.3516 84.4609 20.3516C83.4922 20.3516 82.6719 20.1406 82 19.7188C81.3359 19.2891 80.7031 18.5039 80.1016 17.3633C79.5078 16.2148 79.2109 15 79.2109 13.7188V11.082C79.2109 9.52734 79.6602 8.03516 80.5586 6.60547C81.457 5.16797 82.7461 4.44922 84.4258 4.44922C85.3867 4.44922 86.1992 4.66016 86.8633 5.08203C87.5352 5.50391 88.1719 6.28906 88.7734 7.4375C89.3828 8.57812 89.6875 9.79297 89.6875 11.082ZM87.2734 11.082C87.2734 9.77734 86.9102 8.63672 86.1836 7.66016C85.7695 7.12109 85.1875 6.85156 84.4375 6.85156C83.7109 6.85156 83.1172 7.14844 82.6562 7.74219C81.9609 8.64062 81.6133 9.75391 81.6133 11.082V13.7188C81.6133 15.0312 81.9805 16.1719 82.7148 17.1406C83.1211 17.6797 83.7031 17.9492 84.4609 17.9492C85.1797 17.9492 85.7695 17.6523 86.2305 17.0586C86.9258 16.1602 87.2734 15.0469 87.2734 13.7188V11.082ZM101.793 16.1328H95.957L95.3711 17.5977H95.957C96.5352 17.5977 96.9453 17.7109 97.1875 17.9375C97.4375 18.1562 97.5625 18.4453 97.5625 18.8047C97.5625 19.1562 97.4375 19.4453 97.1875 19.6719C96.9453 19.8906 96.5352 20 95.957 20H92.7227C92.1445 20 91.7344 19.8906 91.4922 19.6719C91.2422 19.4453 91.1172 19.1523 91.1172 18.793C91.1172 18.4336 91.2461 18.1406 91.5039 17.9141C91.7617 17.6875 92.1875 17.582 92.7812 17.5977L96.5547 8.19922H94.9844C94.4062 8.19922 93.9922 8.08984 93.7422 7.87109C93.5 7.64453 93.3789 7.35156 93.3789 6.99219C93.3789 6.63281 93.5 6.34375 93.7422 6.125C93.9922 5.89844 94.4062 5.78516 94.9844 5.78516L100.176 5.79688L104.957 17.5977C105.52 17.5977 105.891 17.6602 106.07 17.7852C106.43 18.043 106.609 18.3828 106.609 18.8047C106.609 19.1562 106.488 19.4453 106.246 19.6719C106.004 19.8906 105.594 20 105.016 20H101.781C101.203 20 100.789 19.8906 100.539 19.6719C100.297 19.4453 100.176 19.1523 100.176 18.793C100.176 18.4414 100.297 18.1562 100.539 17.9375C100.789 17.7109 101.203 17.5977 101.781 17.5977H102.367L101.793 16.1328ZM100.797 13.7305L98.8633 8.97266L96.918 13.7305H100.797ZM109.516 10.4375V17.5977H110.383C110.961 17.5977 111.371 17.7109 111.613 17.9375C111.863 18.1562 111.988 18.4453 111.988 18.8047C111.988 19.1562 111.863 19.4453 111.613 19.6719C111.371 19.8906 110.961 20 110.383 20H107.23C106.652 20 106.242 19.8906 106 19.6719C105.75 19.4453 105.625 19.1523 105.625 18.793C105.625 18.4414 105.746 18.1562 105.988 17.9375C106.23 17.7109 106.605 17.5977 107.113 17.5977V8.19922C106.691 8.16016 106.371 8.03125 106.152 7.8125C105.941 7.59375 105.836 7.32031 105.836 6.99219C105.836 6.63281 105.957 6.34375 106.199 6.125C106.449 5.89844 106.863 5.78516 107.441 5.78516L110.078 5.79688L113.348 13.0273L116.559 5.78516L119.219 5.79688C119.797 5.79688 120.207 5.90625 120.449 6.125C120.699 6.34375 120.824 6.63281 120.824 6.99219C120.824 7.32031 120.715 7.59375 120.496 7.8125C120.277 8.03125 119.961 8.16016 119.547 8.19922V17.5977C120.055 17.5977 120.43 17.7109 120.672 17.9375C120.914 18.1641 121.035 18.4531 121.035 18.8047C121.035 19.1562 120.91 19.4453 120.66 19.6719C120.418 19.8906 120.008 20 119.43 20H116.266C115.695 20 115.285 19.8906 115.035 19.6719C114.793 19.4453 114.672 19.1523 114.672 18.793C114.672 18.4414 114.793 18.1562 115.035 17.9375C115.285 17.7109 115.695 17.5977 116.266 17.5977H117.145V10.4375L114.391 16.625H112.305L109.516 10.4375Z" fill="#00FF00"/>
<path d="M43.1992 172.199V181.598H48.3789V179.324C48.3789 178.746 48.4883 178.336 48.707 178.094C48.9336 177.844 49.2266 177.719 49.5859 177.719C49.9375 177.719 50.2227 177.844 50.4414 178.094C50.668 178.336 50.7812 178.746 50.7812 179.324V184H39.4023C38.8242 184 38.4102 183.891 38.1602 183.672C37.918 183.445 37.7969 183.152 37.7969 182.793C37.7969 182.441 37.918 182.156 38.1602 181.938C38.4102 181.711 38.8242 181.598 39.4023 181.598H40.7969V172.199H39.4023C38.8242 172.199 38.4102 172.09 38.1602 171.871C37.918 171.645 37.7969 171.352 37.7969 170.992C37.7969 170.633 37.918 170.344 38.1602 170.125C38.4102 169.898 38.8242 169.785 39.4023 169.785L44.6055 169.797C45.1836 169.797 45.5938 169.906 45.8359 170.125C46.0859 170.344 46.2109 170.633 46.2109 170.992C46.2109 171.352 46.0859 171.645 45.8359 171.871C45.5938 172.09 45.1836 172.199 44.6055 172.199H43.1992ZM63.7188 173.359V181.598C64.2266 181.598 64.6016 181.711 64.8438 181.938C65.0859 182.164 65.207 182.453 65.207 182.805C65.207 183.156 65.082 183.445 64.832 183.672C64.5898 183.891 64.1797 184 63.6016 184H61.3164V183.449C60.6289 183.762 59.9727 183.996 59.3477 184.152C58.7227 184.309 58.1289 184.387 57.5664 184.387C56.7773 184.387 56.0938 184.223 55.5156 183.895C54.9375 183.559 54.4805 183.098 54.1445 182.512C53.9023 182.09 53.7812 181.562 53.7812 180.93V175.762H53.3711C52.793 175.762 52.3789 175.652 52.1289 175.434C51.8867 175.207 51.7656 174.914 51.7656 174.555C51.7656 174.203 51.8867 173.918 52.1289 173.699C52.3789 173.473 52.793 173.359 53.3711 173.359H56.1836V180.508C56.1836 181.016 56.3047 181.391 56.5469 181.633C56.7969 181.867 57.1758 181.984 57.6836 181.984C58.168 181.984 58.6875 181.891 59.2422 181.703C59.8047 181.508 60.4961 181.16 61.3164 180.66V175.762H60.4492C59.8711 175.762 59.457 175.652 59.207 175.434C58.9648 175.207 58.8438 174.914 58.8438 174.555C58.8438 174.203 58.9648 173.918 59.207 173.699C59.457 173.473 59.8711 173.359 60.4492 173.359H63.7188ZM70.5977 173.359V174.168C71.0352 173.793 71.5156 173.512 72.0391 173.324C72.5703 173.137 73.1445 173.043 73.7617 173.043C75.1836 173.043 76.3086 173.484 77.1367 174.367C77.793 175.07 78.1211 175.992 78.1211 177.133V181.598C78.6289 181.598 79.0039 181.711 79.2461 181.938C79.4883 182.156 79.6094 182.445 79.6094 182.805C79.6094 183.156 79.4844 183.445 79.2344 183.672C78.9922 183.891 78.582 184 78.0039 184H75.8359C75.2578 184 74.8438 183.891 74.5938 183.672C74.3516 183.445 74.2305 183.152 74.2305 182.793C74.2305 182.441 74.3516 182.156 74.5938 181.938C74.8359 181.711 75.2109 181.598 75.7188 181.598V177.062C75.7188 176.539 75.5781 176.156 75.2969 175.914C74.9297 175.602 74.3789 175.445 73.6445 175.445C73.0898 175.445 72.6016 175.555 72.1797 175.773C71.7656 175.984 71.2383 176.438 70.5977 177.133V181.598C71.2148 181.598 71.6133 181.656 71.793 181.773C72.1758 182.008 72.3672 182.352 72.3672 182.805C72.3672 183.156 72.2422 183.445 71.9922 183.672C71.75 183.891 71.3398 184 70.7617 184H68.0312C67.4531 184 67.0391 183.891 66.7891 183.672C66.5469 183.445 66.4258 183.152 66.4258 182.793C66.4258 182.355 66.6133 182.016 66.9883 181.773C67.1758 181.656 67.5781 181.598 68.1953 181.598V175.762C67.6875 175.762 67.3125 175.648 67.0703 175.422C66.8281 175.195 66.707 174.906 66.707 174.555C66.707 174.203 66.8281 173.918 67.0703 173.699C67.3203 173.473 67.7344 173.359 68.3125 173.359H70.5977ZM91.1875 173.793C91.4766 173.52 91.7734 173.383 92.0781 173.383C92.4219 173.383 92.7031 173.508 92.9219 173.758C93.1484 174 93.2617 174.406 93.2617 174.977V176.523C93.2617 177.102 93.1484 177.512 92.9219 177.754C92.7031 177.996 92.4141 178.117 92.0547 178.117C91.7266 178.117 91.4492 178.023 91.2227 177.836C91.0586 177.695 90.9297 177.41 90.8359 176.98C90.7422 176.543 90.5156 176.219 90.1562 176.008C89.5234 175.633 88.7148 175.445 87.7305 175.445C86.5977 175.445 85.6875 175.777 85 176.441C84.3203 177.105 83.9805 177.945 83.9805 178.961C83.9805 179.898 84.3086 180.641 84.9648 181.188C85.6211 181.727 86.7109 181.996 88.2344 181.996C89.2344 181.996 90.0508 181.895 90.6836 181.691C91.0586 181.566 91.4141 181.355 91.75 181.059C92.0859 180.754 92.3906 180.602 92.6641 180.602C92.9922 180.602 93.2734 180.723 93.5078 180.965C93.75 181.207 93.8711 181.492 93.8711 181.82C93.8711 182.352 93.5078 182.855 92.7812 183.332C91.7031 184.043 90.125 184.398 88.0469 184.398C86.1797 184.398 84.7266 184.012 83.6875 183.238C82.2812 182.199 81.5781 180.777 81.5781 178.973C81.5781 177.262 82.1484 175.848 83.2891 174.73C84.4297 173.605 85.918 173.043 87.7539 173.043C88.418 173.043 89.0352 173.105 89.6055 173.23C90.1758 173.355 90.7031 173.543 91.1875 173.793ZM99.3789 168.801V173.922C99.8789 173.625 100.383 173.406 100.891 173.266C101.406 173.117 101.926 173.043 102.449 173.043C103.277 173.043 104.016 173.184 104.664 173.465C105.312 173.746 105.848 174.191 106.27 174.801C106.699 175.402 106.914 176.164 106.914 177.086V181.598C107.523 181.598 107.922 181.656 108.109 181.773C108.484 182.016 108.672 182.359 108.672 182.805C108.672 183.156 108.551 183.445 108.309 183.672C108.066 183.891 107.656 184 107.078 184H104.336C103.766 184 103.355 183.891 103.105 183.672C102.863 183.445 102.742 183.152 102.742 182.793C102.742 182.355 102.93 182.016 103.305 181.773C103.5 181.648 103.898 181.59 104.5 181.598V177.25C104.5 176.633 104.359 176.199 104.078 175.949C103.711 175.613 103.168 175.445 102.449 175.445C101.918 175.445 101.445 175.551 101.031 175.762C100.625 175.965 100.074 176.41 99.3789 177.098V181.598C99.9961 181.598 100.395 181.656 100.574 181.773C100.957 182.016 101.148 182.359 101.148 182.805C101.148 183.156 101.023 183.445 100.773 183.672C100.531 183.891 100.121 184 99.543 184H96.8125C96.2344 184 95.8203 183.891 95.5703 183.672C95.3281 183.445 95.207 183.152 95.207 182.793C95.207 182.355 95.3984 182.016 95.7812 181.773C95.9688 181.648 96.3672 181.59 96.9766 181.598V171.203H96.5664C95.9883 171.203 95.5742 171.094 95.3242 170.875C95.082 170.648 94.9609 170.355 94.9609 169.996C94.9609 169.645 95.082 169.359 95.3242 169.141C95.5742 168.914 95.9883 168.801 96.5664 168.801H99.3789Z" fill="white"/>
<path d="M45.4258 144.449V157.598H47.8516C48.4297 157.598 48.8398 157.711 49.082 157.938C49.332 158.156 49.457 158.445 49.457 158.805C49.457 159.156 49.332 159.445 49.082 159.672C48.8398 159.891 48.4297 160 47.8516 160H40.5977C40.0195 160 39.6055 159.891 39.3555 159.672C39.1133 159.445 38.9922 159.152 38.9922 158.793C38.9922 158.441 39.1133 158.156 39.3555 157.938C39.6055 157.711 40.0195 157.598 40.5977 157.598H43.0234V147.578L40.8789 148.141C40.5352 148.234 40.2773 148.281 40.1055 148.281C39.8008 148.281 39.5352 148.16 39.3086 147.918C39.0898 147.676 38.9805 147.379 38.9805 147.027C38.9805 146.707 39.0625 146.457 39.2266 146.277C39.3906 146.09 39.7344 145.926 40.2578 145.785L45.4258 144.449ZM56.3711 157.598H61.6328C61.9219 157.363 62.1953 157.246 62.4531 157.246C62.8203 157.246 63.1094 157.367 63.3203 157.609C63.5391 157.852 63.6484 158.266 63.6484 158.852V160H52.7031V157.457C57.0312 153.887 59.6445 151.59 60.543 150.566C60.9961 150.043 61.2227 149.547 61.2227 149.078C61.2227 148.492 60.9648 147.977 60.4492 147.531C59.9414 147.078 59.2617 146.852 58.4102 146.852C57.5508 146.852 56.8359 147.102 56.2656 147.602C55.9688 147.867 55.7305 148.262 55.5508 148.785C55.4414 149.113 55.2891 149.348 55.0938 149.488C54.9062 149.629 54.6719 149.699 54.3906 149.699C54.0625 149.699 53.7773 149.582 53.5352 149.348C53.3008 149.113 53.1836 148.84 53.1836 148.527C53.1836 148.059 53.3984 147.473 53.8281 146.77C54.2656 146.066 54.8984 145.504 55.7266 145.082C56.5625 144.66 57.4688 144.449 58.4453 144.449C59.9609 144.449 61.2031 144.91 62.1719 145.832C63.1406 146.746 63.625 147.855 63.625 149.16C63.625 149.824 63.4844 150.441 63.2031 151.012C62.9297 151.574 62.2656 152.355 61.2109 153.355C60.3828 154.145 58.7695 155.559 56.3711 157.598ZM74.8398 150.965C74.8398 151.418 74.6797 151.797 74.3594 152.102C74.0391 152.406 73.5977 152.559 73.0352 152.559C72.4727 152.559 72.0312 152.406 71.7109 152.102C71.3906 151.797 71.2305 151.418 71.2305 150.965C71.2305 150.512 71.3906 150.133 71.7109 149.828C72.0312 149.523 72.4727 149.371 73.0352 149.371C73.5977 149.371 74.0391 149.523 74.3594 149.828C74.6797 150.133 74.8398 150.512 74.8398 150.965ZM74.8633 158.828C74.8633 159.281 74.7031 159.66 74.3828 159.965C74.0625 160.27 73.6211 160.422 73.0586 160.422C72.4961 160.422 72.0547 160.27 71.7344 159.965C71.4141 159.66 71.2539 159.281 71.2539 158.828C71.2539 158.375 71.4141 157.996 71.7344 157.691C72.0547 157.387 72.4961 157.234 73.0586 157.234C73.6211 157.234 74.0625 157.387 74.3828 157.691C74.7031 157.996 74.8633 158.375 74.8633 158.828ZM90.8711 151.973C91.582 152.457 92.1133 153.02 92.4648 153.66C92.8164 154.293 92.9922 155.004 92.9922 155.793C92.9922 156.645 92.7578 157.434 92.2891 158.16C91.8281 158.879 91.1562 159.426 90.2734 159.801C89.3906 160.168 88.2344 160.352 86.8047 160.352C84.9453 160.352 83.5469 160.062 82.6094 159.484C82.0859 159.156 81.8242 158.766 81.8242 158.312C81.8242 157.969 81.9375 157.68 82.1641 157.445C82.3984 157.203 82.6797 157.082 83.0078 157.082C83.2344 157.082 83.4688 157.16 83.7109 157.316C84.0547 157.551 84.3789 157.707 84.6836 157.785C85.1523 157.895 85.7969 157.949 86.6172 157.949C88.0156 157.949 89.0273 157.77 89.6523 157.41C90.2773 157.043 90.5898 156.527 90.5898 155.863C90.5898 155.371 90.4062 154.898 90.0391 154.445C89.6797 153.984 89.1953 153.629 88.5859 153.379C88.2344 153.238 87.6406 153.141 86.8047 153.086C86.4062 153.062 86.0977 152.941 85.8789 152.723C85.668 152.496 85.5625 152.219 85.5625 151.891C85.5625 151.547 85.6797 151.258 85.9141 151.023C86.1484 150.789 86.4453 150.672 86.8047 150.672C87.6016 150.672 88.0273 150.668 88.082 150.66C88.3945 150.629 88.707 150.527 89.0195 150.355C89.332 150.184 89.582 149.949 89.7695 149.652C89.9648 149.348 90.0625 149.035 90.0625 148.715C90.0625 148.207 89.8359 147.77 89.3828 147.402C88.9375 147.027 88.2656 146.84 87.3672 146.84C86.2109 146.84 85.3281 147.176 84.7188 147.848C84.5391 148.043 84.3945 148.168 84.2852 148.223C84.1211 148.309 83.9375 148.352 83.7344 148.352C83.4062 148.352 83.125 148.234 82.8906 148C82.6562 147.766 82.5391 147.477 82.5391 147.133C82.5391 146.594 82.8984 146.07 83.6172 145.562C84.6641 144.82 85.9727 144.449 87.543 144.449C89.0273 144.449 90.2188 144.871 91.1172 145.715C92.0156 146.559 92.4648 147.574 92.4648 148.762C92.4648 149.379 92.332 149.957 92.0664 150.496C91.8008 151.027 91.4023 151.52 90.8711 151.973ZM107.102 151.082V153.719C107.102 155.281 106.648 156.777 105.742 158.207C104.844 159.637 103.555 160.352 101.875 160.352C100.906 160.352 100.086 160.141 99.4141 159.719C98.75 159.289 98.1172 158.504 97.5156 157.363C96.9219 156.215 96.625 155 96.625 153.719V151.082C96.625 149.527 97.0742 148.035 97.9727 146.605C98.8711 145.168 100.16 144.449 101.84 144.449C102.801 144.449 103.613 144.66 104.277 145.082C104.949 145.504 105.586 146.289 106.188 147.438C106.797 148.578 107.102 149.793 107.102 151.082ZM104.688 151.082C104.688 149.777 104.324 148.637 103.598 147.66C103.184 147.121 102.602 146.852 101.852 146.852C101.125 146.852 100.531 147.148 100.07 147.742C99.375 148.641 99.0273 149.754 99.0273 151.082V153.719C99.0273 155.031 99.3945 156.172 100.129 157.141C100.535 157.68 101.117 157.949 101.875 157.949C102.594 157.949 103.184 157.652 103.645 157.059C104.34 156.16 104.688 155.047 104.688 153.719V151.082ZM114.883 155.125V157.598H117.309C117.887 157.598 118.297 157.711 118.539 157.938C118.789 158.156 118.914 158.445 118.914 158.805C118.914 159.156 118.789 159.445 118.539 159.672C118.297 159.891 117.887 160 117.309 160H112.105C111.527 160 111.113 159.891 110.863 159.672C110.621 159.445 110.5 159.152 110.5 158.793C110.5 158.441 110.625 158.156 110.875 157.938C111.125 157.711 111.535 157.598 112.105 157.598H112.48V148.199H112.105C111.527 148.199 111.113 148.09 110.863 147.871C110.621 147.645 110.5 147.352 110.5 146.992C110.5 146.633 110.621 146.344 110.863 146.125C111.113 145.898 111.527 145.785 112.105 145.785L117.637 145.797C119.262 145.797 120.547 146.242 121.492 147.133C122.445 148.016 122.922 149.094 122.922 150.367C122.922 151.07 122.762 151.734 122.441 152.359C122.199 152.828 121.793 153.293 121.223 153.754C120.66 154.207 120.082 154.551 119.488 154.785C118.902 155.012 118.125 155.125 117.156 155.125H114.883ZM114.883 152.723H117.109C118.156 152.723 118.984 152.488 119.594 152.02C120.211 151.543 120.52 150.973 120.52 150.309C120.52 149.746 120.27 149.254 119.77 148.832C119.277 148.41 118.57 148.199 117.648 148.199H114.883V152.723ZM126.93 150.438V157.598H127.797C128.375 157.598 128.785 157.711 129.027 157.938C129.277 158.156 129.402 158.445 129.402 158.805C129.402 159.156 129.277 159.445 129.027 159.672C128.785 159.891 128.375 160 127.797 160H124.645C124.066 160 123.656 159.891 123.414 159.672C123.164 159.445 123.039 159.152 123.039 158.793C123.039 158.441 123.16 158.156 123.402 157.938C123.645 157.711 124.02 157.598 124.527 157.598V148.199C124.105 148.16 123.785 148.031 123.566 147.812C123.355 147.594 123.25 147.32 123.25 146.992C123.25 146.633 123.371 146.344 123.613 146.125C123.863 145.898 124.277 145.785 124.855 145.785L127.492 145.797L130.762 153.027L133.973 145.785L136.633 145.797C137.211 145.797 137.621 145.906 137.863 146.125C138.113 146.344 138.238 146.633 138.238 146.992C138.238 147.32 138.129 147.594 137.91 147.812C137.691 148.031 137.375 148.16 136.961 148.199V157.598C137.469 157.598 137.844 157.711 138.086 157.938C138.328 158.164 138.449 158.453 138.449 158.805C138.449 159.156 138.324 159.445 138.074 159.672C137.832 159.891 137.422 160 136.844 160H133.68C133.109 160 132.699 159.891 132.449 159.672C132.207 159.445 132.086 159.152 132.086 158.793C132.086 158.441 132.207 158.156 132.449 157.938C132.699 157.711 133.109 157.598 133.68 157.598H134.559V150.438L131.805 156.625H129.719L126.93 150.438Z" fill="#00FF00"/>
<path d="M44.207 568.18L41.9805 575H39.2852L37.8555 563.199C37.4883 563.152 37.2109 563.027 37.0234 562.824C36.8359 562.613 36.7422 562.348 36.7422 562.027C36.7422 561.652 36.8633 561.352 37.1055 561.125C37.3555 560.898 37.7695 560.785 38.3477 560.785L41.5469 560.797C42.125 560.797 42.5352 560.906 42.7773 561.125C43.0273 561.344 43.1523 561.633 43.1523 561.992C43.1523 562.352 43.0273 562.645 42.7773 562.871C42.5352 563.09 42.125 563.199 41.5469 563.199H40.293L41.0898 569.914L42.9766 564.324H45.4727L47.3477 569.914L48.1445 563.199H46.8906C46.3125 563.199 45.8984 563.09 45.6484 562.871C45.4062 562.645 45.2852 562.352 45.2852 561.992C45.2852 561.633 45.4062 561.344 45.6484 561.125C45.8984 560.898 46.3125 560.785 46.8906 560.785L50.0781 560.797C50.6562 560.797 51.0664 560.906 51.3086 561.125C51.5586 561.344 51.6836 561.633 51.6836 561.992C51.6836 562.297 51.5859 562.559 51.3906 562.777C51.1953 562.996 50.9141 563.137 50.5469 563.199L49.1641 575H46.5156L44.207 568.18ZM58.1172 564.359V565.859C59.125 565.133 59.918 564.648 60.4961 564.406C61.082 564.164 61.6289 564.043 62.1367 564.043C62.918 564.043 63.6758 564.332 64.4102 564.91C64.9102 565.301 65.1602 565.699 65.1602 566.105C65.1602 566.449 65.0391 566.742 64.7969 566.984C64.5625 567.219 64.2773 567.336 63.9414 567.336C63.6445 567.336 63.332 567.188 63.0039 566.891C62.6758 566.594 62.3828 566.445 62.125 566.445C61.7891 566.445 61.2852 566.656 60.6133 567.078C59.9492 567.5 59.1172 568.133 58.1172 568.977V572.598H61.5391C62.1172 572.598 62.5273 572.711 62.7695 572.938C63.0195 573.156 63.1445 573.445 63.1445 573.805C63.1445 574.156 63.0195 574.445 62.7695 574.672C62.5273 574.891 62.1172 575 61.5391 575H54.2852C53.707 575 53.293 574.891 53.043 574.672C52.8008 574.445 52.6797 574.152 52.6797 573.793C52.6797 573.441 52.8008 573.156 53.043 572.938C53.293 572.711 53.707 572.598 54.2852 572.598H55.7148V566.762H54.8477C54.2695 566.762 53.8555 566.652 53.6055 566.434C53.3633 566.207 53.2422 565.914 53.2422 565.555C53.2422 565.203 53.3633 564.918 53.6055 564.699C53.8555 564.473 54.2695 564.359 54.8477 564.359H58.1172ZM75.1914 575V574.438C74.5898 574.758 73.9258 574.996 73.1992 575.152C72.4727 575.316 71.8125 575.398 71.2188 575.398C69.9297 575.398 68.8828 575.059 68.0781 574.379C67.2734 573.691 66.8711 572.934 66.8711 572.105C66.8711 571.098 67.3828 570.164 68.4062 569.305C69.4375 568.438 70.8594 568.004 72.6719 568.004C73.3984 568.004 74.2383 568.082 75.1914 568.238V567.664C75.1914 567.305 75.0352 567.012 74.7227 566.785C74.418 566.559 73.832 566.445 72.9648 566.445C72.2539 566.445 71.332 566.586 70.1992 566.867C69.7773 566.969 69.4492 567.02 69.2148 567.02C68.8945 567.02 68.6211 566.906 68.3945 566.68C68.1758 566.445 68.0664 566.148 68.0664 565.789C68.0664 565.586 68.1055 565.41 68.1836 565.262C68.2617 565.113 68.3711 564.996 68.5117 564.91C68.6523 564.816 68.9453 564.707 69.3906 564.582C69.9844 564.418 70.5898 564.289 71.207 564.195C71.8242 564.094 72.3828 564.043 72.8828 564.043C74.375 564.043 75.5312 564.367 76.3516 565.016C77.1797 565.656 77.5938 566.535 77.5938 567.652V572.598H78.0039C78.582 572.598 78.9922 572.711 79.2344 572.938C79.4844 573.156 79.6094 573.445 79.6094 573.805C79.6094 574.156 79.4844 574.445 79.2344 574.672C78.9922 574.891 78.582 575 78.0039 575H75.1914ZM75.1914 570.699C74.2305 570.512 73.3438 570.418 72.5312 570.418C71.5547 570.418 70.7148 570.656 70.0117 571.133C69.5742 571.438 69.3555 571.746 69.3555 572.059C69.3555 572.285 69.4609 572.469 69.6719 572.609C70.0625 572.867 70.5977 572.996 71.2773 572.996C71.8555 572.996 72.5078 572.883 73.2344 572.656C73.9688 572.43 74.6211 572.121 75.1914 571.73V570.699ZM84.4609 573.676V577.613H85.9023C86.4805 577.613 86.8906 577.723 87.1328 577.941C87.3828 578.168 87.5078 578.461 87.5078 578.82C87.5078 579.172 87.3828 579.457 87.1328 579.676C86.8906 579.902 86.4805 580.016 85.9023 580.016H81.6484C81.0703 580.016 80.6562 579.902 80.4062 579.676C80.1641 579.457 80.043 579.172 80.043 578.82C80.043 578.461 80.168 578.168 80.418 577.941C80.668 577.723 81.0781 577.613 81.6484 577.613H82.0586V566.762H81.6484C81.0703 566.762 80.6562 566.652 80.4062 566.434C80.1641 566.207 80.043 565.914 80.043 565.555C80.043 565.203 80.1641 564.918 80.4062 564.699C80.6562 564.473 81.0703 564.359 81.6484 564.359H84.4609V565.18C85.0234 564.797 85.6055 564.512 86.207 564.324C86.8086 564.137 87.4258 564.043 88.0586 564.043C89.6992 564.043 91.0977 564.602 92.2539 565.719C93.4102 566.828 93.9883 568.102 93.9883 569.539C93.9883 571.125 93.3047 572.434 91.9375 573.465C90.7969 574.324 89.5117 574.754 88.082 574.754C87.4648 574.754 86.8555 574.664 86.2539 574.484C85.6523 574.305 85.0547 574.035 84.4609 573.676ZM91.5859 569.551C91.5859 569.215 91.4531 568.789 91.1875 568.273C90.9219 567.75 90.5117 567.316 89.957 566.973C89.4102 566.621 88.7656 566.445 88.0234 566.445C86.8281 566.445 85.8789 566.895 85.1758 567.793C84.6992 568.41 84.4609 569.004 84.4609 569.574C84.4609 570.215 84.8008 570.84 85.4805 571.449C86.168 572.051 87.0156 572.352 88.0234 572.352C89.0391 572.352 89.8867 572.051 90.5664 571.449C91.2461 570.848 91.5859 570.215 91.5859 569.551ZM121.762 563.199V570.008C121.762 571.492 121.227 572.754 120.156 573.793C119.094 574.832 117.812 575.352 116.312 575.352C115.57 575.352 114.871 575.223 114.215 574.965C113.566 574.699 112.98 574.312 112.457 573.805C111.941 573.297 111.539 572.77 111.25 572.223C110.961 571.668 110.816 570.93 110.816 570.008V563.199C110.309 563.199 109.934 563.086 109.691 562.859C109.449 562.633 109.328 562.344 109.328 561.992C109.328 561.633 109.449 561.344 109.691 561.125C109.934 560.906 110.348 560.797 110.934 560.797L114.086 560.785C114.664 560.785 115.074 560.898 115.316 561.125C115.566 561.344 115.691 561.633 115.691 561.992C115.691 562.352 115.566 562.645 115.316 562.871C115.074 563.09 114.664 563.199 114.086 563.199H113.219V570.219C113.219 570.938 113.516 571.574 114.109 572.129C114.711 572.676 115.434 572.949 116.277 572.949C116.84 572.949 117.367 572.816 117.859 572.551C118.352 572.285 118.754 571.898 119.066 571.391C119.262 571.07 119.359 570.68 119.359 570.219V563.199H118.492C117.914 563.199 117.5 563.09 117.25 562.871C117.008 562.645 116.887 562.352 116.887 561.992C116.887 561.633 117.008 561.344 117.25 561.125C117.5 560.898 117.914 560.785 118.492 560.785L121.645 560.797C122.223 560.797 122.633 560.906 122.875 561.125C123.125 561.344 123.25 561.633 123.25 561.992C123.25 562.344 123.129 562.633 122.887 562.859C122.645 563.086 122.27 563.199 121.762 563.199ZM127.703 573.676V577.613H129.145C129.723 577.613 130.133 577.723 130.375 577.941C130.625 578.168 130.75 578.461 130.75 578.82C130.75 579.172 130.625 579.457 130.375 579.676C130.133 579.902 129.723 580.016 129.145 580.016H124.891C124.312 580.016 123.898 579.902 123.648 579.676C123.406 579.457 123.285 579.172 123.285 578.82C123.285 578.461 123.41 578.168 123.66 577.941C123.91 577.723 124.32 577.613 124.891 577.613H125.301V566.762H124.891C124.312 566.762 123.898 566.652 123.648 566.434C123.406 566.207 123.285 565.914 123.285 565.555C123.285 565.203 123.406 564.918 123.648 564.699C123.898 564.473 124.312 564.359 124.891 564.359H127.703V565.18C128.266 564.797 128.848 564.512 129.449 564.324C130.051 564.137 130.668 564.043 131.301 564.043C132.941 564.043 134.34 564.602 135.496 565.719C136.652 566.828 137.23 568.102 137.23 569.539C137.23 571.125 136.547 572.434 135.18 573.465C134.039 574.324 132.754 574.754 131.324 574.754C130.707 574.754 130.098 574.664 129.496 574.484C128.895 574.305 128.297 574.035 127.703 573.676ZM134.828 569.551C134.828 569.215 134.695 568.789 134.43 568.273C134.164 567.75 133.754 567.316 133.199 566.973C132.652 566.621 132.008 566.445 131.266 566.445C130.07 566.445 129.121 566.895 128.418 567.793C127.941 568.41 127.703 569.004 127.703 569.574C127.703 570.215 128.043 570.84 128.723 571.449C129.41 572.051 130.258 572.352 131.266 572.352C132.281 572.352 133.129 572.051 133.809 571.449C134.488 570.848 134.828 570.215 134.828 569.551Z" fill="white"/>
<path d="M47.582 544.695C46.9805 545.211 46.4297 545.578 45.9297 545.797C45.4297 546.008 44.9023 546.113 44.3477 546.113C43.0586 546.113 41.9297 545.598 40.9609 544.566C40 543.535 39.5195 542.254 39.5195 540.723C39.5195 539.527 39.8516 538.441 40.5156 537.465C41.4219 536.121 42.6992 535.449 44.3477 535.449C45.5273 535.449 46.5586 535.805 47.4414 536.516C48.3242 537.219 48.9727 538.238 49.3867 539.574C49.8008 540.902 50.0078 542.289 50.0078 543.734C50.0078 546.188 49.0586 548.156 47.1602 549.641C45.6914 550.781 44.082 551.352 42.332 551.352C41.3633 551.352 40.6133 551.156 40.082 550.766C39.7227 550.508 39.543 550.168 39.543 549.746C39.543 549.402 39.6562 549.117 39.8828 548.891C40.1172 548.656 40.4023 548.539 40.7383 548.539C40.9258 548.539 41.1367 548.598 41.3711 548.715C41.6758 548.871 41.9961 548.949 42.332 548.949C43.543 548.949 44.6602 548.539 45.6836 547.719C46.707 546.891 47.3398 545.883 47.582 544.695ZM47.2422 540.91C46.9844 539.801 46.6016 539.016 46.0938 538.555C45.5938 538.086 45.0195 537.852 44.3711 537.852C43.6914 537.852 43.1133 538.113 42.6367 538.637C42.1602 539.152 41.9219 539.84 41.9219 540.699C41.9219 541.598 42.1602 542.324 42.6367 542.879C43.1211 543.434 43.6719 543.711 44.2891 543.711C45.375 543.711 46.3594 542.777 47.2422 540.91ZM60.4258 541.965C60.4258 542.418 60.2656 542.797 59.9453 543.102C59.625 543.406 59.1836 543.559 58.6211 543.559C58.0586 543.559 57.6172 543.406 57.2969 543.102C56.9766 542.797 56.8164 542.418 56.8164 541.965C56.8164 541.512 56.9766 541.133 57.2969 540.828C57.6172 540.523 58.0586 540.371 58.6211 540.371C59.1836 540.371 59.625 540.523 59.9453 540.828C60.2656 541.133 60.4258 541.512 60.4258 541.965ZM60.4492 549.828C60.4492 550.281 60.2891 550.66 59.9688 550.965C59.6484 551.27 59.207 551.422 58.6445 551.422C58.082 551.422 57.6406 551.27 57.3203 550.965C57 550.66 56.8398 550.281 56.8398 549.828C56.8398 549.375 57 548.996 57.3203 548.691C57.6406 548.387 58.082 548.234 58.6445 548.234C59.207 548.234 59.6484 548.387 59.9688 548.691C60.2891 548.996 60.4492 549.375 60.4492 549.828ZM78.2734 542.082V544.719C78.2734 546.281 77.8203 547.777 76.9141 549.207C76.0156 550.637 74.7266 551.352 73.0469 551.352C72.0781 551.352 71.2578 551.141 70.5859 550.719C69.9219 550.289 69.2891 549.504 68.6875 548.363C68.0938 547.215 67.7969 546 67.7969 544.719V542.082C67.7969 540.527 68.2461 539.035 69.1445 537.605C70.043 536.168 71.332 535.449 73.0117 535.449C73.9727 535.449 74.7852 535.66 75.4492 536.082C76.1211 536.504 76.7578 537.289 77.3594 538.438C77.9688 539.578 78.2734 540.793 78.2734 542.082ZM75.8594 542.082C75.8594 540.777 75.4961 539.637 74.7695 538.66C74.3555 538.121 73.7734 537.852 73.0234 537.852C72.2969 537.852 71.7031 538.148 71.2422 538.742C70.5469 539.641 70.1992 540.754 70.1992 542.082V544.719C70.1992 546.031 70.5664 547.172 71.3008 548.141C71.707 548.68 72.2891 548.949 73.0469 548.949C73.7656 548.949 74.3555 548.652 74.8164 548.059C75.5117 547.16 75.8594 546.047 75.8594 544.719V542.082ZM92.6875 542.082V544.719C92.6875 546.281 92.2344 547.777 91.3281 549.207C90.4297 550.637 89.1406 551.352 87.4609 551.352C86.4922 551.352 85.6719 551.141 85 550.719C84.3359 550.289 83.7031 549.504 83.1016 548.363C82.5078 547.215 82.2109 546 82.2109 544.719V542.082C82.2109 540.527 82.6602 539.035 83.5586 537.605C84.457 536.168 85.7461 535.449 87.4258 535.449C88.3867 535.449 89.1992 535.66 89.8633 536.082C90.5352 536.504 91.1719 537.289 91.7734 538.438C92.3828 539.578 92.6875 540.793 92.6875 542.082ZM90.2734 542.082C90.2734 540.777 89.9102 539.637 89.1836 538.66C88.7695 538.121 88.1875 537.852 87.4375 537.852C86.7109 537.852 86.1172 538.148 85.6562 538.742C84.9609 539.641 84.6133 540.754 84.6133 542.082V544.719C84.6133 546.031 84.9805 547.172 85.7148 548.141C86.1211 548.68 86.7031 548.949 87.4609 548.949C88.1797 548.949 88.7695 548.652 89.2305 548.059C89.9258 547.16 90.2734 546.047 90.2734 544.719V542.082ZM100.469 546.125V548.598H102.895C103.473 548.598 103.883 548.711 104.125 548.938C104.375 549.156 104.5 549.445 104.5 549.805C104.5 550.156 104.375 550.445 104.125 550.672C103.883 550.891 103.473 551 102.895 551H97.6914C97.1133 551 96.6992 550.891 96.4492 550.672C96.207 550.445 96.0859 550.152 96.0859 549.793C96.0859 549.441 96.2109 549.156 96.4609 548.938C96.7109 548.711 97.1211 548.598 97.6914 548.598H98.0664V539.199H97.6914C97.1133 539.199 96.6992 539.09 96.4492 538.871C96.207 538.645 96.0859 538.352 96.0859 537.992C96.0859 537.633 96.207 537.344 96.4492 537.125C96.6992 536.898 97.1133 536.785 97.6914 536.785L103.223 536.797C104.848 536.797 106.133 537.242 107.078 538.133C108.031 539.016 108.508 540.094 108.508 541.367C108.508 542.07 108.348 542.734 108.027 543.359C107.785 543.828 107.379 544.293 106.809 544.754C106.246 545.207 105.668 545.551 105.074 545.785C104.488 546.012 103.711 546.125 102.742 546.125H100.469ZM100.469 543.723H102.695C103.742 543.723 104.57 543.488 105.18 543.02C105.797 542.543 106.105 541.973 106.105 541.309C106.105 540.746 105.855 540.254 105.355 539.832C104.863 539.41 104.156 539.199 103.234 539.199H100.469V543.723ZM112.516 541.438V548.598H113.383C113.961 548.598 114.371 548.711 114.613 548.938C114.863 549.156 114.988 549.445 114.988 549.805C114.988 550.156 114.863 550.445 114.613 550.672C114.371 550.891 113.961 551 113.383 551H110.23C109.652 551 109.242 550.891 109 550.672C108.75 550.445 108.625 550.152 108.625 549.793C108.625 549.441 108.746 549.156 108.988 548.938C109.23 548.711 109.605 548.598 110.113 548.598V539.199C109.691 539.16 109.371 539.031 109.152 538.812C108.941 538.594 108.836 538.32 108.836 537.992C108.836 537.633 108.957 537.344 109.199 537.125C109.449 536.898 109.863 536.785 110.441 536.785L113.078 536.797L116.348 544.027L119.559 536.785L122.219 536.797C122.797 536.797 123.207 536.906 123.449 537.125C123.699 537.344 123.824 537.633 123.824 537.992C123.824 538.32 123.715 538.594 123.496 538.812C123.277 539.031 122.961 539.16 122.547 539.199V548.598C123.055 548.598 123.43 548.711 123.672 548.938C123.914 549.164 124.035 549.453 124.035 549.805C124.035 550.156 123.91 550.445 123.66 550.672C123.418 550.891 123.008 551 122.43 551H119.266C118.695 551 118.285 550.891 118.035 550.672C117.793 550.445 117.672 550.152 117.672 549.793C117.672 549.441 117.793 549.156 118.035 548.938C118.285 548.711 118.695 548.598 119.266 548.598H120.145V541.438L117.391 547.625H115.305L112.516 541.438Z" fill="#00FF00"/>
<path d="M39.6914 394.391C39.4805 394.641 39.3086 394.801 39.1758 394.871C39.0508 394.941 38.8945 394.977 38.707 394.977C38.3398 394.977 38.043 394.855 37.8164 394.613C37.5977 394.363 37.4883 393.953 37.4883 393.383V391.766C37.4883 391.188 37.5977 390.777 37.8164 390.535C38.043 390.285 38.3398 390.16 38.707 390.16C38.9883 390.16 39.2227 390.234 39.4102 390.383C39.6055 390.531 39.7539 390.781 39.8555 391.133C39.957 391.477 40.0625 391.711 40.1719 391.836C40.3984 392.078 40.8008 392.324 41.3789 392.574C41.957 392.824 42.5898 392.949 43.2773 392.949C44.3477 392.949 45.2266 392.699 45.9141 392.199C46.3516 391.895 46.5703 391.52 46.5703 391.074C46.5703 390.777 46.4648 390.5 46.2539 390.242C46.043 389.977 45.6992 389.758 45.2227 389.586C44.9102 389.469 44.2109 389.309 43.125 389.105C41.8125 388.863 40.8203 388.57 40.1484 388.227C39.4766 387.883 38.9453 387.398 38.5547 386.773C38.1641 386.148 37.9688 385.473 37.9688 384.746C37.9688 383.598 38.4492 382.594 39.4102 381.734C40.3711 380.867 41.6211 380.434 43.1602 380.434C43.7773 380.434 44.3477 380.504 44.8711 380.645C45.4023 380.777 45.8828 380.984 46.3125 381.266C46.625 380.961 46.9375 380.809 47.25 380.809C47.6016 380.809 47.8867 380.934 48.1055 381.184C48.332 381.426 48.4453 381.832 48.4453 382.402V384.207C48.4453 384.785 48.332 385.199 48.1055 385.449C47.8867 385.691 47.6016 385.812 47.25 385.812C46.9531 385.812 46.6953 385.723 46.4766 385.543C46.3047 385.41 46.1758 385.145 46.0898 384.746C46.0039 384.348 45.8945 384.062 45.7617 383.891C45.5352 383.594 45.1953 383.344 44.7422 383.141C44.2891 382.938 43.7656 382.836 43.1719 382.836C42.3047 382.836 41.6172 383.039 41.1094 383.445C40.6094 383.844 40.3594 384.262 40.3594 384.699C40.3594 384.996 40.4609 385.285 40.6641 385.566C40.875 385.84 41.1797 386.055 41.5781 386.211C41.8438 386.32 42.5898 386.496 43.8164 386.738C45.0508 386.98 45.9961 387.246 46.6523 387.535C47.3164 387.824 47.8672 388.277 48.3047 388.895C48.7422 389.512 48.9609 390.246 48.9609 391.098C48.9609 392.285 48.543 393.234 47.707 393.945C46.5977 394.883 45.1836 395.352 43.4648 395.352C42.8008 395.352 42.1523 395.27 41.5195 395.105C40.8945 394.949 40.2852 394.711 39.6914 394.391ZM62.7188 384.359V392.598C63.2266 392.598 63.6016 392.711 63.8438 392.938C64.0859 393.164 64.207 393.453 64.207 393.805C64.207 394.156 64.082 394.445 63.832 394.672C63.5898 394.891 63.1797 395 62.6016 395H60.3164V394.449C59.6289 394.762 58.9727 394.996 58.3477 395.152C57.7227 395.309 57.1289 395.387 56.5664 395.387C55.7773 395.387 55.0938 395.223 54.5156 394.895C53.9375 394.559 53.4805 394.098 53.1445 393.512C52.9023 393.09 52.7812 392.562 52.7812 391.93V386.762H52.3711C51.793 386.762 51.3789 386.652 51.1289 386.434C50.8867 386.207 50.7656 385.914 50.7656 385.555C50.7656 385.203 50.8867 384.918 51.1289 384.699C51.3789 384.473 51.793 384.359 52.3711 384.359H55.1836V391.508C55.1836 392.016 55.3047 392.391 55.5469 392.633C55.7969 392.867 56.1758 392.984 56.6836 392.984C57.168 392.984 57.6875 392.891 58.2422 392.703C58.8047 392.508 59.4961 392.16 60.3164 391.66V386.762H59.4492C58.8711 386.762 58.457 386.652 58.207 386.434C57.9648 386.207 57.8438 385.914 57.8438 385.555C57.8438 385.203 57.9648 384.918 58.207 384.699C58.457 384.473 58.8711 384.359 59.4492 384.359H62.7188ZM69 379.801V385.191C69.5859 384.809 70.1797 384.523 70.7812 384.336C71.3906 384.141 72.0039 384.043 72.6211 384.043C74.2852 384.043 75.6953 384.617 76.8516 385.766C78.0078 386.914 78.5859 388.301 78.5859 389.926C78.5859 391.48 78.0352 392.781 76.9336 393.828C75.832 394.867 74.3789 395.387 72.5742 395.387C71.9336 395.387 71.3164 395.305 70.7227 395.141C70.1289 394.977 69.5547 394.734 69 394.414V395H66.1875C65.6094 395 65.1953 394.891 64.9453 394.672C64.7031 394.445 64.582 394.152 64.582 393.793C64.582 393.441 64.707 393.156 64.957 392.938C65.207 392.711 65.6172 392.598 66.1875 392.598H66.5977V382.203H66.1875C65.6094 382.203 65.1953 382.094 64.9453 381.875C64.7031 381.648 64.582 381.355 64.582 380.996C64.582 380.645 64.7031 380.359 64.9453 380.141C65.1953 379.914 65.6094 379.801 66.1875 379.801H69ZM76.1836 389.996C76.1836 389.004 75.8359 388.164 75.1406 387.477C74.4453 386.789 73.5938 386.445 72.5859 386.445C71.5859 386.445 70.7383 386.789 70.043 387.477C69.3477 388.164 69 388.992 69 389.961C69 390.844 69.3125 391.57 69.9375 392.141C70.5625 392.703 71.4453 392.984 72.5859 392.984C73.7266 392.984 74.6094 392.703 75.2344 392.141C75.8672 391.57 76.1836 390.855 76.1836 389.996ZM82.7344 384.359V385.039C83.125 384.656 83.4766 384.395 83.7891 384.254C84.1094 384.105 84.4766 384.031 84.8906 384.031C85.2422 384.031 85.5898 384.117 85.9336 384.289C86.2773 384.461 86.6133 384.719 86.9414 385.062C87.3555 384.719 87.7734 384.465 88.1953 384.301C88.625 384.129 89.0625 384.043 89.5078 384.043C90.3984 384.043 91.1211 384.281 91.6758 384.758C92.4102 385.383 92.7773 386.203 92.7773 387.219V392.598C93.2773 392.598 93.6484 392.711 93.8906 392.938C94.1328 393.164 94.2539 393.453 94.2539 393.805C94.2539 394.156 94.1328 394.445 93.8906 394.672C93.6484 394.891 93.2383 395 92.6602 395H90.375V387.418C90.375 387.051 90.3086 386.797 90.1758 386.656C90.043 386.516 89.8398 386.445 89.5664 386.445C89.3008 386.445 89.0547 386.516 88.8281 386.656C88.5391 386.852 88.1875 387.219 87.7734 387.758V392.598C88.2734 392.598 88.6445 392.711 88.8867 392.938C89.1289 393.164 89.25 393.453 89.25 393.805C89.25 394.156 89.1289 394.445 88.8867 394.672C88.6445 394.891 88.2344 395 87.6562 395H85.3711V387.418C85.3711 387.059 85.3008 386.809 85.1602 386.668C85.0273 386.52 84.8242 386.445 84.5508 386.445C84.2695 386.445 83.9922 386.535 83.7188 386.715C83.4453 386.887 83.1172 387.234 82.7344 387.758V392.598C83.2344 392.598 83.6055 392.711 83.8477 392.938C84.0977 393.164 84.2227 393.453 84.2227 393.805C84.2227 394.156 84.0977 394.445 83.8477 394.672C83.6055 394.891 83.1953 395 82.6172 395H80.4492C79.8711 395 79.4609 394.891 79.2188 394.672C78.9688 394.445 78.8438 394.152 78.8438 393.793C78.8438 393.441 78.9648 393.156 79.207 392.938C79.4492 392.711 79.8242 392.598 80.332 392.598V386.762C79.8242 386.762 79.4492 386.648 79.207 386.422C78.9648 386.195 78.8438 385.906 78.8438 385.555C78.8438 385.203 78.9688 384.918 79.2188 384.699C79.4609 384.473 79.8711 384.359 80.4492 384.359H82.7344ZM101.719 379.801V382.344H98.8594V379.801H101.719ZM102.047 384.359V392.598H104.93C105.508 392.598 105.918 392.711 106.16 392.938C106.41 393.156 106.535 393.445 106.535 393.805C106.535 394.156 106.41 394.445 106.16 394.672C105.918 394.891 105.508 395 104.93 395H96.7617C96.1836 395 95.7695 394.891 95.5195 394.672C95.2773 394.445 95.1562 394.152 95.1562 393.793C95.1562 393.441 95.2773 393.156 95.5195 392.938C95.7695 392.711 96.1836 392.598 96.7617 392.598H99.6445V386.762H97.7109C97.1406 386.762 96.7305 386.652 96.4805 386.434C96.2305 386.207 96.1055 385.914 96.1055 385.555C96.1055 385.203 96.2266 384.918 96.4688 384.699C96.7188 384.473 97.1328 384.359 97.7109 384.359H102.047ZM117.867 387.172C117.477 386.93 117.066 386.75 116.637 386.633C116.207 386.508 115.758 386.445 115.289 386.445C114.359 386.445 113.621 386.598 113.074 386.902C112.832 387.035 112.711 387.18 112.711 387.336C112.711 387.516 112.875 387.691 113.203 387.863C113.453 387.988 114.012 388.109 114.879 388.227C116.473 388.445 117.582 388.664 118.207 388.883C119.027 389.172 119.66 389.602 120.105 390.172C120.551 390.742 120.773 391.344 120.773 391.977C120.773 392.836 120.395 393.555 119.637 394.133C118.551 394.969 117.141 395.387 115.406 395.387C114.711 395.387 114.066 395.324 113.473 395.199C112.887 395.082 112.348 394.906 111.855 394.672C111.738 394.773 111.613 394.852 111.48 394.906C111.348 394.961 111.211 394.988 111.07 394.988C110.695 394.988 110.395 394.867 110.168 394.625C109.949 394.375 109.84 393.961 109.84 393.383V392.574C109.84 391.996 109.949 391.586 110.168 391.344C110.395 391.094 110.688 390.969 111.047 390.969C111.336 390.969 111.578 391.051 111.773 391.215C111.969 391.371 112.121 391.645 112.23 392.035C112.598 392.348 113.039 392.586 113.555 392.75C114.07 392.906 114.664 392.984 115.336 392.984C116.438 392.984 117.293 392.812 117.902 392.469C118.191 392.297 118.336 392.117 118.336 391.93C118.336 391.617 118.129 391.359 117.715 391.156C117.301 390.953 116.445 390.781 115.148 390.641C113.219 390.438 111.93 390.047 111.281 389.469C110.633 388.898 110.309 388.195 110.309 387.359C110.309 386.5 110.672 385.785 111.398 385.215C112.383 384.434 113.672 384.043 115.266 384.043C115.82 384.043 116.352 384.098 116.859 384.207C117.375 384.309 117.867 384.469 118.336 384.688C118.484 384.578 118.621 384.496 118.746 384.441C118.879 384.387 119 384.359 119.109 384.359C119.438 384.359 119.711 384.484 119.93 384.734C120.148 384.977 120.258 385.387 120.258 385.965V386.551C120.258 387.074 120.195 387.43 120.07 387.617C119.82 387.977 119.48 388.156 119.051 388.156C118.762 388.156 118.508 388.066 118.289 387.887C118.07 387.707 117.93 387.469 117.867 387.172ZM132.281 387.172C131.891 386.93 131.48 386.75 131.051 386.633C130.621 386.508 130.172 386.445 129.703 386.445C128.773 386.445 128.035 386.598 127.488 386.902C127.246 387.035 127.125 387.18 127.125 387.336C127.125 387.516 127.289 387.691 127.617 387.863C127.867 387.988 128.426 388.109 129.293 388.227C130.887 388.445 131.996 388.664 132.621 388.883C133.441 389.172 134.074 389.602 134.52 390.172C134.965 390.742 135.188 391.344 135.188 391.977C135.188 392.836 134.809 393.555 134.051 394.133C132.965 394.969 131.555 395.387 129.82 395.387C129.125 395.387 128.48 395.324 127.887 395.199C127.301 395.082 126.762 394.906 126.27 394.672C126.152 394.773 126.027 394.852 125.895 394.906C125.762 394.961 125.625 394.988 125.484 394.988C125.109 394.988 124.809 394.867 124.582 394.625C124.363 394.375 124.254 393.961 124.254 393.383V392.574C124.254 391.996 124.363 391.586 124.582 391.344C124.809 391.094 125.102 390.969 125.461 390.969C125.75 390.969 125.992 391.051 126.188 391.215C126.383 391.371 126.535 391.645 126.645 392.035C127.012 392.348 127.453 392.586 127.969 392.75C128.484 392.906 129.078 392.984 129.75 392.984C130.852 392.984 131.707 392.812 132.316 392.469C132.605 392.297 132.75 392.117 132.75 391.93C132.75 391.617 132.543 391.359 132.129 391.156C131.715 390.953 130.859 390.781 129.562 390.641C127.633 390.438 126.344 390.047 125.695 389.469C125.047 388.898 124.723 388.195 124.723 387.359C124.723 386.5 125.086 385.785 125.812 385.215C126.797 384.434 128.086 384.043 129.68 384.043C130.234 384.043 130.766 384.098 131.273 384.207C131.789 384.309 132.281 384.469 132.75 384.688C132.898 384.578 133.035 384.496 133.16 384.441C133.293 384.387 133.414 384.359 133.523 384.359C133.852 384.359 134.125 384.484 134.344 384.734C134.562 384.977 134.672 385.387 134.672 385.965V386.551C134.672 387.074 134.609 387.43 134.484 387.617C134.234 387.977 133.895 388.156 133.465 388.156C133.176 388.156 132.922 388.066 132.703 387.887C132.484 387.707 132.344 387.469 132.281 387.172ZM144.961 379.801V382.344H142.102V379.801H144.961ZM145.289 384.359V392.598H148.172C148.75 392.598 149.16 392.711 149.402 392.938C149.652 393.156 149.777 393.445 149.777 393.805C149.777 394.156 149.652 394.445 149.402 394.672C149.16 394.891 148.75 395 148.172 395H140.004C139.426 395 139.012 394.891 138.762 394.672C138.52 394.445 138.398 394.152 138.398 393.793C138.398 393.441 138.52 393.156 138.762 392.938C139.012 392.711 139.426 392.598 140.004 392.598H142.887V386.762H140.953C140.383 386.762 139.973 386.652 139.723 386.434C139.473 386.207 139.348 385.914 139.348 385.555C139.348 385.203 139.469 384.918 139.711 384.699C139.961 384.473 140.375 384.359 140.953 384.359H145.289ZM164.754 389.879C164.754 390.801 164.496 391.695 163.98 392.562C163.473 393.422 162.711 394.109 161.695 394.625C160.688 395.133 159.633 395.387 158.531 395.387C157.438 395.387 156.391 395.137 155.391 394.637C154.391 394.129 153.629 393.441 153.105 392.574C152.582 391.707 152.32 390.801 152.32 389.855C152.32 388.895 152.586 387.953 153.117 387.031C153.648 386.102 154.41 385.371 155.402 384.84C156.402 384.309 157.445 384.043 158.531 384.043C159.625 384.043 160.676 384.316 161.684 384.863C162.699 385.402 163.465 386.133 163.98 387.055C164.496 387.969 164.754 388.91 164.754 389.879ZM162.352 389.891C162.352 389.117 162.074 388.406 161.52 387.758C160.762 386.883 159.766 386.445 158.531 386.445C157.445 386.445 156.539 386.793 155.812 387.488C155.086 388.184 154.723 388.988 154.723 389.902C154.723 390.652 155.09 391.355 155.824 392.012C156.559 392.66 157.461 392.984 158.531 392.984C159.609 392.984 160.516 392.66 161.25 392.012C161.984 391.355 162.352 390.648 162.352 389.891ZM170.496 384.359V385.168C170.934 384.793 171.414 384.512 171.938 384.324C172.469 384.137 173.043 384.043 173.66 384.043C175.082 384.043 176.207 384.484 177.035 385.367C177.691 386.07 178.02 386.992 178.02 388.133V392.598C178.527 392.598 178.902 392.711 179.145 392.938C179.387 393.156 179.508 393.445 179.508 393.805C179.508 394.156 179.383 394.445 179.133 394.672C178.891 394.891 178.48 395 177.902 395H175.734C175.156 395 174.742 394.891 174.492 394.672C174.25 394.445 174.129 394.152 174.129 393.793C174.129 393.441 174.25 393.156 174.492 392.938C174.734 392.711 175.109 392.598 175.617 392.598V388.062C175.617 387.539 175.477 387.156 175.195 386.914C174.828 386.602 174.277 386.445 173.543 386.445C172.988 386.445 172.5 386.555 172.078 386.773C171.664 386.984 171.137 387.438 170.496 388.133V392.598C171.113 392.598 171.512 392.656 171.691 392.773C172.074 393.008 172.266 393.352 172.266 393.805C172.266 394.156 172.141 394.445 171.891 394.672C171.648 394.891 171.238 395 170.66 395H167.93C167.352 395 166.938 394.891 166.688 394.672C166.445 394.445 166.324 394.152 166.324 393.793C166.324 393.355 166.512 393.016 166.887 392.773C167.074 392.656 167.477 392.598 168.094 392.598V386.762C167.586 386.762 167.211 386.648 166.969 386.422C166.727 386.195 166.605 385.906 166.605 385.555C166.605 385.203 166.727 384.918 166.969 384.699C167.219 384.473 167.633 384.359 168.211 384.359H170.496ZM189.938 387.172C189.547 386.93 189.137 386.75 188.707 386.633C188.277 386.508 187.828 386.445 187.359 386.445C186.43 386.445 185.691 386.598 185.145 386.902C184.902 387.035 184.781 387.18 184.781 387.336C184.781 387.516 184.945 387.691 185.273 387.863C185.523 387.988 186.082 388.109 186.949 388.227C188.543 388.445 189.652 388.664 190.277 388.883C191.098 389.172 191.73 389.602 192.176 390.172C192.621 390.742 192.844 391.344 192.844 391.977C192.844 392.836 192.465 393.555 191.707 394.133C190.621 394.969 189.211 395.387 187.477 395.387C186.781 395.387 186.137 395.324 185.543 395.199C184.957 395.082 184.418 394.906 183.926 394.672C183.809 394.773 183.684 394.852 183.551 394.906C183.418 394.961 183.281 394.988 183.141 394.988C182.766 394.988 182.465 394.867 182.238 394.625C182.02 394.375 181.91 393.961 181.91 393.383V392.574C181.91 391.996 182.02 391.586 182.238 391.344C182.465 391.094 182.758 390.969 183.117 390.969C183.406 390.969 183.648 391.051 183.844 391.215C184.039 391.371 184.191 391.645 184.301 392.035C184.668 392.348 185.109 392.586 185.625 392.75C186.141 392.906 186.734 392.984 187.406 392.984C188.508 392.984 189.363 392.812 189.973 392.469C190.262 392.297 190.406 392.117 190.406 391.93C190.406 391.617 190.199 391.359 189.785 391.156C189.371 390.953 188.516 390.781 187.219 390.641C185.289 390.438 184 390.047 183.352 389.469C182.703 388.898 182.379 388.195 182.379 387.359C182.379 386.5 182.742 385.785 183.469 385.215C184.453 384.434 185.742 384.043 187.336 384.043C187.891 384.043 188.422 384.098 188.93 384.207C189.445 384.309 189.938 384.469 190.406 384.688C190.555 384.578 190.691 384.496 190.816 384.441C190.949 384.387 191.07 384.359 191.18 384.359C191.508 384.359 191.781 384.484 192 384.734C192.219 384.977 192.328 385.387 192.328 385.965V386.551C192.328 387.074 192.266 387.43 192.141 387.617C191.891 387.977 191.551 388.156 191.121 388.156C190.832 388.156 190.578 388.066 190.359 387.887C190.141 387.707 190 387.469 189.938 387.172ZM46.9688 408.406C47.1172 408.203 47.2773 408.051 47.4492 407.949C47.6289 407.848 47.8203 407.797 48.0234 407.797C48.375 407.797 48.6602 407.918 48.8789 408.16C49.1055 408.402 49.2188 408.812 49.2188 409.391V411.43C49.2188 412.008 49.1055 412.422 48.8789 412.672C48.6602 412.914 48.375 413.035 48.0234 413.035C47.7031 413.035 47.4453 412.945 47.25 412.766C47.0547 412.586 46.9102 412.25 46.8164 411.758C46.7617 411.43 46.6523 411.176 46.4883 410.996C46.168 410.645 45.7188 410.363 45.1406 410.152C44.5703 409.941 43.9961 409.836 43.418 409.836C42.6992 409.836 42.0391 409.992 41.4375 410.305C40.8359 410.617 40.3047 411.125 39.8438 411.828C39.3828 412.531 39.1523 413.367 39.1523 414.336V415.895C39.1523 417.051 39.5703 418.016 40.4062 418.789C41.25 419.562 42.418 419.949 43.9102 419.949C44.8008 419.949 45.5547 419.828 46.1719 419.586C46.5312 419.445 46.9141 419.168 47.3203 418.754C47.5703 418.504 47.7656 418.344 47.9062 418.273C48.0469 418.195 48.207 418.156 48.3867 418.156C48.707 418.156 48.9883 418.277 49.2305 418.52C49.4727 418.762 49.5938 419.047 49.5938 419.375C49.5938 419.703 49.4297 420.055 49.1016 420.43C48.625 420.977 48.0117 421.406 47.2617 421.719C46.2539 422.141 45.1406 422.352 43.9219 422.352C42.5 422.352 41.2188 422.059 40.0781 421.473C39.1562 421.004 38.3711 420.266 37.7227 419.258C37.0742 418.242 36.75 417.137 36.75 415.941V414.312C36.75 413.062 37.0391 411.898 37.6172 410.82C38.2031 409.734 39.0117 408.898 40.043 408.312C41.0742 407.727 42.168 407.434 43.3242 407.434C44.0195 407.434 44.668 407.516 45.2695 407.68C45.8789 407.836 46.4453 408.078 46.9688 408.406ZM56.6133 410.199V419.598H61.793V417.324C61.793 416.746 61.9023 416.336 62.1211 416.094C62.3477 415.844 62.6406 415.719 63 415.719C63.3516 415.719 63.6367 415.844 63.8555 416.094C64.082 416.336 64.1953 416.746 64.1953 417.324V422H52.8164C52.2383 422 51.8242 421.891 51.5742 421.672C51.332 421.445 51.2109 421.152 51.2109 420.793C51.2109 420.441 51.332 420.156 51.5742 419.938C51.8242 419.711 52.2383 419.598 52.8164 419.598H54.2109V410.199H52.8164C52.2383 410.199 51.8242 410.09 51.5742 409.871C51.332 409.645 51.2109 409.352 51.2109 408.992C51.2109 408.633 51.332 408.344 51.5742 408.125C51.8242 407.898 52.2383 407.785 52.8164 407.785L58.0195 407.797C58.5977 407.797 59.0078 407.906 59.25 408.125C59.5 408.344 59.625 408.633 59.625 408.992C59.625 409.352 59.5 409.645 59.25 409.871C59.0078 410.09 58.5977 410.199 58.0195 410.199H56.6133ZM78.7734 414.898C78.7734 417.031 78.0938 418.809 76.7344 420.23C75.3828 421.645 73.8164 422.352 72.0352 422.352C70.4336 422.352 68.9883 421.762 67.6992 420.582C66.1055 419.121 65.3086 417.227 65.3086 414.898C65.3086 412.57 66.1055 410.672 67.6992 409.203C68.9883 408.023 70.4336 407.434 72.0352 407.434C73.8164 407.434 75.3828 408.145 76.7344 409.566C78.0938 410.98 78.7734 412.758 78.7734 414.898ZM76.3711 414.898C76.3711 413.438 75.9297 412.23 75.0469 411.277C74.1641 410.316 73.1602 409.836 72.0352 409.836C70.918 409.836 69.918 410.316 69.0352 411.277C68.1523 412.238 67.7109 413.445 67.7109 414.898C67.7109 416.352 68.1523 417.559 69.0352 418.52C69.918 419.473 70.918 419.949 72.0352 419.949C73.1602 419.949 74.1641 419.473 75.0469 418.52C75.9297 417.566 76.3711 416.359 76.3711 414.898ZM82.9336 421.391C82.7227 421.641 82.5508 421.801 82.418 421.871C82.293 421.941 82.1367 421.977 81.9492 421.977C81.582 421.977 81.2852 421.855 81.0586 421.613C80.8398 421.363 80.7305 420.953 80.7305 420.383V418.766C80.7305 418.188 80.8398 417.777 81.0586 417.535C81.2852 417.285 81.582 417.16 81.9492 417.16C82.2305 417.16 82.4648 417.234 82.6523 417.383C82.8477 417.531 82.9961 417.781 83.0977 418.133C83.1992 418.477 83.3047 418.711 83.4141 418.836C83.6406 419.078 84.043 419.324 84.6211 419.574C85.1992 419.824 85.832 419.949 86.5195 419.949C87.5898 419.949 88.4688 419.699 89.1562 419.199C89.5938 418.895 89.8125 418.52 89.8125 418.074C89.8125 417.777 89.707 417.5 89.4961 417.242C89.2852 416.977 88.9414 416.758 88.4648 416.586C88.1523 416.469 87.4531 416.309 86.3672 416.105C85.0547 415.863 84.0625 415.57 83.3906 415.227C82.7188 414.883 82.1875 414.398 81.7969 413.773C81.4062 413.148 81.2109 412.473 81.2109 411.746C81.2109 410.598 81.6914 409.594 82.6523 408.734C83.6133 407.867 84.8633 407.434 86.4023 407.434C87.0195 407.434 87.5898 407.504 88.1133 407.645C88.6445 407.777 89.125 407.984 89.5547 408.266C89.8672 407.961 90.1797 407.809 90.4922 407.809C90.8438 407.809 91.1289 407.934 91.3477 408.184C91.5742 408.426 91.6875 408.832 91.6875 409.402V411.207C91.6875 411.785 91.5742 412.199 91.3477 412.449C91.1289 412.691 90.8438 412.812 90.4922 412.812C90.1953 412.812 89.9375 412.723 89.7188 412.543C89.5469 412.41 89.418 412.145 89.332 411.746C89.2461 411.348 89.1367 411.062 89.0039 410.891C88.7773 410.594 88.4375 410.344 87.9844 410.141C87.5312 409.938 87.0078 409.836 86.4141 409.836C85.5469 409.836 84.8594 410.039 84.3516 410.445C83.8516 410.844 83.6016 411.262 83.6016 411.699C83.6016 411.996 83.7031 412.285 83.9062 412.566C84.1172 412.84 84.4219 413.055 84.8203 413.211C85.0859 413.32 85.832 413.496 87.0586 413.738C88.293 413.98 89.2383 414.246 89.8945 414.535C90.5586 414.824 91.1094 415.277 91.5469 415.895C91.9844 416.512 92.2031 417.246 92.2031 418.098C92.2031 419.285 91.7852 420.234 90.9492 420.945C89.8398 421.883 88.4258 422.352 86.707 422.352C86.043 422.352 85.3945 422.27 84.7617 422.105C84.1367 421.949 83.5273 421.711 82.9336 421.391ZM98.3906 416.07V419.598H104.52V418.297C104.52 417.719 104.629 417.309 104.848 417.066C105.074 416.816 105.367 416.691 105.727 416.691C106.078 416.691 106.363 416.816 106.582 417.066C106.809 417.309 106.922 417.719 106.922 418.297V422H95.6133C95.0352 422 94.6211 421.891 94.3711 421.672C94.1289 421.445 94.0078 421.152 94.0078 420.793C94.0078 420.441 94.1328 420.156 94.3828 419.938C94.6328 419.711 95.043 419.598 95.6133 419.598H95.9883V410.199H95.6133C95.0352 410.199 94.6211 410.09 94.3711 409.871C94.1289 409.645 94.0078 409.352 94.0078 408.992C94.0078 408.633 94.1289 408.344 94.3711 408.125C94.6211 407.898 95.0352 407.785 95.6133 407.785L106.395 407.797V411.453C106.395 412.023 106.285 412.434 106.066 412.684C105.848 412.926 105.559 413.047 105.199 413.047C104.84 413.047 104.547 412.926 104.32 412.684C104.102 412.441 103.992 412.031 103.992 411.453V410.199H98.3906V413.668H100.5C100.5 413.043 100.559 412.641 100.676 412.461C100.918 412.078 101.262 411.887 101.707 411.887C102.059 411.887 102.344 412.012 102.562 412.262C102.789 412.504 102.902 412.914 102.902 413.492V416.258C102.902 416.781 102.84 417.133 102.715 417.312C102.465 417.68 102.129 417.863 101.707 417.863C101.262 417.863 100.918 417.672 100.676 417.289C100.559 417.109 100.5 416.703 100.5 416.07H98.3906Z" fill="white"/>
<path d="M48.918 217.418H42.4492L40.3516 221.016H42.2383C42.4648 221.016 42.6172 221.051 42.6953 221.121C42.7734 221.184 42.8125 221.277 42.8125 221.402C42.8125 221.566 42.7461 221.707 42.6133 221.824C42.4805 221.941 42.2852 222 42.0273 222H38.3594C38.1406 222 37.9922 221.965 37.9141 221.895C37.8359 221.824 37.7969 221.727 37.7969 221.602C37.7969 221.445 37.8594 221.309 37.9844 221.191C38.1172 221.074 38.3125 221.016 38.5703 221.016H39.3203L46.1758 209.273H43.2695C43.0508 209.273 42.9023 209.242 42.8242 209.18C42.7461 209.109 42.707 209.008 42.707 208.875C42.707 208.719 42.7695 208.582 42.8945 208.465C43.0273 208.348 43.2227 208.289 43.4805 208.289H48.4258L50.5352 221.016H51.2969C51.5156 221.016 51.6641 221.051 51.7422 221.121C51.8203 221.184 51.8594 221.277 51.8594 221.402C51.8594 221.566 51.793 221.707 51.6602 221.824C51.5352 221.941 51.3438 222 51.0859 222H47.4062C47.1875 222 47.0391 221.965 46.9609 221.895C46.8828 221.824 46.8438 221.727 46.8438 221.602C46.8438 221.445 46.9062 221.309 47.0312 221.191C47.1641 221.074 47.3594 221.016 47.6172 221.016H49.5039L48.918 217.418ZM48.7539 216.434L47.5586 209.273H47.1953L43.0234 216.434H48.7539ZM59.5938 211.852L59.0664 214.336C60.6211 213.164 61.7461 212.418 62.4414 212.098C63.1445 211.77 63.7617 211.605 64.293 211.605C64.8242 211.605 65.3008 211.785 65.7227 212.145C66.1523 212.504 66.3672 212.785 66.3672 212.988C66.3672 213.152 66.3047 213.297 66.1797 213.422C66.0547 213.547 65.9062 213.609 65.7344 213.609C65.6562 213.609 65.5938 213.598 65.5469 213.574C65.5 213.543 65.418 213.453 65.3008 213.305C65.0898 213.031 64.8906 212.844 64.7031 212.742C64.5234 212.641 64.3398 212.59 64.1523 212.59C63.7148 212.59 63.1562 212.762 62.4766 213.105C61.8047 213.449 60.5781 214.289 58.7969 215.625L57.6484 221.016H62.0078C62.2344 221.016 62.3867 221.051 62.4648 221.121C62.543 221.184 62.582 221.277 62.582 221.402C62.582 221.566 62.5156 221.707 62.3828 221.824C62.25 221.941 62.0547 222 61.7969 222H54.0742C53.8555 222 53.707 221.969 53.6289 221.906C53.5508 221.836 53.5117 221.742 53.5117 221.625C53.5117 221.469 53.5742 221.336 53.6992 221.227C53.8242 221.109 54.0156 221.051 54.2734 221.051H56.6523L58.3984 212.848H56.582C56.3633 212.848 56.2148 212.812 56.1367 212.742C56.0586 212.672 56.0195 212.578 56.0195 212.461C56.0195 212.297 56.082 212.156 56.207 212.039C56.3398 211.914 56.5352 211.852 56.793 211.852H59.5938ZM73.2109 211.852H78.5547C78.7812 211.852 78.9297 211.883 79 211.945C79.0781 212.008 79.1172 212.105 79.1172 212.238C79.1172 212.379 79.0898 212.496 79.0352 212.59C78.9805 212.676 78.9141 212.738 78.8359 212.777C78.7344 212.824 78.5703 212.848 78.3438 212.848H73L71.6055 219.398C71.5664 219.586 71.5469 219.758 71.5469 219.914C71.5469 220.289 71.7383 220.633 72.1211 220.945C72.5117 221.25 73.0781 221.402 73.8203 221.402C74.5156 221.402 75.2695 221.305 76.082 221.109C76.9023 220.914 77.5547 220.688 78.0391 220.43C78.2188 220.328 78.3594 220.277 78.4609 220.277C78.5703 220.277 78.6602 220.316 78.7305 220.395C78.8008 220.465 78.8359 220.562 78.8359 220.688C78.8359 220.852 78.7383 221.004 78.543 221.145C78.0664 221.488 77.2266 221.801 76.0234 222.082C75.1562 222.285 74.3516 222.387 73.6094 222.387C72.6328 222.387 71.875 222.16 71.3359 221.707C70.8047 221.254 70.5391 220.707 70.5391 220.066C70.5391 219.863 70.5625 219.641 70.6094 219.398L72.0039 212.848H70.1875C69.9688 212.848 69.8203 212.812 69.7422 212.742C69.6641 212.672 69.625 212.574 69.625 212.449C69.625 212.293 69.6875 212.156 69.8125 212.039C69.9453 211.914 70.1406 211.852 70.3984 211.852H72.2148L72.8359 208.945C72.8828 208.711 72.9648 208.543 73.082 208.441C73.1992 208.34 73.332 208.289 73.4805 208.289C73.5898 208.289 73.6797 208.324 73.75 208.395C73.8281 208.465 73.8672 208.551 73.8672 208.652C73.8672 208.715 73.8516 208.812 73.8203 208.945L73.2109 211.852ZM92.7227 212.496C92.7695 212.27 92.8516 212.105 92.9688 212.004C93.0859 211.902 93.2148 211.852 93.3555 211.852C93.4727 211.852 93.5664 211.891 93.6367 211.969C93.7148 212.039 93.7539 212.121 93.7539 212.215C93.7539 212.285 93.7383 212.387 93.707 212.52L93.3555 214.207C93.3008 214.441 93.2148 214.609 93.0977 214.711C92.9883 214.812 92.8594 214.863 92.7109 214.863C92.6016 214.863 92.5078 214.828 92.4297 214.758C92.3594 214.688 92.3242 214.605 92.3242 214.512L92.3359 214.312C92.3438 214.25 92.3477 214.191 92.3477 214.137C92.3477 213.715 92.1602 213.371 91.7852 213.105C91.2305 212.699 90.4531 212.496 89.4531 212.496C88.25 212.496 87.293 212.754 86.582 213.27C86.0508 213.652 85.7852 214.059 85.7852 214.488C85.7852 214.91 86.0156 215.254 86.4766 215.52C86.8125 215.707 87.5234 215.863 88.6094 215.988C89.6953 216.105 90.4727 216.242 90.9414 216.398C91.5977 216.609 92.0859 216.914 92.4062 217.312C92.7266 217.711 92.8867 218.16 92.8867 218.66C92.8867 219.238 92.6758 219.816 92.2539 220.395C91.832 220.973 91.1875 221.449 90.3203 221.824C89.4531 222.199 88.4766 222.387 87.3906 222.387C86.6172 222.387 85.9336 222.285 85.3398 222.082C84.7461 221.887 84.2422 221.594 83.8281 221.203C83.7656 221.523 83.6875 221.73 83.5938 221.824C83.4609 221.941 83.3164 222 83.1602 222C83.0508 222 82.957 221.965 82.8789 221.895C82.8086 221.824 82.7734 221.738 82.7734 221.637C82.7734 221.566 82.7852 221.469 82.8086 221.344L83.2422 219.316C83.2891 219.082 83.3711 218.914 83.4883 218.812C83.6055 218.711 83.7383 218.66 83.8867 218.66C83.9961 218.66 84.0859 218.699 84.1562 218.777C84.2344 218.848 84.2734 218.934 84.2734 219.035C84.2734 219.098 84.2617 219.188 84.2383 219.305C84.2148 219.422 84.2031 219.508 84.2031 219.562C84.2031 220.008 84.4336 220.398 84.8945 220.734C85.5039 221.18 86.3945 221.402 87.5664 221.402C88.9648 221.402 90.0312 221.125 90.7656 220.57C91.5 220.016 91.8672 219.465 91.8672 218.918C91.8672 218.621 91.7578 218.332 91.5391 218.051C91.3281 217.762 91.0039 217.535 90.5664 217.371C90.1289 217.199 89.4102 217.062 88.4102 216.961C87.418 216.852 86.6914 216.719 86.2305 216.562C85.7773 216.398 85.4219 216.152 85.1641 215.824C84.9062 215.496 84.7773 215.121 84.7773 214.699C84.7773 214.207 84.9453 213.727 85.2812 213.258C85.6172 212.781 86.1758 212.371 86.957 212.027C87.7461 211.676 88.6289 211.5 89.6055 211.5C90.2852 211.5 90.8828 211.582 91.3984 211.746C91.9219 211.91 92.3633 212.16 92.7227 212.496ZM120.59 222H119.055L118.328 212.262L113.523 222H111.977L113.242 209.273H112.879C112.66 209.273 112.508 209.242 112.422 209.18C112.344 209.109 112.305 209.008 112.305 208.875C112.305 208.719 112.371 208.582 112.504 208.465C112.637 208.348 112.832 208.289 113.09 208.289H116.746C116.965 208.289 117.113 208.324 117.191 208.395C117.27 208.457 117.309 208.551 117.309 208.676C117.309 208.84 117.242 208.98 117.109 209.098C116.984 209.215 116.793 209.273 116.535 209.273H114.227L113.066 220.875L117.766 211.324H119.266L119.969 220.875L123.707 209.273H121.398C121.18 209.273 121.031 209.242 120.953 209.18C120.875 209.109 120.836 209.008 120.836 208.875C120.836 208.719 120.898 208.582 121.023 208.465C121.156 208.348 121.352 208.289 121.609 208.289H125.254C125.473 208.289 125.621 208.324 125.699 208.395C125.777 208.457 125.816 208.551 125.816 208.676C125.816 208.793 125.777 208.906 125.699 209.016C125.621 209.117 125.527 209.188 125.418 209.227C125.34 209.258 125.094 209.273 124.68 209.273L120.59 222ZM137.055 217.16H127.023C127 217.402 126.988 217.586 126.988 217.711C126.988 218.781 127.352 219.664 128.078 220.359C128.805 221.055 129.789 221.402 131.031 221.402C131.758 221.402 132.547 221.285 133.398 221.051C134.25 220.809 134.98 220.484 135.59 220.078C135.77 219.961 135.914 219.902 136.023 219.902C136.125 219.902 136.211 219.941 136.281 220.02C136.352 220.09 136.387 220.184 136.387 220.301C136.387 220.441 136.324 220.574 136.199 220.699C135.84 221.082 135.121 221.461 134.043 221.836C132.965 222.203 131.871 222.387 130.762 222.387C129.324 222.387 128.168 221.961 127.293 221.109C126.426 220.258 125.992 219.176 125.992 217.863C125.992 216.996 126.18 216.18 126.555 215.414C126.93 214.641 127.422 213.977 128.031 213.422C128.648 212.859 129.355 212.398 130.152 212.039C130.957 211.68 131.832 211.5 132.777 211.5C134.121 211.5 135.199 211.895 136.012 212.684C136.832 213.473 137.242 214.48 137.242 215.707C137.242 216.113 137.18 216.598 137.055 217.16ZM136.258 216.164C136.297 215.086 135.977 214.203 135.297 213.516C134.609 212.836 133.688 212.496 132.531 212.496C131.406 212.496 130.355 212.828 129.379 213.492C128.402 214.156 127.688 215.047 127.234 216.164H136.258ZM150.379 212.496C150.426 212.27 150.508 212.105 150.625 212.004C150.742 211.902 150.871 211.852 151.012 211.852C151.129 211.852 151.223 211.891 151.293 211.969C151.371 212.039 151.41 212.121 151.41 212.215C151.41 212.285 151.395 212.387 151.363 212.52L151.012 214.207C150.957 214.441 150.871 214.609 150.754 214.711C150.645 214.812 150.516 214.863 150.367 214.863C150.258 214.863 150.164 214.828 150.086 214.758C150.016 214.688 149.98 214.605 149.98 214.512L149.992 214.312C150 214.25 150.004 214.191 150.004 214.137C150.004 213.715 149.816 213.371 149.441 213.105C148.887 212.699 148.109 212.496 147.109 212.496C145.906 212.496 144.949 212.754 144.238 213.27C143.707 213.652 143.441 214.059 143.441 214.488C143.441 214.91 143.672 215.254 144.133 215.52C144.469 215.707 145.18 215.863 146.266 215.988C147.352 216.105 148.129 216.242 148.598 216.398C149.254 216.609 149.742 216.914 150.062 217.312C150.383 217.711 150.543 218.16 150.543 218.66C150.543 219.238 150.332 219.816 149.91 220.395C149.488 220.973 148.844 221.449 147.977 221.824C147.109 222.199 146.133 222.387 145.047 222.387C144.273 222.387 143.59 222.285 142.996 222.082C142.402 221.887 141.898 221.594 141.484 221.203C141.422 221.523 141.344 221.73 141.25 221.824C141.117 221.941 140.973 222 140.816 222C140.707 222 140.613 221.965 140.535 221.895C140.465 221.824 140.43 221.738 140.43 221.637C140.43 221.566 140.441 221.469 140.465 221.344L140.898 219.316C140.945 219.082 141.027 218.914 141.145 218.812C141.262 218.711 141.395 218.66 141.543 218.66C141.652 218.66 141.742 218.699 141.812 218.777C141.891 218.848 141.93 218.934 141.93 219.035C141.93 219.098 141.918 219.188 141.895 219.305C141.871 219.422 141.859 219.508 141.859 219.562C141.859 220.008 142.09 220.398 142.551 220.734C143.16 221.18 144.051 221.402 145.223 221.402C146.621 221.402 147.688 221.125 148.422 220.57C149.156 220.016 149.523 219.465 149.523 218.918C149.523 218.621 149.414 218.332 149.195 218.051C148.984 217.762 148.66 217.535 148.223 217.371C147.785 217.199 147.066 217.062 146.066 216.961C145.074 216.852 144.348 216.719 143.887 216.562C143.434 216.398 143.078 216.152 142.82 215.824C142.562 215.496 142.434 215.121 142.434 214.699C142.434 214.207 142.602 213.727 142.938 213.258C143.273 212.781 143.832 212.371 144.613 212.027C145.402 211.676 146.285 211.5 147.262 211.5C147.941 211.5 148.539 211.582 149.055 211.746C149.578 211.91 150.02 212.16 150.379 212.496ZM159.695 211.852H165.039C165.266 211.852 165.414 211.883 165.484 211.945C165.562 212.008 165.602 212.105 165.602 212.238C165.602 212.379 165.574 212.496 165.52 212.59C165.465 212.676 165.398 212.738 165.32 212.777C165.219 212.824 165.055 212.848 164.828 212.848H159.484L158.09 219.398C158.051 219.586 158.031 219.758 158.031 219.914C158.031 220.289 158.223 220.633 158.605 220.945C158.996 221.25 159.562 221.402 160.305 221.402C161 221.402 161.754 221.305 162.566 221.109C163.387 220.914 164.039 220.688 164.523 220.43C164.703 220.328 164.844 220.277 164.945 220.277C165.055 220.277 165.145 220.316 165.215 220.395C165.285 220.465 165.32 220.562 165.32 220.688C165.32 220.852 165.223 221.004 165.027 221.145C164.551 221.488 163.711 221.801 162.508 222.082C161.641 222.285 160.836 222.387 160.094 222.387C159.117 222.387 158.359 222.16 157.82 221.707C157.289 221.254 157.023 220.707 157.023 220.066C157.023 219.863 157.047 219.641 157.094 219.398L158.488 212.848H156.672C156.453 212.848 156.305 212.812 156.227 212.742C156.148 212.672 156.109 212.574 156.109 212.449C156.109 212.293 156.172 212.156 156.297 212.039C156.43 211.914 156.625 211.852 156.883 211.852H158.699L159.32 208.945C159.367 208.711 159.449 208.543 159.566 208.441C159.684 208.34 159.816 208.289 159.965 208.289C160.074 208.289 160.164 208.324 160.234 208.395C160.312 208.465 160.352 208.551 160.352 208.652C160.352 208.715 160.336 208.812 160.305 208.945L159.695 211.852Z" fill="white"/>
<path d="M41.1797 358.238V361.098C42.0703 360.816 42.8789 360.676 43.6055 360.676C45.082 360.676 46.3086 361.18 47.2852 362.188C48.2617 363.195 48.75 364.496 48.75 366.09C48.75 367.73 48.2539 369.02 47.2617 369.957C46.2773 370.887 44.7656 371.352 42.7266 371.352C40.9297 371.352 39.5078 371.012 38.4609 370.332C37.8516 369.941 37.5469 369.492 37.5469 368.984C37.5469 368.664 37.6641 368.387 37.8984 368.152C38.1406 367.91 38.4258 367.789 38.7539 367.789C39.0273 367.789 39.3242 367.922 39.6445 368.188C39.9648 368.445 40.3008 368.625 40.6523 368.727C41.1523 368.875 41.793 368.949 42.5742 368.949C44.0273 368.949 45.0195 368.719 45.5508 368.258C46.082 367.789 46.3477 367.074 46.3477 366.113C46.3477 365.168 46.0898 364.426 45.5742 363.887C45.0664 363.348 44.4102 363.078 43.6055 363.078C42.7383 363.078 41.75 363.359 40.6406 363.922C40.3906 364.055 40.1719 364.121 39.9844 364.121C39.6406 364.121 39.3516 363.996 39.1172 363.746C38.8906 363.496 38.7773 363.172 38.7773 362.773V355.836H46.125C46.7031 355.836 47.1133 355.949 47.3555 356.176C47.6055 356.395 47.7305 356.684 47.7305 357.043C47.7305 357.395 47.6055 357.684 47.3555 357.91C47.1133 358.129 46.7031 358.238 46.125 358.238H41.1797ZM59.4258 361.965C59.4258 362.418 59.2656 362.797 58.9453 363.102C58.625 363.406 58.1836 363.559 57.6211 363.559C57.0586 363.559 56.6172 363.406 56.2969 363.102C55.9766 362.797 55.8164 362.418 55.8164 361.965C55.8164 361.512 55.9766 361.133 56.2969 360.828C56.6172 360.523 57.0586 360.371 57.6211 360.371C58.1836 360.371 58.625 360.523 58.9453 360.828C59.2656 361.133 59.4258 361.512 59.4258 361.965ZM59.4492 369.828C59.4492 370.281 59.2891 370.66 58.9688 370.965C58.6484 371.27 58.207 371.422 57.6445 371.422C57.082 371.422 56.6406 371.27 56.3203 370.965C56 370.66 55.8398 370.281 55.8398 369.828C55.8398 369.375 56 368.996 56.3203 368.691C56.6406 368.387 57.082 368.234 57.6445 368.234C58.207 368.234 58.6484 368.387 58.9688 368.691C59.2891 368.996 59.4492 369.375 59.4492 369.828ZM77.2734 362.082V364.719C77.2734 366.281 76.8203 367.777 75.9141 369.207C75.0156 370.637 73.7266 371.352 72.0469 371.352C71.0781 371.352 70.2578 371.141 69.5859 370.719C68.9219 370.289 68.2891 369.504 67.6875 368.363C67.0938 367.215 66.7969 366 66.7969 364.719V362.082C66.7969 360.527 67.2461 359.035 68.1445 357.605C69.043 356.168 70.332 355.449 72.0117 355.449C72.9727 355.449 73.7852 355.66 74.4492 356.082C75.1211 356.504 75.7578 357.289 76.3594 358.438C76.9688 359.578 77.2734 360.793 77.2734 362.082ZM74.8594 362.082C74.8594 360.777 74.4961 359.637 73.7695 358.66C73.3555 358.121 72.7734 357.852 72.0234 357.852C71.2969 357.852 70.7031 358.148 70.2422 358.742C69.5469 359.641 69.1992 360.754 69.1992 362.082V364.719C69.1992 366.031 69.5664 367.172 70.3008 368.141C70.707 368.68 71.2891 368.949 72.0469 368.949C72.7656 368.949 73.3555 368.652 73.8164 368.059C74.5117 367.16 74.8594 366.047 74.8594 364.719V362.082ZM91.6875 362.082V364.719C91.6875 366.281 91.2344 367.777 90.3281 369.207C89.4297 370.637 88.1406 371.352 86.4609 371.352C85.4922 371.352 84.6719 371.141 84 370.719C83.3359 370.289 82.7031 369.504 82.1016 368.363C81.5078 367.215 81.2109 366 81.2109 364.719V362.082C81.2109 360.527 81.6602 359.035 82.5586 357.605C83.457 356.168 84.7461 355.449 86.4258 355.449C87.3867 355.449 88.1992 355.66 88.8633 356.082C89.5352 356.504 90.1719 357.289 90.7734 358.438C91.3828 359.578 91.6875 360.793 91.6875 362.082ZM89.2734 362.082C89.2734 360.777 88.9102 359.637 88.1836 358.66C87.7695 358.121 87.1875 357.852 86.4375 357.852C85.7109 357.852 85.1172 358.148 84.6562 358.742C83.9609 359.641 83.6133 360.754 83.6133 362.082V364.719C83.6133 366.031 83.9805 367.172 84.7148 368.141C85.1211 368.68 85.7031 368.949 86.4609 368.949C87.1797 368.949 87.7695 368.652 88.2305 368.059C88.9258 367.16 89.2734 366.047 89.2734 364.719V362.082ZM99.4688 366.125V368.598H101.895C102.473 368.598 102.883 368.711 103.125 368.938C103.375 369.156 103.5 369.445 103.5 369.805C103.5 370.156 103.375 370.445 103.125 370.672C102.883 370.891 102.473 371 101.895 371H96.6914C96.1133 371 95.6992 370.891 95.4492 370.672C95.207 370.445 95.0859 370.152 95.0859 369.793C95.0859 369.441 95.2109 369.156 95.4609 368.938C95.7109 368.711 96.1211 368.598 96.6914 368.598H97.0664V359.199H96.6914C96.1133 359.199 95.6992 359.09 95.4492 358.871C95.207 358.645 95.0859 358.352 95.0859 357.992C95.0859 357.633 95.207 357.344 95.4492 357.125C95.6992 356.898 96.1133 356.785 96.6914 356.785L102.223 356.797C103.848 356.797 105.133 357.242 106.078 358.133C107.031 359.016 107.508 360.094 107.508 361.367C107.508 362.07 107.348 362.734 107.027 363.359C106.785 363.828 106.379 364.293 105.809 364.754C105.246 365.207 104.668 365.551 104.074 365.785C103.488 366.012 102.711 366.125 101.742 366.125H99.4688ZM99.4688 363.723H101.695C102.742 363.723 103.57 363.488 104.18 363.02C104.797 362.543 105.105 361.973 105.105 361.309C105.105 360.746 104.855 360.254 104.355 359.832C103.863 359.41 103.156 359.199 102.234 359.199H99.4688V363.723ZM111.516 361.438V368.598H112.383C112.961 368.598 113.371 368.711 113.613 368.938C113.863 369.156 113.988 369.445 113.988 369.805C113.988 370.156 113.863 370.445 113.613 370.672C113.371 370.891 112.961 371 112.383 371H109.23C108.652 371 108.242 370.891 108 370.672C107.75 370.445 107.625 370.152 107.625 369.793C107.625 369.441 107.746 369.156 107.988 368.938C108.23 368.711 108.605 368.598 109.113 368.598V359.199C108.691 359.16 108.371 359.031 108.152 358.812C107.941 358.594 107.836 358.32 107.836 357.992C107.836 357.633 107.957 357.344 108.199 357.125C108.449 356.898 108.863 356.785 109.441 356.785L112.078 356.797L115.348 364.027L118.559 356.785L121.219 356.797C121.797 356.797 122.207 356.906 122.449 357.125C122.699 357.344 122.824 357.633 122.824 357.992C122.824 358.32 122.715 358.594 122.496 358.812C122.277 359.031 121.961 359.16 121.547 359.199V368.598C122.055 368.598 122.43 368.711 122.672 368.938C122.914 369.164 123.035 369.453 123.035 369.805C123.035 370.156 122.91 370.445 122.66 370.672C122.418 370.891 122.008 371 121.43 371H118.266C117.695 371 117.285 370.891 117.035 370.672C116.793 370.445 116.672 370.152 116.672 369.793C116.672 369.441 116.793 369.156 117.035 368.938C117.285 368.711 117.695 368.598 118.266 368.598H119.145V361.438L116.391 367.625H114.305L111.516 361.438Z" fill="#00FF00"/>
<circle cx="14" cy="14" r="10.5" transform="matrix(1 0 0 -1 0 29)" stroke="white" stroke-width="7"/>
<line x1="28" y1="57.5" x2="178" y2="57.5" stroke="white" stroke-width="3"/>
<line x1="4.23205" y1="22.1444" x2="29.2321" y2="58.1444" stroke="white" stroke-width="3"/>
<circle cx="14" cy="14" r="10.5" transform="matrix(1 0 0 -1 0 168)" stroke="white" stroke-width="7"/>
<circle cx="14" cy="14" r="10.5" transform="matrix(1 0 0 -1 0 379)" stroke="white" stroke-width="7"/>
<circle cx="14" cy="14" r="10.5" transform="matrix(1 0 0 -1 0 559)" stroke="white" stroke-width="7"/>
<line x1="28" y1="196.5" x2="114" y2="196.5" stroke="white" stroke-width="3"/>
<line x1="28" y1="436.5" x2="128" y2="436.5" stroke="white" stroke-width="3"/>
<line x1="28" y1="587.5" x2="143" y2="587.5" stroke="white" stroke-width="3"/>
<line x1="4.23205" y1="161.144" x2="29.2321" y2="197.144" stroke="white" stroke-width="3"/>
<line y1="-1.5" x2="69.6419" y2="-1.5" transform="matrix(0.358979 0.933346 -0.623521 0.781807 3 373)" stroke="white" stroke-width="3"/>
<line x1="4.23205" y1="552.144" x2="29.2321" y2="588.144" stroke="white" stroke-width="3"/>
</svg>
