<svg width="1203" height="211" viewBox="0 0 1203 211" fill="none" xmlns="http://www.w3.org/2000/svg">
<line x1="41" y1="111.5" x2="123" y2="111.5" stroke="#00FF00" stroke-width="3"/>
<line x1="174" y1="111.5" x2="357" y2="111.5" stroke="#00FF00" stroke-width="3"/>
<line x1="413" y1="111.5" x2="765" y2="111.5" stroke="#00FF00" stroke-width="3"/>
<line x1="829.005" y1="110.5" x2="1162" y2="111.5" stroke="#00FF00" stroke-width="3"/>
<line x1="77" y1="32.5" x2="223" y2="32.5" stroke="white" stroke-width="3"/>
<circle cx="14" cy="113" r="10.5" stroke="white" stroke-width="7"/>
<circle cx="148" cy="113" r="10.5" stroke="white" stroke-width="7"/>
<circle cx="386" cy="111" r="10.5" stroke="white" stroke-width="7"/>
<circle cx="798" cy="115" r="10.5" stroke="white" stroke-width="7"/>
<line x1="2.93934" y1="106.939" x2="77.9393" y2="31.9393" stroke="white" stroke-width="3"/>
<line x1="449" y1="31.5" x2="529" y2="31.5" stroke="white" stroke-width="3"/>
<line x1="374.939" y1="105.939" x2="449.939" y2="30.9393" stroke="white" stroke-width="3"/>
<line x1="224" y1="205.5" x2="404" y2="205.5" stroke="white" stroke-width="3"/>
<line x1="136.061" y1="116.939" x2="225.061" y2="205.939" stroke="white" stroke-width="3"/>
<line x1="787.061" y1="120.939" x2="876.061" y2="209.939" stroke="white" stroke-width="3"/>
<path d="M78.8281 18.5977V9.19922C78.3203 9.19141 77.9453 9.07812 77.7031 8.85938C77.4609 8.63281 77.3398 8.34375 77.3398 7.99219C77.3398 7.63281 77.4609 7.34375 77.7031 7.125C77.9531 6.89844 78.3672 6.78516 78.9453 6.78516L83.9727 6.79688C84.7539 6.79688 85.5156 6.94141 86.2578 7.23047C87.0078 7.51953 87.6094 7.88672 88.0625 8.33203C88.4062 8.66797 88.7617 9.12891 89.1289 9.71484C89.5039 10.3008 89.7852 10.8828 89.9727 11.4609C90.1602 12.0391 90.2539 12.7461 90.2539 13.582V14.7305C90.2539 15.7461 90.082 16.6484 89.7383 17.4375C89.3945 18.2188 88.9414 18.8594 88.3789 19.3594C87.8242 19.8516 87.3008 20.2148 86.8086 20.4492C86.0273 20.8164 85.0156 21 83.7734 21H78.9453C78.3672 21 77.9531 20.8906 77.7031 20.6719C77.4609 20.4453 77.3398 20.1523 77.3398 19.793C77.3398 19.4414 77.4609 19.1523 77.7031 18.9258C77.9531 18.6992 78.3281 18.5898 78.8281 18.5977ZM81.2305 18.5977H83.7852C84.7383 18.5977 85.457 18.4609 85.9414 18.1875C86.5742 17.8281 87.0508 17.3711 87.3711 16.8164C87.6914 16.2617 87.8516 15.543 87.8516 14.6602V13.5234C87.8516 12.7656 87.707 12.1016 87.418 11.5312C86.9648 10.6406 86.4531 10.0312 85.8828 9.70312C85.3203 9.36719 84.6133 9.19922 83.7617 9.19922H81.2305V18.5977ZM100.777 21V20.4375C100.176 20.7578 99.5117 20.9961 98.7852 21.1523C98.0586 21.3164 97.3984 21.3984 96.8047 21.3984C95.5156 21.3984 94.4688 21.0586 93.6641 20.3789C92.8594 19.6914 92.457 18.9336 92.457 18.1055C92.457 17.0977 92.9688 16.1641 93.9922 15.3047C95.0234 14.4375 96.4453 14.0039 98.2578 14.0039C98.9844 14.0039 99.8242 14.082 100.777 14.2383V13.6641C100.777 13.3047 100.621 13.0117 100.309 12.7852C100.004 12.5586 99.418 12.4453 98.5508 12.4453C97.8398 12.4453 96.918 12.5859 95.7852 12.8672C95.3633 12.9688 95.0352 13.0195 94.8008 13.0195C94.4805 13.0195 94.207 12.9062 93.9805 12.6797C93.7617 12.4453 93.6523 12.1484 93.6523 11.7891C93.6523 11.5859 93.6914 11.4102 93.7695 11.2617C93.8477 11.1133 93.957 10.9961 94.0977 10.9102C94.2383 10.8164 94.5312 10.707 94.9766 10.582C95.5703 10.418 96.1758 10.2891 96.793 10.1953C97.4102 10.0938 97.9688 10.043 98.4688 10.043C99.9609 10.043 101.117 10.3672 101.938 11.0156C102.766 11.6562 103.18 12.5352 103.18 13.6523V18.5977H103.59C104.168 18.5977 104.578 18.7109 104.82 18.9375C105.07 19.1562 105.195 19.4453 105.195 19.8047C105.195 20.1562 105.07 20.4453 104.82 20.6719C104.578 20.8906 104.168 21 103.59 21H100.777ZM100.777 16.6992C99.8164 16.5117 98.9297 16.418 98.1172 16.418C97.1406 16.418 96.3008 16.6562 95.5977 17.1328C95.1602 17.4375 94.9414 17.7461 94.9414 18.0586C94.9414 18.2852 95.0469 18.4688 95.2578 18.6094C95.6484 18.8672 96.1836 18.9961 96.8633 18.9961C97.4414 18.9961 98.0938 18.8828 98.8203 18.6562C99.5547 18.4297 100.207 18.1211 100.777 17.7305V16.6992ZM111.688 20.918L107.527 12.7617C107.137 12.7148 106.84 12.582 106.637 12.3633C106.434 12.1445 106.332 11.8789 106.332 11.5664C106.332 11.207 106.453 10.918 106.695 10.6992C106.945 10.4727 107.359 10.3594 107.938 10.3594H110.129C110.707 10.3594 111.117 10.4727 111.359 10.6992C111.609 10.918 111.734 11.207 111.734 11.5664C111.734 11.918 111.609 12.207 111.359 12.4336C111.117 12.6523 110.73 12.7617 110.199 12.7617L113.035 18.2812L115.848 12.7617C115.332 12.7617 114.949 12.6523 114.699 12.4336C114.457 12.207 114.336 11.9141 114.336 11.5547C114.336 11.2031 114.457 10.918 114.699 10.6992C114.949 10.4727 115.363 10.3594 115.941 10.3594H118.203C118.773 10.3594 119.18 10.4727 119.422 10.6992C119.672 10.918 119.797 11.207 119.797 11.5664C119.797 11.8867 119.691 12.1602 119.48 12.3867C119.27 12.6055 118.957 12.7305 118.543 12.7617L113.035 23.6133C113.637 23.6133 114.031 23.6719 114.219 23.7891C114.594 24.0312 114.781 24.375 114.781 24.8203C114.781 25.1719 114.656 25.457 114.406 25.6758C114.164 25.9023 113.754 26.0156 113.176 26.0156H107.938C107.359 26.0156 106.945 25.9023 106.695 25.6758C106.453 25.457 106.332 25.1719 106.332 24.8203C106.332 24.4609 106.453 24.168 106.695 23.9414C106.945 23.7227 107.359 23.6133 107.938 23.6133H110.328L111.688 20.918ZM136.953 18.5977V9.19922H136.578C136 9.19922 135.586 9.08984 135.336 8.87109C135.094 8.64453 134.973 8.35156 134.973 7.99219C134.973 7.63281 135.094 7.34375 135.336 7.125C135.586 6.89844 136 6.78516 136.578 6.78516H142.602C144.039 6.78516 145.195 7.1875 146.07 7.99219C146.945 8.78906 147.383 9.73828 147.383 10.8398C147.383 11.3633 147.281 11.8555 147.078 12.3164C146.875 12.7773 146.566 13.2031 146.152 13.5938C146.91 14.0469 147.477 14.5781 147.852 15.1875C148.234 15.7891 148.426 16.4727 148.426 17.2383C148.426 17.8477 148.289 18.4141 148.016 18.9375C147.812 19.3359 147.562 19.6523 147.266 19.8867C146.867 20.2148 146.379 20.4844 145.801 20.6953C145.223 20.8984 144.5 21 143.633 21H136.578C136 21 135.586 20.8906 135.336 20.6719C135.094 20.4453 134.973 20.1523 134.973 19.793C134.973 19.4414 135.098 19.1562 135.348 18.9375C135.598 18.7109 136.008 18.5977 136.578 18.5977H136.953ZM139.355 12.6914H141.992C142.938 12.6914 143.723 12.4531 144.348 11.9766C144.77 11.6562 144.98 11.2578 144.98 10.7812C144.98 10.3594 144.781 9.99219 144.383 9.67969C143.984 9.35938 143.352 9.19922 142.484 9.19922H139.355V12.6914ZM139.355 18.5977H143.504C144.48 18.5977 145.168 18.4531 145.566 18.1641C145.871 17.9453 146.023 17.6328 146.023 17.2266C146.023 16.7422 145.723 16.2656 145.121 15.7969C144.52 15.3281 143.656 15.0938 142.531 15.0938H139.355V18.5977ZM162.301 16.8984H152.445C152.695 17.5234 153.137 18.0273 153.77 18.4102C154.41 18.793 155.273 18.9844 156.359 18.9844C157.25 18.9844 158.434 18.793 159.91 18.4102C160.52 18.2539 160.941 18.1758 161.176 18.1758C161.496 18.1758 161.766 18.2891 161.984 18.5156C162.203 18.7422 162.312 19.0273 162.312 19.3711C162.312 19.6836 162.195 19.9492 161.961 20.168C161.648 20.457 160.887 20.7344 159.676 21C158.465 21.2578 157.301 21.3867 156.184 21.3867C154.262 21.3867 152.723 20.8438 151.566 19.7578C150.418 18.6719 149.844 17.3359 149.844 15.75C149.844 14.0625 150.465 12.6914 151.707 11.6367C152.957 10.5742 154.395 10.043 156.02 10.043C156.996 10.043 157.891 10.2148 158.703 10.5586C159.523 10.9023 160.133 11.2734 160.531 11.6719C161.094 12.25 161.559 12.9648 161.926 13.8164C162.176 14.4102 162.301 15.0977 162.301 15.8789V16.8984ZM159.641 14.4961C159.273 13.8086 158.793 13.2969 158.199 12.9609C157.605 12.6172 156.898 12.4453 156.078 12.4453C155.266 12.4453 154.562 12.6172 153.969 12.9609C153.375 13.2969 152.891 13.8086 152.516 14.4961H159.641ZM173.328 11.0742V10.3594H176.141C176.719 10.3594 177.129 10.4727 177.371 10.6992C177.621 10.918 177.746 11.207 177.746 11.5664C177.746 11.918 177.621 12.207 177.371 12.4336C177.129 12.6523 176.719 12.7617 176.141 12.7617H175.73V21.5039C175.73 22.3477 175.551 23.082 175.191 23.707C174.84 24.3398 174.297 24.8828 173.562 25.3359C172.828 25.7891 172 26.0156 171.078 26.0156H168.359C167.781 26.0156 167.367 25.9023 167.117 25.6758C166.875 25.457 166.754 25.1719 166.754 24.8203C166.754 24.4609 166.875 24.168 167.117 23.9414C167.367 23.7227 167.781 23.6133 168.359 23.6133H171.008C171.742 23.6133 172.312 23.4141 172.719 23.0156C173.125 22.6172 173.328 22.1133 173.328 21.5039V20.332C172.797 20.6758 172.254 20.9336 171.699 21.1055C171.152 21.2773 170.59 21.3633 170.012 21.3633C168.379 21.3633 167.012 20.8203 165.91 19.7344C164.809 18.6406 164.258 17.293 164.258 15.6914C164.258 14.082 164.809 12.7344 165.91 11.6484C167.012 10.5547 168.379 10.0078 170.012 10.0078C170.621 10.0078 171.199 10.0977 171.746 10.2773C172.301 10.4492 172.828 10.7148 173.328 11.0742ZM173.316 15.6797C173.316 14.7969 172.988 14.0312 172.332 13.3828C171.684 12.7344 170.902 12.4102 169.988 12.4102C169.074 12.4102 168.289 12.7344 167.633 13.3828C166.984 14.0312 166.66 14.7969 166.66 15.6797C166.66 16.5703 166.984 17.3398 167.633 17.9883C168.289 18.6289 169.074 18.9492 169.988 18.9492C170.902 18.9492 171.684 18.6289 172.332 17.9883C172.988 17.3398 173.316 16.5703 173.316 15.6797ZM185.961 5.80078V8.34375H183.102V5.80078H185.961ZM186.289 10.3594V18.5977H189.172C189.75 18.5977 190.16 18.7109 190.402 18.9375C190.652 19.1562 190.777 19.4453 190.777 19.8047C190.777 20.1562 190.652 20.4453 190.402 20.6719C190.16 20.8906 189.75 21 189.172 21H181.004C180.426 21 180.012 20.8906 179.762 20.6719C179.52 20.4453 179.398 20.1523 179.398 19.793C179.398 19.4414 179.52 19.1562 179.762 18.9375C180.012 18.7109 180.426 18.5977 181.004 18.5977H183.887V12.7617H181.953C181.383 12.7617 180.973 12.6523 180.723 12.4336C180.473 12.207 180.348 11.9141 180.348 11.5547C180.348 11.2031 180.469 10.918 180.711 10.6992C180.961 10.4727 181.375 10.3594 181.953 10.3594H186.289ZM197.082 10.3594V11.168C197.52 10.793 198 10.5117 198.523 10.3242C199.055 10.1367 199.629 10.043 200.246 10.043C201.668 10.043 202.793 10.4844 203.621 11.3672C204.277 12.0703 204.605 12.9922 204.605 14.1328V18.5977C205.113 18.5977 205.488 18.7109 205.73 18.9375C205.973 19.1562 206.094 19.4453 206.094 19.8047C206.094 20.1562 205.969 20.4453 205.719 20.6719C205.477 20.8906 205.066 21 204.488 21H202.32C201.742 21 201.328 20.8906 201.078 20.6719C200.836 20.4453 200.715 20.1523 200.715 19.793C200.715 19.4414 200.836 19.1562 201.078 18.9375C201.32 18.7109 201.695 18.5977 202.203 18.5977V14.0625C202.203 13.5391 202.062 13.1562 201.781 12.9141C201.414 12.6016 200.863 12.4453 200.129 12.4453C199.574 12.4453 199.086 12.5547 198.664 12.7734C198.25 12.9844 197.723 13.4375 197.082 14.1328V18.5977C197.699 18.5977 198.098 18.6562 198.277 18.7734C198.66 19.0078 198.852 19.3516 198.852 19.8047C198.852 20.1562 198.727 20.4453 198.477 20.6719C198.234 20.8906 197.824 21 197.246 21H194.516C193.938 21 193.523 20.8906 193.273 20.6719C193.031 20.4453 192.91 20.1523 192.91 19.793C192.91 19.3555 193.098 19.0156 193.473 18.7734C193.66 18.6562 194.062 18.5977 194.68 18.5977V12.7617C194.172 12.7617 193.797 12.6484 193.555 12.4219C193.312 12.1953 193.191 11.9062 193.191 11.5547C193.191 11.2031 193.312 10.918 193.555 10.6992C193.805 10.4727 194.219 10.3594 194.797 10.3594H197.082ZM216.523 13.1719C216.133 12.9297 215.723 12.75 215.293 12.6328C214.863 12.5078 214.414 12.4453 213.945 12.4453C213.016 12.4453 212.277 12.5977 211.73 12.9023C211.488 13.0352 211.367 13.1797 211.367 13.3359C211.367 13.5156 211.531 13.6914 211.859 13.8633C212.109 13.9883 212.668 14.1094 213.535 14.2266C215.129 14.4453 216.238 14.6641 216.863 14.8828C217.684 15.1719 218.316 15.6016 218.762 16.1719C219.207 16.7422 219.43 17.3438 219.43 17.9766C219.43 18.8359 219.051 19.5547 218.293 20.1328C217.207 20.9688 215.797 21.3867 214.062 21.3867C213.367 21.3867 212.723 21.3242 212.129 21.1992C211.543 21.082 211.004 20.9062 210.512 20.6719C210.395 20.7734 210.27 20.8516 210.137 20.9062C210.004 20.9609 209.867 20.9883 209.727 20.9883C209.352 20.9883 209.051 20.8672 208.824 20.625C208.605 20.375 208.496 19.9609 208.496 19.3828V18.5742C208.496 17.9961 208.605 17.5859 208.824 17.3438C209.051 17.0938 209.344 16.9688 209.703 16.9688C209.992 16.9688 210.234 17.0508 210.43 17.2148C210.625 17.3711 210.777 17.6445 210.887 18.0352C211.254 18.3477 211.695 18.5859 212.211 18.75C212.727 18.9062 213.32 18.9844 213.992 18.9844C215.094 18.9844 215.949 18.8125 216.559 18.4688C216.848 18.2969 216.992 18.1172 216.992 17.9297C216.992 17.6172 216.785 17.3594 216.371 17.1562C215.957 16.9531 215.102 16.7812 213.805 16.6406C211.875 16.4375 210.586 16.0469 209.938 15.4688C209.289 14.8984 208.965 14.1953 208.965 13.3594C208.965 12.5 209.328 11.7852 210.055 11.2148C211.039 10.4336 212.328 10.043 213.922 10.043C214.477 10.043 215.008 10.0977 215.516 10.207C216.031 10.3086 216.523 10.4688 216.992 10.6875C217.141 10.5781 217.277 10.4961 217.402 10.4414C217.535 10.3867 217.656 10.3594 217.766 10.3594C218.094 10.3594 218.367 10.4844 218.586 10.7344C218.805 10.9766 218.914 11.3867 218.914 11.9648V12.5508C218.914 13.0742 218.852 13.4297 218.727 13.6172C218.477 13.9766 218.137 14.1562 217.707 14.1562C217.418 14.1562 217.164 14.0664 216.945 13.8867C216.727 13.707 216.586 13.4688 216.523 13.1719Z" fill="white"/>
<path d="M238.969 180.406C239.117 180.203 239.277 180.051 239.449 179.949C239.629 179.848 239.82 179.797 240.023 179.797C240.375 179.797 240.66 179.918 240.879 180.16C241.105 180.402 241.219 180.812 241.219 181.391V183.43C241.219 184.008 241.105 184.422 240.879 184.672C240.66 184.914 240.375 185.035 240.023 185.035C239.703 185.035 239.445 184.945 239.25 184.766C239.055 184.586 238.91 184.25 238.816 183.758C238.762 183.43 238.652 183.176 238.488 182.996C238.168 182.645 237.719 182.363 237.141 182.152C236.57 181.941 235.996 181.836 235.418 181.836C234.699 181.836 234.039 181.992 233.438 182.305C232.836 182.617 232.305 183.125 231.844 183.828C231.383 184.531 231.152 185.367 231.152 186.336V187.895C231.152 189.051 231.57 190.016 232.406 190.789C233.25 191.562 234.418 191.949 235.91 191.949C236.801 191.949 237.555 191.828 238.172 191.586C238.531 191.445 238.914 191.168 239.32 190.754C239.57 190.504 239.766 190.344 239.906 190.273C240.047 190.195 240.207 190.156 240.387 190.156C240.707 190.156 240.988 190.277 241.23 190.52C241.473 190.762 241.594 191.047 241.594 191.375C241.594 191.703 241.43 192.055 241.102 192.43C240.625 192.977 240.012 193.406 239.262 193.719C238.254 194.141 237.141 194.352 235.922 194.352C234.5 194.352 233.219 194.059 232.078 193.473C231.156 193.004 230.371 192.266 229.723 191.258C229.074 190.242 228.75 189.137 228.75 187.941V186.312C228.75 185.062 229.039 183.898 229.617 182.82C230.203 181.734 231.012 180.898 232.043 180.312C233.074 179.727 234.168 179.434 235.324 179.434C236.02 179.434 236.668 179.516 237.27 179.68C237.879 179.836 238.445 180.078 238.969 180.406ZM247.137 178.801V183.922C247.637 183.625 248.141 183.406 248.648 183.266C249.164 183.117 249.684 183.043 250.207 183.043C251.035 183.043 251.773 183.184 252.422 183.465C253.07 183.746 253.605 184.191 254.027 184.801C254.457 185.402 254.672 186.164 254.672 187.086V191.598C255.281 191.598 255.68 191.656 255.867 191.773C256.242 192.016 256.43 192.359 256.43 192.805C256.43 193.156 256.309 193.445 256.066 193.672C255.824 193.891 255.414 194 254.836 194H252.094C251.523 194 251.113 193.891 250.863 193.672C250.621 193.445 250.5 193.152 250.5 192.793C250.5 192.355 250.688 192.016 251.062 191.773C251.258 191.648 251.656 191.59 252.258 191.598V187.25C252.258 186.633 252.117 186.199 251.836 185.949C251.469 185.613 250.926 185.445 250.207 185.445C249.676 185.445 249.203 185.551 248.789 185.762C248.383 185.965 247.832 186.41 247.137 187.098V191.598C247.754 191.598 248.152 191.656 248.332 191.773C248.715 192.016 248.906 192.359 248.906 192.805C248.906 193.156 248.781 193.445 248.531 193.672C248.289 193.891 247.879 194 247.301 194H244.57C243.992 194 243.578 193.891 243.328 193.672C243.086 193.445 242.965 193.152 242.965 192.793C242.965 192.355 243.156 192.016 243.539 191.773C243.727 191.648 244.125 191.59 244.734 191.598V181.203H244.324C243.746 181.203 243.332 181.094 243.082 180.875C242.84 180.648 242.719 180.355 242.719 179.996C242.719 179.645 242.84 179.359 243.082 179.141C243.332 178.914 243.746 178.801 244.324 178.801H247.137ZM266.191 194V193.438C265.59 193.758 264.926 193.996 264.199 194.152C263.473 194.316 262.812 194.398 262.219 194.398C260.93 194.398 259.883 194.059 259.078 193.379C258.273 192.691 257.871 191.934 257.871 191.105C257.871 190.098 258.383 189.164 259.406 188.305C260.438 187.438 261.859 187.004 263.672 187.004C264.398 187.004 265.238 187.082 266.191 187.238V186.664C266.191 186.305 266.035 186.012 265.723 185.785C265.418 185.559 264.832 185.445 263.965 185.445C263.254 185.445 262.332 185.586 261.199 185.867C260.777 185.969 260.449 186.02 260.215 186.02C259.895 186.02 259.621 185.906 259.395 185.68C259.176 185.445 259.066 185.148 259.066 184.789C259.066 184.586 259.105 184.41 259.184 184.262C259.262 184.113 259.371 183.996 259.512 183.91C259.652 183.816 259.945 183.707 260.391 183.582C260.984 183.418 261.59 183.289 262.207 183.195C262.824 183.094 263.383 183.043 263.883 183.043C265.375 183.043 266.531 183.367 267.352 184.016C268.18 184.656 268.594 185.535 268.594 186.652V191.598H269.004C269.582 191.598 269.992 191.711 270.234 191.938C270.484 192.156 270.609 192.445 270.609 192.805C270.609 193.156 270.484 193.445 270.234 193.672C269.992 193.891 269.582 194 269.004 194H266.191ZM266.191 189.699C265.23 189.512 264.344 189.418 263.531 189.418C262.555 189.418 261.715 189.656 261.012 190.133C260.574 190.438 260.355 190.746 260.355 191.059C260.355 191.285 260.461 191.469 260.672 191.609C261.062 191.867 261.598 191.996 262.277 191.996C262.855 191.996 263.508 191.883 264.234 191.656C264.969 191.43 265.621 191.121 266.191 190.73V189.699ZM279.645 178.801V191.598H282.527C283.105 191.598 283.516 191.711 283.758 191.938C284.008 192.156 284.133 192.445 284.133 192.805C284.133 193.156 284.008 193.445 283.758 193.672C283.516 193.891 283.105 194 282.527 194H274.359C273.781 194 273.367 193.891 273.117 193.672C272.875 193.445 272.754 193.152 272.754 192.793C272.754 192.441 272.875 192.156 273.117 191.938C273.367 191.711 273.781 191.598 274.359 191.598H277.242V181.203H275.309C274.738 181.203 274.328 181.094 274.078 180.875C273.828 180.648 273.703 180.355 273.703 179.996C273.703 179.645 273.824 179.359 274.066 179.141C274.316 178.914 274.73 178.801 275.309 178.801H279.645ZM294.059 178.801V191.598H296.941C297.52 191.598 297.93 191.711 298.172 191.938C298.422 192.156 298.547 192.445 298.547 192.805C298.547 193.156 298.422 193.445 298.172 193.672C297.93 193.891 297.52 194 296.941 194H288.773C288.195 194 287.781 193.891 287.531 193.672C287.289 193.445 287.168 193.152 287.168 192.793C287.168 192.441 287.289 192.156 287.531 191.938C287.781 191.711 288.195 191.598 288.773 191.598H291.656V181.203H289.723C289.152 181.203 288.742 181.094 288.492 180.875C288.242 180.648 288.117 180.355 288.117 179.996C288.117 179.645 288.238 179.359 288.48 179.141C288.73 178.914 289.145 178.801 289.723 178.801H294.059ZM313.301 189.898H303.445C303.695 190.523 304.137 191.027 304.77 191.41C305.41 191.793 306.273 191.984 307.359 191.984C308.25 191.984 309.434 191.793 310.91 191.41C311.52 191.254 311.941 191.176 312.176 191.176C312.496 191.176 312.766 191.289 312.984 191.516C313.203 191.742 313.312 192.027 313.312 192.371C313.312 192.684 313.195 192.949 312.961 193.168C312.648 193.457 311.887 193.734 310.676 194C309.465 194.258 308.301 194.387 307.184 194.387C305.262 194.387 303.723 193.844 302.566 192.758C301.418 191.672 300.844 190.336 300.844 188.75C300.844 187.062 301.465 185.691 302.707 184.637C303.957 183.574 305.395 183.043 307.02 183.043C307.996 183.043 308.891 183.215 309.703 183.559C310.523 183.902 311.133 184.273 311.531 184.672C312.094 185.25 312.559 185.965 312.926 186.816C313.176 187.41 313.301 188.098 313.301 188.879V189.898ZM310.641 187.496C310.273 186.809 309.793 186.297 309.199 185.961C308.605 185.617 307.898 185.445 307.078 185.445C306.266 185.445 305.562 185.617 304.969 185.961C304.375 186.297 303.891 186.809 303.516 187.496H310.641ZM319.254 183.359V184.168C319.691 183.793 320.172 183.512 320.695 183.324C321.227 183.137 321.801 183.043 322.418 183.043C323.84 183.043 324.965 183.484 325.793 184.367C326.449 185.07 326.777 185.992 326.777 187.133V191.598C327.285 191.598 327.66 191.711 327.902 191.938C328.145 192.156 328.266 192.445 328.266 192.805C328.266 193.156 328.141 193.445 327.891 193.672C327.648 193.891 327.238 194 326.66 194H324.492C323.914 194 323.5 193.891 323.25 193.672C323.008 193.445 322.887 193.152 322.887 192.793C322.887 192.441 323.008 192.156 323.25 191.938C323.492 191.711 323.867 191.598 324.375 191.598V187.062C324.375 186.539 324.234 186.156 323.953 185.914C323.586 185.602 323.035 185.445 322.301 185.445C321.746 185.445 321.258 185.555 320.836 185.773C320.422 185.984 319.895 186.438 319.254 187.133V191.598C319.871 191.598 320.27 191.656 320.449 191.773C320.832 192.008 321.023 192.352 321.023 192.805C321.023 193.156 320.898 193.445 320.648 193.672C320.406 193.891 319.996 194 319.418 194H316.688C316.109 194 315.695 193.891 315.445 193.672C315.203 193.445 315.082 193.152 315.082 192.793C315.082 192.355 315.27 192.016 315.645 191.773C315.832 191.656 316.234 191.598 316.852 191.598V185.762C316.344 185.762 315.969 185.648 315.727 185.422C315.484 185.195 315.363 184.906 315.363 184.555C315.363 184.203 315.484 183.918 315.727 183.699C315.977 183.473 316.391 183.359 316.969 183.359H319.254ZM338.742 184.074V183.359H341.555C342.133 183.359 342.543 183.473 342.785 183.699C343.035 183.918 343.16 184.207 343.16 184.566C343.16 184.918 343.035 185.207 342.785 185.434C342.543 185.652 342.133 185.762 341.555 185.762H341.145V194.504C341.145 195.348 340.965 196.082 340.605 196.707C340.254 197.34 339.711 197.883 338.977 198.336C338.242 198.789 337.414 199.016 336.492 199.016H333.773C333.195 199.016 332.781 198.902 332.531 198.676C332.289 198.457 332.168 198.172 332.168 197.82C332.168 197.461 332.289 197.168 332.531 196.941C332.781 196.723 333.195 196.613 333.773 196.613H336.422C337.156 196.613 337.727 196.414 338.133 196.016C338.539 195.617 338.742 195.113 338.742 194.504V193.332C338.211 193.676 337.668 193.934 337.113 194.105C336.566 194.277 336.004 194.363 335.426 194.363C333.793 194.363 332.426 193.82 331.324 192.734C330.223 191.641 329.672 190.293 329.672 188.691C329.672 187.082 330.223 185.734 331.324 184.648C332.426 183.555 333.793 183.008 335.426 183.008C336.035 183.008 336.613 183.098 337.16 183.277C337.715 183.449 338.242 183.715 338.742 184.074ZM338.73 188.68C338.73 187.797 338.402 187.031 337.746 186.383C337.098 185.734 336.316 185.41 335.402 185.41C334.488 185.41 333.703 185.734 333.047 186.383C332.398 187.031 332.074 187.797 332.074 188.68C332.074 189.57 332.398 190.34 333.047 190.988C333.703 191.629 334.488 191.949 335.402 191.949C336.316 191.949 337.098 191.629 337.746 190.988C338.402 190.34 338.73 189.57 338.73 188.68ZM356.543 189.898H346.688C346.938 190.523 347.379 191.027 348.012 191.41C348.652 191.793 349.516 191.984 350.602 191.984C351.492 191.984 352.676 191.793 354.152 191.41C354.762 191.254 355.184 191.176 355.418 191.176C355.738 191.176 356.008 191.289 356.227 191.516C356.445 191.742 356.555 192.027 356.555 192.371C356.555 192.684 356.438 192.949 356.203 193.168C355.891 193.457 355.129 193.734 353.918 194C352.707 194.258 351.543 194.387 350.426 194.387C348.504 194.387 346.965 193.844 345.809 192.758C344.66 191.672 344.086 190.336 344.086 188.75C344.086 187.062 344.707 185.691 345.949 184.637C347.199 183.574 348.637 183.043 350.262 183.043C351.238 183.043 352.133 183.215 352.945 183.559C353.766 183.902 354.375 184.273 354.773 184.672C355.336 185.25 355.801 185.965 356.168 186.816C356.418 187.41 356.543 188.098 356.543 188.879V189.898ZM353.883 187.496C353.516 186.809 353.035 186.297 352.441 185.961C351.848 185.617 351.141 185.445 350.32 185.445C349.508 185.445 348.805 185.617 348.211 185.961C347.617 186.297 347.133 186.809 346.758 187.496H353.883ZM382.887 183.184H383.449C384.027 183.184 384.438 183.297 384.68 183.523C384.93 183.742 385.055 184.031 385.055 184.391C385.055 184.742 384.934 185.031 384.691 185.258C384.449 185.477 384.039 185.586 383.461 185.586H382.711L382.535 188.211H382.957C383.535 188.211 383.945 188.324 384.188 188.551C384.438 188.77 384.562 189.059 384.562 189.418C384.562 189.77 384.441 190.059 384.199 190.285C383.957 190.504 383.547 190.613 382.969 190.613H382.359L382.078 194.738C382.07 194.801 382.012 195.078 381.902 195.57C381.824 195.758 381.684 195.918 381.48 196.051C381.277 196.184 381.062 196.25 380.836 196.25C380.516 196.25 380.238 196.129 380.004 195.887C379.777 195.652 379.664 195.355 379.664 194.996C379.664 194.934 379.672 194.785 379.688 194.551L379.969 190.613H378.176L377.895 194.727C377.863 195.141 377.832 195.387 377.801 195.465C377.715 195.699 377.566 195.887 377.355 196.027C377.152 196.176 376.926 196.25 376.676 196.25C376.332 196.25 376.043 196.133 375.809 195.898C375.582 195.664 375.469 195.363 375.469 194.996C375.469 194.91 375.477 194.766 375.492 194.562L375.762 190.613H375.176C374.598 190.613 374.184 190.504 373.934 190.285C373.691 190.059 373.57 189.766 373.57 189.406C373.57 189.055 373.691 188.77 373.934 188.551C374.184 188.324 374.598 188.211 375.176 188.211H375.938L376.113 185.586H375.68C375.102 185.586 374.688 185.477 374.438 185.258C374.195 185.031 374.074 184.738 374.074 184.379C374.074 184.027 374.195 183.742 374.438 183.523C374.688 183.297 375.098 183.184 375.668 183.184H376.289L376.57 179.059C376.602 178.652 376.637 178.398 376.676 178.297C376.762 178.07 376.906 177.887 377.109 177.746C377.32 177.605 377.551 177.535 377.801 177.535C378.129 177.535 378.41 177.652 378.645 177.887C378.879 178.121 378.996 178.434 378.996 178.824C378.996 178.918 378.988 179.055 378.973 179.234L378.703 183.184H380.484L380.766 179.059C380.797 178.496 380.922 178.102 381.141 177.875C381.367 177.648 381.652 177.535 381.996 177.535C382.332 177.535 382.617 177.656 382.852 177.898C383.086 178.133 383.203 178.422 383.203 178.766C383.203 178.844 383.199 178.91 383.191 178.965L383.156 179.234L382.887 183.184ZM380.309 185.586H378.527L378.352 188.211H380.133L380.309 185.586ZM397.184 185.973C397.895 186.457 398.426 187.02 398.777 187.66C399.129 188.293 399.305 189.004 399.305 189.793C399.305 190.645 399.07 191.434 398.602 192.16C398.141 192.879 397.469 193.426 396.586 193.801C395.703 194.168 394.547 194.352 393.117 194.352C391.258 194.352 389.859 194.062 388.922 193.484C388.398 193.156 388.137 192.766 388.137 192.312C388.137 191.969 388.25 191.68 388.477 191.445C388.711 191.203 388.992 191.082 389.32 191.082C389.547 191.082 389.781 191.16 390.023 191.316C390.367 191.551 390.691 191.707 390.996 191.785C391.465 191.895 392.109 191.949 392.93 191.949C394.328 191.949 395.34 191.77 395.965 191.41C396.59 191.043 396.902 190.527 396.902 189.863C396.902 189.371 396.719 188.898 396.352 188.445C395.992 187.984 395.508 187.629 394.898 187.379C394.547 187.238 393.953 187.141 393.117 187.086C392.719 187.062 392.41 186.941 392.191 186.723C391.98 186.496 391.875 186.219 391.875 185.891C391.875 185.547 391.992 185.258 392.227 185.023C392.461 184.789 392.758 184.672 393.117 184.672C393.914 184.672 394.34 184.668 394.395 184.66C394.707 184.629 395.02 184.527 395.332 184.355C395.645 184.184 395.895 183.949 396.082 183.652C396.277 183.348 396.375 183.035 396.375 182.715C396.375 182.207 396.148 181.77 395.695 181.402C395.25 181.027 394.578 180.84 393.68 180.84C392.523 180.84 391.641 181.176 391.031 181.848C390.852 182.043 390.707 182.168 390.598 182.223C390.434 182.309 390.25 182.352 390.047 182.352C389.719 182.352 389.438 182.234 389.203 182C388.969 181.766 388.852 181.477 388.852 181.133C388.852 180.594 389.211 180.07 389.93 179.562C390.977 178.82 392.285 178.449 393.855 178.449C395.34 178.449 396.531 178.871 397.43 179.715C398.328 180.559 398.777 181.574 398.777 182.762C398.777 183.379 398.645 183.957 398.379 184.496C398.113 185.027 397.715 185.52 397.184 185.973Z" fill="white"/>
<path d="M457.199 11.1992V20.5977H462.379V18.3242C462.379 17.7461 462.488 17.3359 462.707 17.0938C462.934 16.8438 463.227 16.7188 463.586 16.7188C463.938 16.7188 464.223 16.8438 464.441 17.0938C464.668 17.3359 464.781 17.7461 464.781 18.3242V23H453.402C452.824 23 452.41 22.8906 452.16 22.6719C451.918 22.4453 451.797 22.1523 451.797 21.793C451.797 21.4414 451.918 21.1562 452.16 20.9375C452.41 20.7109 452.824 20.5977 453.402 20.5977H454.797V11.1992H453.402C452.824 11.1992 452.41 11.0898 452.16 10.8711C451.918 10.6445 451.797 10.3516 451.797 9.99219C451.797 9.63281 451.918 9.34375 452.16 9.125C452.41 8.89844 452.824 8.78516 453.402 8.78516L458.605 8.79688C459.184 8.79688 459.594 8.90625 459.836 9.125C460.086 9.34375 460.211 9.63281 460.211 9.99219C460.211 10.3516 460.086 10.6445 459.836 10.8711C459.594 11.0898 459.184 11.1992 458.605 11.1992H457.199ZM477.719 12.3594V20.5977C478.227 20.5977 478.602 20.7109 478.844 20.9375C479.086 21.1641 479.207 21.4531 479.207 21.8047C479.207 22.1562 479.082 22.4453 478.832 22.6719C478.59 22.8906 478.18 23 477.602 23H475.316V22.4492C474.629 22.7617 473.973 22.9961 473.348 23.1523C472.723 23.3086 472.129 23.3867 471.566 23.3867C470.777 23.3867 470.094 23.2227 469.516 22.8945C468.938 22.5586 468.48 22.0977 468.145 21.5117C467.902 21.0898 467.781 20.5625 467.781 19.9297V14.7617H467.371C466.793 14.7617 466.379 14.6523 466.129 14.4336C465.887 14.207 465.766 13.9141 465.766 13.5547C465.766 13.2031 465.887 12.918 466.129 12.6992C466.379 12.4727 466.793 12.3594 467.371 12.3594H470.184V19.5078C470.184 20.0156 470.305 20.3906 470.547 20.6328C470.797 20.8672 471.176 20.9844 471.684 20.9844C472.168 20.9844 472.688 20.8906 473.242 20.7031C473.805 20.5078 474.496 20.1602 475.316 19.6602V14.7617H474.449C473.871 14.7617 473.457 14.6523 473.207 14.4336C472.965 14.207 472.844 13.9141 472.844 13.5547C472.844 13.2031 472.965 12.918 473.207 12.6992C473.457 12.4727 473.871 12.3594 474.449 12.3594H477.719ZM484.598 12.3594V13.168C485.035 12.793 485.516 12.5117 486.039 12.3242C486.57 12.1367 487.145 12.043 487.762 12.043C489.184 12.043 490.309 12.4844 491.137 13.3672C491.793 14.0703 492.121 14.9922 492.121 16.1328V20.5977C492.629 20.5977 493.004 20.7109 493.246 20.9375C493.488 21.1562 493.609 21.4453 493.609 21.8047C493.609 22.1562 493.484 22.4453 493.234 22.6719C492.992 22.8906 492.582 23 492.004 23H489.836C489.258 23 488.844 22.8906 488.594 22.6719C488.352 22.4453 488.23 22.1523 488.23 21.793C488.23 21.4414 488.352 21.1562 488.594 20.9375C488.836 20.7109 489.211 20.5977 489.719 20.5977V16.0625C489.719 15.5391 489.578 15.1562 489.297 14.9141C488.93 14.6016 488.379 14.4453 487.645 14.4453C487.09 14.4453 486.602 14.5547 486.18 14.7734C485.766 14.9844 485.238 15.4375 484.598 16.1328V20.5977C485.215 20.5977 485.613 20.6562 485.793 20.7734C486.176 21.0078 486.367 21.3516 486.367 21.8047C486.367 22.1562 486.242 22.4453 485.992 22.6719C485.75 22.8906 485.34 23 484.762 23H482.031C481.453 23 481.039 22.8906 480.789 22.6719C480.547 22.4453 480.426 22.1523 480.426 21.793C480.426 21.3555 480.613 21.0156 480.988 20.7734C481.176 20.6562 481.578 20.5977 482.195 20.5977V14.7617C481.688 14.7617 481.312 14.6484 481.07 14.4219C480.828 14.1953 480.707 13.9062 480.707 13.5547C480.707 13.2031 480.828 12.918 481.07 12.6992C481.32 12.4727 481.734 12.3594 482.312 12.3594H484.598ZM505.188 12.793C505.477 12.5195 505.773 12.3828 506.078 12.3828C506.422 12.3828 506.703 12.5078 506.922 12.7578C507.148 13 507.262 13.4062 507.262 13.9766V15.5234C507.262 16.1016 507.148 16.5117 506.922 16.7539C506.703 16.9961 506.414 17.1172 506.055 17.1172C505.727 17.1172 505.449 17.0234 505.223 16.8359C505.059 16.6953 504.93 16.4102 504.836 15.9805C504.742 15.543 504.516 15.2188 504.156 15.0078C503.523 14.6328 502.715 14.4453 501.73 14.4453C500.598 14.4453 499.688 14.7773 499 15.4414C498.32 16.1055 497.98 16.9453 497.98 17.9609C497.98 18.8984 498.309 19.6406 498.965 20.1875C499.621 20.7266 500.711 20.9961 502.234 20.9961C503.234 20.9961 504.051 20.8945 504.684 20.6914C505.059 20.5664 505.414 20.3555 505.75 20.0586C506.086 19.7539 506.391 19.6016 506.664 19.6016C506.992 19.6016 507.273 19.7227 507.508 19.9648C507.75 20.207 507.871 20.4922 507.871 20.8203C507.871 21.3516 507.508 21.8555 506.781 22.332C505.703 23.043 504.125 23.3984 502.047 23.3984C500.18 23.3984 498.727 23.0117 497.688 22.2383C496.281 21.1992 495.578 19.7773 495.578 17.9727C495.578 16.2617 496.148 14.8477 497.289 13.7305C498.43 12.6055 499.918 12.043 501.754 12.043C502.418 12.043 503.035 12.1055 503.605 12.2305C504.176 12.3555 504.703 12.543 505.188 12.793ZM513.379 7.80078V12.9219C513.879 12.625 514.383 12.4062 514.891 12.2656C515.406 12.1172 515.926 12.043 516.449 12.043C517.277 12.043 518.016 12.1836 518.664 12.4648C519.312 12.7461 519.848 13.1914 520.27 13.8008C520.699 14.4023 520.914 15.1641 520.914 16.0859V20.5977C521.523 20.5977 521.922 20.6562 522.109 20.7734C522.484 21.0156 522.672 21.3594 522.672 21.8047C522.672 22.1562 522.551 22.4453 522.309 22.6719C522.066 22.8906 521.656 23 521.078 23H518.336C517.766 23 517.355 22.8906 517.105 22.6719C516.863 22.4453 516.742 22.1523 516.742 21.793C516.742 21.3555 516.93 21.0156 517.305 20.7734C517.5 20.6484 517.898 20.5898 518.5 20.5977V16.25C518.5 15.6328 518.359 15.1992 518.078 14.9492C517.711 14.6133 517.168 14.4453 516.449 14.4453C515.918 14.4453 515.445 14.5508 515.031 14.7617C514.625 14.9648 514.074 15.4102 513.379 16.0977V20.5977C513.996 20.5977 514.395 20.6562 514.574 20.7734C514.957 21.0156 515.148 21.3594 515.148 21.8047C515.148 22.1562 515.023 22.4453 514.773 22.6719C514.531 22.8906 514.121 23 513.543 23H510.812C510.234 23 509.82 22.8906 509.57 22.6719C509.328 22.4453 509.207 22.1523 509.207 21.793C509.207 21.3555 509.398 21.0156 509.781 20.7734C509.969 20.6484 510.367 20.5898 510.977 20.5977V10.2031H510.566C509.988 10.2031 509.574 10.0938 509.324 9.875C509.082 9.64844 508.961 9.35547 508.961 8.99609C508.961 8.64453 509.082 8.35938 509.324 8.14062C509.574 7.91406 509.988 7.80078 510.566 7.80078H513.379Z" fill="white"/>
<path d="M3.576 156.264V154.224H1.464V150.936H4.512V153H9.936V150.096H3.576V148.056H1.464V142.752H3.576V140.688H10.872V142.752H13.008V154.224H10.872V156.264H3.576ZM4.512 146.856H9.936V143.976H4.512V146.856ZM15.9249 154.152V150.864H18.9729V154.152H15.9249ZM15.9249 150.12V146.856H18.9729V150.12H15.9249ZM24.0135 156.264V154.224H21.9015V142.752H24.0135V140.688H31.3095V142.752H33.4455V154.224H31.3095V156.264H24.0135ZM24.9495 153H30.3735V143.976H24.9495V153ZM38.4744 156.264V154.224H36.3624V142.752H38.4744V140.688H45.7704V142.752H47.9064V154.224H45.7704V156.264H38.4744ZM39.4104 153H44.8344V143.976H39.4104V153ZM50.8234 156.264V144.792H52.9354V142.752H55.0474V140.688H58.1194V142.752H60.2314V144.792H62.3674V156.264H59.2954V152.16H53.8714V156.264H50.8234ZM53.8714 148.872H59.2954V146.016H57.1834V143.976H55.9834V146.016H53.8714V148.872ZM65.2843 156.264V142.752H67.3963V140.688H70.4443V142.752H72.5803V146.856H73.7563V142.752H75.8923V140.688H78.9643V142.752H81.0523V156.264H78.0283V143.976H76.8283V148.056H74.6923V154.224H71.6443V148.056H69.5083V143.976H68.3323V156.264H65.2843Z" fill="#00FF00"/>
<path d="M139.688 89.264V76.976H138.512V79.016H135.464V75.752H137.576V73.688H140.624V75.752H142.76V89.264H139.688ZM147.795 89.264V87.224H145.683V75.752H147.795V73.688H155.091V75.752H157.227V87.224H155.091V89.264H147.795ZM148.731 86H154.155V76.976H148.731V86ZM160.144 87.152V83.864H163.192V87.152H160.144ZM160.144 83.12V79.856H163.192V83.12H160.144ZM168.232 89.264V87.224H166.12V75.752H168.232V73.688H175.528V75.752H177.664V87.224H175.528V89.264H168.232ZM169.168 86H174.592V76.976H169.168V86ZM182.693 89.264V87.224H180.581V75.752H182.693V73.688H189.989V75.752H192.125V87.224H189.989V89.264H182.693ZM183.629 86H189.053V76.976H183.629V86ZM195.042 89.264V77.792H197.154V75.752H199.266V73.688H202.338V75.752H204.45V77.792H206.586V89.264H203.514V85.16H198.09V89.264H195.042ZM198.09 81.872H203.514V79.016H201.402V76.976H200.202V79.016H198.09V81.872ZM209.503 89.264V75.752H211.615V73.688H214.663V75.752H216.799V79.856H217.975V75.752H220.111V73.688H223.183V75.752H225.271V89.264H222.247V76.976H221.047V81.056H218.911V87.224H215.863V81.056H213.727V76.976H212.551V89.264H209.503Z" fill="#00FF00"/>
<path d="M377.688 151.264V138.976H376.512V141.016H373.464V137.752H375.576V135.688H378.624V137.752H380.76V151.264H377.688ZM385.795 151.264V149.224H383.683V143.872H385.795V141.856H392.155V138.976H386.731V141.016H383.683V137.752H385.795V135.688H393.091V137.752H395.227V143.056H393.091V145.096H386.731V148H392.155V145.936H395.227V149.224H393.091V151.264H385.795ZM398.144 149.152V145.864H401.192V149.152H398.144ZM398.144 145.12V141.856H401.192V145.12H398.144ZM406.232 151.264V149.224H404.12V145.936H407.168V148H412.592V145.096H406.232V141.856H412.592V138.976H407.168V141.016H404.12V137.752H406.232V135.688H413.528V137.752H415.664V143.056H413.528V143.872H415.664V149.224H413.528V151.264H406.232ZM420.693 151.264V149.224H418.581V137.752H420.693V135.688H427.989V137.752H430.125V149.224H427.989V151.264H420.693ZM421.629 148H427.053V138.976H421.629V148ZM433.042 151.264V137.752H435.154V135.688H442.45V137.752H444.586V145.096H442.45V147.16H436.09V151.264H433.042ZM436.09 143.872H441.514V138.976H436.09V143.872ZM447.503 151.264V137.752H449.615V135.688H452.663V137.752H454.799V141.856H455.975V137.752H458.111V135.688H461.183V137.752H463.271V151.264H460.247V138.976H459.047V143.056H456.911V149.224H453.863V143.056H451.727V138.976H450.551V151.264H447.503Z" fill="#00FF00"/>
<path d="M795.576 88.264V86.224H793.464V82.936H796.512V85H801.936V84.16H797.688V82.096H795.576V80.056H793.464V74.752H795.576V72.688H802.872V74.752H805.008V80.056H801.936V75.976H796.512V78.856H798.624V80.872H802.872V82.936H805.008V86.224H802.872V88.264H795.576ZM807.925 86.152V82.864H810.973V86.152H807.925ZM807.925 82.12V78.856H810.973V82.12H807.925ZM816.014 88.264V86.224H813.902V74.752H816.014V72.688H823.31V74.752H825.446V86.224H823.31V88.264H816.014ZM816.95 85H822.374V75.976H816.95V85ZM830.474 88.264V86.224H828.362V74.752H830.474V72.688H837.77V74.752H839.906V86.224H837.77V88.264H830.474ZM831.41 85H836.834V75.976H831.41V85ZM842.823 88.264V74.752H844.935V72.688H852.231V74.752H854.367V82.096H852.231V84.16H845.871V88.264H842.823ZM845.871 80.872H851.295V75.976H845.871V80.872ZM857.284 88.264V74.752H859.396V72.688H862.444V74.752H864.58V78.856H865.756V74.752H867.892V72.688H870.964V74.752H873.052V88.264H870.028V75.976H868.828V80.056H866.692V86.224H863.644V80.056H861.508V75.976H860.332V88.264H857.284Z" fill="#00FF00"/>
<path d="M460.918 53.418H454.449L452.352 57.0156H454.238C454.465 57.0156 454.617 57.0508 454.695 57.1211C454.773 57.1836 454.812 57.2773 454.812 57.4023C454.812 57.5664 454.746 57.707 454.613 57.8242C454.48 57.9414 454.285 58 454.027 58H450.359C450.141 58 449.992 57.9648 449.914 57.8945C449.836 57.8242 449.797 57.7266 449.797 57.6016C449.797 57.4453 449.859 57.3086 449.984 57.1914C450.117 57.0742 450.312 57.0156 450.57 57.0156H451.32L458.176 45.2734H455.27C455.051 45.2734 454.902 45.2422 454.824 45.1797C454.746 45.1094 454.707 45.0078 454.707 44.875C454.707 44.7188 454.77 44.582 454.895 44.4648C455.027 44.3477 455.223 44.2891 455.48 44.2891H460.426L462.535 57.0156H463.297C463.516 57.0156 463.664 57.0508 463.742 57.1211C463.82 57.1836 463.859 57.2773 463.859 57.4023C463.859 57.5664 463.793 57.707 463.66 57.8242C463.535 57.9414 463.344 58 463.086 58H459.406C459.188 58 459.039 57.9648 458.961 57.8945C458.883 57.8242 458.844 57.7266 458.844 57.6016C458.844 57.4453 458.906 57.3086 459.031 57.1914C459.164 57.0742 459.359 57.0156 459.617 57.0156H461.504L460.918 53.418ZM460.754 52.4336L459.559 45.2734H459.195L455.023 52.4336H460.754ZM471.594 47.8516L471.066 50.3359C472.621 49.1641 473.746 48.418 474.441 48.0977C475.145 47.7695 475.762 47.6055 476.293 47.6055C476.824 47.6055 477.301 47.7852 477.723 48.1445C478.152 48.5039 478.367 48.7852 478.367 48.9883C478.367 49.1523 478.305 49.2969 478.18 49.4219C478.055 49.5469 477.906 49.6094 477.734 49.6094C477.656 49.6094 477.594 49.5977 477.547 49.5742C477.5 49.543 477.418 49.4531 477.301 49.3047C477.09 49.0312 476.891 48.8438 476.703 48.7422C476.523 48.6406 476.34 48.5898 476.152 48.5898C475.715 48.5898 475.156 48.7617 474.477 49.1055C473.805 49.4492 472.578 50.2891 470.797 51.625L469.648 57.0156H474.008C474.234 57.0156 474.387 57.0508 474.465 57.1211C474.543 57.1836 474.582 57.2773 474.582 57.4023C474.582 57.5664 474.516 57.707 474.383 57.8242C474.25 57.9414 474.055 58 473.797 58H466.074C465.855 58 465.707 57.9688 465.629 57.9062C465.551 57.8359 465.512 57.7422 465.512 57.625C465.512 57.4688 465.574 57.3359 465.699 57.2266C465.824 57.1094 466.016 57.0508 466.273 57.0508H468.652L470.398 48.8477H468.582C468.363 48.8477 468.215 48.8125 468.137 48.7422C468.059 48.6719 468.02 48.5781 468.02 48.4609C468.02 48.2969 468.082 48.1562 468.207 48.0391C468.34 47.9141 468.535 47.8516 468.793 47.8516H471.594ZM485.211 47.8516H490.555C490.781 47.8516 490.93 47.8828 491 47.9453C491.078 48.0078 491.117 48.1055 491.117 48.2383C491.117 48.3789 491.09 48.4961 491.035 48.5898C490.98 48.6758 490.914 48.7383 490.836 48.7773C490.734 48.8242 490.57 48.8477 490.344 48.8477H485L483.605 55.3984C483.566 55.5859 483.547 55.7578 483.547 55.9141C483.547 56.2891 483.738 56.6328 484.121 56.9453C484.512 57.25 485.078 57.4023 485.82 57.4023C486.516 57.4023 487.27 57.3047 488.082 57.1094C488.902 56.9141 489.555 56.6875 490.039 56.4297C490.219 56.3281 490.359 56.2773 490.461 56.2773C490.57 56.2773 490.66 56.3164 490.73 56.3945C490.801 56.4648 490.836 56.5625 490.836 56.6875C490.836 56.8516 490.738 57.0039 490.543 57.1445C490.066 57.4883 489.227 57.8008 488.023 58.082C487.156 58.2852 486.352 58.3867 485.609 58.3867C484.633 58.3867 483.875 58.1602 483.336 57.707C482.805 57.2539 482.539 56.707 482.539 56.0664C482.539 55.8633 482.562 55.6406 482.609 55.3984L484.004 48.8477H482.188C481.969 48.8477 481.82 48.8125 481.742 48.7422C481.664 48.6719 481.625 48.5742 481.625 48.4492C481.625 48.293 481.688 48.1562 481.812 48.0391C481.945 47.9141 482.141 47.8516 482.398 47.8516H484.215L484.836 44.9453C484.883 44.7109 484.965 44.543 485.082 44.4414C485.199 44.3398 485.332 44.2891 485.48 44.2891C485.59 44.2891 485.68 44.3242 485.75 44.3945C485.828 44.4648 485.867 44.5508 485.867 44.6523C485.867 44.7148 485.852 44.8125 485.82 44.9453L485.211 47.8516ZM504.723 48.4961C504.77 48.2695 504.852 48.1055 504.969 48.0039C505.086 47.9023 505.215 47.8516 505.355 47.8516C505.473 47.8516 505.566 47.8906 505.637 47.9688C505.715 48.0391 505.754 48.1211 505.754 48.2148C505.754 48.2852 505.738 48.3867 505.707 48.5195L505.355 50.207C505.301 50.4414 505.215 50.6094 505.098 50.7109C504.988 50.8125 504.859 50.8633 504.711 50.8633C504.602 50.8633 504.508 50.8281 504.43 50.7578C504.359 50.6875 504.324 50.6055 504.324 50.5117L504.336 50.3125C504.344 50.25 504.348 50.1914 504.348 50.1367C504.348 49.7148 504.16 49.3711 503.785 49.1055C503.23 48.6992 502.453 48.4961 501.453 48.4961C500.25 48.4961 499.293 48.7539 498.582 49.2695C498.051 49.6523 497.785 50.0586 497.785 50.4883C497.785 50.9102 498.016 51.2539 498.477 51.5195C498.812 51.707 499.523 51.8633 500.609 51.9883C501.695 52.1055 502.473 52.2422 502.941 52.3984C503.598 52.6094 504.086 52.9141 504.406 53.3125C504.727 53.7109 504.887 54.1602 504.887 54.6602C504.887 55.2383 504.676 55.8164 504.254 56.3945C503.832 56.9727 503.188 57.4492 502.32 57.8242C501.453 58.1992 500.477 58.3867 499.391 58.3867C498.617 58.3867 497.934 58.2852 497.34 58.082C496.746 57.8867 496.242 57.5938 495.828 57.2031C495.766 57.5234 495.688 57.7305 495.594 57.8242C495.461 57.9414 495.316 58 495.16 58C495.051 58 494.957 57.9648 494.879 57.8945C494.809 57.8242 494.773 57.7383 494.773 57.6367C494.773 57.5664 494.785 57.4688 494.809 57.3438L495.242 55.3164C495.289 55.082 495.371 54.9141 495.488 54.8125C495.605 54.7109 495.738 54.6602 495.887 54.6602C495.996 54.6602 496.086 54.6992 496.156 54.7773C496.234 54.8477 496.273 54.9336 496.273 55.0352C496.273 55.0977 496.262 55.1875 496.238 55.3047C496.215 55.4219 496.203 55.5078 496.203 55.5625C496.203 56.0078 496.434 56.3984 496.895 56.7344C497.504 57.1797 498.395 57.4023 499.566 57.4023C500.965 57.4023 502.031 57.125 502.766 56.5703C503.5 56.0156 503.867 55.4648 503.867 54.918C503.867 54.6211 503.758 54.332 503.539 54.0508C503.328 53.7617 503.004 53.5352 502.566 53.3711C502.129 53.1992 501.41 53.0625 500.41 52.9609C499.418 52.8516 498.691 52.7188 498.23 52.5625C497.777 52.3984 497.422 52.1523 497.164 51.8242C496.906 51.4961 496.777 51.1211 496.777 50.6992C496.777 50.207 496.945 49.7266 497.281 49.2578C497.617 48.7812 498.176 48.3711 498.957 48.0273C499.746 47.6758 500.629 47.5 501.605 47.5C502.285 47.5 502.883 47.582 503.398 47.7461C503.922 47.9102 504.363 48.1602 504.723 48.4961ZM532.59 58H531.055L530.328 48.2617L525.523 58H523.977L525.242 45.2734H524.879C524.66 45.2734 524.508 45.2422 524.422 45.1797C524.344 45.1094 524.305 45.0078 524.305 44.875C524.305 44.7188 524.371 44.582 524.504 44.4648C524.637 44.3477 524.832 44.2891 525.09 44.2891H528.746C528.965 44.2891 529.113 44.3242 529.191 44.3945C529.27 44.457 529.309 44.5508 529.309 44.6758C529.309 44.8398 529.242 44.9805 529.109 45.0977C528.984 45.2148 528.793 45.2734 528.535 45.2734H526.227L525.066 56.875L529.766 47.3242H531.266L531.969 56.875L535.707 45.2734H533.398C533.18 45.2734 533.031 45.2422 532.953 45.1797C532.875 45.1094 532.836 45.0078 532.836 44.875C532.836 44.7188 532.898 44.582 533.023 44.4648C533.156 44.3477 533.352 44.2891 533.609 44.2891H537.254C537.473 44.2891 537.621 44.3242 537.699 44.3945C537.777 44.457 537.816 44.5508 537.816 44.6758C537.816 44.793 537.777 44.9062 537.699 45.0156C537.621 45.1172 537.527 45.1875 537.418 45.2266C537.34 45.2578 537.094 45.2734 536.68 45.2734L532.59 58ZM549.055 53.1602H539.023C539 53.4023 538.988 53.5859 538.988 53.7109C538.988 54.7812 539.352 55.6641 540.078 56.3594C540.805 57.0547 541.789 57.4023 543.031 57.4023C543.758 57.4023 544.547 57.2852 545.398 57.0508C546.25 56.8086 546.98 56.4844 547.59 56.0781C547.77 55.9609 547.914 55.9023 548.023 55.9023C548.125 55.9023 548.211 55.9414 548.281 56.0195C548.352 56.0898 548.387 56.1836 548.387 56.3008C548.387 56.4414 548.324 56.5742 548.199 56.6992C547.84 57.082 547.121 57.4609 546.043 57.8359C544.965 58.2031 543.871 58.3867 542.762 58.3867C541.324 58.3867 540.168 57.9609 539.293 57.1094C538.426 56.2578 537.992 55.1758 537.992 53.8633C537.992 52.9961 538.18 52.1797 538.555 51.4141C538.93 50.6406 539.422 49.9766 540.031 49.4219C540.648 48.8594 541.355 48.3984 542.152 48.0391C542.957 47.6797 543.832 47.5 544.777 47.5C546.121 47.5 547.199 47.8945 548.012 48.6836C548.832 49.4727 549.242 50.4805 549.242 51.707C549.242 52.1133 549.18 52.5977 549.055 53.1602ZM548.258 52.1641C548.297 51.0859 547.977 50.2031 547.297 49.5156C546.609 48.8359 545.688 48.4961 544.531 48.4961C543.406 48.4961 542.355 48.8281 541.379 49.4922C540.402 50.1562 539.688 51.0469 539.234 52.1641H548.258ZM562.379 48.4961C562.426 48.2695 562.508 48.1055 562.625 48.0039C562.742 47.9023 562.871 47.8516 563.012 47.8516C563.129 47.8516 563.223 47.8906 563.293 47.9688C563.371 48.0391 563.41 48.1211 563.41 48.2148C563.41 48.2852 563.395 48.3867 563.363 48.5195L563.012 50.207C562.957 50.4414 562.871 50.6094 562.754 50.7109C562.645 50.8125 562.516 50.8633 562.367 50.8633C562.258 50.8633 562.164 50.8281 562.086 50.7578C562.016 50.6875 561.98 50.6055 561.98 50.5117L561.992 50.3125C562 50.25 562.004 50.1914 562.004 50.1367C562.004 49.7148 561.816 49.3711 561.441 49.1055C560.887 48.6992 560.109 48.4961 559.109 48.4961C557.906 48.4961 556.949 48.7539 556.238 49.2695C555.707 49.6523 555.441 50.0586 555.441 50.4883C555.441 50.9102 555.672 51.2539 556.133 51.5195C556.469 51.707 557.18 51.8633 558.266 51.9883C559.352 52.1055 560.129 52.2422 560.598 52.3984C561.254 52.6094 561.742 52.9141 562.062 53.3125C562.383 53.7109 562.543 54.1602 562.543 54.6602C562.543 55.2383 562.332 55.8164 561.91 56.3945C561.488 56.9727 560.844 57.4492 559.977 57.8242C559.109 58.1992 558.133 58.3867 557.047 58.3867C556.273 58.3867 555.59 58.2852 554.996 58.082C554.402 57.8867 553.898 57.5938 553.484 57.2031C553.422 57.5234 553.344 57.7305 553.25 57.8242C553.117 57.9414 552.973 58 552.816 58C552.707 58 552.613 57.9648 552.535 57.8945C552.465 57.8242 552.43 57.7383 552.43 57.6367C552.43 57.5664 552.441 57.4688 552.465 57.3438L552.898 55.3164C552.945 55.082 553.027 54.9141 553.145 54.8125C553.262 54.7109 553.395 54.6602 553.543 54.6602C553.652 54.6602 553.742 54.6992 553.812 54.7773C553.891 54.8477 553.93 54.9336 553.93 55.0352C553.93 55.0977 553.918 55.1875 553.895 55.3047C553.871 55.4219 553.859 55.5078 553.859 55.5625C553.859 56.0078 554.09 56.3984 554.551 56.7344C555.16 57.1797 556.051 57.4023 557.223 57.4023C558.621 57.4023 559.688 57.125 560.422 56.5703C561.156 56.0156 561.523 55.4648 561.523 54.918C561.523 54.6211 561.414 54.332 561.195 54.0508C560.984 53.7617 560.66 53.5352 560.223 53.3711C559.785 53.1992 559.066 53.0625 558.066 52.9609C557.074 52.8516 556.348 52.7188 555.887 52.5625C555.434 52.3984 555.078 52.1523 554.82 51.8242C554.562 51.4961 554.434 51.1211 554.434 50.6992C554.434 50.207 554.602 49.7266 554.938 49.2578C555.273 48.7812 555.832 48.3711 556.613 48.0273C557.402 47.6758 558.285 47.5 559.262 47.5C559.941 47.5 560.539 47.582 561.055 47.7461C561.578 47.9102 562.02 48.1602 562.379 48.4961ZM571.695 47.8516H577.039C577.266 47.8516 577.414 47.8828 577.484 47.9453C577.562 48.0078 577.602 48.1055 577.602 48.2383C577.602 48.3789 577.574 48.4961 577.52 48.5898C577.465 48.6758 577.398 48.7383 577.32 48.7773C577.219 48.8242 577.055 48.8477 576.828 48.8477H571.484L570.09 55.3984C570.051 55.5859 570.031 55.7578 570.031 55.9141C570.031 56.2891 570.223 56.6328 570.605 56.9453C570.996 57.25 571.562 57.4023 572.305 57.4023C573 57.4023 573.754 57.3047 574.566 57.1094C575.387 56.9141 576.039 56.6875 576.523 56.4297C576.703 56.3281 576.844 56.2773 576.945 56.2773C577.055 56.2773 577.145 56.3164 577.215 56.3945C577.285 56.4648 577.32 56.5625 577.32 56.6875C577.32 56.8516 577.223 57.0039 577.027 57.1445C576.551 57.4883 575.711 57.8008 574.508 58.082C573.641 58.2852 572.836 58.3867 572.094 58.3867C571.117 58.3867 570.359 58.1602 569.82 57.707C569.289 57.2539 569.023 56.707 569.023 56.0664C569.023 55.8633 569.047 55.6406 569.094 55.3984L570.488 48.8477H568.672C568.453 48.8477 568.305 48.8125 568.227 48.7422C568.148 48.6719 568.109 48.5742 568.109 48.4492C568.109 48.293 568.172 48.1562 568.297 48.0391C568.43 47.9141 568.625 47.8516 568.883 47.8516H570.699L571.32 44.9453C571.367 44.7109 571.449 44.543 571.566 44.4414C571.684 44.3398 571.816 44.2891 571.965 44.2891C572.074 44.2891 572.164 44.3242 572.234 44.3945C572.312 44.4648 572.352 44.5508 572.352 44.6523C572.352 44.7148 572.336 44.8125 572.305 44.9453L571.695 47.8516Z" fill="white"/>
<circle cx="1188.5" cy="114" r="10.5" transform="rotate(180 1188.5 114)" stroke="white" stroke-width="7"/>
<line x1="1123" y1="32.5" x2="1016" y2="32.5" stroke="white" stroke-width="3"/>
<line x1="1199.94" y1="110.061" x2="1121.94" y2="32.0607" stroke="white" stroke-width="3"/>
<path d="M1026.21 13.1797L1023.98 20H1021.29L1019.86 8.19922C1019.49 8.15234 1019.21 8.02734 1019.02 7.82422C1018.84 7.61328 1018.74 7.34766 1018.74 7.02734C1018.74 6.65234 1018.86 6.35156 1019.11 6.125C1019.36 5.89844 1019.77 5.78516 1020.35 5.78516L1023.55 5.79688C1024.12 5.79688 1024.54 5.90625 1024.78 6.125C1025.03 6.34375 1025.15 6.63281 1025.15 6.99219C1025.15 7.35156 1025.03 7.64453 1024.78 7.87109C1024.54 8.08984 1024.12 8.19922 1023.55 8.19922H1022.29L1023.09 14.9141L1024.98 9.32422H1027.47L1029.35 14.9141L1030.14 8.19922H1028.89C1028.31 8.19922 1027.9 8.08984 1027.65 7.87109C1027.41 7.64453 1027.29 7.35156 1027.29 6.99219C1027.29 6.63281 1027.41 6.34375 1027.65 6.125C1027.9 5.89844 1028.31 5.78516 1028.89 5.78516L1032.08 5.79688C1032.66 5.79688 1033.07 5.90625 1033.31 6.125C1033.56 6.34375 1033.68 6.63281 1033.68 6.99219C1033.68 7.29688 1033.59 7.55859 1033.39 7.77734C1033.2 7.99609 1032.91 8.13672 1032.55 8.19922L1031.16 20H1028.52L1026.21 13.1797ZM1040.12 9.35938V10.8594C1041.12 10.1328 1041.92 9.64844 1042.5 9.40625C1043.08 9.16406 1043.63 9.04297 1044.14 9.04297C1044.92 9.04297 1045.68 9.33203 1046.41 9.91016C1046.91 10.3008 1047.16 10.6992 1047.16 11.1055C1047.16 11.4492 1047.04 11.7422 1046.8 11.9844C1046.56 12.2188 1046.28 12.3359 1045.94 12.3359C1045.64 12.3359 1045.33 12.1875 1045 11.8906C1044.68 11.5938 1044.38 11.4453 1044.12 11.4453C1043.79 11.4453 1043.29 11.6562 1042.61 12.0781C1041.95 12.5 1041.12 13.1328 1040.12 13.9766V17.5977H1043.54C1044.12 17.5977 1044.53 17.7109 1044.77 17.9375C1045.02 18.1562 1045.14 18.4453 1045.14 18.8047C1045.14 19.1562 1045.02 19.4453 1044.77 19.6719C1044.53 19.8906 1044.12 20 1043.54 20H1036.29C1035.71 20 1035.29 19.8906 1035.04 19.6719C1034.8 19.4453 1034.68 19.1523 1034.68 18.793C1034.68 18.4414 1034.8 18.1562 1035.04 17.9375C1035.29 17.7109 1035.71 17.5977 1036.29 17.5977H1037.71V11.7617H1036.85C1036.27 11.7617 1035.86 11.6523 1035.61 11.4336C1035.36 11.207 1035.24 10.9141 1035.24 10.5547C1035.24 10.2031 1035.36 9.91797 1035.61 9.69922C1035.86 9.47266 1036.27 9.35938 1036.85 9.35938H1040.12ZM1057.19 20V19.4375C1056.59 19.7578 1055.93 19.9961 1055.2 20.1523C1054.47 20.3164 1053.81 20.3984 1053.22 20.3984C1051.93 20.3984 1050.88 20.0586 1050.08 19.3789C1049.27 18.6914 1048.87 17.9336 1048.87 17.1055C1048.87 16.0977 1049.38 15.1641 1050.41 14.3047C1051.44 13.4375 1052.86 13.0039 1054.67 13.0039C1055.4 13.0039 1056.24 13.082 1057.19 13.2383V12.6641C1057.19 12.3047 1057.04 12.0117 1056.72 11.7852C1056.42 11.5586 1055.83 11.4453 1054.96 11.4453C1054.25 11.4453 1053.33 11.5859 1052.2 11.8672C1051.78 11.9688 1051.45 12.0195 1051.21 12.0195C1050.89 12.0195 1050.62 11.9062 1050.39 11.6797C1050.18 11.4453 1050.07 11.1484 1050.07 10.7891C1050.07 10.5859 1050.11 10.4102 1050.18 10.2617C1050.26 10.1133 1050.37 9.99609 1050.51 9.91016C1050.65 9.81641 1050.95 9.70703 1051.39 9.58203C1051.98 9.41797 1052.59 9.28906 1053.21 9.19531C1053.82 9.09375 1054.38 9.04297 1054.88 9.04297C1056.38 9.04297 1057.53 9.36719 1058.35 10.0156C1059.18 10.6562 1059.59 11.5352 1059.59 12.6523V17.5977H1060C1060.58 17.5977 1060.99 17.7109 1061.23 17.9375C1061.48 18.1562 1061.61 18.4453 1061.61 18.8047C1061.61 19.1562 1061.48 19.4453 1061.23 19.6719C1060.99 19.8906 1060.58 20 1060 20H1057.19ZM1057.19 15.6992C1056.23 15.5117 1055.34 15.418 1054.53 15.418C1053.55 15.418 1052.71 15.6562 1052.01 16.1328C1051.57 16.4375 1051.36 16.7461 1051.36 17.0586C1051.36 17.2852 1051.46 17.4688 1051.67 17.6094C1052.06 17.8672 1052.6 17.9961 1053.28 17.9961C1053.86 17.9961 1054.51 17.8828 1055.23 17.6562C1055.97 17.4297 1056.62 17.1211 1057.19 16.7305V15.6992ZM1066.46 18.6758V22.6133H1067.9C1068.48 22.6133 1068.89 22.7227 1069.13 22.9414C1069.38 23.168 1069.51 23.4609 1069.51 23.8203C1069.51 24.1719 1069.38 24.457 1069.13 24.6758C1068.89 24.9023 1068.48 25.0156 1067.9 25.0156H1063.65C1063.07 25.0156 1062.66 24.9023 1062.41 24.6758C1062.16 24.457 1062.04 24.1719 1062.04 23.8203C1062.04 23.4609 1062.17 23.168 1062.42 22.9414C1062.67 22.7227 1063.08 22.6133 1063.65 22.6133H1064.06V11.7617H1063.65C1063.07 11.7617 1062.66 11.6523 1062.41 11.4336C1062.16 11.207 1062.04 10.9141 1062.04 10.5547C1062.04 10.2031 1062.16 9.91797 1062.41 9.69922C1062.66 9.47266 1063.07 9.35938 1063.65 9.35938H1066.46V10.1797C1067.02 9.79688 1067.61 9.51172 1068.21 9.32422C1068.81 9.13672 1069.43 9.04297 1070.06 9.04297C1071.7 9.04297 1073.1 9.60156 1074.25 10.7188C1075.41 11.8281 1075.99 13.1016 1075.99 14.5391C1075.99 16.125 1075.3 17.4336 1073.94 18.4648C1072.8 19.3242 1071.51 19.7539 1070.08 19.7539C1069.46 19.7539 1068.86 19.6641 1068.25 19.4844C1067.65 19.3047 1067.05 19.0352 1066.46 18.6758ZM1073.59 14.5508C1073.59 14.2148 1073.45 13.7891 1073.19 13.2734C1072.92 12.75 1072.51 12.3164 1071.96 11.9727C1071.41 11.6211 1070.77 11.4453 1070.02 11.4453C1068.83 11.4453 1067.88 11.8945 1067.18 12.793C1066.7 13.4102 1066.46 14.0039 1066.46 14.5742C1066.46 15.2148 1066.8 15.8398 1067.48 16.4492C1068.17 17.0508 1069.02 17.3516 1070.02 17.3516C1071.04 17.3516 1071.89 17.0508 1072.57 16.4492C1073.25 15.8477 1073.59 15.2148 1073.59 14.5508ZM1103.76 8.19922V15.0078C1103.76 16.4922 1103.23 17.7539 1102.16 18.793C1101.09 19.832 1099.81 20.3516 1098.31 20.3516C1097.57 20.3516 1096.87 20.2227 1096.21 19.9648C1095.57 19.6992 1094.98 19.3125 1094.46 18.8047C1093.94 18.2969 1093.54 17.7695 1093.25 17.2227C1092.96 16.668 1092.82 15.9297 1092.82 15.0078V8.19922C1092.31 8.19922 1091.93 8.08594 1091.69 7.85938C1091.45 7.63281 1091.33 7.34375 1091.33 6.99219C1091.33 6.63281 1091.45 6.34375 1091.69 6.125C1091.93 5.90625 1092.35 5.79688 1092.93 5.79688L1096.09 5.78516C1096.66 5.78516 1097.07 5.89844 1097.32 6.125C1097.57 6.34375 1097.69 6.63281 1097.69 6.99219C1097.69 7.35156 1097.57 7.64453 1097.32 7.87109C1097.07 8.08984 1096.66 8.19922 1096.09 8.19922H1095.22V15.2188C1095.22 15.9375 1095.52 16.5742 1096.11 17.1289C1096.71 17.6758 1097.43 17.9492 1098.28 17.9492C1098.84 17.9492 1099.37 17.8164 1099.86 17.5508C1100.35 17.2852 1100.75 16.8984 1101.07 16.3906C1101.26 16.0703 1101.36 15.6797 1101.36 15.2188V8.19922H1100.49C1099.91 8.19922 1099.5 8.08984 1099.25 7.87109C1099.01 7.64453 1098.89 7.35156 1098.89 6.99219C1098.89 6.63281 1099.01 6.34375 1099.25 6.125C1099.5 5.89844 1099.91 5.78516 1100.49 5.78516L1103.64 5.79688C1104.22 5.79688 1104.63 5.90625 1104.88 6.125C1105.12 6.34375 1105.25 6.63281 1105.25 6.99219C1105.25 7.34375 1105.13 7.63281 1104.89 7.85938C1104.64 8.08594 1104.27 8.19922 1103.76 8.19922ZM1109.7 18.6758V22.6133H1111.14C1111.72 22.6133 1112.13 22.7227 1112.38 22.9414C1112.62 23.168 1112.75 23.4609 1112.75 23.8203C1112.75 24.1719 1112.62 24.457 1112.38 24.6758C1112.13 24.9023 1111.72 25.0156 1111.14 25.0156H1106.89C1106.31 25.0156 1105.9 24.9023 1105.65 24.6758C1105.41 24.457 1105.29 24.1719 1105.29 23.8203C1105.29 23.4609 1105.41 23.168 1105.66 22.9414C1105.91 22.7227 1106.32 22.6133 1106.89 22.6133H1107.3V11.7617H1106.89C1106.31 11.7617 1105.9 11.6523 1105.65 11.4336C1105.41 11.207 1105.29 10.9141 1105.29 10.5547C1105.29 10.2031 1105.41 9.91797 1105.65 9.69922C1105.9 9.47266 1106.31 9.35938 1106.89 9.35938H1109.7V10.1797C1110.27 9.79688 1110.85 9.51172 1111.45 9.32422C1112.05 9.13672 1112.67 9.04297 1113.3 9.04297C1114.94 9.04297 1116.34 9.60156 1117.5 10.7188C1118.65 11.8281 1119.23 13.1016 1119.23 14.5391C1119.23 16.125 1118.55 17.4336 1117.18 18.4648C1116.04 19.3242 1114.75 19.7539 1113.32 19.7539C1112.71 19.7539 1112.1 19.6641 1111.5 19.4844C1110.89 19.3047 1110.3 19.0352 1109.7 18.6758ZM1116.83 14.5508C1116.83 14.2148 1116.7 13.7891 1116.43 13.2734C1116.16 12.75 1115.75 12.3164 1115.2 11.9727C1114.65 11.6211 1114.01 11.4453 1113.27 11.4453C1112.07 11.4453 1111.12 11.8945 1110.42 12.793C1109.94 13.4102 1109.7 14.0039 1109.7 14.5742C1109.7 15.2148 1110.04 15.8398 1110.72 16.4492C1111.41 17.0508 1112.26 17.3516 1113.27 17.3516C1114.28 17.3516 1115.13 17.0508 1115.81 16.4492C1116.49 15.8477 1116.83 15.2148 1116.83 14.5508Z" fill="white"/>
<path d="M1123.58 154.264V152.224H1121.46V148.936H1124.51V151H1129.94V148.096H1123.58V146.056H1121.46V140.752H1123.58V138.688H1130.87V140.752H1133.01V152.224H1130.87V154.264H1123.58ZM1124.51 144.856H1129.94V141.976H1124.51V144.856ZM1135.92 152.152V148.864H1138.97V152.152H1135.92ZM1135.92 148.12V144.856H1138.97V148.12H1135.92ZM1144.01 154.264V152.224H1141.9V140.752H1144.01V138.688H1151.31V140.752H1153.45V152.224H1151.31V154.264H1144.01ZM1144.95 151H1150.37V141.976H1144.95V151ZM1158.47 154.264V152.224H1156.36V140.752H1158.47V138.688H1165.77V140.752H1167.91V152.224H1165.77V154.264H1158.47ZM1159.41 151H1164.83V141.976H1159.41V151ZM1170.82 154.264V140.752H1172.94V138.688H1180.23V140.752H1182.37V148.096H1180.23V150.16H1173.87V154.264H1170.82ZM1173.87 146.872H1179.3V141.976H1173.87V146.872ZM1185.28 154.264V140.752H1187.4V138.688H1190.44V140.752H1192.58V144.856H1193.76V140.752H1195.89V138.688H1198.96V140.752H1201.05V154.264H1198.03V141.976H1196.83V146.056H1194.69V152.224H1191.64V146.056H1189.51V141.976H1188.33V154.264H1185.28Z" fill="#00FF00"/>
<path d="M875 209L1123 207" stroke="white" stroke-width="3"/>
<path d="M882.691 193.391C882.48 193.641 882.309 193.801 882.176 193.871C882.051 193.941 881.895 193.977 881.707 193.977C881.34 193.977 881.043 193.855 880.816 193.613C880.598 193.363 880.488 192.953 880.488 192.383V190.766C880.488 190.188 880.598 189.777 880.816 189.535C881.043 189.285 881.34 189.16 881.707 189.16C881.988 189.16 882.223 189.234 882.41 189.383C882.605 189.531 882.754 189.781 882.855 190.133C882.957 190.477 883.062 190.711 883.172 190.836C883.398 191.078 883.801 191.324 884.379 191.574C884.957 191.824 885.59 191.949 886.277 191.949C887.348 191.949 888.227 191.699 888.914 191.199C889.352 190.895 889.57 190.52 889.57 190.074C889.57 189.777 889.465 189.5 889.254 189.242C889.043 188.977 888.699 188.758 888.223 188.586C887.91 188.469 887.211 188.309 886.125 188.105C884.812 187.863 883.82 187.57 883.148 187.227C882.477 186.883 881.945 186.398 881.555 185.773C881.164 185.148 880.969 184.473 880.969 183.746C880.969 182.598 881.449 181.594 882.41 180.734C883.371 179.867 884.621 179.434 886.16 179.434C886.777 179.434 887.348 179.504 887.871 179.645C888.402 179.777 888.883 179.984 889.312 180.266C889.625 179.961 889.938 179.809 890.25 179.809C890.602 179.809 890.887 179.934 891.105 180.184C891.332 180.426 891.445 180.832 891.445 181.402V183.207C891.445 183.785 891.332 184.199 891.105 184.449C890.887 184.691 890.602 184.812 890.25 184.812C889.953 184.812 889.695 184.723 889.477 184.543C889.305 184.41 889.176 184.145 889.09 183.746C889.004 183.348 888.895 183.062 888.762 182.891C888.535 182.594 888.195 182.344 887.742 182.141C887.289 181.938 886.766 181.836 886.172 181.836C885.305 181.836 884.617 182.039 884.109 182.445C883.609 182.844 883.359 183.262 883.359 183.699C883.359 183.996 883.461 184.285 883.664 184.566C883.875 184.84 884.18 185.055 884.578 185.211C884.844 185.32 885.59 185.496 886.816 185.738C888.051 185.98 888.996 186.246 889.652 186.535C890.316 186.824 890.867 187.277 891.305 187.895C891.742 188.512 891.961 189.246 891.961 190.098C891.961 191.285 891.543 192.234 890.707 192.945C889.598 193.883 888.184 194.352 886.465 194.352C885.801 194.352 885.152 194.27 884.52 194.105C883.895 193.949 883.285 193.711 882.691 193.391ZM905.719 183.359V191.598C906.227 191.598 906.602 191.711 906.844 191.938C907.086 192.164 907.207 192.453 907.207 192.805C907.207 193.156 907.082 193.445 906.832 193.672C906.59 193.891 906.18 194 905.602 194H903.316V193.449C902.629 193.762 901.973 193.996 901.348 194.152C900.723 194.309 900.129 194.387 899.566 194.387C898.777 194.387 898.094 194.223 897.516 193.895C896.938 193.559 896.48 193.098 896.145 192.512C895.902 192.09 895.781 191.562 895.781 190.93V185.762H895.371C894.793 185.762 894.379 185.652 894.129 185.434C893.887 185.207 893.766 184.914 893.766 184.555C893.766 184.203 893.887 183.918 894.129 183.699C894.379 183.473 894.793 183.359 895.371 183.359H898.184V190.508C898.184 191.016 898.305 191.391 898.547 191.633C898.797 191.867 899.176 191.984 899.684 191.984C900.168 191.984 900.688 191.891 901.242 191.703C901.805 191.508 902.496 191.16 903.316 190.66V185.762H902.449C901.871 185.762 901.457 185.652 901.207 185.434C900.965 185.207 900.844 184.914 900.844 184.555C900.844 184.203 900.965 183.918 901.207 183.699C901.457 183.473 901.871 183.359 902.449 183.359H905.719ZM912 178.801V184.191C912.586 183.809 913.18 183.523 913.781 183.336C914.391 183.141 915.004 183.043 915.621 183.043C917.285 183.043 918.695 183.617 919.852 184.766C921.008 185.914 921.586 187.301 921.586 188.926C921.586 190.48 921.035 191.781 919.934 192.828C918.832 193.867 917.379 194.387 915.574 194.387C914.934 194.387 914.316 194.305 913.723 194.141C913.129 193.977 912.555 193.734 912 193.414V194H909.188C908.609 194 908.195 193.891 907.945 193.672C907.703 193.445 907.582 193.152 907.582 192.793C907.582 192.441 907.707 192.156 907.957 191.938C908.207 191.711 908.617 191.598 909.188 191.598H909.598V181.203H909.188C908.609 181.203 908.195 181.094 907.945 180.875C907.703 180.648 907.582 180.355 907.582 179.996C907.582 179.645 907.703 179.359 907.945 179.141C908.195 178.914 908.609 178.801 909.188 178.801H912ZM919.184 188.996C919.184 188.004 918.836 187.164 918.141 186.477C917.445 185.789 916.594 185.445 915.586 185.445C914.586 185.445 913.738 185.789 913.043 186.477C912.348 187.164 912 187.992 912 188.961C912 189.844 912.312 190.57 912.938 191.141C913.562 191.703 914.445 191.984 915.586 191.984C916.727 191.984 917.609 191.703 918.234 191.141C918.867 190.57 919.184 189.855 919.184 188.996ZM925.734 183.359V184.039C926.125 183.656 926.477 183.395 926.789 183.254C927.109 183.105 927.477 183.031 927.891 183.031C928.242 183.031 928.59 183.117 928.934 183.289C929.277 183.461 929.613 183.719 929.941 184.062C930.355 183.719 930.773 183.465 931.195 183.301C931.625 183.129 932.062 183.043 932.508 183.043C933.398 183.043 934.121 183.281 934.676 183.758C935.41 184.383 935.777 185.203 935.777 186.219V191.598C936.277 191.598 936.648 191.711 936.891 191.938C937.133 192.164 937.254 192.453 937.254 192.805C937.254 193.156 937.133 193.445 936.891 193.672C936.648 193.891 936.238 194 935.66 194H933.375V186.418C933.375 186.051 933.309 185.797 933.176 185.656C933.043 185.516 932.84 185.445 932.566 185.445C932.301 185.445 932.055 185.516 931.828 185.656C931.539 185.852 931.188 186.219 930.773 186.758V191.598C931.273 191.598 931.645 191.711 931.887 191.938C932.129 192.164 932.25 192.453 932.25 192.805C932.25 193.156 932.129 193.445 931.887 193.672C931.645 193.891 931.234 194 930.656 194H928.371V186.418C928.371 186.059 928.301 185.809 928.16 185.668C928.027 185.52 927.824 185.445 927.551 185.445C927.27 185.445 926.992 185.535 926.719 185.715C926.445 185.887 926.117 186.234 925.734 186.758V191.598C926.234 191.598 926.605 191.711 926.848 191.938C927.098 192.164 927.223 192.453 927.223 192.805C927.223 193.156 927.098 193.445 926.848 193.672C926.605 193.891 926.195 194 925.617 194H923.449C922.871 194 922.461 193.891 922.219 193.672C921.969 193.445 921.844 193.152 921.844 192.793C921.844 192.441 921.965 192.156 922.207 191.938C922.449 191.711 922.824 191.598 923.332 191.598V185.762C922.824 185.762 922.449 185.648 922.207 185.422C921.965 185.195 921.844 184.906 921.844 184.555C921.844 184.203 921.969 183.918 922.219 183.699C922.461 183.473 922.871 183.359 923.449 183.359H925.734ZM944.719 178.801V181.344H941.859V178.801H944.719ZM945.047 183.359V191.598H947.93C948.508 191.598 948.918 191.711 949.16 191.938C949.41 192.156 949.535 192.445 949.535 192.805C949.535 193.156 949.41 193.445 949.16 193.672C948.918 193.891 948.508 194 947.93 194H939.762C939.184 194 938.77 193.891 938.52 193.672C938.277 193.445 938.156 193.152 938.156 192.793C938.156 192.441 938.277 192.156 938.52 191.938C938.77 191.711 939.184 191.598 939.762 191.598H942.645V185.762H940.711C940.141 185.762 939.73 185.652 939.48 185.434C939.23 185.207 939.105 184.914 939.105 184.555C939.105 184.203 939.227 183.918 939.469 183.699C939.719 183.473 940.133 183.359 940.711 183.359H945.047ZM960.867 186.172C960.477 185.93 960.066 185.75 959.637 185.633C959.207 185.508 958.758 185.445 958.289 185.445C957.359 185.445 956.621 185.598 956.074 185.902C955.832 186.035 955.711 186.18 955.711 186.336C955.711 186.516 955.875 186.691 956.203 186.863C956.453 186.988 957.012 187.109 957.879 187.227C959.473 187.445 960.582 187.664 961.207 187.883C962.027 188.172 962.66 188.602 963.105 189.172C963.551 189.742 963.773 190.344 963.773 190.977C963.773 191.836 963.395 192.555 962.637 193.133C961.551 193.969 960.141 194.387 958.406 194.387C957.711 194.387 957.066 194.324 956.473 194.199C955.887 194.082 955.348 193.906 954.855 193.672C954.738 193.773 954.613 193.852 954.48 193.906C954.348 193.961 954.211 193.988 954.07 193.988C953.695 193.988 953.395 193.867 953.168 193.625C952.949 193.375 952.84 192.961 952.84 192.383V191.574C952.84 190.996 952.949 190.586 953.168 190.344C953.395 190.094 953.688 189.969 954.047 189.969C954.336 189.969 954.578 190.051 954.773 190.215C954.969 190.371 955.121 190.645 955.23 191.035C955.598 191.348 956.039 191.586 956.555 191.75C957.07 191.906 957.664 191.984 958.336 191.984C959.438 191.984 960.293 191.812 960.902 191.469C961.191 191.297 961.336 191.117 961.336 190.93C961.336 190.617 961.129 190.359 960.715 190.156C960.301 189.953 959.445 189.781 958.148 189.641C956.219 189.438 954.93 189.047 954.281 188.469C953.633 187.898 953.309 187.195 953.309 186.359C953.309 185.5 953.672 184.785 954.398 184.215C955.383 183.434 956.672 183.043 958.266 183.043C958.82 183.043 959.352 183.098 959.859 183.207C960.375 183.309 960.867 183.469 961.336 183.688C961.484 183.578 961.621 183.496 961.746 183.441C961.879 183.387 962 183.359 962.109 183.359C962.438 183.359 962.711 183.484 962.93 183.734C963.148 183.977 963.258 184.387 963.258 184.965V185.551C963.258 186.074 963.195 186.43 963.07 186.617C962.82 186.977 962.48 187.156 962.051 187.156C961.762 187.156 961.508 187.066 961.289 186.887C961.07 186.707 960.93 186.469 960.867 186.172ZM975.281 186.172C974.891 185.93 974.48 185.75 974.051 185.633C973.621 185.508 973.172 185.445 972.703 185.445C971.773 185.445 971.035 185.598 970.488 185.902C970.246 186.035 970.125 186.18 970.125 186.336C970.125 186.516 970.289 186.691 970.617 186.863C970.867 186.988 971.426 187.109 972.293 187.227C973.887 187.445 974.996 187.664 975.621 187.883C976.441 188.172 977.074 188.602 977.52 189.172C977.965 189.742 978.188 190.344 978.188 190.977C978.188 191.836 977.809 192.555 977.051 193.133C975.965 193.969 974.555 194.387 972.82 194.387C972.125 194.387 971.48 194.324 970.887 194.199C970.301 194.082 969.762 193.906 969.27 193.672C969.152 193.773 969.027 193.852 968.895 193.906C968.762 193.961 968.625 193.988 968.484 193.988C968.109 193.988 967.809 193.867 967.582 193.625C967.363 193.375 967.254 192.961 967.254 192.383V191.574C967.254 190.996 967.363 190.586 967.582 190.344C967.809 190.094 968.102 189.969 968.461 189.969C968.75 189.969 968.992 190.051 969.188 190.215C969.383 190.371 969.535 190.645 969.645 191.035C970.012 191.348 970.453 191.586 970.969 191.75C971.484 191.906 972.078 191.984 972.75 191.984C973.852 191.984 974.707 191.812 975.316 191.469C975.605 191.297 975.75 191.117 975.75 190.93C975.75 190.617 975.543 190.359 975.129 190.156C974.715 189.953 973.859 189.781 972.562 189.641C970.633 189.438 969.344 189.047 968.695 188.469C968.047 187.898 967.723 187.195 967.723 186.359C967.723 185.5 968.086 184.785 968.812 184.215C969.797 183.434 971.086 183.043 972.68 183.043C973.234 183.043 973.766 183.098 974.273 183.207C974.789 183.309 975.281 183.469 975.75 183.688C975.898 183.578 976.035 183.496 976.16 183.441C976.293 183.387 976.414 183.359 976.523 183.359C976.852 183.359 977.125 183.484 977.344 183.734C977.562 183.977 977.672 184.387 977.672 184.965V185.551C977.672 186.074 977.609 186.43 977.484 186.617C977.234 186.977 976.895 187.156 976.465 187.156C976.176 187.156 975.922 187.066 975.703 186.887C975.484 186.707 975.344 186.469 975.281 186.172ZM987.961 178.801V181.344H985.102V178.801H987.961ZM988.289 183.359V191.598H991.172C991.75 191.598 992.16 191.711 992.402 191.938C992.652 192.156 992.777 192.445 992.777 192.805C992.777 193.156 992.652 193.445 992.402 193.672C992.16 193.891 991.75 194 991.172 194H983.004C982.426 194 982.012 193.891 981.762 193.672C981.52 193.445 981.398 193.152 981.398 192.793C981.398 192.441 981.52 192.156 981.762 191.938C982.012 191.711 982.426 191.598 983.004 191.598H985.887V185.762H983.953C983.383 185.762 982.973 185.652 982.723 185.434C982.473 185.207 982.348 184.914 982.348 184.555C982.348 184.203 982.469 183.918 982.711 183.699C982.961 183.473 983.375 183.359 983.953 183.359H988.289ZM1007.75 188.879C1007.75 189.801 1007.5 190.695 1006.98 191.562C1006.47 192.422 1005.71 193.109 1004.7 193.625C1003.69 194.133 1002.63 194.387 1001.53 194.387C1000.44 194.387 999.391 194.137 998.391 193.637C997.391 193.129 996.629 192.441 996.105 191.574C995.582 190.707 995.32 189.801 995.32 188.855C995.32 187.895 995.586 186.953 996.117 186.031C996.648 185.102 997.41 184.371 998.402 183.84C999.402 183.309 1000.45 183.043 1001.53 183.043C1002.62 183.043 1003.68 183.316 1004.68 183.863C1005.7 184.402 1006.46 185.133 1006.98 186.055C1007.5 186.969 1007.75 187.91 1007.75 188.879ZM1005.35 188.891C1005.35 188.117 1005.07 187.406 1004.52 186.758C1003.76 185.883 1002.77 185.445 1001.53 185.445C1000.45 185.445 999.539 185.793 998.812 186.488C998.086 187.184 997.723 187.988 997.723 188.902C997.723 189.652 998.09 190.355 998.824 191.012C999.559 191.66 1000.46 191.984 1001.53 191.984C1002.61 191.984 1003.52 191.66 1004.25 191.012C1004.98 190.355 1005.35 189.648 1005.35 188.891ZM1013.5 183.359V184.168C1013.93 183.793 1014.41 183.512 1014.94 183.324C1015.47 183.137 1016.04 183.043 1016.66 183.043C1018.08 183.043 1019.21 183.484 1020.04 184.367C1020.69 185.07 1021.02 185.992 1021.02 187.133V191.598C1021.53 191.598 1021.9 191.711 1022.14 191.938C1022.39 192.156 1022.51 192.445 1022.51 192.805C1022.51 193.156 1022.38 193.445 1022.13 193.672C1021.89 193.891 1021.48 194 1020.9 194H1018.73C1018.16 194 1017.74 193.891 1017.49 193.672C1017.25 193.445 1017.13 193.152 1017.13 192.793C1017.13 192.441 1017.25 192.156 1017.49 191.938C1017.73 191.711 1018.11 191.598 1018.62 191.598V187.062C1018.62 186.539 1018.48 186.156 1018.2 185.914C1017.83 185.602 1017.28 185.445 1016.54 185.445C1015.99 185.445 1015.5 185.555 1015.08 185.773C1014.66 185.984 1014.14 186.438 1013.5 187.133V191.598C1014.11 191.598 1014.51 191.656 1014.69 191.773C1015.07 192.008 1015.27 192.352 1015.27 192.805C1015.27 193.156 1015.14 193.445 1014.89 193.672C1014.65 193.891 1014.24 194 1013.66 194H1010.93C1010.35 194 1009.94 193.891 1009.69 193.672C1009.45 193.445 1009.32 193.152 1009.32 192.793C1009.32 192.355 1009.51 192.016 1009.89 191.773C1010.07 191.656 1010.48 191.598 1011.09 191.598V185.762C1010.59 185.762 1010.21 185.648 1009.97 185.422C1009.73 185.195 1009.61 184.906 1009.61 184.555C1009.61 184.203 1009.73 183.918 1009.97 183.699C1010.22 183.473 1010.63 183.359 1011.21 183.359H1013.5ZM1032.94 186.172C1032.55 185.93 1032.14 185.75 1031.71 185.633C1031.28 185.508 1030.83 185.445 1030.36 185.445C1029.43 185.445 1028.69 185.598 1028.14 185.902C1027.9 186.035 1027.78 186.18 1027.78 186.336C1027.78 186.516 1027.95 186.691 1028.27 186.863C1028.52 186.988 1029.08 187.109 1029.95 187.227C1031.54 187.445 1032.65 187.664 1033.28 187.883C1034.1 188.172 1034.73 188.602 1035.18 189.172C1035.62 189.742 1035.84 190.344 1035.84 190.977C1035.84 191.836 1035.46 192.555 1034.71 193.133C1033.62 193.969 1032.21 194.387 1030.48 194.387C1029.78 194.387 1029.14 194.324 1028.54 194.199C1027.96 194.082 1027.42 193.906 1026.93 193.672C1026.81 193.773 1026.68 193.852 1026.55 193.906C1026.42 193.961 1026.28 193.988 1026.14 193.988C1025.77 193.988 1025.46 193.867 1025.24 193.625C1025.02 193.375 1024.91 192.961 1024.91 192.383V191.574C1024.91 190.996 1025.02 190.586 1025.24 190.344C1025.46 190.094 1025.76 189.969 1026.12 189.969C1026.41 189.969 1026.65 190.051 1026.84 190.215C1027.04 190.371 1027.19 190.645 1027.3 191.035C1027.67 191.348 1028.11 191.586 1028.62 191.75C1029.14 191.906 1029.73 191.984 1030.41 191.984C1031.51 191.984 1032.36 191.812 1032.97 191.469C1033.26 191.297 1033.41 191.117 1033.41 190.93C1033.41 190.617 1033.2 190.359 1032.79 190.156C1032.37 189.953 1031.52 189.781 1030.22 189.641C1028.29 189.438 1027 189.047 1026.35 188.469C1025.7 187.898 1025.38 187.195 1025.38 186.359C1025.38 185.5 1025.74 184.785 1026.47 184.215C1027.45 183.434 1028.74 183.043 1030.34 183.043C1030.89 183.043 1031.42 183.098 1031.93 183.207C1032.45 183.309 1032.94 183.469 1033.41 183.688C1033.55 183.578 1033.69 183.496 1033.82 183.441C1033.95 183.387 1034.07 183.359 1034.18 183.359C1034.51 183.359 1034.78 183.484 1035 183.734C1035.22 183.977 1035.33 184.387 1035.33 184.965V185.551C1035.33 186.074 1035.27 186.43 1035.14 186.617C1034.89 186.977 1034.55 187.156 1034.12 187.156C1033.83 187.156 1033.58 187.066 1033.36 186.887C1033.14 186.707 1033 186.469 1032.94 186.172ZM1062.94 180.406C1063.09 180.203 1063.25 180.051 1063.42 179.949C1063.6 179.848 1063.79 179.797 1063.99 179.797C1064.34 179.797 1064.63 179.918 1064.85 180.16C1065.07 180.402 1065.19 180.812 1065.19 181.391V183.43C1065.19 184.008 1065.07 184.422 1064.85 184.672C1064.63 184.914 1064.34 185.035 1063.99 185.035C1063.67 185.035 1063.41 184.945 1063.22 184.766C1063.02 184.586 1062.88 184.25 1062.79 183.758C1062.73 183.43 1062.62 183.176 1062.46 182.996C1062.14 182.645 1061.69 182.363 1061.11 182.152C1060.54 181.941 1059.96 181.836 1059.39 181.836C1058.67 181.836 1058.01 181.992 1057.41 182.305C1056.8 182.617 1056.27 183.125 1055.81 183.828C1055.35 184.531 1055.12 185.367 1055.12 186.336V187.895C1055.12 189.051 1055.54 190.016 1056.38 190.789C1057.22 191.562 1058.39 191.949 1059.88 191.949C1060.77 191.949 1061.52 191.828 1062.14 191.586C1062.5 191.445 1062.88 191.168 1063.29 190.754C1063.54 190.504 1063.73 190.344 1063.88 190.273C1064.02 190.195 1064.18 190.156 1064.36 190.156C1064.68 190.156 1064.96 190.277 1065.2 190.52C1065.44 190.762 1065.56 191.047 1065.56 191.375C1065.56 191.703 1065.4 192.055 1065.07 192.43C1064.59 192.977 1063.98 193.406 1063.23 193.719C1062.22 194.141 1061.11 194.352 1059.89 194.352C1058.47 194.352 1057.19 194.059 1056.05 193.473C1055.12 193.004 1054.34 192.266 1053.69 191.258C1053.04 190.242 1052.72 189.137 1052.72 187.941V186.312C1052.72 185.062 1053.01 183.898 1053.59 182.82C1054.17 181.734 1054.98 180.898 1056.01 180.312C1057.04 179.727 1058.14 179.434 1059.29 179.434C1059.99 179.434 1060.64 179.516 1061.24 179.68C1061.85 179.836 1062.41 180.078 1062.94 180.406ZM1072.58 182.199V191.598H1077.76V189.324C1077.76 188.746 1077.87 188.336 1078.09 188.094C1078.32 187.844 1078.61 187.719 1078.97 187.719C1079.32 187.719 1079.61 187.844 1079.82 188.094C1080.05 188.336 1080.16 188.746 1080.16 189.324V194H1068.79C1068.21 194 1067.79 193.891 1067.54 193.672C1067.3 193.445 1067.18 193.152 1067.18 192.793C1067.18 192.441 1067.3 192.156 1067.54 191.938C1067.79 191.711 1068.21 191.598 1068.79 191.598H1070.18V182.199H1068.79C1068.21 182.199 1067.79 182.09 1067.54 181.871C1067.3 181.645 1067.18 181.352 1067.18 180.992C1067.18 180.633 1067.3 180.344 1067.54 180.125C1067.79 179.898 1068.21 179.785 1068.79 179.785L1073.99 179.797C1074.57 179.797 1074.98 179.906 1075.22 180.125C1075.47 180.344 1075.59 180.633 1075.59 180.992C1075.59 181.352 1075.47 181.645 1075.22 181.871C1074.98 182.09 1074.57 182.199 1073.99 182.199H1072.58ZM1094.74 186.898C1094.74 189.031 1094.06 190.809 1092.7 192.23C1091.35 193.645 1089.79 194.352 1088 194.352C1086.4 194.352 1084.96 193.762 1083.67 192.582C1082.07 191.121 1081.28 189.227 1081.28 186.898C1081.28 184.57 1082.07 182.672 1083.67 181.203C1084.96 180.023 1086.4 179.434 1088 179.434C1089.79 179.434 1091.35 180.145 1092.7 181.566C1094.06 182.98 1094.74 184.758 1094.74 186.898ZM1092.34 186.898C1092.34 185.438 1091.9 184.23 1091.02 183.277C1090.13 182.316 1089.13 181.836 1088 181.836C1086.89 181.836 1085.89 182.316 1085 183.277C1084.12 184.238 1083.68 185.445 1083.68 186.898C1083.68 188.352 1084.12 189.559 1085 190.52C1085.89 191.473 1086.89 191.949 1088 191.949C1089.13 191.949 1090.13 191.473 1091.02 190.52C1091.9 189.566 1092.34 188.359 1092.34 186.898ZM1098.9 193.391C1098.69 193.641 1098.52 193.801 1098.39 193.871C1098.26 193.941 1098.11 193.977 1097.92 193.977C1097.55 193.977 1097.25 193.855 1097.03 193.613C1096.81 193.363 1096.7 192.953 1096.7 192.383V190.766C1096.7 190.188 1096.81 189.777 1097.03 189.535C1097.25 189.285 1097.55 189.16 1097.92 189.16C1098.2 189.16 1098.43 189.234 1098.62 189.383C1098.82 189.531 1098.96 189.781 1099.07 190.133C1099.17 190.477 1099.27 190.711 1099.38 190.836C1099.61 191.078 1100.01 191.324 1100.59 191.574C1101.17 191.824 1101.8 191.949 1102.49 191.949C1103.56 191.949 1104.44 191.699 1105.12 191.199C1105.56 190.895 1105.78 190.52 1105.78 190.074C1105.78 189.777 1105.68 189.5 1105.46 189.242C1105.25 188.977 1104.91 188.758 1104.43 188.586C1104.12 188.469 1103.42 188.309 1102.34 188.105C1101.02 187.863 1100.03 187.57 1099.36 187.227C1098.69 186.883 1098.16 186.398 1097.77 185.773C1097.38 185.148 1097.18 184.473 1097.18 183.746C1097.18 182.598 1097.66 181.594 1098.62 180.734C1099.58 179.867 1100.83 179.434 1102.37 179.434C1102.99 179.434 1103.56 179.504 1104.08 179.645C1104.61 179.777 1105.09 179.984 1105.52 180.266C1105.84 179.961 1106.15 179.809 1106.46 179.809C1106.81 179.809 1107.1 179.934 1107.32 180.184C1107.54 180.426 1107.66 180.832 1107.66 181.402V183.207C1107.66 183.785 1107.54 184.199 1107.32 184.449C1107.1 184.691 1106.81 184.812 1106.46 184.812C1106.16 184.812 1105.91 184.723 1105.69 184.543C1105.52 184.41 1105.39 184.145 1105.3 183.746C1105.21 183.348 1105.11 183.062 1104.97 182.891C1104.75 182.594 1104.41 182.344 1103.95 182.141C1103.5 181.938 1102.98 181.836 1102.38 181.836C1101.52 181.836 1100.83 182.039 1100.32 182.445C1099.82 182.844 1099.57 183.262 1099.57 183.699C1099.57 183.996 1099.67 184.285 1099.88 184.566C1100.09 184.84 1100.39 185.055 1100.79 185.211C1101.05 185.32 1101.8 185.496 1103.03 185.738C1104.26 185.98 1105.21 186.246 1105.86 186.535C1106.53 186.824 1107.08 187.277 1107.52 187.895C1107.95 188.512 1108.17 189.246 1108.17 190.098C1108.17 191.285 1107.75 192.234 1106.92 192.945C1105.81 193.883 1104.39 194.352 1102.68 194.352C1102.01 194.352 1101.36 194.27 1100.73 194.105C1100.11 193.949 1099.5 193.711 1098.9 193.391ZM1114.36 188.07V191.598H1120.49V190.297C1120.49 189.719 1120.6 189.309 1120.82 189.066C1121.04 188.816 1121.34 188.691 1121.7 188.691C1122.05 188.691 1122.33 188.816 1122.55 189.066C1122.78 189.309 1122.89 189.719 1122.89 190.297V194H1111.58C1111 194 1110.59 193.891 1110.34 193.672C1110.1 193.445 1109.98 193.152 1109.98 192.793C1109.98 192.441 1110.1 192.156 1110.35 191.938C1110.6 191.711 1111.01 191.598 1111.58 191.598H1111.96V182.199H1111.58C1111 182.199 1110.59 182.09 1110.34 181.871C1110.1 181.645 1109.98 181.352 1109.98 180.992C1109.98 180.633 1110.1 180.344 1110.34 180.125C1110.59 179.898 1111 179.785 1111.58 179.785L1122.36 179.797V183.453C1122.36 184.023 1122.25 184.434 1122.04 184.684C1121.82 184.926 1121.53 185.047 1121.17 185.047C1120.81 185.047 1120.52 184.926 1120.29 184.684C1120.07 184.441 1119.96 184.031 1119.96 183.453V182.199H1114.36V185.668H1116.47C1116.47 185.043 1116.53 184.641 1116.64 184.461C1116.89 184.078 1117.23 183.887 1117.68 183.887C1118.03 183.887 1118.31 184.012 1118.53 184.262C1118.76 184.504 1118.87 184.914 1118.87 185.492V188.258C1118.87 188.781 1118.81 189.133 1118.68 189.312C1118.43 189.68 1118.1 189.863 1117.68 189.863C1117.23 189.863 1116.89 189.672 1116.64 189.289C1116.53 189.109 1116.47 188.703 1116.47 188.07H1114.36Z" fill="white"/>
</svg>
