<svg width="1209" height="229" viewBox="0 0 1209 229" fill="none" xmlns="http://www.w3.org/2000/svg">
<line x1="41" y1="111.5" x2="293" y2="111.5" stroke="#00FF00" stroke-width="3"/>
<line x1="349" y1="111.5" x2="429" y2="111.5" stroke="#00FF00" stroke-width="3"/>
<line x1="489" y1="110.5" x2="761" y2="110.5" stroke="#00FF00" stroke-width="3"/>
<path d="M1193 111.958C1192.98 116.376 1196.54 119.977 1200.96 120C1205.38 120.023 1208.98 116.46 1209 112.042C1209.02 107.624 1205.46 104.023 1201.04 104C1196.62 103.977 1193.02 107.54 1193 111.958ZM819.992 111.5L1200.99 113.5L1201.01 110.5L820.008 108.5L819.992 111.5Z" fill="#00FF00"/>
<line x1="76.9898" y1="32.5" x2="223.99" y2="31.5" stroke="white" stroke-width="3"/>
<circle cx="14" cy="113" r="10.5" stroke="white" stroke-width="7"/>
<circle cx="322" cy="112" r="10.5" stroke="white" stroke-width="7"/>
<path d="M469.5 112C469.5 117.799 464.799 122.5 459 122.5C453.201 122.5 448.5 117.799 448.5 112C448.5 106.201 453.201 101.5 459 101.5C464.799 101.5 469.5 106.201 469.5 112Z" stroke="white" stroke-width="7"/>
<circle cx="14" cy="14" r="10.5" transform="matrix(1 0 0 -1 777 123)" stroke="white" stroke-width="7"/>
<line x1="2.93934" y1="106.939" x2="77.9393" y2="31.9393" stroke="white" stroke-width="3"/>
<line x1="448.932" y1="105.947" x2="520.932" y2="32.9467" stroke="white" stroke-width="3"/>
<line x1="398" y1="204.5" x2="479" y2="204.5" stroke="white" stroke-width="3"/>
<line x1="310.061" y1="115.939" x2="399.061" y2="204.939" stroke="white" stroke-width="3"/>
<line x1="867" y1="200.5" x2="1101" y2="200.5" stroke="white" stroke-width="3"/>
<line x1="779.061" y1="111.939" x2="868.061" y2="200.939" stroke="white" stroke-width="3"/>
<path d="M81.8281 17.5977V8.19922C81.3203 8.19141 80.9453 8.07812 80.7031 7.85938C80.4609 7.63281 80.3398 7.34375 80.3398 6.99219C80.3398 6.63281 80.4609 6.34375 80.7031 6.125C80.9531 5.89844 81.3672 5.78516 81.9453 5.78516L86.9727 5.79688C87.7539 5.79688 88.5156 5.94141 89.2578 6.23047C90.0078 6.51953 90.6094 6.88672 91.0625 7.33203C91.4062 7.66797 91.7617 8.12891 92.1289 8.71484C92.5039 9.30078 92.7852 9.88281 92.9727 10.4609C93.1602 11.0391 93.2539 11.7461 93.2539 12.582V13.7305C93.2539 14.7461 93.082 15.6484 92.7383 16.4375C92.3945 17.2188 91.9414 17.8594 91.3789 18.3594C90.8242 18.8516 90.3008 19.2148 89.8086 19.4492C89.0273 19.8164 88.0156 20 86.7734 20H81.9453C81.3672 20 80.9531 19.8906 80.7031 19.6719C80.4609 19.4453 80.3398 19.1523 80.3398 18.793C80.3398 18.4414 80.4609 18.1523 80.7031 17.9258C80.9531 17.6992 81.3281 17.5898 81.8281 17.5977ZM84.2305 17.5977H86.7852C87.7383 17.5977 88.457 17.4609 88.9414 17.1875C89.5742 16.8281 90.0508 16.3711 90.3711 15.8164C90.6914 15.2617 90.8516 14.543 90.8516 13.6602V12.5234C90.8516 11.7656 90.707 11.1016 90.418 10.5312C89.9648 9.64062 89.4531 9.03125 88.8828 8.70312C88.3203 8.36719 87.6133 8.19922 86.7617 8.19922H84.2305V17.5977ZM103.777 20V19.4375C103.176 19.7578 102.512 19.9961 101.785 20.1523C101.059 20.3164 100.398 20.3984 99.8047 20.3984C98.5156 20.3984 97.4688 20.0586 96.6641 19.3789C95.8594 18.6914 95.457 17.9336 95.457 17.1055C95.457 16.0977 95.9688 15.1641 96.9922 14.3047C98.0234 13.4375 99.4453 13.0039 101.258 13.0039C101.984 13.0039 102.824 13.082 103.777 13.2383V12.6641C103.777 12.3047 103.621 12.0117 103.309 11.7852C103.004 11.5586 102.418 11.4453 101.551 11.4453C100.84 11.4453 99.918 11.5859 98.7852 11.8672C98.3633 11.9688 98.0352 12.0195 97.8008 12.0195C97.4805 12.0195 97.207 11.9062 96.9805 11.6797C96.7617 11.4453 96.6523 11.1484 96.6523 10.7891C96.6523 10.5859 96.6914 10.4102 96.7695 10.2617C96.8477 10.1133 96.957 9.99609 97.0977 9.91016C97.2383 9.81641 97.5312 9.70703 97.9766 9.58203C98.5703 9.41797 99.1758 9.28906 99.793 9.19531C100.41 9.09375 100.969 9.04297 101.469 9.04297C102.961 9.04297 104.117 9.36719 104.938 10.0156C105.766 10.6562 106.18 11.5352 106.18 12.6523V17.5977H106.59C107.168 17.5977 107.578 17.7109 107.82 17.9375C108.07 18.1562 108.195 18.4453 108.195 18.8047C108.195 19.1562 108.07 19.4453 107.82 19.6719C107.578 19.8906 107.168 20 106.59 20H103.777ZM103.777 15.6992C102.816 15.5117 101.93 15.418 101.117 15.418C100.141 15.418 99.3008 15.6562 98.5977 16.1328C98.1602 16.4375 97.9414 16.7461 97.9414 17.0586C97.9414 17.2852 98.0469 17.4688 98.2578 17.6094C98.6484 17.8672 99.1836 17.9961 99.8633 17.9961C100.441 17.9961 101.094 17.8828 101.82 17.6562C102.555 17.4297 103.207 17.1211 103.777 16.7305V15.6992ZM114.688 19.918L110.527 11.7617C110.137 11.7148 109.84 11.582 109.637 11.3633C109.434 11.1445 109.332 10.8789 109.332 10.5664C109.332 10.207 109.453 9.91797 109.695 9.69922C109.945 9.47266 110.359 9.35938 110.938 9.35938H113.129C113.707 9.35938 114.117 9.47266 114.359 9.69922C114.609 9.91797 114.734 10.207 114.734 10.5664C114.734 10.918 114.609 11.207 114.359 11.4336C114.117 11.6523 113.73 11.7617 113.199 11.7617L116.035 17.2812L118.848 11.7617C118.332 11.7617 117.949 11.6523 117.699 11.4336C117.457 11.207 117.336 10.9141 117.336 10.5547C117.336 10.2031 117.457 9.91797 117.699 9.69922C117.949 9.47266 118.363 9.35938 118.941 9.35938H121.203C121.773 9.35938 122.18 9.47266 122.422 9.69922C122.672 9.91797 122.797 10.207 122.797 10.5664C122.797 10.8867 122.691 11.1602 122.48 11.3867C122.27 11.6055 121.957 11.7305 121.543 11.7617L116.035 22.6133C116.637 22.6133 117.031 22.6719 117.219 22.7891C117.594 23.0312 117.781 23.375 117.781 23.8203C117.781 24.1719 117.656 24.457 117.406 24.6758C117.164 24.9023 116.754 25.0156 116.176 25.0156H110.938C110.359 25.0156 109.945 24.9023 109.695 24.6758C109.453 24.457 109.332 24.1719 109.332 23.8203C109.332 23.4609 109.453 23.168 109.695 22.9414C109.945 22.7227 110.359 22.6133 110.938 22.6133H113.328L114.688 19.918ZM139.953 17.5977V8.19922H139.578C139 8.19922 138.586 8.08984 138.336 7.87109C138.094 7.64453 137.973 7.35156 137.973 6.99219C137.973 6.63281 138.094 6.34375 138.336 6.125C138.586 5.89844 139 5.78516 139.578 5.78516H145.602C147.039 5.78516 148.195 6.1875 149.07 6.99219C149.945 7.78906 150.383 8.73828 150.383 9.83984C150.383 10.3633 150.281 10.8555 150.078 11.3164C149.875 11.7773 149.566 12.2031 149.152 12.5938C149.91 13.0469 150.477 13.5781 150.852 14.1875C151.234 14.7891 151.426 15.4727 151.426 16.2383C151.426 16.8477 151.289 17.4141 151.016 17.9375C150.812 18.3359 150.562 18.6523 150.266 18.8867C149.867 19.2148 149.379 19.4844 148.801 19.6953C148.223 19.8984 147.5 20 146.633 20H139.578C139 20 138.586 19.8906 138.336 19.6719C138.094 19.4453 137.973 19.1523 137.973 18.793C137.973 18.4414 138.098 18.1562 138.348 17.9375C138.598 17.7109 139.008 17.5977 139.578 17.5977H139.953ZM142.355 11.6914H144.992C145.938 11.6914 146.723 11.4531 147.348 10.9766C147.77 10.6562 147.98 10.2578 147.98 9.78125C147.98 9.35938 147.781 8.99219 147.383 8.67969C146.984 8.35938 146.352 8.19922 145.484 8.19922H142.355V11.6914ZM142.355 17.5977H146.504C147.48 17.5977 148.168 17.4531 148.566 17.1641C148.871 16.9453 149.023 16.6328 149.023 16.2266C149.023 15.7422 148.723 15.2656 148.121 14.7969C147.52 14.3281 146.656 14.0938 145.531 14.0938H142.355V17.5977ZM165.301 15.8984H155.445C155.695 16.5234 156.137 17.0273 156.77 17.4102C157.41 17.793 158.273 17.9844 159.359 17.9844C160.25 17.9844 161.434 17.793 162.91 17.4102C163.52 17.2539 163.941 17.1758 164.176 17.1758C164.496 17.1758 164.766 17.2891 164.984 17.5156C165.203 17.7422 165.312 18.0273 165.312 18.3711C165.312 18.6836 165.195 18.9492 164.961 19.168C164.648 19.457 163.887 19.7344 162.676 20C161.465 20.2578 160.301 20.3867 159.184 20.3867C157.262 20.3867 155.723 19.8438 154.566 18.7578C153.418 17.6719 152.844 16.3359 152.844 14.75C152.844 13.0625 153.465 11.6914 154.707 10.6367C155.957 9.57422 157.395 9.04297 159.02 9.04297C159.996 9.04297 160.891 9.21484 161.703 9.55859C162.523 9.90234 163.133 10.2734 163.531 10.6719C164.094 11.25 164.559 11.9648 164.926 12.8164C165.176 13.4102 165.301 14.0977 165.301 14.8789V15.8984ZM162.641 13.4961C162.273 12.8086 161.793 12.2969 161.199 11.9609C160.605 11.6172 159.898 11.4453 159.078 11.4453C158.266 11.4453 157.562 11.6172 156.969 11.9609C156.375 12.2969 155.891 12.8086 155.516 13.4961H162.641ZM176.328 10.0742V9.35938H179.141C179.719 9.35938 180.129 9.47266 180.371 9.69922C180.621 9.91797 180.746 10.207 180.746 10.5664C180.746 10.918 180.621 11.207 180.371 11.4336C180.129 11.6523 179.719 11.7617 179.141 11.7617H178.73V20.5039C178.73 21.3477 178.551 22.082 178.191 22.707C177.84 23.3398 177.297 23.8828 176.562 24.3359C175.828 24.7891 175 25.0156 174.078 25.0156H171.359C170.781 25.0156 170.367 24.9023 170.117 24.6758C169.875 24.457 169.754 24.1719 169.754 23.8203C169.754 23.4609 169.875 23.168 170.117 22.9414C170.367 22.7227 170.781 22.6133 171.359 22.6133H174.008C174.742 22.6133 175.312 22.4141 175.719 22.0156C176.125 21.6172 176.328 21.1133 176.328 20.5039V19.332C175.797 19.6758 175.254 19.9336 174.699 20.1055C174.152 20.2773 173.59 20.3633 173.012 20.3633C171.379 20.3633 170.012 19.8203 168.91 18.7344C167.809 17.6406 167.258 16.293 167.258 14.6914C167.258 13.082 167.809 11.7344 168.91 10.6484C170.012 9.55469 171.379 9.00781 173.012 9.00781C173.621 9.00781 174.199 9.09766 174.746 9.27734C175.301 9.44922 175.828 9.71484 176.328 10.0742ZM176.316 14.6797C176.316 13.7969 175.988 13.0312 175.332 12.3828C174.684 11.7344 173.902 11.4102 172.988 11.4102C172.074 11.4102 171.289 11.7344 170.633 12.3828C169.984 13.0312 169.66 13.7969 169.66 14.6797C169.66 15.5703 169.984 16.3398 170.633 16.9883C171.289 17.6289 172.074 17.9492 172.988 17.9492C173.902 17.9492 174.684 17.6289 175.332 16.9883C175.988 16.3398 176.316 15.5703 176.316 14.6797ZM188.961 4.80078V7.34375H186.102V4.80078H188.961ZM189.289 9.35938V17.5977H192.172C192.75 17.5977 193.16 17.7109 193.402 17.9375C193.652 18.1562 193.777 18.4453 193.777 18.8047C193.777 19.1562 193.652 19.4453 193.402 19.6719C193.16 19.8906 192.75 20 192.172 20H184.004C183.426 20 183.012 19.8906 182.762 19.6719C182.52 19.4453 182.398 19.1523 182.398 18.793C182.398 18.4414 182.52 18.1562 182.762 17.9375C183.012 17.7109 183.426 17.5977 184.004 17.5977H186.887V11.7617H184.953C184.383 11.7617 183.973 11.6523 183.723 11.4336C183.473 11.207 183.348 10.9141 183.348 10.5547C183.348 10.2031 183.469 9.91797 183.711 9.69922C183.961 9.47266 184.375 9.35938 184.953 9.35938H189.289ZM200.082 9.35938V10.168C200.52 9.79297 201 9.51172 201.523 9.32422C202.055 9.13672 202.629 9.04297 203.246 9.04297C204.668 9.04297 205.793 9.48438 206.621 10.3672C207.277 11.0703 207.605 11.9922 207.605 13.1328V17.5977C208.113 17.5977 208.488 17.7109 208.73 17.9375C208.973 18.1562 209.094 18.4453 209.094 18.8047C209.094 19.1562 208.969 19.4453 208.719 19.6719C208.477 19.8906 208.066 20 207.488 20H205.32C204.742 20 204.328 19.8906 204.078 19.6719C203.836 19.4453 203.715 19.1523 203.715 18.793C203.715 18.4414 203.836 18.1562 204.078 17.9375C204.32 17.7109 204.695 17.5977 205.203 17.5977V13.0625C205.203 12.5391 205.062 12.1562 204.781 11.9141C204.414 11.6016 203.863 11.4453 203.129 11.4453C202.574 11.4453 202.086 11.5547 201.664 11.7734C201.25 11.9844 200.723 12.4375 200.082 13.1328V17.5977C200.699 17.5977 201.098 17.6562 201.277 17.7734C201.66 18.0078 201.852 18.3516 201.852 18.8047C201.852 19.1562 201.727 19.4453 201.477 19.6719C201.234 19.8906 200.824 20 200.246 20H197.516C196.938 20 196.523 19.8906 196.273 19.6719C196.031 19.4453 195.91 19.1523 195.91 18.793C195.91 18.3555 196.098 18.0156 196.473 17.7734C196.66 17.6562 197.062 17.5977 197.68 17.5977V11.7617C197.172 11.7617 196.797 11.6484 196.555 11.4219C196.312 11.1953 196.191 10.9062 196.191 10.5547C196.191 10.2031 196.312 9.91797 196.555 9.69922C196.805 9.47266 197.219 9.35938 197.797 9.35938H200.082ZM219.523 12.1719C219.133 11.9297 218.723 11.75 218.293 11.6328C217.863 11.5078 217.414 11.4453 216.945 11.4453C216.016 11.4453 215.277 11.5977 214.73 11.9023C214.488 12.0352 214.367 12.1797 214.367 12.3359C214.367 12.5156 214.531 12.6914 214.859 12.8633C215.109 12.9883 215.668 13.1094 216.535 13.2266C218.129 13.4453 219.238 13.6641 219.863 13.8828C220.684 14.1719 221.316 14.6016 221.762 15.1719C222.207 15.7422 222.43 16.3438 222.43 16.9766C222.43 17.8359 222.051 18.5547 221.293 19.1328C220.207 19.9688 218.797 20.3867 217.062 20.3867C216.367 20.3867 215.723 20.3242 215.129 20.1992C214.543 20.082 214.004 19.9062 213.512 19.6719C213.395 19.7734 213.27 19.8516 213.137 19.9062C213.004 19.9609 212.867 19.9883 212.727 19.9883C212.352 19.9883 212.051 19.8672 211.824 19.625C211.605 19.375 211.496 18.9609 211.496 18.3828V17.5742C211.496 16.9961 211.605 16.5859 211.824 16.3438C212.051 16.0938 212.344 15.9688 212.703 15.9688C212.992 15.9688 213.234 16.0508 213.43 16.2148C213.625 16.3711 213.777 16.6445 213.887 17.0352C214.254 17.3477 214.695 17.5859 215.211 17.75C215.727 17.9062 216.32 17.9844 216.992 17.9844C218.094 17.9844 218.949 17.8125 219.559 17.4688C219.848 17.2969 219.992 17.1172 219.992 16.9297C219.992 16.6172 219.785 16.3594 219.371 16.1562C218.957 15.9531 218.102 15.7812 216.805 15.6406C214.875 15.4375 213.586 15.0469 212.938 14.4688C212.289 13.8984 211.965 13.1953 211.965 12.3594C211.965 11.5 212.328 10.7852 213.055 10.2148C214.039 9.43359 215.328 9.04297 216.922 9.04297C217.477 9.04297 218.008 9.09766 218.516 9.20703C219.031 9.30859 219.523 9.46875 219.992 9.6875C220.141 9.57812 220.277 9.49609 220.402 9.44141C220.535 9.38672 220.656 9.35938 220.766 9.35938C221.094 9.35938 221.367 9.48438 221.586 9.73438C221.805 9.97656 221.914 10.3867 221.914 10.9648V11.5508C221.914 12.0742 221.852 12.4297 221.727 12.6172C221.477 12.9766 221.137 13.1562 220.707 13.1562C220.418 13.1562 220.164 13.0664 219.945 12.8867C219.727 12.707 219.586 12.4688 219.523 12.1719Z" fill="white"/>
<path d="M408.199 181.199V190.598H413.379V188.324C413.379 187.746 413.488 187.336 413.707 187.094C413.934 186.844 414.227 186.719 414.586 186.719C414.938 186.719 415.223 186.844 415.441 187.094C415.668 187.336 415.781 187.746 415.781 188.324V193H404.402C403.824 193 403.41 192.891 403.16 192.672C402.918 192.445 402.797 192.152 402.797 191.793C402.797 191.441 402.918 191.156 403.16 190.938C403.41 190.711 403.824 190.598 404.402 190.598H405.797V181.199H404.402C403.824 181.199 403.41 181.09 403.16 180.871C402.918 180.645 402.797 180.352 402.797 179.992C402.797 179.633 402.918 179.344 403.16 179.125C403.41 178.898 403.824 178.785 404.402 178.785L409.605 178.797C410.184 178.797 410.594 178.906 410.836 179.125C411.086 179.344 411.211 179.633 411.211 179.992C411.211 180.352 411.086 180.645 410.836 180.871C410.594 181.09 410.184 181.199 409.605 181.199H408.199ZM428.719 182.359V190.598C429.227 190.598 429.602 190.711 429.844 190.938C430.086 191.164 430.207 191.453 430.207 191.805C430.207 192.156 430.082 192.445 429.832 192.672C429.59 192.891 429.18 193 428.602 193H426.316V192.449C425.629 192.762 424.973 192.996 424.348 193.152C423.723 193.309 423.129 193.387 422.566 193.387C421.777 193.387 421.094 193.223 420.516 192.895C419.938 192.559 419.48 192.098 419.145 191.512C418.902 191.09 418.781 190.562 418.781 189.93V184.762H418.371C417.793 184.762 417.379 184.652 417.129 184.434C416.887 184.207 416.766 183.914 416.766 183.555C416.766 183.203 416.887 182.918 417.129 182.699C417.379 182.473 417.793 182.359 418.371 182.359H421.184V189.508C421.184 190.016 421.305 190.391 421.547 190.633C421.797 190.867 422.176 190.984 422.684 190.984C423.168 190.984 423.688 190.891 424.242 190.703C424.805 190.508 425.496 190.16 426.316 189.66V184.762H425.449C424.871 184.762 424.457 184.652 424.207 184.434C423.965 184.207 423.844 183.914 423.844 183.555C423.844 183.203 423.965 182.918 424.207 182.699C424.457 182.473 424.871 182.359 425.449 182.359H428.719ZM435.598 182.359V183.168C436.035 182.793 436.516 182.512 437.039 182.324C437.57 182.137 438.145 182.043 438.762 182.043C440.184 182.043 441.309 182.484 442.137 183.367C442.793 184.07 443.121 184.992 443.121 186.133V190.598C443.629 190.598 444.004 190.711 444.246 190.938C444.488 191.156 444.609 191.445 444.609 191.805C444.609 192.156 444.484 192.445 444.234 192.672C443.992 192.891 443.582 193 443.004 193H440.836C440.258 193 439.844 192.891 439.594 192.672C439.352 192.445 439.23 192.152 439.23 191.793C439.23 191.441 439.352 191.156 439.594 190.938C439.836 190.711 440.211 190.598 440.719 190.598V186.062C440.719 185.539 440.578 185.156 440.297 184.914C439.93 184.602 439.379 184.445 438.645 184.445C438.09 184.445 437.602 184.555 437.18 184.773C436.766 184.984 436.238 185.438 435.598 186.133V190.598C436.215 190.598 436.613 190.656 436.793 190.773C437.176 191.008 437.367 191.352 437.367 191.805C437.367 192.156 437.242 192.445 436.992 192.672C436.75 192.891 436.34 193 435.762 193H433.031C432.453 193 432.039 192.891 431.789 192.672C431.547 192.445 431.426 192.152 431.426 191.793C431.426 191.355 431.613 191.016 431.988 190.773C432.176 190.656 432.578 190.598 433.195 190.598V184.762C432.688 184.762 432.312 184.648 432.07 184.422C431.828 184.195 431.707 183.906 431.707 183.555C431.707 183.203 431.828 182.918 432.07 182.699C432.32 182.473 432.734 182.359 433.312 182.359H435.598ZM456.188 182.793C456.477 182.52 456.773 182.383 457.078 182.383C457.422 182.383 457.703 182.508 457.922 182.758C458.148 183 458.262 183.406 458.262 183.977V185.523C458.262 186.102 458.148 186.512 457.922 186.754C457.703 186.996 457.414 187.117 457.055 187.117C456.727 187.117 456.449 187.023 456.223 186.836C456.059 186.695 455.93 186.41 455.836 185.98C455.742 185.543 455.516 185.219 455.156 185.008C454.523 184.633 453.715 184.445 452.73 184.445C451.598 184.445 450.688 184.777 450 185.441C449.32 186.105 448.98 186.945 448.98 187.961C448.98 188.898 449.309 189.641 449.965 190.188C450.621 190.727 451.711 190.996 453.234 190.996C454.234 190.996 455.051 190.895 455.684 190.691C456.059 190.566 456.414 190.355 456.75 190.059C457.086 189.754 457.391 189.602 457.664 189.602C457.992 189.602 458.273 189.723 458.508 189.965C458.75 190.207 458.871 190.492 458.871 190.82C458.871 191.352 458.508 191.855 457.781 192.332C456.703 193.043 455.125 193.398 453.047 193.398C451.18 193.398 449.727 193.012 448.688 192.238C447.281 191.199 446.578 189.777 446.578 187.973C446.578 186.262 447.148 184.848 448.289 183.73C449.43 182.605 450.918 182.043 452.754 182.043C453.418 182.043 454.035 182.105 454.605 182.23C455.176 182.355 455.703 182.543 456.188 182.793ZM464.379 177.801V182.922C464.879 182.625 465.383 182.406 465.891 182.266C466.406 182.117 466.926 182.043 467.449 182.043C468.277 182.043 469.016 182.184 469.664 182.465C470.312 182.746 470.848 183.191 471.27 183.801C471.699 184.402 471.914 185.164 471.914 186.086V190.598C472.523 190.598 472.922 190.656 473.109 190.773C473.484 191.016 473.672 191.359 473.672 191.805C473.672 192.156 473.551 192.445 473.309 192.672C473.066 192.891 472.656 193 472.078 193H469.336C468.766 193 468.355 192.891 468.105 192.672C467.863 192.445 467.742 192.152 467.742 191.793C467.742 191.355 467.93 191.016 468.305 190.773C468.5 190.648 468.898 190.59 469.5 190.598V186.25C469.5 185.633 469.359 185.199 469.078 184.949C468.711 184.613 468.168 184.445 467.449 184.445C466.918 184.445 466.445 184.551 466.031 184.762C465.625 184.965 465.074 185.41 464.379 186.098V190.598C464.996 190.598 465.395 190.656 465.574 190.773C465.957 191.016 466.148 191.359 466.148 191.805C466.148 192.156 466.023 192.445 465.773 192.672C465.531 192.891 465.121 193 464.543 193H461.812C461.234 193 460.82 192.891 460.57 192.672C460.328 192.445 460.207 192.152 460.207 191.793C460.207 191.355 460.398 191.016 460.781 190.773C460.969 190.648 461.367 190.59 461.977 190.598V180.203H461.566C460.988 180.203 460.574 180.094 460.324 179.875C460.082 179.648 459.961 179.355 459.961 178.996C459.961 178.645 460.082 178.359 460.324 178.141C460.574 177.914 460.988 177.801 461.566 177.801H464.379Z" fill="white"/>
<path d="M525.812 15.125V17.5977H528.238C528.816 17.5977 529.227 17.7109 529.469 17.9375C529.719 18.1562 529.844 18.4453 529.844 18.8047C529.844 19.1562 529.719 19.4453 529.469 19.6719C529.227 19.8906 528.816 20 528.238 20H523.035C522.457 20 522.043 19.8906 521.793 19.6719C521.551 19.4453 521.43 19.1523 521.43 18.793C521.43 18.4414 521.555 18.1562 521.805 17.9375C522.055 17.7109 522.465 17.5977 523.035 17.5977H523.41V8.19922H523.035C522.457 8.19922 522.043 8.08984 521.793 7.87109C521.551 7.64453 521.43 7.35156 521.43 6.99219C521.43 6.63281 521.551 6.34375 521.793 6.125C522.043 5.89844 522.457 5.78516 523.035 5.78516L528.566 5.79688C530.191 5.79688 531.477 6.24219 532.422 7.13281C533.375 8.01562 533.852 9.09375 533.852 10.3672C533.852 11.0703 533.691 11.7344 533.371 12.3594C533.129 12.8281 532.723 13.293 532.152 13.7539C531.59 14.207 531.012 14.5508 530.418 14.7852C529.832 15.0117 529.055 15.125 528.086 15.125H525.812ZM525.812 12.7227H528.039C529.086 12.7227 529.914 12.4883 530.523 12.0195C531.141 11.543 531.449 10.9727 531.449 10.3086C531.449 9.74609 531.199 9.25391 530.699 8.83203C530.207 8.41016 529.5 8.19922 528.578 8.19922H525.812V12.7227ZM541.117 9.35938V10.8594C542.125 10.1328 542.918 9.64844 543.496 9.40625C544.082 9.16406 544.629 9.04297 545.137 9.04297C545.918 9.04297 546.676 9.33203 547.41 9.91016C547.91 10.3008 548.16 10.6992 548.16 11.1055C548.16 11.4492 548.039 11.7422 547.797 11.9844C547.562 12.2188 547.277 12.3359 546.941 12.3359C546.645 12.3359 546.332 12.1875 546.004 11.8906C545.676 11.5938 545.383 11.4453 545.125 11.4453C544.789 11.4453 544.285 11.6562 543.613 12.0781C542.949 12.5 542.117 13.1328 541.117 13.9766V17.5977H544.539C545.117 17.5977 545.527 17.7109 545.77 17.9375C546.02 18.1562 546.145 18.4453 546.145 18.8047C546.145 19.1562 546.02 19.4453 545.77 19.6719C545.527 19.8906 545.117 20 544.539 20H537.285C536.707 20 536.293 19.8906 536.043 19.6719C535.801 19.4453 535.68 19.1523 535.68 18.793C535.68 18.4414 535.801 18.1562 536.043 17.9375C536.293 17.7109 536.707 17.5977 537.285 17.5977H538.715V11.7617H537.848C537.27 11.7617 536.855 11.6523 536.605 11.4336C536.363 11.207 536.242 10.9141 536.242 10.5547C536.242 10.2031 536.363 9.91797 536.605 9.69922C536.855 9.47266 537.27 9.35938 537.848 9.35938H541.117ZM562.27 14.8789C562.27 15.8008 562.012 16.6953 561.496 17.5625C560.988 18.4219 560.227 19.1094 559.211 19.625C558.203 20.1328 557.148 20.3867 556.047 20.3867C554.953 20.3867 553.906 20.1367 552.906 19.6367C551.906 19.1289 551.145 18.4414 550.621 17.5742C550.098 16.707 549.836 15.8008 549.836 14.8555C549.836 13.8945 550.102 12.9531 550.633 12.0312C551.164 11.1016 551.926 10.3711 552.918 9.83984C553.918 9.30859 554.961 9.04297 556.047 9.04297C557.141 9.04297 558.191 9.31641 559.199 9.86328C560.215 10.4023 560.98 11.1328 561.496 12.0547C562.012 12.9688 562.27 13.9102 562.27 14.8789ZM559.867 14.8906C559.867 14.1172 559.59 13.4062 559.035 12.7578C558.277 11.8828 557.281 11.4453 556.047 11.4453C554.961 11.4453 554.055 11.793 553.328 12.4883C552.602 13.1836 552.238 13.9883 552.238 14.9023C552.238 15.6523 552.605 16.3555 553.34 17.0117C554.074 17.6602 554.977 17.9844 556.047 17.9844C557.125 17.9844 558.031 17.6602 558.766 17.0117C559.5 16.3555 559.867 15.6484 559.867 14.8906ZM572.863 4.80078V7.34375H569.992V4.80078H572.863ZM571.879 11.7617H566.98C566.402 11.7617 565.988 11.6523 565.738 11.4336C565.496 11.207 565.375 10.9141 565.375 10.5547C565.375 10.2031 565.496 9.91797 565.738 9.69922C565.988 9.47266 566.402 9.35938 566.98 9.35938H574.281V20.5039C574.281 21.3477 574.102 22.082 573.742 22.707C573.391 23.3398 572.848 23.8828 572.113 24.3359C571.379 24.7891 570.551 25.0156 569.629 25.0156H566.91C566.332 25.0156 565.918 24.9023 565.668 24.6758C565.426 24.457 565.305 24.1719 565.305 23.8203C565.305 23.4609 565.426 23.168 565.668 22.9414C565.918 22.7227 566.332 22.6133 566.91 22.6133H569.559C570.293 22.6133 570.863 22.4141 571.27 22.0156C571.676 21.6172 571.879 21.1133 571.879 20.5039V11.7617ZM590.887 15.8984H581.031C581.281 16.5234 581.723 17.0273 582.355 17.4102C582.996 17.793 583.859 17.9844 584.945 17.9844C585.836 17.9844 587.02 17.793 588.496 17.4102C589.105 17.2539 589.527 17.1758 589.762 17.1758C590.082 17.1758 590.352 17.2891 590.57 17.5156C590.789 17.7422 590.898 18.0273 590.898 18.3711C590.898 18.6836 590.781 18.9492 590.547 19.168C590.234 19.457 589.473 19.7344 588.262 20C587.051 20.2578 585.887 20.3867 584.77 20.3867C582.848 20.3867 581.309 19.8438 580.152 18.7578C579.004 17.6719 578.43 16.3359 578.43 14.75C578.43 13.0625 579.051 11.6914 580.293 10.6367C581.543 9.57422 582.98 9.04297 584.605 9.04297C585.582 9.04297 586.477 9.21484 587.289 9.55859C588.109 9.90234 588.719 10.2734 589.117 10.6719C589.68 11.25 590.145 11.9648 590.512 12.8164C590.762 13.4102 590.887 14.0977 590.887 14.8789V15.8984ZM588.227 13.4961C587.859 12.8086 587.379 12.2969 586.785 11.9609C586.191 11.6172 585.484 11.4453 584.664 11.4453C583.852 11.4453 583.148 11.6172 582.555 11.9609C581.961 12.2969 581.477 12.8086 581.102 13.4961H588.227ZM603.016 9.79297C603.305 9.51953 603.602 9.38281 603.906 9.38281C604.25 9.38281 604.531 9.50781 604.75 9.75781C604.977 10 605.09 10.4062 605.09 10.9766V12.5234C605.09 13.1016 604.977 13.5117 604.75 13.7539C604.531 13.9961 604.242 14.1172 603.883 14.1172C603.555 14.1172 603.277 14.0234 603.051 13.8359C602.887 13.6953 602.758 13.4102 602.664 12.9805C602.57 12.543 602.344 12.2188 601.984 12.0078C601.352 11.6328 600.543 11.4453 599.559 11.4453C598.426 11.4453 597.516 11.7773 596.828 12.4414C596.148 13.1055 595.809 13.9453 595.809 14.9609C595.809 15.8984 596.137 16.6406 596.793 17.1875C597.449 17.7266 598.539 17.9961 600.062 17.9961C601.062 17.9961 601.879 17.8945 602.512 17.6914C602.887 17.5664 603.242 17.3555 603.578 17.0586C603.914 16.7539 604.219 16.6016 604.492 16.6016C604.82 16.6016 605.102 16.7227 605.336 16.9648C605.578 17.207 605.699 17.4922 605.699 17.8203C605.699 18.3516 605.336 18.8555 604.609 19.332C603.531 20.043 601.953 20.3984 599.875 20.3984C598.008 20.3984 596.555 20.0117 595.516 19.2383C594.109 18.1992 593.406 16.7773 593.406 14.9727C593.406 13.2617 593.977 11.8477 595.117 10.7305C596.258 9.60547 597.746 9.04297 599.582 9.04297C600.246 9.04297 600.863 9.10547 601.434 9.23047C602.004 9.35547 602.531 9.54297 603.016 9.79297ZM613.094 11.7617V16.5781C613.094 17.0938 613.199 17.4336 613.41 17.5977C613.738 17.8555 614.324 17.9844 615.168 17.9844C616.395 17.9844 617.527 17.7227 618.566 17.1992C618.965 16.9961 619.277 16.8945 619.504 16.8945C619.816 16.8945 620.086 17.0117 620.312 17.2461C620.547 17.4805 620.664 17.7656 620.664 18.1016C620.664 18.4141 620.539 18.6836 620.289 18.9102C619.906 19.2773 619.148 19.6172 618.016 19.9297C616.891 20.2344 615.941 20.3867 615.168 20.3867C613.676 20.3867 612.555 20.0664 611.805 19.4258C611.062 18.7773 610.691 17.9844 610.691 17.0469V11.7617H609.824C609.246 11.7617 608.832 11.6523 608.582 11.4336C608.34 11.207 608.219 10.9141 608.219 10.5547C608.219 10.2031 608.34 9.91797 608.582 9.69922C608.832 9.47266 609.246 9.35938 609.824 9.35938H610.691V7.19141C610.691 6.61328 610.801 6.20313 611.02 5.96094C611.246 5.71094 611.539 5.58594 611.898 5.58594C612.25 5.58594 612.535 5.71094 612.754 5.96094C612.98 6.20313 613.094 6.61328 613.094 7.19141V9.35938H617.535C618.113 9.35938 618.523 9.47266 618.766 9.69922C619.016 9.91797 619.141 10.207 619.141 10.5664C619.141 10.918 619.016 11.207 618.766 11.4336C618.523 11.6523 618.113 11.7617 617.535 11.7617H613.094ZM639.004 19.3906C638.793 19.6406 638.621 19.8008 638.488 19.8711C638.363 19.9414 638.207 19.9766 638.02 19.9766C637.652 19.9766 637.355 19.8555 637.129 19.6133C636.91 19.3633 636.801 18.9531 636.801 18.3828V16.7656C636.801 16.1875 636.91 15.7773 637.129 15.5352C637.355 15.2852 637.652 15.1602 638.02 15.1602C638.301 15.1602 638.535 15.2344 638.723 15.3828C638.918 15.5312 639.066 15.7812 639.168 16.1328C639.27 16.4766 639.375 16.7109 639.484 16.8359C639.711 17.0781 640.113 17.3242 640.691 17.5742C641.27 17.8242 641.902 17.9492 642.59 17.9492C643.66 17.9492 644.539 17.6992 645.227 17.1992C645.664 16.8945 645.883 16.5195 645.883 16.0742C645.883 15.7773 645.777 15.5 645.566 15.2422C645.355 14.9766 645.012 14.7578 644.535 14.5859C644.223 14.4688 643.523 14.3086 642.438 14.1055C641.125 13.8633 640.133 13.5703 639.461 13.2266C638.789 12.8828 638.258 12.3984 637.867 11.7734C637.477 11.1484 637.281 10.4727 637.281 9.74609C637.281 8.59766 637.762 7.59375 638.723 6.73438C639.684 5.86719 640.934 5.43359 642.473 5.43359C643.09 5.43359 643.66 5.50391 644.184 5.64453C644.715 5.77734 645.195 5.98438 645.625 6.26562C645.938 5.96094 646.25 5.80859 646.562 5.80859C646.914 5.80859 647.199 5.93359 647.418 6.18359C647.645 6.42578 647.758 6.83203 647.758 7.40234V9.20703C647.758 9.78516 647.645 10.1992 647.418 10.4492C647.199 10.6914 646.914 10.8125 646.562 10.8125C646.266 10.8125 646.008 10.7227 645.789 10.543C645.617 10.4102 645.488 10.1445 645.402 9.74609C645.316 9.34766 645.207 9.0625 645.074 8.89062C644.848 8.59375 644.508 8.34375 644.055 8.14062C643.602 7.9375 643.078 7.83594 642.484 7.83594C641.617 7.83594 640.93 8.03906 640.422 8.44531C639.922 8.84375 639.672 9.26172 639.672 9.69922C639.672 9.99609 639.773 10.2852 639.977 10.5664C640.188 10.8398 640.492 11.0547 640.891 11.2109C641.156 11.3203 641.902 11.4961 643.129 11.7383C644.363 11.9805 645.309 12.2461 645.965 12.5352C646.629 12.8242 647.18 13.2773 647.617 13.8945C648.055 14.5117 648.273 15.2461 648.273 16.0977C648.273 17.2852 647.855 18.2344 647.02 18.9453C645.91 19.8828 644.496 20.3516 642.777 20.3516C642.113 20.3516 641.465 20.2695 640.832 20.1055C640.207 19.9492 639.598 19.7109 639.004 19.3906ZM654.449 4.80078V9.92188C654.949 9.625 655.453 9.40625 655.961 9.26562C656.477 9.11719 656.996 9.04297 657.52 9.04297C658.348 9.04297 659.086 9.18359 659.734 9.46484C660.383 9.74609 660.918 10.1914 661.34 10.8008C661.77 11.4023 661.984 12.1641 661.984 13.0859V17.5977C662.594 17.5977 662.992 17.6562 663.18 17.7734C663.555 18.0156 663.742 18.3594 663.742 18.8047C663.742 19.1562 663.621 19.4453 663.379 19.6719C663.137 19.8906 662.727 20 662.148 20H659.406C658.836 20 658.426 19.8906 658.176 19.6719C657.934 19.4453 657.812 19.1523 657.812 18.793C657.812 18.3555 658 18.0156 658.375 17.7734C658.57 17.6484 658.969 17.5898 659.57 17.5977V13.25C659.57 12.6328 659.43 12.1992 659.148 11.9492C658.781 11.6133 658.238 11.4453 657.52 11.4453C656.988 11.4453 656.516 11.5508 656.102 11.7617C655.695 11.9648 655.145 12.4102 654.449 13.0977V17.5977C655.066 17.5977 655.465 17.6562 655.645 17.7734C656.027 18.0156 656.219 18.3594 656.219 18.8047C656.219 19.1562 656.094 19.4453 655.844 19.6719C655.602 19.8906 655.191 20 654.613 20H651.883C651.305 20 650.891 19.8906 650.641 19.6719C650.398 19.4453 650.277 19.1523 650.277 18.793C650.277 18.3555 650.469 18.0156 650.852 17.7734C651.039 17.6484 651.438 17.5898 652.047 17.5977V7.20312H651.637C651.059 7.20312 650.645 7.09375 650.395 6.875C650.152 6.64844 650.031 6.35547 650.031 5.99609C650.031 5.64453 650.152 5.35938 650.395 5.14062C650.645 4.91406 651.059 4.80078 651.637 4.80078H654.449ZM677.582 14.8789C677.582 15.8008 677.324 16.6953 676.809 17.5625C676.301 18.4219 675.539 19.1094 674.523 19.625C673.516 20.1328 672.461 20.3867 671.359 20.3867C670.266 20.3867 669.219 20.1367 668.219 19.6367C667.219 19.1289 666.457 18.4414 665.934 17.5742C665.41 16.707 665.148 15.8008 665.148 14.8555C665.148 13.8945 665.414 12.9531 665.945 12.0312C666.477 11.1016 667.238 10.3711 668.23 9.83984C669.23 9.30859 670.273 9.04297 671.359 9.04297C672.453 9.04297 673.504 9.31641 674.512 9.86328C675.527 10.4023 676.293 11.1328 676.809 12.0547C677.324 12.9688 677.582 13.9102 677.582 14.8789ZM675.18 14.8906C675.18 14.1172 674.902 13.4062 674.348 12.7578C673.59 11.8828 672.594 11.4453 671.359 11.4453C670.273 11.4453 669.367 11.793 668.641 12.4883C667.914 13.1836 667.551 13.9883 667.551 14.9023C667.551 15.6523 667.918 16.3555 668.652 17.0117C669.387 17.6602 670.289 17.9844 671.359 17.9844C672.438 17.9844 673.344 17.6602 674.078 17.0117C674.812 16.3555 675.18 15.6484 675.18 14.8906ZM685.773 15.5703L684.109 20H681.848L679.832 11.7617C679.395 11.7383 679.062 11.6172 678.836 11.3984C678.617 11.1719 678.508 10.8906 678.508 10.5547C678.508 10.2031 678.629 9.91797 678.871 9.69922C679.121 9.47266 679.535 9.35938 680.113 9.35938H682.352C682.93 9.35938 683.34 9.47266 683.582 9.69922C683.832 9.91797 683.957 10.207 683.957 10.5664C683.957 10.9258 683.816 11.2305 683.535 11.4805C683.324 11.668 682.91 11.7617 682.293 11.7617L683.207 15.5703L684.695 11.668H686.828L688.328 15.5703L689.266 11.7617C688.672 11.7617 688.281 11.7031 688.094 11.5859C687.719 11.3438 687.531 11 687.531 10.5547C687.531 10.2031 687.652 9.91797 687.895 9.69922C688.145 9.47266 688.559 9.35938 689.137 9.35938H691.398C691.977 9.35938 692.387 9.47266 692.629 9.69922C692.879 9.91797 693.004 10.207 693.004 10.5664C693.004 10.8867 692.895 11.1602 692.676 11.3867C692.465 11.6055 692.148 11.7305 691.727 11.7617L689.758 20H687.531L685.773 15.5703ZM703.914 9.79297C704.203 9.51953 704.5 9.38281 704.805 9.38281C705.148 9.38281 705.43 9.50781 705.648 9.75781C705.875 10 705.988 10.4062 705.988 10.9766V12.5234C705.988 13.1016 705.875 13.5117 705.648 13.7539C705.43 13.9961 705.141 14.1172 704.781 14.1172C704.453 14.1172 704.176 14.0234 703.949 13.8359C703.785 13.6953 703.656 13.4102 703.562 12.9805C703.469 12.543 703.242 12.2188 702.883 12.0078C702.25 11.6328 701.441 11.4453 700.457 11.4453C699.324 11.4453 698.414 11.7773 697.727 12.4414C697.047 13.1055 696.707 13.9453 696.707 14.9609C696.707 15.8984 697.035 16.6406 697.691 17.1875C698.348 17.7266 699.438 17.9961 700.961 17.9961C701.961 17.9961 702.777 17.8945 703.41 17.6914C703.785 17.5664 704.141 17.3555 704.477 17.0586C704.812 16.7539 705.117 16.6016 705.391 16.6016C705.719 16.6016 706 16.7227 706.234 16.9648C706.477 17.207 706.598 17.4922 706.598 17.8203C706.598 18.3516 706.234 18.8555 705.508 19.332C704.43 20.043 702.852 20.3984 700.773 20.3984C698.906 20.3984 697.453 20.0117 696.414 19.2383C695.008 18.1992 694.305 16.7773 694.305 14.9727C694.305 13.2617 694.875 11.8477 696.016 10.7305C697.156 9.60547 698.645 9.04297 700.48 9.04297C701.145 9.04297 701.762 9.10547 702.332 9.23047C702.902 9.35547 703.43 9.54297 703.914 9.79297ZM716.746 20V19.4375C716.145 19.7578 715.48 19.9961 714.754 20.1523C714.027 20.3164 713.367 20.3984 712.773 20.3984C711.484 20.3984 710.438 20.0586 709.633 19.3789C708.828 18.6914 708.426 17.9336 708.426 17.1055C708.426 16.0977 708.938 15.1641 709.961 14.3047C710.992 13.4375 712.414 13.0039 714.227 13.0039C714.953 13.0039 715.793 13.082 716.746 13.2383V12.6641C716.746 12.3047 716.59 12.0117 716.277 11.7852C715.973 11.5586 715.387 11.4453 714.52 11.4453C713.809 11.4453 712.887 11.5859 711.754 11.8672C711.332 11.9688 711.004 12.0195 710.77 12.0195C710.449 12.0195 710.176 11.9062 709.949 11.6797C709.73 11.4453 709.621 11.1484 709.621 10.7891C709.621 10.5859 709.66 10.4102 709.738 10.2617C709.816 10.1133 709.926 9.99609 710.066 9.91016C710.207 9.81641 710.5 9.70703 710.945 9.58203C711.539 9.41797 712.145 9.28906 712.762 9.19531C713.379 9.09375 713.938 9.04297 714.438 9.04297C715.93 9.04297 717.086 9.36719 717.906 10.0156C718.734 10.6562 719.148 11.5352 719.148 12.6523V17.5977H719.559C720.137 17.5977 720.547 17.7109 720.789 17.9375C721.039 18.1562 721.164 18.4453 721.164 18.8047C721.164 19.1562 721.039 19.4453 720.789 19.6719C720.547 19.8906 720.137 20 719.559 20H716.746ZM716.746 15.6992C715.785 15.5117 714.898 15.418 714.086 15.418C713.109 15.418 712.27 15.6562 711.566 16.1328C711.129 16.4375 710.91 16.7461 710.91 17.0586C710.91 17.2852 711.016 17.4688 711.227 17.6094C711.617 17.8672 712.152 17.9961 712.832 17.9961C713.41 17.9961 714.062 17.8828 714.789 17.6562C715.523 17.4297 716.176 17.1211 716.746 16.7305V15.6992ZM731.594 12.1719C731.203 11.9297 730.793 11.75 730.363 11.6328C729.934 11.5078 729.484 11.4453 729.016 11.4453C728.086 11.4453 727.348 11.5977 726.801 11.9023C726.559 12.0352 726.438 12.1797 726.438 12.3359C726.438 12.5156 726.602 12.6914 726.93 12.8633C727.18 12.9883 727.738 13.1094 728.605 13.2266C730.199 13.4453 731.309 13.6641 731.934 13.8828C732.754 14.1719 733.387 14.6016 733.832 15.1719C734.277 15.7422 734.5 16.3438 734.5 16.9766C734.5 17.8359 734.121 18.5547 733.363 19.1328C732.277 19.9688 730.867 20.3867 729.133 20.3867C728.438 20.3867 727.793 20.3242 727.199 20.1992C726.613 20.082 726.074 19.9062 725.582 19.6719C725.465 19.7734 725.34 19.8516 725.207 19.9062C725.074 19.9609 724.938 19.9883 724.797 19.9883C724.422 19.9883 724.121 19.8672 723.895 19.625C723.676 19.375 723.566 18.9609 723.566 18.3828V17.5742C723.566 16.9961 723.676 16.5859 723.895 16.3438C724.121 16.0938 724.414 15.9688 724.773 15.9688C725.062 15.9688 725.305 16.0508 725.5 16.2148C725.695 16.3711 725.848 16.6445 725.957 17.0352C726.324 17.3477 726.766 17.5859 727.281 17.75C727.797 17.9062 728.391 17.9844 729.062 17.9844C730.164 17.9844 731.02 17.8125 731.629 17.4688C731.918 17.2969 732.062 17.1172 732.062 16.9297C732.062 16.6172 731.855 16.3594 731.441 16.1562C731.027 15.9531 730.172 15.7812 728.875 15.6406C726.945 15.4375 725.656 15.0469 725.008 14.4688C724.359 13.8984 724.035 13.1953 724.035 12.3594C724.035 11.5 724.398 10.7852 725.125 10.2148C726.109 9.43359 727.398 9.04297 728.992 9.04297C729.547 9.04297 730.078 9.09766 730.586 9.20703C731.102 9.30859 731.594 9.46875 732.062 9.6875C732.211 9.57812 732.348 9.49609 732.473 9.44141C732.605 9.38672 732.727 9.35938 732.836 9.35938C733.164 9.35938 733.438 9.48438 733.656 9.73438C733.875 9.97656 733.984 10.3867 733.984 10.9648V11.5508C733.984 12.0742 733.922 12.4297 733.797 12.6172C733.547 12.9766 733.207 13.1562 732.777 13.1562C732.488 13.1562 732.234 13.0664 732.016 12.8867C731.797 12.707 731.656 12.4688 731.594 12.1719ZM749.441 15.8984H739.586C739.836 16.5234 740.277 17.0273 740.91 17.4102C741.551 17.793 742.414 17.9844 743.5 17.9844C744.391 17.9844 745.574 17.793 747.051 17.4102C747.66 17.2539 748.082 17.1758 748.316 17.1758C748.637 17.1758 748.906 17.2891 749.125 17.5156C749.344 17.7422 749.453 18.0273 749.453 18.3711C749.453 18.6836 749.336 18.9492 749.102 19.168C748.789 19.457 748.027 19.7344 746.816 20C745.605 20.2578 744.441 20.3867 743.324 20.3867C741.402 20.3867 739.863 19.8438 738.707 18.7578C737.559 17.6719 736.984 16.3359 736.984 14.75C736.984 13.0625 737.605 11.6914 738.848 10.6367C740.098 9.57422 741.535 9.04297 743.16 9.04297C744.137 9.04297 745.031 9.21484 745.844 9.55859C746.664 9.90234 747.273 10.2734 747.672 10.6719C748.234 11.25 748.699 11.9648 749.066 12.8164C749.316 13.4102 749.441 14.0977 749.441 14.8789V15.8984ZM746.781 13.4961C746.414 12.8086 745.934 12.2969 745.34 11.9609C744.746 11.6172 744.039 11.4453 743.219 11.4453C742.406 11.4453 741.703 11.6172 741.109 11.9609C740.516 12.2969 740.031 12.8086 739.656 13.4961H746.781ZM767.336 17.5977V8.19922H766.961C766.383 8.19922 765.969 8.08984 765.719 7.87109C765.477 7.64453 765.355 7.35156 765.355 6.99219C765.355 6.63281 765.477 6.34375 765.719 6.125C765.969 5.89844 766.383 5.78516 766.961 5.78516H772.984C774.422 5.78516 775.578 6.1875 776.453 6.99219C777.328 7.78906 777.766 8.73828 777.766 9.83984C777.766 10.3633 777.664 10.8555 777.461 11.3164C777.258 11.7773 776.949 12.2031 776.535 12.5938C777.293 13.0469 777.859 13.5781 778.234 14.1875C778.617 14.7891 778.809 15.4727 778.809 16.2383C778.809 16.8477 778.672 17.4141 778.398 17.9375C778.195 18.3359 777.945 18.6523 777.648 18.8867C777.25 19.2148 776.762 19.4844 776.184 19.6953C775.605 19.8984 774.883 20 774.016 20H766.961C766.383 20 765.969 19.8906 765.719 19.6719C765.477 19.4453 765.355 19.1523 765.355 18.793C765.355 18.4414 765.48 18.1562 765.73 17.9375C765.98 17.7109 766.391 17.5977 766.961 17.5977H767.336ZM769.738 11.6914H772.375C773.32 11.6914 774.105 11.4531 774.73 10.9766C775.152 10.6562 775.363 10.2578 775.363 9.78125C775.363 9.35938 775.164 8.99219 774.766 8.67969C774.367 8.35938 773.734 8.19922 772.867 8.19922H769.738V11.6914ZM769.738 17.5977H773.887C774.863 17.5977 775.551 17.4531 775.949 17.1641C776.254 16.9453 776.406 16.6328 776.406 16.2266C776.406 15.7422 776.105 15.2656 775.504 14.7969C774.902 14.3281 774.039 14.0938 772.914 14.0938H769.738V17.5977ZM792.684 15.8984H782.828C783.078 16.5234 783.52 17.0273 784.152 17.4102C784.793 17.793 785.656 17.9844 786.742 17.9844C787.633 17.9844 788.816 17.793 790.293 17.4102C790.902 17.2539 791.324 17.1758 791.559 17.1758C791.879 17.1758 792.148 17.2891 792.367 17.5156C792.586 17.7422 792.695 18.0273 792.695 18.3711C792.695 18.6836 792.578 18.9492 792.344 19.168C792.031 19.457 791.27 19.7344 790.059 20C788.848 20.2578 787.684 20.3867 786.566 20.3867C784.645 20.3867 783.105 19.8438 781.949 18.7578C780.801 17.6719 780.227 16.3359 780.227 14.75C780.227 13.0625 780.848 11.6914 782.09 10.6367C783.34 9.57422 784.777 9.04297 786.402 9.04297C787.379 9.04297 788.273 9.21484 789.086 9.55859C789.906 9.90234 790.516 10.2734 790.914 10.6719C791.477 11.25 791.941 11.9648 792.309 12.8164C792.559 13.4102 792.684 14.0977 792.684 14.8789V15.8984ZM790.023 13.4961C789.656 12.8086 789.176 12.2969 788.582 11.9609C787.988 11.6172 787.281 11.4453 786.461 11.4453C785.648 11.4453 784.945 11.6172 784.352 11.9609C783.758 12.2969 783.273 12.8086 782.898 13.4961H790.023ZM803.711 10.0742V9.35938H806.523C807.102 9.35938 807.512 9.47266 807.754 9.69922C808.004 9.91797 808.129 10.207 808.129 10.5664C808.129 10.918 808.004 11.207 807.754 11.4336C807.512 11.6523 807.102 11.7617 806.523 11.7617H806.113V20.5039C806.113 21.3477 805.934 22.082 805.574 22.707C805.223 23.3398 804.68 23.8828 803.945 24.3359C803.211 24.7891 802.383 25.0156 801.461 25.0156H798.742C798.164 25.0156 797.75 24.9023 797.5 24.6758C797.258 24.457 797.137 24.1719 797.137 23.8203C797.137 23.4609 797.258 23.168 797.5 22.9414C797.75 22.7227 798.164 22.6133 798.742 22.6133H801.391C802.125 22.6133 802.695 22.4141 803.102 22.0156C803.508 21.6172 803.711 21.1133 803.711 20.5039V19.332C803.18 19.6758 802.637 19.9336 802.082 20.1055C801.535 20.2773 800.973 20.3633 800.395 20.3633C798.762 20.3633 797.395 19.8203 796.293 18.7344C795.191 17.6406 794.641 16.293 794.641 14.6914C794.641 13.082 795.191 11.7344 796.293 10.6484C797.395 9.55469 798.762 9.00781 800.395 9.00781C801.004 9.00781 801.582 9.09766 802.129 9.27734C802.684 9.44922 803.211 9.71484 803.711 10.0742ZM803.699 14.6797C803.699 13.7969 803.371 13.0312 802.715 12.3828C802.066 11.7344 801.285 11.4102 800.371 11.4102C799.457 11.4102 798.672 11.7344 798.016 12.3828C797.367 13.0312 797.043 13.7969 797.043 14.6797C797.043 15.5703 797.367 16.3398 798.016 16.9883C798.672 17.6289 799.457 17.9492 800.371 17.9492C801.285 17.9492 802.066 17.6289 802.715 16.9883C803.371 16.3398 803.699 15.5703 803.699 14.6797ZM816.344 4.80078V7.34375H813.484V4.80078H816.344ZM816.672 9.35938V17.5977H819.555C820.133 17.5977 820.543 17.7109 820.785 17.9375C821.035 18.1562 821.16 18.4453 821.16 18.8047C821.16 19.1562 821.035 19.4453 820.785 19.6719C820.543 19.8906 820.133 20 819.555 20H811.387C810.809 20 810.395 19.8906 810.145 19.6719C809.902 19.4453 809.781 19.1523 809.781 18.793C809.781 18.4414 809.902 18.1562 810.145 17.9375C810.395 17.7109 810.809 17.5977 811.387 17.5977H814.27V11.7617H812.336C811.766 11.7617 811.355 11.6523 811.105 11.4336C810.855 11.207 810.73 10.9141 810.73 10.5547C810.73 10.2031 810.852 9.91797 811.094 9.69922C811.344 9.47266 811.758 9.35938 812.336 9.35938H816.672ZM827.465 9.35938V10.168C827.902 9.79297 828.383 9.51172 828.906 9.32422C829.438 9.13672 830.012 9.04297 830.629 9.04297C832.051 9.04297 833.176 9.48438 834.004 10.3672C834.66 11.0703 834.988 11.9922 834.988 13.1328V17.5977C835.496 17.5977 835.871 17.7109 836.113 17.9375C836.355 18.1562 836.477 18.4453 836.477 18.8047C836.477 19.1562 836.352 19.4453 836.102 19.6719C835.859 19.8906 835.449 20 834.871 20H832.703C832.125 20 831.711 19.8906 831.461 19.6719C831.219 19.4453 831.098 19.1523 831.098 18.793C831.098 18.4414 831.219 18.1562 831.461 17.9375C831.703 17.7109 832.078 17.5977 832.586 17.5977V13.0625C832.586 12.5391 832.445 12.1562 832.164 11.9141C831.797 11.6016 831.246 11.4453 830.512 11.4453C829.957 11.4453 829.469 11.5547 829.047 11.7734C828.633 11.9844 828.105 12.4375 827.465 13.1328V17.5977C828.082 17.5977 828.48 17.6562 828.66 17.7734C829.043 18.0078 829.234 18.3516 829.234 18.8047C829.234 19.1562 829.109 19.4453 828.859 19.6719C828.617 19.8906 828.207 20 827.629 20H824.898C824.32 20 823.906 19.8906 823.656 19.6719C823.414 19.4453 823.293 19.1523 823.293 18.793C823.293 18.3555 823.48 18.0156 823.855 17.7734C824.043 17.6562 824.445 17.5977 825.062 17.5977V11.7617C824.555 11.7617 824.18 11.6484 823.938 11.4219C823.695 11.1953 823.574 10.9062 823.574 10.5547C823.574 10.2031 823.695 9.91797 823.938 9.69922C824.188 9.47266 824.602 9.35938 825.18 9.35938H827.465ZM846.906 12.1719C846.516 11.9297 846.105 11.75 845.676 11.6328C845.246 11.5078 844.797 11.4453 844.328 11.4453C843.398 11.4453 842.66 11.5977 842.113 11.9023C841.871 12.0352 841.75 12.1797 841.75 12.3359C841.75 12.5156 841.914 12.6914 842.242 12.8633C842.492 12.9883 843.051 13.1094 843.918 13.2266C845.512 13.4453 846.621 13.6641 847.246 13.8828C848.066 14.1719 848.699 14.6016 849.145 15.1719C849.59 15.7422 849.812 16.3438 849.812 16.9766C849.812 17.8359 849.434 18.5547 848.676 19.1328C847.59 19.9688 846.18 20.3867 844.445 20.3867C843.75 20.3867 843.105 20.3242 842.512 20.1992C841.926 20.082 841.387 19.9062 840.895 19.6719C840.777 19.7734 840.652 19.8516 840.52 19.9062C840.387 19.9609 840.25 19.9883 840.109 19.9883C839.734 19.9883 839.434 19.8672 839.207 19.625C838.988 19.375 838.879 18.9609 838.879 18.3828V17.5742C838.879 16.9961 838.988 16.5859 839.207 16.3438C839.434 16.0938 839.727 15.9688 840.086 15.9688C840.375 15.9688 840.617 16.0508 840.812 16.2148C841.008 16.3711 841.16 16.6445 841.27 17.0352C841.637 17.3477 842.078 17.5859 842.594 17.75C843.109 17.9062 843.703 17.9844 844.375 17.9844C845.477 17.9844 846.332 17.8125 846.941 17.4688C847.23 17.2969 847.375 17.1172 847.375 16.9297C847.375 16.6172 847.168 16.3594 846.754 16.1562C846.34 15.9531 845.484 15.7812 844.188 15.6406C842.258 15.4375 840.969 15.0469 840.32 14.4688C839.672 13.8984 839.348 13.1953 839.348 12.3594C839.348 11.5 839.711 10.7852 840.438 10.2148C841.422 9.43359 842.711 9.04297 844.305 9.04297C844.859 9.04297 845.391 9.09766 845.898 9.20703C846.414 9.30859 846.906 9.46875 847.375 9.6875C847.523 9.57812 847.66 9.49609 847.785 9.44141C847.918 9.38672 848.039 9.35938 848.148 9.35938C848.477 9.35938 848.75 9.48438 848.969 9.73438C849.188 9.97656 849.297 10.3867 849.297 10.9648V11.5508C849.297 12.0742 849.234 12.4297 849.109 12.6172C848.859 12.9766 848.52 13.1562 848.09 13.1562C847.801 13.1562 847.547 13.0664 847.328 12.8867C847.109 12.707 846.969 12.4688 846.906 12.1719Z" fill="white"/>
<path d="M878.969 175.406C879.117 175.203 879.277 175.051 879.449 174.949C879.629 174.848 879.82 174.797 880.023 174.797C880.375 174.797 880.66 174.918 880.879 175.16C881.105 175.402 881.219 175.812 881.219 176.391V178.43C881.219 179.008 881.105 179.422 880.879 179.672C880.66 179.914 880.375 180.035 880.023 180.035C879.703 180.035 879.445 179.945 879.25 179.766C879.055 179.586 878.91 179.25 878.816 178.758C878.762 178.43 878.652 178.176 878.488 177.996C878.168 177.645 877.719 177.363 877.141 177.152C876.57 176.941 875.996 176.836 875.418 176.836C874.699 176.836 874.039 176.992 873.438 177.305C872.836 177.617 872.305 178.125 871.844 178.828C871.383 179.531 871.152 180.367 871.152 181.336V182.895C871.152 184.051 871.57 185.016 872.406 185.789C873.25 186.562 874.418 186.949 875.91 186.949C876.801 186.949 877.555 186.828 878.172 186.586C878.531 186.445 878.914 186.168 879.32 185.754C879.57 185.504 879.766 185.344 879.906 185.273C880.047 185.195 880.207 185.156 880.387 185.156C880.707 185.156 880.988 185.277 881.23 185.52C881.473 185.762 881.594 186.047 881.594 186.375C881.594 186.703 881.43 187.055 881.102 187.43C880.625 187.977 880.012 188.406 879.262 188.719C878.254 189.141 877.141 189.352 875.922 189.352C874.5 189.352 873.219 189.059 872.078 188.473C871.156 188.004 870.371 187.266 869.723 186.258C869.074 185.242 868.75 184.137 868.75 182.941V181.312C868.75 180.062 869.039 178.898 869.617 177.82C870.203 176.734 871.012 175.898 872.043 175.312C873.074 174.727 874.168 174.434 875.324 174.434C876.02 174.434 876.668 174.516 877.27 174.68C877.879 174.836 878.445 175.078 878.969 175.406ZM890.816 173.801V186.598H893.699C894.277 186.598 894.688 186.711 894.93 186.938C895.18 187.156 895.305 187.445 895.305 187.805C895.305 188.156 895.18 188.445 894.93 188.672C894.688 188.891 894.277 189 893.699 189H885.531C884.953 189 884.539 188.891 884.289 188.672C884.047 188.445 883.926 188.152 883.926 187.793C883.926 187.441 884.047 187.156 884.289 186.938C884.539 186.711 884.953 186.598 885.531 186.598H888.414V176.203H886.48C885.91 176.203 885.5 176.094 885.25 175.875C885 175.648 884.875 175.355 884.875 174.996C884.875 174.645 884.996 174.359 885.238 174.141C885.488 173.914 885.902 173.801 886.48 173.801H890.816ZM910.27 183.879C910.27 184.801 910.012 185.695 909.496 186.562C908.988 187.422 908.227 188.109 907.211 188.625C906.203 189.133 905.148 189.387 904.047 189.387C902.953 189.387 901.906 189.137 900.906 188.637C899.906 188.129 899.145 187.441 898.621 186.574C898.098 185.707 897.836 184.801 897.836 183.855C897.836 182.895 898.102 181.953 898.633 181.031C899.164 180.102 899.926 179.371 900.918 178.84C901.918 178.309 902.961 178.043 904.047 178.043C905.141 178.043 906.191 178.316 907.199 178.863C908.215 179.402 908.98 180.133 909.496 181.055C910.012 181.969 910.27 182.91 910.27 183.879ZM907.867 183.891C907.867 183.117 907.59 182.406 907.035 181.758C906.277 180.883 905.281 180.445 904.047 180.445C902.961 180.445 902.055 180.793 901.328 181.488C900.602 182.184 900.238 182.988 900.238 183.902C900.238 184.652 900.605 185.355 901.34 186.012C902.074 186.66 902.977 186.984 904.047 186.984C905.125 186.984 906.031 186.66 906.766 186.012C907.5 185.355 907.867 184.648 907.867 183.891ZM921.039 181.172C920.648 180.93 920.238 180.75 919.809 180.633C919.379 180.508 918.93 180.445 918.461 180.445C917.531 180.445 916.793 180.598 916.246 180.902C916.004 181.035 915.883 181.18 915.883 181.336C915.883 181.516 916.047 181.691 916.375 181.863C916.625 181.988 917.184 182.109 918.051 182.227C919.645 182.445 920.754 182.664 921.379 182.883C922.199 183.172 922.832 183.602 923.277 184.172C923.723 184.742 923.945 185.344 923.945 185.977C923.945 186.836 923.566 187.555 922.809 188.133C921.723 188.969 920.312 189.387 918.578 189.387C917.883 189.387 917.238 189.324 916.645 189.199C916.059 189.082 915.52 188.906 915.027 188.672C914.91 188.773 914.785 188.852 914.652 188.906C914.52 188.961 914.383 188.988 914.242 188.988C913.867 188.988 913.566 188.867 913.34 188.625C913.121 188.375 913.012 187.961 913.012 187.383V186.574C913.012 185.996 913.121 185.586 913.34 185.344C913.566 185.094 913.859 184.969 914.219 184.969C914.508 184.969 914.75 185.051 914.945 185.215C915.141 185.371 915.293 185.645 915.402 186.035C915.77 186.348 916.211 186.586 916.727 186.75C917.242 186.906 917.836 186.984 918.508 186.984C919.609 186.984 920.465 186.812 921.074 186.469C921.363 186.297 921.508 186.117 921.508 185.93C921.508 185.617 921.301 185.359 920.887 185.156C920.473 184.953 919.617 184.781 918.32 184.641C916.391 184.438 915.102 184.047 914.453 183.469C913.805 182.898 913.48 182.195 913.48 181.359C913.48 180.5 913.844 179.785 914.57 179.215C915.555 178.434 916.844 178.043 918.438 178.043C918.992 178.043 919.523 178.098 920.031 178.207C920.547 178.309 921.039 178.469 921.508 178.688C921.656 178.578 921.793 178.496 921.918 178.441C922.051 178.387 922.172 178.359 922.281 178.359C922.609 178.359 922.883 178.484 923.102 178.734C923.32 178.977 923.43 179.387 923.43 179.965V180.551C923.43 181.074 923.367 181.43 923.242 181.617C922.992 181.977 922.652 182.156 922.223 182.156C921.934 182.156 921.68 182.066 921.461 181.887C921.242 181.707 921.102 181.469 921.039 181.172ZM933.719 173.801V176.344H930.859V173.801H933.719ZM934.047 178.359V186.598H936.93C937.508 186.598 937.918 186.711 938.16 186.938C938.41 187.156 938.535 187.445 938.535 187.805C938.535 188.156 938.41 188.445 938.16 188.672C937.918 188.891 937.508 189 936.93 189H928.762C928.184 189 927.77 188.891 927.52 188.672C927.277 188.445 927.156 188.152 927.156 187.793C927.156 187.441 927.277 187.156 927.52 186.938C927.77 186.711 928.184 186.598 928.762 186.598H931.645V180.762H929.711C929.141 180.762 928.73 180.652 928.48 180.434C928.23 180.207 928.105 179.914 928.105 179.555C928.105 179.203 928.227 178.918 928.469 178.699C928.719 178.473 929.133 178.359 929.711 178.359H934.047ZM944.84 178.359V179.168C945.277 178.793 945.758 178.512 946.281 178.324C946.812 178.137 947.387 178.043 948.004 178.043C949.426 178.043 950.551 178.484 951.379 179.367C952.035 180.07 952.363 180.992 952.363 182.133V186.598C952.871 186.598 953.246 186.711 953.488 186.938C953.73 187.156 953.852 187.445 953.852 187.805C953.852 188.156 953.727 188.445 953.477 188.672C953.234 188.891 952.824 189 952.246 189H950.078C949.5 189 949.086 188.891 948.836 188.672C948.594 188.445 948.473 188.152 948.473 187.793C948.473 187.441 948.594 187.156 948.836 186.938C949.078 186.711 949.453 186.598 949.961 186.598V182.062C949.961 181.539 949.82 181.156 949.539 180.914C949.172 180.602 948.621 180.445 947.887 180.445C947.332 180.445 946.844 180.555 946.422 180.773C946.008 180.984 945.48 181.438 944.84 182.133V186.598C945.457 186.598 945.855 186.656 946.035 186.773C946.418 187.008 946.609 187.352 946.609 187.805C946.609 188.156 946.484 188.445 946.234 188.672C945.992 188.891 945.582 189 945.004 189H942.273C941.695 189 941.281 188.891 941.031 188.672C940.789 188.445 940.668 188.152 940.668 187.793C940.668 187.355 940.855 187.016 941.23 186.773C941.418 186.656 941.82 186.598 942.438 186.598V180.762C941.93 180.762 941.555 180.648 941.312 180.422C941.07 180.195 940.949 179.906 940.949 179.555C940.949 179.203 941.07 178.918 941.312 178.699C941.562 178.473 941.977 178.359 942.555 178.359H944.84ZM964.328 179.074V178.359H967.141C967.719 178.359 968.129 178.473 968.371 178.699C968.621 178.918 968.746 179.207 968.746 179.566C968.746 179.918 968.621 180.207 968.371 180.434C968.129 180.652 967.719 180.762 967.141 180.762H966.73V189.504C966.73 190.348 966.551 191.082 966.191 191.707C965.84 192.34 965.297 192.883 964.562 193.336C963.828 193.789 963 194.016 962.078 194.016H959.359C958.781 194.016 958.367 193.902 958.117 193.676C957.875 193.457 957.754 193.172 957.754 192.82C957.754 192.461 957.875 192.168 958.117 191.941C958.367 191.723 958.781 191.613 959.359 191.613H962.008C962.742 191.613 963.312 191.414 963.719 191.016C964.125 190.617 964.328 190.113 964.328 189.504V188.332C963.797 188.676 963.254 188.934 962.699 189.105C962.152 189.277 961.59 189.363 961.012 189.363C959.379 189.363 958.012 188.82 956.91 187.734C955.809 186.641 955.258 185.293 955.258 183.691C955.258 182.082 955.809 180.734 956.91 179.648C958.012 178.555 959.379 178.008 961.012 178.008C961.621 178.008 962.199 178.098 962.746 178.277C963.301 178.449 963.828 178.715 964.328 179.074ZM964.316 183.68C964.316 182.797 963.988 182.031 963.332 181.383C962.684 180.734 961.902 180.41 960.988 180.41C960.074 180.41 959.289 180.734 958.633 181.383C957.984 182.031 957.66 182.797 957.66 183.68C957.66 184.57 957.984 185.34 958.633 185.988C959.289 186.629 960.074 186.949 960.988 186.949C961.902 186.949 962.684 186.629 963.332 185.988C963.988 185.34 964.316 184.57 964.316 183.68ZM994.281 175.406C994.43 175.203 994.59 175.051 994.762 174.949C994.941 174.848 995.133 174.797 995.336 174.797C995.688 174.797 995.973 174.918 996.191 175.16C996.418 175.402 996.531 175.812 996.531 176.391V178.43C996.531 179.008 996.418 179.422 996.191 179.672C995.973 179.914 995.688 180.035 995.336 180.035C995.016 180.035 994.758 179.945 994.562 179.766C994.367 179.586 994.223 179.25 994.129 178.758C994.074 178.43 993.965 178.176 993.801 177.996C993.48 177.645 993.031 177.363 992.453 177.152C991.883 176.941 991.309 176.836 990.73 176.836C990.012 176.836 989.352 176.992 988.75 177.305C988.148 177.617 987.617 178.125 987.156 178.828C986.695 179.531 986.465 180.367 986.465 181.336V182.895C986.465 184.051 986.883 185.016 987.719 185.789C988.562 186.562 989.73 186.949 991.223 186.949C992.113 186.949 992.867 186.828 993.484 186.586C993.844 186.445 994.227 186.168 994.633 185.754C994.883 185.504 995.078 185.344 995.219 185.273C995.359 185.195 995.52 185.156 995.699 185.156C996.02 185.156 996.301 185.277 996.543 185.52C996.785 185.762 996.906 186.047 996.906 186.375C996.906 186.703 996.742 187.055 996.414 187.43C995.938 187.977 995.324 188.406 994.574 188.719C993.566 189.141 992.453 189.352 991.234 189.352C989.812 189.352 988.531 189.059 987.391 188.473C986.469 188.004 985.684 187.266 985.035 186.258C984.387 185.242 984.062 184.137 984.062 182.941V181.312C984.062 180.062 984.352 178.898 984.93 177.82C985.516 176.734 986.324 175.898 987.355 175.312C988.387 174.727 989.48 174.434 990.637 174.434C991.332 174.434 991.98 174.516 992.582 174.68C993.191 174.836 993.758 175.078 994.281 175.406ZM1010.96 184.898H1001.1C1001.35 185.523 1001.79 186.027 1002.43 186.41C1003.07 186.793 1003.93 186.984 1005.02 186.984C1005.91 186.984 1007.09 186.793 1008.57 186.41C1009.18 186.254 1009.6 186.176 1009.83 186.176C1010.15 186.176 1010.42 186.289 1010.64 186.516C1010.86 186.742 1010.97 187.027 1010.97 187.371C1010.97 187.684 1010.85 187.949 1010.62 188.168C1010.3 188.457 1009.54 188.734 1008.33 189C1007.12 189.258 1005.96 189.387 1004.84 189.387C1002.92 189.387 1001.38 188.844 1000.22 187.758C999.074 186.672 998.5 185.336 998.5 183.75C998.5 182.062 999.121 180.691 1000.36 179.637C1001.61 178.574 1003.05 178.043 1004.68 178.043C1005.65 178.043 1006.55 178.215 1007.36 178.559C1008.18 178.902 1008.79 179.273 1009.19 179.672C1009.75 180.25 1010.21 180.965 1010.58 181.816C1010.83 182.41 1010.96 183.098 1010.96 183.879V184.898ZM1008.3 182.496C1007.93 181.809 1007.45 181.297 1006.86 180.961C1006.26 180.617 1005.55 180.445 1004.73 180.445C1003.92 180.445 1003.22 180.617 1002.62 180.961C1002.03 181.297 1001.55 181.809 1001.17 182.496H1008.3ZM1018.84 178.359V179.859C1019.85 179.133 1020.64 178.648 1021.22 178.406C1021.81 178.164 1022.36 178.043 1022.86 178.043C1023.64 178.043 1024.4 178.332 1025.14 178.91C1025.64 179.301 1025.89 179.699 1025.89 180.105C1025.89 180.449 1025.77 180.742 1025.52 180.984C1025.29 181.219 1025 181.336 1024.67 181.336C1024.37 181.336 1024.06 181.188 1023.73 180.891C1023.4 180.594 1023.11 180.445 1022.85 180.445C1022.52 180.445 1022.01 180.656 1021.34 181.078C1020.68 181.5 1019.84 182.133 1018.84 182.977V186.598H1022.27C1022.84 186.598 1023.25 186.711 1023.5 186.938C1023.75 187.156 1023.87 187.445 1023.87 187.805C1023.87 188.156 1023.75 188.445 1023.5 188.672C1023.25 188.891 1022.84 189 1022.27 189H1015.01C1014.43 189 1014.02 188.891 1013.77 188.672C1013.53 188.445 1013.41 188.152 1013.41 187.793C1013.41 187.441 1013.53 187.156 1013.77 186.938C1014.02 186.711 1014.43 186.598 1015.01 186.598H1016.44V180.762H1015.57C1015 180.762 1014.58 180.652 1014.33 180.434C1014.09 180.207 1013.97 179.914 1013.97 179.555C1013.97 179.203 1014.09 178.918 1014.33 178.699C1014.58 178.473 1015 178.359 1015.57 178.359H1018.84ZM1039.79 184.898H1029.93C1030.18 185.523 1030.62 186.027 1031.25 186.41C1031.89 186.793 1032.76 186.984 1033.84 186.984C1034.73 186.984 1035.92 186.793 1037.39 186.41C1038 186.254 1038.43 186.176 1038.66 186.176C1038.98 186.176 1039.25 186.289 1039.47 186.516C1039.69 186.742 1039.8 187.027 1039.8 187.371C1039.8 187.684 1039.68 187.949 1039.45 188.168C1039.13 188.457 1038.37 188.734 1037.16 189C1035.95 189.258 1034.79 189.387 1033.67 189.387C1031.75 189.387 1030.21 188.844 1029.05 187.758C1027.9 186.672 1027.33 185.336 1027.33 183.75C1027.33 182.062 1027.95 180.691 1029.19 179.637C1030.44 178.574 1031.88 178.043 1033.5 178.043C1034.48 178.043 1035.38 178.215 1036.19 178.559C1037.01 178.902 1037.62 179.273 1038.02 179.672C1038.58 180.25 1039.04 180.965 1039.41 181.816C1039.66 182.41 1039.79 183.098 1039.79 183.879V184.898ZM1037.12 182.496C1036.76 181.809 1036.28 181.297 1035.68 180.961C1035.09 180.617 1034.38 180.445 1033.56 180.445C1032.75 180.445 1032.05 180.617 1031.45 180.961C1030.86 181.297 1030.38 181.809 1030 182.496H1037.12ZM1044.46 178.359V179.039C1044.85 178.656 1045.2 178.395 1045.52 178.254C1045.84 178.105 1046.2 178.031 1046.62 178.031C1046.97 178.031 1047.32 178.117 1047.66 178.289C1048 178.461 1048.34 178.719 1048.67 179.062C1049.08 178.719 1049.5 178.465 1049.92 178.301C1050.35 178.129 1050.79 178.043 1051.23 178.043C1052.12 178.043 1052.85 178.281 1053.4 178.758C1054.14 179.383 1054.5 180.203 1054.5 181.219V186.598C1055 186.598 1055.38 186.711 1055.62 186.938C1055.86 187.164 1055.98 187.453 1055.98 187.805C1055.98 188.156 1055.86 188.445 1055.62 188.672C1055.38 188.891 1054.96 189 1054.39 189H1052.1V181.418C1052.1 181.051 1052.04 180.797 1051.9 180.656C1051.77 180.516 1051.57 180.445 1051.29 180.445C1051.03 180.445 1050.78 180.516 1050.55 180.656C1050.27 180.852 1049.91 181.219 1049.5 181.758V186.598C1050 186.598 1050.37 186.711 1050.61 186.938C1050.86 187.164 1050.98 187.453 1050.98 187.805C1050.98 188.156 1050.86 188.445 1050.61 188.672C1050.37 188.891 1049.96 189 1049.38 189H1047.1V181.418C1047.1 181.059 1047.03 180.809 1046.89 180.668C1046.75 180.52 1046.55 180.445 1046.28 180.445C1046 180.445 1045.72 180.535 1045.45 180.715C1045.17 180.887 1044.84 181.234 1044.46 181.758V186.598C1044.96 186.598 1045.33 186.711 1045.57 186.938C1045.82 187.164 1045.95 187.453 1045.95 187.805C1045.95 188.156 1045.82 188.445 1045.57 188.672C1045.33 188.891 1044.92 189 1044.34 189H1042.18C1041.6 189 1041.19 188.891 1040.95 188.672C1040.7 188.445 1040.57 188.152 1040.57 187.793C1040.57 187.441 1040.69 187.156 1040.93 186.938C1041.18 186.711 1041.55 186.598 1042.06 186.598V180.762C1041.55 180.762 1041.18 180.648 1040.93 180.422C1040.69 180.195 1040.57 179.906 1040.57 179.555C1040.57 179.203 1040.7 178.918 1040.95 178.699C1041.19 178.473 1041.6 178.359 1042.18 178.359H1044.46ZM1068.82 183.879C1068.82 184.801 1068.57 185.695 1068.05 186.562C1067.54 187.422 1066.78 188.109 1065.77 188.625C1064.76 189.133 1063.7 189.387 1062.6 189.387C1061.51 189.387 1060.46 189.137 1059.46 188.637C1058.46 188.129 1057.7 187.441 1057.18 186.574C1056.65 185.707 1056.39 184.801 1056.39 183.855C1056.39 182.895 1056.66 181.953 1057.19 181.031C1057.72 180.102 1058.48 179.371 1059.47 178.84C1060.47 178.309 1061.52 178.043 1062.6 178.043C1063.7 178.043 1064.75 178.316 1065.75 178.863C1066.77 179.402 1067.54 180.133 1068.05 181.055C1068.57 181.969 1068.82 182.91 1068.82 183.879ZM1066.42 183.891C1066.42 183.117 1066.14 182.406 1065.59 181.758C1064.83 180.883 1063.84 180.445 1062.6 180.445C1061.52 180.445 1060.61 180.793 1059.88 181.488C1059.16 182.184 1058.79 182.988 1058.79 183.902C1058.79 184.652 1059.16 185.355 1059.89 186.012C1060.63 186.66 1061.53 186.984 1062.6 186.984C1063.68 186.984 1064.59 186.66 1065.32 186.012C1066.05 185.355 1066.42 184.648 1066.42 183.891ZM1074.57 178.359V179.168C1075 178.793 1075.48 178.512 1076.01 178.324C1076.54 178.137 1077.11 178.043 1077.73 178.043C1079.15 178.043 1080.28 178.484 1081.11 179.367C1081.76 180.07 1082.09 180.992 1082.09 182.133V186.598C1082.6 186.598 1082.97 186.711 1083.21 186.938C1083.46 187.156 1083.58 187.445 1083.58 187.805C1083.58 188.156 1083.45 188.445 1083.2 188.672C1082.96 188.891 1082.55 189 1081.97 189H1079.8C1079.23 189 1078.81 188.891 1078.56 188.672C1078.32 188.445 1078.2 188.152 1078.2 187.793C1078.2 187.441 1078.32 187.156 1078.56 186.938C1078.8 186.711 1079.18 186.598 1079.69 186.598V182.062C1079.69 181.539 1079.55 181.156 1079.27 180.914C1078.9 180.602 1078.35 180.445 1077.61 180.445C1077.06 180.445 1076.57 180.555 1076.15 180.773C1075.73 180.984 1075.21 181.438 1074.57 182.133V186.598C1075.18 186.598 1075.58 186.656 1075.76 186.773C1076.14 187.008 1076.34 187.352 1076.34 187.805C1076.34 188.156 1076.21 188.445 1075.96 188.672C1075.72 188.891 1075.31 189 1074.73 189H1072C1071.42 189 1071.01 188.891 1070.76 188.672C1070.52 188.445 1070.39 188.152 1070.39 187.793C1070.39 187.355 1070.58 187.016 1070.96 186.773C1071.14 186.656 1071.55 186.598 1072.16 186.598V180.762C1071.66 180.762 1071.28 180.648 1071.04 180.422C1070.8 180.195 1070.68 179.906 1070.68 179.555C1070.68 179.203 1070.8 178.918 1071.04 178.699C1071.29 178.473 1071.7 178.359 1072.28 178.359H1074.57ZM1090.07 188.918L1085.91 180.762C1085.52 180.715 1085.22 180.582 1085.02 180.363C1084.82 180.145 1084.71 179.879 1084.71 179.566C1084.71 179.207 1084.84 178.918 1085.08 178.699C1085.33 178.473 1085.74 178.359 1086.32 178.359H1088.51C1089.09 178.359 1089.5 178.473 1089.74 178.699C1089.99 178.918 1090.12 179.207 1090.12 179.566C1090.12 179.918 1089.99 180.207 1089.74 180.434C1089.5 180.652 1089.11 180.762 1088.58 180.762L1091.42 186.281L1094.23 180.762C1093.71 180.762 1093.33 180.652 1093.08 180.434C1092.84 180.207 1092.72 179.914 1092.72 179.555C1092.72 179.203 1092.84 178.918 1093.08 178.699C1093.33 178.473 1093.75 178.359 1094.32 178.359H1096.59C1097.16 178.359 1097.56 178.473 1097.8 178.699C1098.05 178.918 1098.18 179.207 1098.18 179.566C1098.18 179.887 1098.07 180.16 1097.86 180.387C1097.65 180.605 1097.34 180.73 1096.93 180.762L1091.42 191.613C1092.02 191.613 1092.41 191.672 1092.6 191.789C1092.98 192.031 1093.16 192.375 1093.16 192.82C1093.16 193.172 1093.04 193.457 1092.79 193.676C1092.55 193.902 1092.14 194.016 1091.56 194.016H1086.32C1085.74 194.016 1085.33 193.902 1085.08 193.676C1084.84 193.457 1084.71 193.172 1084.71 192.82C1084.71 192.461 1084.84 192.168 1085.08 191.941C1085.33 191.723 1085.74 191.613 1086.32 191.613H1088.71L1090.07 188.918Z" fill="white"/>
<path d="M3.576 156.264V154.224H1.464V150.936H4.512V153H9.936V150.096H3.576V148.056H1.464V142.752H3.576V140.688H10.872V142.752H13.008V154.224H10.872V156.264H3.576ZM4.512 146.856H9.936V143.976H4.512V146.856ZM15.9249 154.152V150.864H18.9729V154.152H15.9249ZM15.9249 150.12V146.856H18.9729V150.12H15.9249ZM24.0135 156.264V154.224H21.9015V142.752H24.0135V140.688H31.3095V142.752H33.4455V154.224H31.3095V156.264H24.0135ZM24.9495 153H30.3735V143.976H24.9495V153ZM38.4744 156.264V154.224H36.3624V142.752H38.4744V140.688H45.7704V142.752H47.9064V154.224H45.7704V156.264H38.4744ZM39.4104 153H44.8344V143.976H39.4104V153ZM50.8234 156.264V144.792H52.9354V142.752H55.0474V140.688H58.1194V142.752H60.2314V144.792H62.3674V156.264H59.2954V152.16H53.8714V156.264H50.8234ZM53.8714 148.872H59.2954V146.016H57.1834V143.976H55.9834V146.016H53.8714V148.872ZM65.2843 156.264V142.752H67.3963V140.688H70.4443V142.752H72.5803V146.856H73.7563V142.752H75.8923V140.688H78.9643V142.752H81.0523V156.264H78.0283V143.976H76.8283V148.056H74.6923V154.224H71.6443V148.056H69.5083V143.976H68.3323V156.264H65.2843Z" fill="#00FF00"/>
<path d="M313.688 84.264V71.976H312.512V74.016H309.464V70.752H311.576V68.688H314.624V70.752H316.76V84.264H313.688ZM321.795 84.264V82.224H319.683V76.872H321.795V74.856H328.155V71.976H322.731V74.016H319.683V70.752H321.795V68.688H329.091V70.752H331.227V76.056H329.091V78.096H322.731V81H328.155V78.936H331.227V82.224H329.091V84.264H321.795ZM334.144 82.152V78.864H337.192V82.152H334.144ZM334.144 78.12V74.856H337.192V78.12H334.144ZM342.232 84.264V82.224H340.12V70.752H342.232V68.688H349.528V70.752H351.664V82.224H349.528V84.264H342.232ZM343.168 81H348.592V71.976H343.168V81ZM356.693 84.264V82.224H354.581V70.752H356.693V68.688H363.989V70.752H366.125V82.224H363.989V84.264H356.693ZM357.629 81H363.053V71.976H357.629V81ZM369.042 84.264V70.752H371.154V68.688H378.45V70.752H380.586V78.096H378.45V80.16H372.09V84.264H369.042ZM372.09 76.872H377.514V71.976H372.09V76.872ZM383.503 84.264V70.752H385.615V68.688H388.663V70.752H390.799V74.856H391.975V70.752H394.111V68.688H397.183V70.752H399.271V84.264H396.247V71.976H395.047V76.056H392.911V82.224H389.863V76.056H387.727V71.976H386.551V84.264H383.503Z" fill="#00FF00"/>
<path d="M472.688 151.264V138.976H471.512V141.016H468.464V137.752H470.576V135.688H473.624V137.752H475.76V151.264H472.688ZM478.683 149.152V145.864H481.731V149.152H478.683ZM478.683 145.12V141.856H481.731V145.12H478.683ZM486.771 151.264V149.224H484.659V137.752H486.771V135.688H494.067V137.752H496.203V149.224H494.067V151.264H486.771ZM487.707 148H493.131V138.976H487.707V148ZM501.232 151.264V149.224H499.12V137.752H501.232V135.688H508.528V137.752H510.664V149.224H508.528V151.264H501.232ZM502.168 148H507.592V138.976H502.168V148ZM513.581 151.264V137.752H515.693V135.688H522.989V137.752H525.125V145.096H522.989V147.16H516.629V151.264H513.581ZM516.629 143.872H522.053V138.976H516.629V143.872ZM528.042 151.264V137.752H530.154V135.688H533.202V137.752H535.338V141.856H536.514V137.752H538.65V135.688H541.722V137.752H543.81V151.264H540.786V138.976H539.586V143.056H537.45V149.224H534.402V143.056H532.266V138.976H531.09V151.264H528.042Z" fill="#00FF00"/>
<path d="M800.936 81.264V77.16H792.464V71.856H794.576V69.792H796.688V67.752H798.824V65.688H804.008V81.264H800.936ZM795.512 73.872H800.936V68.976H799.76V71.016H797.624V73.056H795.512V73.872ZM806.925 79.152V75.864H809.973V79.152H806.925ZM806.925 75.12V71.856H809.973V75.12H806.925ZM815.014 81.264V79.224H812.902V75.936H815.95V78H821.374V75.096H815.014V71.856H821.374V68.976H815.95V71.016H812.902V67.752H815.014V65.688H822.31V67.752H824.446V73.056H822.31V73.872H824.446V79.224H822.31V81.264H815.014ZM829.474 81.264V79.224H827.362V67.752H829.474V65.688H836.77V67.752H838.906V79.224H836.77V81.264H829.474ZM830.41 78H835.834V68.976H830.41V78ZM841.823 81.264V67.752H843.935V65.688H851.231V67.752H853.367V75.096H851.231V77.16H844.871V81.264H841.823ZM844.871 73.872H850.295V68.976H844.871V73.872ZM856.284 81.264V67.752H858.396V65.688H861.444V67.752H863.58V71.856H864.756V67.752H866.892V65.688H869.964V67.752H872.052V81.264H869.028V68.976H867.828V73.056H865.692V79.224H862.644V73.056H860.508V68.976H859.332V81.264H856.284Z" fill="#00FF00"/>
<path d="M409.918 223.418H403.449L401.352 227.016H403.238C403.465 227.016 403.617 227.051 403.695 227.121C403.773 227.184 403.812 227.277 403.812 227.402C403.812 227.566 403.746 227.707 403.613 227.824C403.48 227.941 403.285 228 403.027 228H399.359C399.141 228 398.992 227.965 398.914 227.895C398.836 227.824 398.797 227.727 398.797 227.602C398.797 227.445 398.859 227.309 398.984 227.191C399.117 227.074 399.312 227.016 399.57 227.016H400.32L407.176 215.273H404.27C404.051 215.273 403.902 215.242 403.824 215.18C403.746 215.109 403.707 215.008 403.707 214.875C403.707 214.719 403.77 214.582 403.895 214.465C404.027 214.348 404.223 214.289 404.48 214.289H409.426L411.535 227.016H412.297C412.516 227.016 412.664 227.051 412.742 227.121C412.82 227.184 412.859 227.277 412.859 227.402C412.859 227.566 412.793 227.707 412.66 227.824C412.535 227.941 412.344 228 412.086 228H408.406C408.188 228 408.039 227.965 407.961 227.895C407.883 227.824 407.844 227.727 407.844 227.602C407.844 227.445 407.906 227.309 408.031 227.191C408.164 227.074 408.359 227.016 408.617 227.016H410.504L409.918 223.418ZM409.754 222.434L408.559 215.273H408.195L404.023 222.434H409.754ZM420.594 217.852L420.066 220.336C421.621 219.164 422.746 218.418 423.441 218.098C424.145 217.77 424.762 217.605 425.293 217.605C425.824 217.605 426.301 217.785 426.723 218.145C427.152 218.504 427.367 218.785 427.367 218.988C427.367 219.152 427.305 219.297 427.18 219.422C427.055 219.547 426.906 219.609 426.734 219.609C426.656 219.609 426.594 219.598 426.547 219.574C426.5 219.543 426.418 219.453 426.301 219.305C426.09 219.031 425.891 218.844 425.703 218.742C425.523 218.641 425.34 218.59 425.152 218.59C424.715 218.59 424.156 218.762 423.477 219.105C422.805 219.449 421.578 220.289 419.797 221.625L418.648 227.016H423.008C423.234 227.016 423.387 227.051 423.465 227.121C423.543 227.184 423.582 227.277 423.582 227.402C423.582 227.566 423.516 227.707 423.383 227.824C423.25 227.941 423.055 228 422.797 228H415.074C414.855 228 414.707 227.969 414.629 227.906C414.551 227.836 414.512 227.742 414.512 227.625C414.512 227.469 414.574 227.336 414.699 227.227C414.824 227.109 415.016 227.051 415.273 227.051H417.652L419.398 218.848H417.582C417.363 218.848 417.215 218.812 417.137 218.742C417.059 218.672 417.02 218.578 417.02 218.461C417.02 218.297 417.082 218.156 417.207 218.039C417.34 217.914 417.535 217.852 417.793 217.852H420.594ZM434.211 217.852H439.555C439.781 217.852 439.93 217.883 440 217.945C440.078 218.008 440.117 218.105 440.117 218.238C440.117 218.379 440.09 218.496 440.035 218.59C439.98 218.676 439.914 218.738 439.836 218.777C439.734 218.824 439.57 218.848 439.344 218.848H434L432.605 225.398C432.566 225.586 432.547 225.758 432.547 225.914C432.547 226.289 432.738 226.633 433.121 226.945C433.512 227.25 434.078 227.402 434.82 227.402C435.516 227.402 436.27 227.305 437.082 227.109C437.902 226.914 438.555 226.688 439.039 226.43C439.219 226.328 439.359 226.277 439.461 226.277C439.57 226.277 439.66 226.316 439.73 226.395C439.801 226.465 439.836 226.562 439.836 226.688C439.836 226.852 439.738 227.004 439.543 227.145C439.066 227.488 438.227 227.801 437.023 228.082C436.156 228.285 435.352 228.387 434.609 228.387C433.633 228.387 432.875 228.16 432.336 227.707C431.805 227.254 431.539 226.707 431.539 226.066C431.539 225.863 431.562 225.641 431.609 225.398L433.004 218.848H431.188C430.969 218.848 430.82 218.812 430.742 218.742C430.664 218.672 430.625 218.574 430.625 218.449C430.625 218.293 430.688 218.156 430.812 218.039C430.945 217.914 431.141 217.852 431.398 217.852H433.215L433.836 214.945C433.883 214.711 433.965 214.543 434.082 214.441C434.199 214.34 434.332 214.289 434.48 214.289C434.59 214.289 434.68 214.324 434.75 214.395C434.828 214.465 434.867 214.551 434.867 214.652C434.867 214.715 434.852 214.812 434.82 214.945L434.211 217.852ZM453.723 218.496C453.77 218.27 453.852 218.105 453.969 218.004C454.086 217.902 454.215 217.852 454.355 217.852C454.473 217.852 454.566 217.891 454.637 217.969C454.715 218.039 454.754 218.121 454.754 218.215C454.754 218.285 454.738 218.387 454.707 218.52L454.355 220.207C454.301 220.441 454.215 220.609 454.098 220.711C453.988 220.812 453.859 220.863 453.711 220.863C453.602 220.863 453.508 220.828 453.43 220.758C453.359 220.688 453.324 220.605 453.324 220.512L453.336 220.312C453.344 220.25 453.348 220.191 453.348 220.137C453.348 219.715 453.16 219.371 452.785 219.105C452.23 218.699 451.453 218.496 450.453 218.496C449.25 218.496 448.293 218.754 447.582 219.27C447.051 219.652 446.785 220.059 446.785 220.488C446.785 220.91 447.016 221.254 447.477 221.52C447.812 221.707 448.523 221.863 449.609 221.988C450.695 222.105 451.473 222.242 451.941 222.398C452.598 222.609 453.086 222.914 453.406 223.312C453.727 223.711 453.887 224.16 453.887 224.66C453.887 225.238 453.676 225.816 453.254 226.395C452.832 226.973 452.188 227.449 451.32 227.824C450.453 228.199 449.477 228.387 448.391 228.387C447.617 228.387 446.934 228.285 446.34 228.082C445.746 227.887 445.242 227.594 444.828 227.203C444.766 227.523 444.688 227.73 444.594 227.824C444.461 227.941 444.316 228 444.16 228C444.051 228 443.957 227.965 443.879 227.895C443.809 227.824 443.773 227.738 443.773 227.637C443.773 227.566 443.785 227.469 443.809 227.344L444.242 225.316C444.289 225.082 444.371 224.914 444.488 224.812C444.605 224.711 444.738 224.66 444.887 224.66C444.996 224.66 445.086 224.699 445.156 224.777C445.234 224.848 445.273 224.934 445.273 225.035C445.273 225.098 445.262 225.188 445.238 225.305C445.215 225.422 445.203 225.508 445.203 225.562C445.203 226.008 445.434 226.398 445.895 226.734C446.504 227.18 447.395 227.402 448.566 227.402C449.965 227.402 451.031 227.125 451.766 226.57C452.5 226.016 452.867 225.465 452.867 224.918C452.867 224.621 452.758 224.332 452.539 224.051C452.328 223.762 452.004 223.535 451.566 223.371C451.129 223.199 450.41 223.062 449.41 222.961C448.418 222.852 447.691 222.719 447.23 222.562C446.777 222.398 446.422 222.152 446.164 221.824C445.906 221.496 445.777 221.121 445.777 220.699C445.777 220.207 445.945 219.727 446.281 219.258C446.617 218.781 447.176 218.371 447.957 218.027C448.746 217.676 449.629 217.5 450.605 217.5C451.285 217.5 451.883 217.582 452.398 217.746C452.922 217.91 453.363 218.16 453.723 218.496ZM481.59 228H480.055L479.328 218.262L474.523 228H472.977L474.242 215.273H473.879C473.66 215.273 473.508 215.242 473.422 215.18C473.344 215.109 473.305 215.008 473.305 214.875C473.305 214.719 473.371 214.582 473.504 214.465C473.637 214.348 473.832 214.289 474.09 214.289H477.746C477.965 214.289 478.113 214.324 478.191 214.395C478.27 214.457 478.309 214.551 478.309 214.676C478.309 214.84 478.242 214.98 478.109 215.098C477.984 215.215 477.793 215.273 477.535 215.273H475.227L474.066 226.875L478.766 217.324H480.266L480.969 226.875L484.707 215.273H482.398C482.18 215.273 482.031 215.242 481.953 215.18C481.875 215.109 481.836 215.008 481.836 214.875C481.836 214.719 481.898 214.582 482.023 214.465C482.156 214.348 482.352 214.289 482.609 214.289H486.254C486.473 214.289 486.621 214.324 486.699 214.395C486.777 214.457 486.816 214.551 486.816 214.676C486.816 214.793 486.777 214.906 486.699 215.016C486.621 215.117 486.527 215.188 486.418 215.227C486.34 215.258 486.094 215.273 485.68 215.273L481.59 228ZM498.055 223.16H488.023C488 223.402 487.988 223.586 487.988 223.711C487.988 224.781 488.352 225.664 489.078 226.359C489.805 227.055 490.789 227.402 492.031 227.402C492.758 227.402 493.547 227.285 494.398 227.051C495.25 226.809 495.98 226.484 496.59 226.078C496.77 225.961 496.914 225.902 497.023 225.902C497.125 225.902 497.211 225.941 497.281 226.02C497.352 226.09 497.387 226.184 497.387 226.301C497.387 226.441 497.324 226.574 497.199 226.699C496.84 227.082 496.121 227.461 495.043 227.836C493.965 228.203 492.871 228.387 491.762 228.387C490.324 228.387 489.168 227.961 488.293 227.109C487.426 226.258 486.992 225.176 486.992 223.863C486.992 222.996 487.18 222.18 487.555 221.414C487.93 220.641 488.422 219.977 489.031 219.422C489.648 218.859 490.355 218.398 491.152 218.039C491.957 217.68 492.832 217.5 493.777 217.5C495.121 217.5 496.199 217.895 497.012 218.684C497.832 219.473 498.242 220.48 498.242 221.707C498.242 222.113 498.18 222.598 498.055 223.16ZM497.258 222.164C497.297 221.086 496.977 220.203 496.297 219.516C495.609 218.836 494.688 218.496 493.531 218.496C492.406 218.496 491.355 218.828 490.379 219.492C489.402 220.156 488.688 221.047 488.234 222.164H497.258ZM511.379 218.496C511.426 218.27 511.508 218.105 511.625 218.004C511.742 217.902 511.871 217.852 512.012 217.852C512.129 217.852 512.223 217.891 512.293 217.969C512.371 218.039 512.41 218.121 512.41 218.215C512.41 218.285 512.395 218.387 512.363 218.52L512.012 220.207C511.957 220.441 511.871 220.609 511.754 220.711C511.645 220.812 511.516 220.863 511.367 220.863C511.258 220.863 511.164 220.828 511.086 220.758C511.016 220.688 510.98 220.605 510.98 220.512L510.992 220.312C511 220.25 511.004 220.191 511.004 220.137C511.004 219.715 510.816 219.371 510.441 219.105C509.887 218.699 509.109 218.496 508.109 218.496C506.906 218.496 505.949 218.754 505.238 219.27C504.707 219.652 504.441 220.059 504.441 220.488C504.441 220.91 504.672 221.254 505.133 221.52C505.469 221.707 506.18 221.863 507.266 221.988C508.352 222.105 509.129 222.242 509.598 222.398C510.254 222.609 510.742 222.914 511.062 223.312C511.383 223.711 511.543 224.16 511.543 224.66C511.543 225.238 511.332 225.816 510.91 226.395C510.488 226.973 509.844 227.449 508.977 227.824C508.109 228.199 507.133 228.387 506.047 228.387C505.273 228.387 504.59 228.285 503.996 228.082C503.402 227.887 502.898 227.594 502.484 227.203C502.422 227.523 502.344 227.73 502.25 227.824C502.117 227.941 501.973 228 501.816 228C501.707 228 501.613 227.965 501.535 227.895C501.465 227.824 501.43 227.738 501.43 227.637C501.43 227.566 501.441 227.469 501.465 227.344L501.898 225.316C501.945 225.082 502.027 224.914 502.145 224.812C502.262 224.711 502.395 224.66 502.543 224.66C502.652 224.66 502.742 224.699 502.812 224.777C502.891 224.848 502.93 224.934 502.93 225.035C502.93 225.098 502.918 225.188 502.895 225.305C502.871 225.422 502.859 225.508 502.859 225.562C502.859 226.008 503.09 226.398 503.551 226.734C504.16 227.18 505.051 227.402 506.223 227.402C507.621 227.402 508.688 227.125 509.422 226.57C510.156 226.016 510.523 225.465 510.523 224.918C510.523 224.621 510.414 224.332 510.195 224.051C509.984 223.762 509.66 223.535 509.223 223.371C508.785 223.199 508.066 223.062 507.066 222.961C506.074 222.852 505.348 222.719 504.887 222.562C504.434 222.398 504.078 222.152 503.82 221.824C503.562 221.496 503.434 221.121 503.434 220.699C503.434 220.207 503.602 219.727 503.938 219.258C504.273 218.781 504.832 218.371 505.613 218.027C506.402 217.676 507.285 217.5 508.262 217.5C508.941 217.5 509.539 217.582 510.055 217.746C510.578 217.91 511.02 218.16 511.379 218.496ZM520.695 217.852H526.039C526.266 217.852 526.414 217.883 526.484 217.945C526.562 218.008 526.602 218.105 526.602 218.238C526.602 218.379 526.574 218.496 526.52 218.59C526.465 218.676 526.398 218.738 526.32 218.777C526.219 218.824 526.055 218.848 525.828 218.848H520.484L519.09 225.398C519.051 225.586 519.031 225.758 519.031 225.914C519.031 226.289 519.223 226.633 519.605 226.945C519.996 227.25 520.562 227.402 521.305 227.402C522 227.402 522.754 227.305 523.566 227.109C524.387 226.914 525.039 226.688 525.523 226.43C525.703 226.328 525.844 226.277 525.945 226.277C526.055 226.277 526.145 226.316 526.215 226.395C526.285 226.465 526.32 226.562 526.32 226.688C526.32 226.852 526.223 227.004 526.027 227.145C525.551 227.488 524.711 227.801 523.508 228.082C522.641 228.285 521.836 228.387 521.094 228.387C520.117 228.387 519.359 228.16 518.82 227.707C518.289 227.254 518.023 226.707 518.023 226.066C518.023 225.863 518.047 225.641 518.094 225.398L519.488 218.848H517.672C517.453 218.848 517.305 218.812 517.227 218.742C517.148 218.672 517.109 218.574 517.109 218.449C517.109 218.293 517.172 218.156 517.297 218.039C517.43 217.914 517.625 217.852 517.883 217.852H519.699L520.32 214.945C520.367 214.711 520.449 214.543 520.566 214.441C520.684 214.34 520.816 214.289 520.965 214.289C521.074 214.289 521.164 214.324 521.234 214.395C521.312 214.465 521.352 214.551 521.352 214.652C521.352 214.715 521.336 214.812 521.305 214.945L520.695 217.852Z" fill="white"/>
<path d="M878.918 220.418H872.449L870.352 224.016H872.238C872.465 224.016 872.617 224.051 872.695 224.121C872.773 224.184 872.812 224.277 872.812 224.402C872.812 224.566 872.746 224.707 872.613 224.824C872.48 224.941 872.285 225 872.027 225H868.359C868.141 225 867.992 224.965 867.914 224.895C867.836 224.824 867.797 224.727 867.797 224.602C867.797 224.445 867.859 224.309 867.984 224.191C868.117 224.074 868.312 224.016 868.57 224.016H869.32L876.176 212.273H873.27C873.051 212.273 872.902 212.242 872.824 212.18C872.746 212.109 872.707 212.008 872.707 211.875C872.707 211.719 872.77 211.582 872.895 211.465C873.027 211.348 873.223 211.289 873.48 211.289H878.426L880.535 224.016H881.297C881.516 224.016 881.664 224.051 881.742 224.121C881.82 224.184 881.859 224.277 881.859 224.402C881.859 224.566 881.793 224.707 881.66 224.824C881.535 224.941 881.344 225 881.086 225H877.406C877.188 225 877.039 224.965 876.961 224.895C876.883 224.824 876.844 224.727 876.844 224.602C876.844 224.445 876.906 224.309 877.031 224.191C877.164 224.074 877.359 224.016 877.617 224.016H879.504L878.918 220.418ZM878.754 219.434L877.559 212.273H877.195L873.023 219.434H878.754ZM889.594 214.852L889.066 217.336C890.621 216.164 891.746 215.418 892.441 215.098C893.145 214.77 893.762 214.605 894.293 214.605C894.824 214.605 895.301 214.785 895.723 215.145C896.152 215.504 896.367 215.785 896.367 215.988C896.367 216.152 896.305 216.297 896.18 216.422C896.055 216.547 895.906 216.609 895.734 216.609C895.656 216.609 895.594 216.598 895.547 216.574C895.5 216.543 895.418 216.453 895.301 216.305C895.09 216.031 894.891 215.844 894.703 215.742C894.523 215.641 894.34 215.59 894.152 215.59C893.715 215.59 893.156 215.762 892.477 216.105C891.805 216.449 890.578 217.289 888.797 218.625L887.648 224.016H892.008C892.234 224.016 892.387 224.051 892.465 224.121C892.543 224.184 892.582 224.277 892.582 224.402C892.582 224.566 892.516 224.707 892.383 224.824C892.25 224.941 892.055 225 891.797 225H884.074C883.855 225 883.707 224.969 883.629 224.906C883.551 224.836 883.512 224.742 883.512 224.625C883.512 224.469 883.574 224.336 883.699 224.227C883.824 224.109 884.016 224.051 884.273 224.051H886.652L888.398 215.848H886.582C886.363 215.848 886.215 215.812 886.137 215.742C886.059 215.672 886.02 215.578 886.02 215.461C886.02 215.297 886.082 215.156 886.207 215.039C886.34 214.914 886.535 214.852 886.793 214.852H889.594ZM903.211 214.852H908.555C908.781 214.852 908.93 214.883 909 214.945C909.078 215.008 909.117 215.105 909.117 215.238C909.117 215.379 909.09 215.496 909.035 215.59C908.98 215.676 908.914 215.738 908.836 215.777C908.734 215.824 908.57 215.848 908.344 215.848H903L901.605 222.398C901.566 222.586 901.547 222.758 901.547 222.914C901.547 223.289 901.738 223.633 902.121 223.945C902.512 224.25 903.078 224.402 903.82 224.402C904.516 224.402 905.27 224.305 906.082 224.109C906.902 223.914 907.555 223.688 908.039 223.43C908.219 223.328 908.359 223.277 908.461 223.277C908.57 223.277 908.66 223.316 908.73 223.395C908.801 223.465 908.836 223.562 908.836 223.688C908.836 223.852 908.738 224.004 908.543 224.145C908.066 224.488 907.227 224.801 906.023 225.082C905.156 225.285 904.352 225.387 903.609 225.387C902.633 225.387 901.875 225.16 901.336 224.707C900.805 224.254 900.539 223.707 900.539 223.066C900.539 222.863 900.562 222.641 900.609 222.398L902.004 215.848H900.188C899.969 215.848 899.82 215.812 899.742 215.742C899.664 215.672 899.625 215.574 899.625 215.449C899.625 215.293 899.688 215.156 899.812 215.039C899.945 214.914 900.141 214.852 900.398 214.852H902.215L902.836 211.945C902.883 211.711 902.965 211.543 903.082 211.441C903.199 211.34 903.332 211.289 903.48 211.289C903.59 211.289 903.68 211.324 903.75 211.395C903.828 211.465 903.867 211.551 903.867 211.652C903.867 211.715 903.852 211.812 903.82 211.945L903.211 214.852ZM922.723 215.496C922.77 215.27 922.852 215.105 922.969 215.004C923.086 214.902 923.215 214.852 923.355 214.852C923.473 214.852 923.566 214.891 923.637 214.969C923.715 215.039 923.754 215.121 923.754 215.215C923.754 215.285 923.738 215.387 923.707 215.52L923.355 217.207C923.301 217.441 923.215 217.609 923.098 217.711C922.988 217.812 922.859 217.863 922.711 217.863C922.602 217.863 922.508 217.828 922.43 217.758C922.359 217.688 922.324 217.605 922.324 217.512L922.336 217.312C922.344 217.25 922.348 217.191 922.348 217.137C922.348 216.715 922.16 216.371 921.785 216.105C921.23 215.699 920.453 215.496 919.453 215.496C918.25 215.496 917.293 215.754 916.582 216.27C916.051 216.652 915.785 217.059 915.785 217.488C915.785 217.91 916.016 218.254 916.477 218.52C916.812 218.707 917.523 218.863 918.609 218.988C919.695 219.105 920.473 219.242 920.941 219.398C921.598 219.609 922.086 219.914 922.406 220.312C922.727 220.711 922.887 221.16 922.887 221.66C922.887 222.238 922.676 222.816 922.254 223.395C921.832 223.973 921.188 224.449 920.32 224.824C919.453 225.199 918.477 225.387 917.391 225.387C916.617 225.387 915.934 225.285 915.34 225.082C914.746 224.887 914.242 224.594 913.828 224.203C913.766 224.523 913.688 224.73 913.594 224.824C913.461 224.941 913.316 225 913.16 225C913.051 225 912.957 224.965 912.879 224.895C912.809 224.824 912.773 224.738 912.773 224.637C912.773 224.566 912.785 224.469 912.809 224.344L913.242 222.316C913.289 222.082 913.371 221.914 913.488 221.812C913.605 221.711 913.738 221.66 913.887 221.66C913.996 221.66 914.086 221.699 914.156 221.777C914.234 221.848 914.273 221.934 914.273 222.035C914.273 222.098 914.262 222.188 914.238 222.305C914.215 222.422 914.203 222.508 914.203 222.562C914.203 223.008 914.434 223.398 914.895 223.734C915.504 224.18 916.395 224.402 917.566 224.402C918.965 224.402 920.031 224.125 920.766 223.57C921.5 223.016 921.867 222.465 921.867 221.918C921.867 221.621 921.758 221.332 921.539 221.051C921.328 220.762 921.004 220.535 920.566 220.371C920.129 220.199 919.41 220.062 918.41 219.961C917.418 219.852 916.691 219.719 916.23 219.562C915.777 219.398 915.422 219.152 915.164 218.824C914.906 218.496 914.777 218.121 914.777 217.699C914.777 217.207 914.945 216.727 915.281 216.258C915.617 215.781 916.176 215.371 916.957 215.027C917.746 214.676 918.629 214.5 919.605 214.5C920.285 214.5 920.883 214.582 921.398 214.746C921.922 214.91 922.363 215.16 922.723 215.496ZM950.59 225H949.055L948.328 215.262L943.523 225H941.977L943.242 212.273H942.879C942.66 212.273 942.508 212.242 942.422 212.18C942.344 212.109 942.305 212.008 942.305 211.875C942.305 211.719 942.371 211.582 942.504 211.465C942.637 211.348 942.832 211.289 943.09 211.289H946.746C946.965 211.289 947.113 211.324 947.191 211.395C947.27 211.457 947.309 211.551 947.309 211.676C947.309 211.84 947.242 211.98 947.109 212.098C946.984 212.215 946.793 212.273 946.535 212.273H944.227L943.066 223.875L947.766 214.324H949.266L949.969 223.875L953.707 212.273H951.398C951.18 212.273 951.031 212.242 950.953 212.18C950.875 212.109 950.836 212.008 950.836 211.875C950.836 211.719 950.898 211.582 951.023 211.465C951.156 211.348 951.352 211.289 951.609 211.289H955.254C955.473 211.289 955.621 211.324 955.699 211.395C955.777 211.457 955.816 211.551 955.816 211.676C955.816 211.793 955.777 211.906 955.699 212.016C955.621 212.117 955.527 212.188 955.418 212.227C955.34 212.258 955.094 212.273 954.68 212.273L950.59 225ZM967.055 220.16H957.023C957 220.402 956.988 220.586 956.988 220.711C956.988 221.781 957.352 222.664 958.078 223.359C958.805 224.055 959.789 224.402 961.031 224.402C961.758 224.402 962.547 224.285 963.398 224.051C964.25 223.809 964.98 223.484 965.59 223.078C965.77 222.961 965.914 222.902 966.023 222.902C966.125 222.902 966.211 222.941 966.281 223.02C966.352 223.09 966.387 223.184 966.387 223.301C966.387 223.441 966.324 223.574 966.199 223.699C965.84 224.082 965.121 224.461 964.043 224.836C962.965 225.203 961.871 225.387 960.762 225.387C959.324 225.387 958.168 224.961 957.293 224.109C956.426 223.258 955.992 222.176 955.992 220.863C955.992 219.996 956.18 219.18 956.555 218.414C956.93 217.641 957.422 216.977 958.031 216.422C958.648 215.859 959.355 215.398 960.152 215.039C960.957 214.68 961.832 214.5 962.777 214.5C964.121 214.5 965.199 214.895 966.012 215.684C966.832 216.473 967.242 217.48 967.242 218.707C967.242 219.113 967.18 219.598 967.055 220.16ZM966.258 219.164C966.297 218.086 965.977 217.203 965.297 216.516C964.609 215.836 963.688 215.496 962.531 215.496C961.406 215.496 960.355 215.828 959.379 216.492C958.402 217.156 957.688 218.047 957.234 219.164H966.258ZM980.379 215.496C980.426 215.27 980.508 215.105 980.625 215.004C980.742 214.902 980.871 214.852 981.012 214.852C981.129 214.852 981.223 214.891 981.293 214.969C981.371 215.039 981.41 215.121 981.41 215.215C981.41 215.285 981.395 215.387 981.363 215.52L981.012 217.207C980.957 217.441 980.871 217.609 980.754 217.711C980.645 217.812 980.516 217.863 980.367 217.863C980.258 217.863 980.164 217.828 980.086 217.758C980.016 217.688 979.98 217.605 979.98 217.512L979.992 217.312C980 217.25 980.004 217.191 980.004 217.137C980.004 216.715 979.816 216.371 979.441 216.105C978.887 215.699 978.109 215.496 977.109 215.496C975.906 215.496 974.949 215.754 974.238 216.27C973.707 216.652 973.441 217.059 973.441 217.488C973.441 217.91 973.672 218.254 974.133 218.52C974.469 218.707 975.18 218.863 976.266 218.988C977.352 219.105 978.129 219.242 978.598 219.398C979.254 219.609 979.742 219.914 980.062 220.312C980.383 220.711 980.543 221.16 980.543 221.66C980.543 222.238 980.332 222.816 979.91 223.395C979.488 223.973 978.844 224.449 977.977 224.824C977.109 225.199 976.133 225.387 975.047 225.387C974.273 225.387 973.59 225.285 972.996 225.082C972.402 224.887 971.898 224.594 971.484 224.203C971.422 224.523 971.344 224.73 971.25 224.824C971.117 224.941 970.973 225 970.816 225C970.707 225 970.613 224.965 970.535 224.895C970.465 224.824 970.43 224.738 970.43 224.637C970.43 224.566 970.441 224.469 970.465 224.344L970.898 222.316C970.945 222.082 971.027 221.914 971.145 221.812C971.262 221.711 971.395 221.66 971.543 221.66C971.652 221.66 971.742 221.699 971.812 221.777C971.891 221.848 971.93 221.934 971.93 222.035C971.93 222.098 971.918 222.188 971.895 222.305C971.871 222.422 971.859 222.508 971.859 222.562C971.859 223.008 972.09 223.398 972.551 223.734C973.16 224.18 974.051 224.402 975.223 224.402C976.621 224.402 977.688 224.125 978.422 223.57C979.156 223.016 979.523 222.465 979.523 221.918C979.523 221.621 979.414 221.332 979.195 221.051C978.984 220.762 978.66 220.535 978.223 220.371C977.785 220.199 977.066 220.062 976.066 219.961C975.074 219.852 974.348 219.719 973.887 219.562C973.434 219.398 973.078 219.152 972.82 218.824C972.562 218.496 972.434 218.121 972.434 217.699C972.434 217.207 972.602 216.727 972.938 216.258C973.273 215.781 973.832 215.371 974.613 215.027C975.402 214.676 976.285 214.5 977.262 214.5C977.941 214.5 978.539 214.582 979.055 214.746C979.578 214.91 980.02 215.16 980.379 215.496ZM989.695 214.852H995.039C995.266 214.852 995.414 214.883 995.484 214.945C995.562 215.008 995.602 215.105 995.602 215.238C995.602 215.379 995.574 215.496 995.52 215.59C995.465 215.676 995.398 215.738 995.32 215.777C995.219 215.824 995.055 215.848 994.828 215.848H989.484L988.09 222.398C988.051 222.586 988.031 222.758 988.031 222.914C988.031 223.289 988.223 223.633 988.605 223.945C988.996 224.25 989.562 224.402 990.305 224.402C991 224.402 991.754 224.305 992.566 224.109C993.387 223.914 994.039 223.688 994.523 223.43C994.703 223.328 994.844 223.277 994.945 223.277C995.055 223.277 995.145 223.316 995.215 223.395C995.285 223.465 995.32 223.562 995.32 223.688C995.32 223.852 995.223 224.004 995.027 224.145C994.551 224.488 993.711 224.801 992.508 225.082C991.641 225.285 990.836 225.387 990.094 225.387C989.117 225.387 988.359 225.16 987.82 224.707C987.289 224.254 987.023 223.707 987.023 223.066C987.023 222.863 987.047 222.641 987.094 222.398L988.488 215.848H986.672C986.453 215.848 986.305 215.812 986.227 215.742C986.148 215.672 986.109 215.574 986.109 215.449C986.109 215.293 986.172 215.156 986.297 215.039C986.43 214.914 986.625 214.852 986.883 214.852H988.699L989.32 211.945C989.367 211.711 989.449 211.543 989.566 211.441C989.684 211.34 989.816 211.289 989.965 211.289C990.074 211.289 990.164 211.324 990.234 211.395C990.312 211.465 990.352 211.551 990.352 211.652C990.352 211.715 990.336 211.812 990.305 211.945L989.695 214.852Z" fill="white"/>
<line x1="852.001" y1="33.5" x2="520" y2="33.5" stroke="white" stroke-width="3"/>
</svg>
