<svg width="1162" height="19" viewBox="0 0 1162 19" fill="none" xmlns="http://www.w3.org/2000/svg">
<path d="M0 11C0 4.92487 4.92487 0 11 0H1151C1157.08 0 1162 4.92487 1162 11V19H0V11Z" fill="#E3E3E3"/>
<circle cx="16.5" cy="9.5" r="4.5" fill="#BF002D"/>
<circle cx="30.5" cy="9.5" r="4.5" fill="#FFFF00"/>
<circle cx="44.5" cy="9.5" r="4.5" fill="#008000"/>
<path d="M527.984 6.4C527.664 6.4 527.536 6.24 527.6 5.92C527.653 5.6 527.84 5.44 528.16 5.44H535.36C535.68 5.44 535.813 5.6 535.76 5.92C535.696 6.24 535.504 6.4 535.184 6.4H527.984ZM528.208 5.2C527.888 5.2 527.755 5.04 527.808 4.72C527.861 4.4 528.048 4.24 528.368 4.24H535.568C535.888 4.24 536.021 4.4 535.968 4.72C535.915 5.04 535.728 5.2 535.408 5.2H528.208ZM526.72 13.6C526.4 13.6 526.267 13.44 526.32 13.12C526.384 12.8 526.576 12.64 526.896 12.64H534.096C534.416 12.64 534.544 12.8 534.48 13.12C534.427 13.44 534.24 13.6 533.92 13.6H526.72ZM526.512 14.8C526.192 14.8 526.059 14.64 526.112 14.32C526.165 14 526.352 13.84 526.672 13.84H533.872C534.192 13.84 534.325 14 534.272 14.32C534.219 14.64 534.032 14.8 533.712 14.8H526.512ZM526.96 9.52C527.013 9.2 527.2 9.04 527.52 9.04H529.92C530.24 9.04 530.373 9.2 530.32 9.52C530.267 9.84 530.08 10 529.76 10H527.36C527.04 10 526.907 9.84 526.96 9.52ZM527.168 8.32C527.232 8 527.424 7.84 527.744 7.84H530.144C530.464 7.84 530.592 8 530.528 8.32C530.475 8.64 530.288 8.8 529.968 8.8H527.568C527.248 8.8 527.115 8.64 527.168 8.32ZM527.776 7.6C527.456 7.6 527.323 7.44 527.376 7.12C527.44 6.8 527.632 6.64 527.952 6.64H530.352C530.672 6.64 530.8 6.8 530.736 7.12C530.683 7.44 530.496 7.6 530.176 7.6H527.776ZM526.544 11.92C526.597 11.6 526.784 11.44 527.104 11.44H529.504C529.824 11.44 529.957 11.6 529.904 11.92C529.84 12.24 529.648 12.4 529.328 12.4H526.928C526.608 12.4 526.48 12.24 526.544 11.92ZM526.752 10.72C526.805 10.4 526.992 10.24 527.312 10.24H529.712C530.032 10.24 530.165 10.4 530.112 10.72C530.048 11.04 529.856 11.2 529.536 11.2H527.136C526.816 11.2 526.688 11.04 526.752 10.72ZM531.344 11.92C531.397 11.6 531.584 11.44 531.904 11.44H534.304C534.624 11.44 534.757 11.6 534.704 11.92C534.64 12.24 534.448 12.4 534.128 12.4H531.728C531.408 12.4 531.28 12.24 531.344 11.92ZM532.176 7.12C532.24 6.8 532.432 6.64 532.752 6.64H535.152C535.472 6.64 535.6 6.8 535.536 7.12C535.483 7.44 535.296 7.6 534.976 7.6H532.576C532.256 7.6 532.123 7.44 532.176 7.12ZM527.104 15.52C527.157 15.2 527.344 15.04 527.664 15.04H532.464C532.784 15.04 532.917 15.2 532.864 15.52C532.811 15.84 532.624 16 532.304 16H527.504C527.184 16 527.051 15.84 527.104 15.52ZM529.216 3.52C529.269 3.2 529.456 3.04 529.776 3.04H534.576C534.896 3.04 535.029 3.2 534.976 3.52C534.923 3.84 534.736 4 534.416 4H529.616C529.296 4 529.163 3.84 529.216 3.52ZM538.062 6.4C537.742 6.4 537.614 6.24 537.678 5.92C537.731 5.6 537.918 5.44 538.238 5.44H545.438C545.758 5.44 545.891 5.6 545.838 5.92C545.774 6.24 545.582 6.4 545.262 6.4H538.062ZM538.286 5.2C537.966 5.2 537.833 5.04 537.886 4.72C537.939 4.4 538.126 4.24 538.446 4.24H545.646C545.966 4.24 546.099 4.4 546.046 4.72C545.993 5.04 545.806 5.2 545.486 5.2H538.286ZM536.59 14.8C536.27 14.8 536.137 14.64 536.19 14.32C536.243 14 536.43 13.84 536.75 13.84H543.95C544.27 13.84 544.403 14 544.35 14.32C544.297 14.64 544.11 14.8 543.79 14.8H536.59ZM536.798 13.6C536.478 13.6 536.345 13.44 536.398 13.12C536.462 12.8 536.654 12.64 536.974 12.64H544.174C544.494 12.64 544.622 12.8 544.558 13.12C544.505 13.44 544.318 13.6 543.998 13.6H536.798ZM536.83 10.72C536.883 10.4 537.07 10.24 537.39 10.24H539.79C540.11 10.24 540.243 10.4 540.19 10.72C540.126 11.04 539.934 11.2 539.614 11.2H537.214C536.894 11.2 536.766 11.04 536.83 10.72ZM537.038 9.52C537.091 9.2 537.278 9.04 537.598 9.04H539.998C540.318 9.04 540.451 9.2 540.398 9.52C540.345 9.84 540.158 10 539.838 10H537.438C537.118 10 536.985 9.84 537.038 9.52ZM537.646 8.8C537.326 8.8 537.193 8.64 537.246 8.32C537.31 8 537.502 7.84 537.822 7.84H540.222C540.542 7.84 540.67 8 540.606 8.32C540.553 8.64 540.366 8.8 540.046 8.8H537.646ZM541.63 10.72C541.683 10.4 541.87 10.24 542.19 10.24H544.59C544.91 10.24 545.043 10.4 544.99 10.72C544.926 11.04 544.734 11.2 544.414 11.2H542.014C541.694 11.2 541.566 11.04 541.63 10.72ZM541.838 9.52C541.891 9.2 542.078 9.04 542.398 9.04H544.798C545.118 9.04 545.251 9.2 545.198 9.52C545.145 9.84 544.958 10 544.638 10H542.238C541.918 10 541.785 9.84 541.838 9.52ZM542.446 8.8C542.126 8.8 541.993 8.64 542.046 8.32C542.11 8 542.302 7.84 542.622 7.84H545.022C545.342 7.84 545.47 8 545.406 8.32C545.353 8.64 545.166 8.8 544.846 8.8H542.446ZM537.454 7.12C537.518 6.8 537.71 6.64 538.03 6.64H540.43C540.75 6.64 540.878 6.8 540.814 7.12C540.761 7.44 540.574 7.6 540.254 7.6H537.854C537.534 7.6 537.401 7.44 537.454 7.12ZM542.654 7.6C542.334 7.6 542.201 7.44 542.254 7.12C542.318 6.8 542.51 6.64 542.83 6.64H545.23C545.55 6.64 545.678 6.8 545.614 7.12C545.561 7.44 545.374 7.6 545.054 7.6H542.654ZM536.622 11.92C536.675 11.6 536.862 11.44 537.182 11.44H539.582C539.902 11.44 540.035 11.6 539.982 11.92C539.918 12.24 539.726 12.4 539.406 12.4H537.006C536.686 12.4 536.558 12.24 536.622 11.92ZM541.806 12.4C541.486 12.4 541.358 12.24 541.422 11.92C541.475 11.6 541.662 11.44 541.982 11.44H544.382C544.702 11.44 544.835 11.6 544.782 11.92C544.718 12.24 544.526 12.4 544.206 12.4H541.806ZM539.294 3.52C539.347 3.2 539.534 3.04 539.854 3.04H544.654C544.974 3.04 545.107 3.2 545.054 3.52C545.001 3.84 544.814 4 544.494 4H539.694C539.374 4 539.241 3.84 539.294 3.52ZM537.182 15.52C537.235 15.2 537.422 15.04 537.742 15.04H542.542C542.862 15.04 542.995 15.2 542.942 15.52C542.889 15.84 542.702 16 542.382 16H537.582C537.262 16 537.129 15.84 537.182 15.52ZM548.14 6.4C547.82 6.4 547.692 6.24 547.756 5.92C547.81 5.6 547.996 5.44 548.316 5.44H555.516C555.836 5.44 555.97 5.6 555.916 5.92C555.852 6.24 555.66 6.4 555.34 6.4H548.14ZM548.364 5.2C548.044 5.2 547.911 5.04 547.964 4.72C548.018 4.4 548.204 4.24 548.524 4.24H555.724C556.044 4.24 556.178 4.4 556.124 4.72C556.071 5.04 555.884 5.2 555.564 5.2H548.364ZM546.876 13.6C546.556 13.6 546.423 13.44 546.476 13.12C546.54 12.8 546.732 12.64 547.052 12.64H554.252C554.572 12.64 554.7 12.8 554.636 13.12C554.583 13.44 554.396 13.6 554.076 13.6H546.876ZM546.668 14.8C546.348 14.8 546.215 14.64 546.268 14.32C546.322 14 546.508 13.84 546.828 13.84H554.028C554.348 13.84 554.482 14 554.428 14.32C554.375 14.64 554.188 14.8 553.868 14.8H546.668ZM547.116 9.52C547.17 9.2 547.356 9.04 547.676 9.04H550.076C550.396 9.04 550.53 9.2 550.476 9.52C550.423 9.84 550.236 10 549.916 10H547.516C547.196 10 547.063 9.84 547.116 9.52ZM547.324 8.32C547.388 8 547.58 7.84 547.9 7.84H550.3C550.62 7.84 550.748 8 550.684 8.32C550.631 8.64 550.444 8.8 550.124 8.8H547.724C547.404 8.8 547.271 8.64 547.324 8.32ZM547.932 7.6C547.612 7.6 547.479 7.44 547.532 7.12C547.596 6.8 547.788 6.64 548.108 6.64H550.508C550.828 6.64 550.956 6.8 550.892 7.12C550.839 7.44 550.652 7.6 550.332 7.6H547.932ZM551.916 9.52C551.97 9.2 552.156 9.04 552.476 9.04H554.876C555.196 9.04 555.33 9.2 555.276 9.52C555.223 9.84 555.036 10 554.716 10H552.316C551.996 10 551.863 9.84 551.916 9.52ZM552.124 8.32C552.188 8 552.38 7.84 552.7 7.84H555.1C555.42 7.84 555.548 8 555.484 8.32C555.431 8.64 555.244 8.8 554.924 8.8H552.524C552.204 8.8 552.071 8.64 552.124 8.32ZM552.732 7.6C552.412 7.6 552.279 7.44 552.332 7.12C552.396 6.8 552.588 6.64 552.908 6.64H555.308C555.628 6.64 555.756 6.8 555.692 7.12C555.639 7.44 555.452 7.6 555.132 7.6H552.732ZM546.7 11.92C546.754 11.6 546.94 11.44 547.26 11.44H549.66C549.98 11.44 550.114 11.6 550.06 11.92C549.996 12.24 549.804 12.4 549.484 12.4H547.084C546.764 12.4 546.636 12.24 546.7 11.92ZM546.908 10.72C546.962 10.4 547.148 10.24 547.468 10.24H549.868C550.188 10.24 550.322 10.4 550.268 10.72C550.204 11.04 550.012 11.2 549.692 11.2H547.292C546.972 11.2 546.844 11.04 546.908 10.72ZM551.5 11.92C551.554 11.6 551.74 11.44 552.06 11.44H554.46C554.78 11.44 554.914 11.6 554.86 11.92C554.796 12.24 554.604 12.4 554.284 12.4H551.884C551.564 12.4 551.436 12.24 551.5 11.92ZM551.708 10.72C551.762 10.4 551.948 10.24 552.268 10.24H554.668C554.988 10.24 555.122 10.4 555.068 10.72C555.004 11.04 554.812 11.2 554.492 11.2H552.092C551.772 11.2 551.644 11.04 551.708 10.72ZM548.172 3.52C548.226 3.2 548.412 3.04 548.732 3.04H554.732C555.052 3.04 555.186 3.2 555.132 3.52C555.079 3.84 554.892 4 554.572 4H548.572C548.252 4 548.119 3.84 548.172 3.52ZM546.06 15.52C546.114 15.2 546.3 15.04 546.62 15.04H552.62C552.94 15.04 553.074 15.2 553.02 15.52C552.967 15.84 552.78 16 552.46 16H546.46C546.14 16 546.007 15.84 546.06 15.52ZM558.218 6.4C557.898 6.4 557.77 6.24 557.834 5.92C557.888 5.6 558.074 5.44 558.394 5.44H565.594C565.914 5.44 566.048 5.6 565.994 5.92C565.93 6.24 565.738 6.4 565.418 6.4H558.218ZM558.442 5.2C558.122 5.2 557.989 5.04 558.042 4.72C558.096 4.4 558.282 4.24 558.602 4.24H565.802C566.122 4.24 566.256 4.4 566.202 4.72C566.149 5.04 565.962 5.2 565.642 5.2H558.442ZM557.802 8.8C557.482 8.8 557.349 8.64 557.402 8.32C557.466 8 557.658 7.84 557.978 7.84H565.178C565.498 7.84 565.626 8 565.562 8.32C565.509 8.64 565.322 8.8 565.002 8.8H557.802ZM557.594 10C557.274 10 557.141 9.84 557.194 9.52C557.248 9.2 557.434 9.04 557.754 9.04H564.954C565.274 9.04 565.408 9.2 565.354 9.52C565.301 9.84 565.114 10 564.794 10H557.594ZM557.37 11.2C557.05 11.2 556.922 11.04 556.986 10.72C557.04 10.4 557.226 10.24 557.546 10.24H564.746C565.066 10.24 565.2 10.4 565.146 10.72C565.082 11.04 564.89 11.2 564.57 11.2H557.37ZM556.954 13.6C556.634 13.6 556.501 13.44 556.554 13.12C556.618 12.8 556.81 12.64 557.13 12.64H564.33C564.65 12.64 564.778 12.8 564.714 13.12C564.661 13.44 564.474 13.6 564.154 13.6H556.954ZM556.746 14.8C556.426 14.8 556.293 14.64 556.346 14.32C556.4 14 556.586 13.84 556.906 13.84H564.106C564.426 13.84 564.56 14 564.506 14.32C564.453 14.64 564.266 14.8 563.946 14.8H556.746ZM556.778 11.92C556.832 11.6 557.018 11.44 557.338 11.44H559.738C560.058 11.44 560.192 11.6 560.138 11.92C560.074 12.24 559.882 12.4 559.562 12.4H557.162C556.842 12.4 556.714 12.24 556.778 11.92ZM558.01 7.6C557.69 7.6 557.557 7.44 557.61 7.12C557.674 6.8 557.866 6.64 558.186 6.64H560.586C560.906 6.64 561.034 6.8 560.97 7.12C560.917 7.44 560.73 7.6 560.41 7.6H558.01ZM557.338 15.52C557.392 15.2 557.578 15.04 557.898 15.04H563.898C564.218 15.04 564.352 15.2 564.298 15.52C564.245 15.84 564.058 16 563.738 16H557.738C557.418 16 557.285 15.84 557.338 15.52ZM559.45 3.52C559.504 3.2 559.69 3.04 560.01 3.04H566.01C566.33 3.04 566.464 3.2 566.41 3.52C566.357 3.84 566.17 4 565.85 4H559.85C559.53 4 559.397 3.84 559.45 3.52ZM568.521 5.2C568.201 5.2 568.067 5.04 568.121 4.72C568.174 4.4 568.361 4.24 568.681 4.24H575.881C576.201 4.24 576.334 4.4 576.281 4.72C576.227 5.04 576.041 5.2 575.72 5.2H568.521ZM568.729 4C568.409 4 568.275 3.84 568.329 3.52C568.382 3.2 568.569 3.04 568.889 3.04H574.889C575.209 3.04 575.342 3.2 575.289 3.52C575.235 3.84 575.049 4 574.729 4H568.729ZM568.297 6.4C567.977 6.4 567.849 6.24 567.913 5.92C567.966 5.6 568.153 5.44 568.473 5.44H575.673C575.993 5.44 576.126 5.6 576.073 5.92C576.009 6.24 575.817 6.4 575.497 6.4H568.297ZM567.881 8.8C567.561 8.8 567.427 8.64 567.481 8.32C567.545 8 567.737 7.84 568.057 7.84H575.257C575.577 7.84 575.705 8 575.641 8.32C575.587 8.64 575.401 8.8 575.081 8.8H567.881ZM567.449 11.2C567.129 11.2 567.001 11.04 567.065 10.72C567.118 10.4 567.305 10.24 567.625 10.24H574.825C575.145 10.24 575.278 10.4 575.225 10.72C575.161 11.04 574.969 11.2 574.649 11.2H567.449ZM567.033 13.6C566.713 13.6 566.579 13.44 566.633 13.12C566.697 12.8 566.889 12.64 567.209 12.64H574.409C574.729 12.64 574.857 12.8 574.793 13.12C574.739 13.44 574.553 13.6 574.233 13.6H567.033ZM566.825 14.8C566.505 14.8 566.371 14.64 566.425 14.32C566.478 14 566.665 13.84 566.985 13.84H574.185C574.505 13.84 574.638 14 574.585 14.32C574.531 14.64 574.345 14.8 574.025 14.8H566.825ZM567.689 7.12C567.753 6.8 567.945 6.64 568.265 6.64H570.665C570.985 6.64 571.113 6.8 571.049 7.12C570.995 7.44 570.809 7.6 570.489 7.6H568.089C567.769 7.6 567.635 7.44 567.689 7.12ZM572.489 7.12C572.553 6.8 572.745 6.64 573.065 6.64H575.465C575.785 6.64 575.913 6.8 575.849 7.12C575.795 7.44 575.609 7.6 575.289 7.6H572.889C572.569 7.6 572.435 7.44 572.489 7.12ZM566.857 11.92C566.91 11.6 567.097 11.44 567.417 11.44H569.817C570.137 11.44 570.27 11.6 570.217 11.92C570.153 12.24 569.961 12.4 569.641 12.4H567.241C566.921 12.4 566.793 12.24 566.857 11.92ZM571.657 11.92C571.71 11.6 571.897 11.44 572.217 11.44H574.617C574.937 11.44 575.07 11.6 575.017 11.92C574.953 12.24 574.761 12.4 574.441 12.4H572.041C571.721 12.4 571.593 12.24 571.657 11.92ZM566.216 15.52C566.27 15.2 566.457 15.04 566.777 15.04H572.777C573.097 15.04 573.23 15.2 573.177 15.52C573.123 15.84 572.937 16 572.617 16H566.617C566.296 16 566.163 15.84 566.216 15.52ZM567.273 9.52C567.326 9.2 567.513 9.04 567.833 9.04H573.833C574.153 9.04 574.286 9.2 574.233 9.52C574.179 9.84 573.993 10 573.673 10H567.673C567.353 10 567.219 9.84 567.273 9.52ZM578.375 6.4C578.055 6.4 577.927 6.24 577.991 5.92C578.044 5.6 578.231 5.44 578.551 5.44H585.751C586.071 5.44 586.204 5.6 586.151 5.92C586.087 6.24 585.895 6.4 585.575 6.4H578.375ZM578.599 5.2C578.279 5.2 578.145 5.04 578.199 4.72C578.252 4.4 578.439 4.24 578.759 4.24H585.959C586.279 4.24 586.412 4.4 586.359 4.72C586.305 5.04 586.119 5.2 585.799 5.2H578.599ZM577.751 10C577.431 10 577.297 9.84 577.351 9.52C577.404 9.2 577.591 9.04 577.911 9.04H585.111C585.431 9.04 585.564 9.2 585.511 9.52C585.457 9.84 585.271 10 584.951 10H577.751ZM577.959 8.8C577.639 8.8 577.505 8.64 577.559 8.32C577.623 8 577.815 7.84 578.135 7.84H585.335C585.655 7.84 585.783 8 585.719 8.32C585.665 8.64 585.479 8.8 585.159 8.8H577.959ZM576.295 15.52C576.348 15.2 576.535 15.04 576.855 15.04H579.255C579.575 15.04 579.708 15.2 579.655 15.52C579.601 15.84 579.415 16 579.095 16H576.695C576.375 16 576.241 15.84 576.295 15.52ZM576.503 14.32C576.556 14 576.743 13.84 577.063 13.84H579.463C579.783 13.84 579.916 14 579.863 14.32C579.809 14.64 579.623 14.8 579.303 14.8H576.903C576.583 14.8 576.449 14.64 576.503 14.32ZM577.111 13.6C576.791 13.6 576.657 13.44 576.711 13.12C576.775 12.8 576.967 12.64 577.287 12.64H579.687C580.007 12.64 580.135 12.8 580.071 13.12C580.017 13.44 579.831 13.6 579.511 13.6H577.111ZM581.095 15.52C581.148 15.2 581.335 15.04 581.655 15.04H584.055C584.375 15.04 584.508 15.2 584.455 15.52C584.401 15.84 584.215 16 583.895 16H581.495C581.175 16 581.041 15.84 581.095 15.52ZM581.303 14.32C581.356 14 581.543 13.84 581.863 13.84H584.263C584.583 13.84 584.716 14 584.663 14.32C584.609 14.64 584.423 14.8 584.103 14.8H581.703C581.383 14.8 581.249 14.64 581.303 14.32ZM581.911 13.6C581.591 13.6 581.457 13.44 581.511 13.12C581.575 12.8 581.767 12.64 582.087 12.64H584.487C584.807 12.64 584.935 12.8 584.871 13.12C584.817 13.44 584.631 13.6 584.311 13.6H581.911ZM576.935 11.92C576.988 11.6 577.175 11.44 577.495 11.44H579.895C580.215 11.44 580.348 11.6 580.295 11.92C580.231 12.24 580.039 12.4 579.719 12.4H577.319C576.999 12.4 576.871 12.24 576.935 11.92ZM582.119 12.4C581.799 12.4 581.671 12.24 581.735 11.92C581.788 11.6 581.975 11.44 582.295 11.44H584.695C585.015 11.44 585.148 11.6 585.095 11.92C585.031 12.24 584.839 12.4 584.519 12.4H582.119ZM577.767 7.12C577.831 6.8 578.023 6.64 578.343 6.64H580.743C581.063 6.64 581.191 6.8 581.127 7.12C581.073 7.44 580.887 7.6 580.567 7.6H578.167C577.847 7.6 577.713 7.44 577.767 7.12ZM582.567 7.12C582.631 6.8 582.823 6.64 583.143 6.64H585.543C585.863 6.64 585.991 6.8 585.927 7.12C585.873 7.44 585.687 7.6 585.367 7.6H582.967C582.647 7.6 582.513 7.44 582.567 7.12ZM578.407 3.52C578.46 3.2 578.647 3.04 578.967 3.04H584.967C585.287 3.04 585.42 3.2 585.367 3.52C585.313 3.84 585.127 4 584.807 4H578.807C578.487 4 578.353 3.84 578.407 3.52ZM577.143 10.72C577.196 10.4 577.383 10.24 577.703 10.24H583.703C584.023 10.24 584.156 10.4 584.103 10.72C584.039 11.04 583.847 11.2 583.527 11.2H577.527C577.207 11.2 577.079 11.04 577.143 10.72ZM588.453 6.4C588.133 6.4 588.005 6.24 588.069 5.92C588.122 5.6 588.309 5.44 588.629 5.44H595.829C596.149 5.44 596.282 5.6 596.229 5.92C596.165 6.24 595.973 6.4 595.653 6.4H588.453ZM588.677 5.2C588.357 5.2 588.223 5.04 588.277 4.72C588.33 4.4 588.517 4.24 588.837 4.24H596.037C596.357 4.24 596.49 4.4 596.437 4.72C596.383 5.04 596.197 5.2 595.877 5.2H588.677ZM588.037 8.8C587.717 8.8 587.583 8.64 587.637 8.32C587.701 8 587.893 7.84 588.213 7.84H595.413C595.733 7.84 595.861 8 595.797 8.32C595.743 8.64 595.557 8.8 595.237 8.8H588.037ZM587.829 10C587.509 10 587.375 9.84 587.429 9.52C587.482 9.2 587.669 9.04 587.989 9.04H595.189C595.509 9.04 595.642 9.2 595.589 9.52C595.535 9.84 595.349 10 595.029 10H587.829ZM587.605 11.2C587.285 11.2 587.157 11.04 587.221 10.72C587.274 10.4 587.461 10.24 587.781 10.24H594.981C595.301 10.24 595.434 10.4 595.381 10.72C595.317 11.04 595.125 11.2 594.805 11.2H587.605ZM587.189 13.6C586.869 13.6 586.735 13.44 586.789 13.12C586.853 12.8 587.045 12.64 587.365 12.64H594.565C594.885 12.64 595.013 12.8 594.949 13.12C594.895 13.44 594.709 13.6 594.389 13.6H587.189ZM586.981 14.8C586.661 14.8 586.527 14.64 586.581 14.32C586.634 14 586.821 13.84 587.141 13.84H594.341C594.661 13.84 594.794 14 594.741 14.32C594.687 14.64 594.501 14.8 594.181 14.8H586.981ZM587.013 11.92C587.066 11.6 587.253 11.44 587.573 11.44H589.973C590.293 11.44 590.426 11.6 590.373 11.92C590.309 12.24 590.117 12.4 589.797 12.4H587.397C587.077 12.4 586.949 12.24 587.013 11.92ZM588.245 7.6C587.925 7.6 587.791 7.44 587.845 7.12C587.909 6.8 588.101 6.64 588.421 6.64H590.821C591.141 6.64 591.269 6.8 591.205 7.12C591.151 7.44 590.965 7.6 590.645 7.6H588.245ZM587.573 15.52C587.626 15.2 587.813 15.04 588.133 15.04H594.133C594.453 15.04 594.586 15.2 594.533 15.52C594.479 15.84 594.293 16 593.973 16H587.973C587.653 16 587.519 15.84 587.573 15.52ZM589.685 3.52C589.738 3.2 589.925 3.04 590.245 3.04H596.245C596.565 3.04 596.698 3.2 596.645 3.52C596.591 3.84 596.405 4 596.085 4H590.085C589.765 4 589.631 3.84 589.685 3.52ZM597.059 14.8C596.739 14.8 596.606 14.64 596.659 14.32C596.712 14 596.899 13.84 597.219 13.84H609.219C609.539 13.84 609.672 14 609.619 14.32C609.566 14.64 609.379 14.8 609.059 14.8H597.059ZM597.267 13.6C596.947 13.6 596.814 13.44 596.867 13.12C596.931 12.8 597.123 12.64 597.443 12.64H609.443C609.763 12.64 609.891 12.8 609.827 13.12C609.774 13.44 609.587 13.6 609.267 13.6H597.267ZM597.091 11.92C597.144 11.6 597.331 11.44 597.651 11.44H600.051C600.371 11.44 600.504 11.6 600.451 11.92C600.387 12.24 600.195 12.4 599.875 12.4H597.475C597.155 12.4 597.027 12.24 597.091 11.92ZM597.299 10.72C597.352 10.4 597.539 10.24 597.859 10.24H600.259C600.579 10.24 600.712 10.4 600.659 10.72C600.595 11.04 600.403 11.2 600.083 11.2H597.683C597.363 11.2 597.235 11.04 597.299 10.72ZM597.907 10C597.587 10 597.454 9.84 597.507 9.52C597.56 9.2 597.747 9.04 598.067 9.04H600.467C600.787 9.04 600.92 9.2 600.867 9.52C600.814 9.84 600.627 10 600.307 10H597.907ZM598.115 8.8C597.795 8.8 597.662 8.64 597.715 8.32C597.779 8 597.971 7.84 598.291 7.84H600.691C601.011 7.84 601.139 8 601.075 8.32C601.022 8.64 600.835 8.8 600.515 8.8H598.115ZM601.891 11.92C601.944 11.6 602.131 11.44 602.451 11.44H604.851C605.171 11.44 605.304 11.6 605.251 11.92C605.187 12.24 604.995 12.4 604.675 12.4H602.275C601.955 12.4 601.827 12.24 601.891 11.92ZM602.099 10.72C602.152 10.4 602.339 10.24 602.659 10.24H605.059C605.379 10.24 605.512 10.4 605.459 10.72C605.395 11.04 605.203 11.2 604.883 11.2H602.483C602.163 11.2 602.035 11.04 602.099 10.72ZM602.707 10C602.387 10 602.254 9.84 602.307 9.52C602.36 9.2 602.547 9.04 602.867 9.04H605.267C605.587 9.04 605.72 9.2 605.667 9.52C605.614 9.84 605.427 10 605.107 10H602.707ZM602.915 8.8C602.595 8.8 602.462 8.64 602.515 8.32C602.579 8 602.771 7.84 603.091 7.84H605.491C605.811 7.84 605.939 8 605.875 8.32C605.822 8.64 605.635 8.8 605.315 8.8H602.915ZM602.723 7.12C602.787 6.8 602.979 6.64 603.299 6.64H605.699C606.019 6.64 606.147 6.8 606.083 7.12C606.03 7.44 605.843 7.6 605.523 7.6H603.123C602.803 7.6 602.67 7.44 602.723 7.12ZM602.947 5.92C603 5.6 603.187 5.44 603.507 5.44H605.907C606.227 5.44 606.36 5.6 606.307 5.92C606.243 6.24 606.051 6.4 605.731 6.4H603.331C603.011 6.4 602.883 6.24 602.947 5.92ZM603.555 5.2C603.235 5.2 603.102 5.04 603.155 4.72C603.208 4.4 603.395 4.24 603.715 4.24H606.115C606.435 4.24 606.568 4.4 606.515 4.72C606.462 5.04 606.275 5.2 605.955 5.2H603.555ZM603.763 4C603.443 4 603.31 3.84 603.363 3.52C603.416 3.2 603.603 3.04 603.923 3.04H606.323C606.643 3.04 606.776 3.2 606.723 3.52C606.67 3.84 606.483 4 606.163 4H603.763ZM597.923 7.12C597.987 6.8 598.179 6.64 598.499 6.64H600.899C601.219 6.64 601.347 6.8 601.283 7.12C601.23 7.44 601.043 7.6 600.723 7.6H598.323C598.003 7.6 597.87 7.44 597.923 7.12ZM598.147 5.92C598.2 5.6 598.387 5.44 598.707 5.44H601.107C601.427 5.44 601.56 5.6 601.507 5.92C601.443 6.24 601.251 6.4 600.931 6.4H598.531C598.211 6.4 598.083 6.24 598.147 5.92ZM598.755 5.2C598.435 5.2 598.302 5.04 598.355 4.72C598.408 4.4 598.595 4.24 598.915 4.24H601.315C601.635 4.24 601.768 4.4 601.715 4.72C601.662 5.04 601.475 5.2 601.155 5.2H598.755ZM598.963 4C598.643 4 598.51 3.84 598.563 3.52C598.616 3.2 598.803 3.04 599.123 3.04H601.523C601.843 3.04 601.976 3.2 601.923 3.52C601.87 3.84 601.683 4 601.363 4H598.963ZM606.691 11.92C606.744 11.6 606.931 11.44 607.251 11.44H609.651C609.971 11.44 610.104 11.6 610.051 11.92C609.987 12.24 609.795 12.4 609.475 12.4H607.075C606.755 12.4 606.627 12.24 606.691 11.92ZM606.899 10.72C606.952 10.4 607.139 10.24 607.459 10.24H609.859C610.179 10.24 610.312 10.4 610.259 10.72C610.195 11.04 610.003 11.2 609.683 11.2H607.283C606.963 11.2 606.835 11.04 606.899 10.72ZM607.507 10C607.187 10 607.054 9.84 607.107 9.52C607.16 9.2 607.347 9.04 607.667 9.04H610.067C610.387 9.04 610.52 9.2 610.467 9.52C610.414 9.84 610.227 10 609.907 10H607.507ZM607.715 8.8C607.395 8.8 607.262 8.64 607.315 8.32C607.379 8 607.571 7.84 607.891 7.84H610.291C610.611 7.84 610.739 8 610.675 8.32C610.622 8.64 610.435 8.8 610.115 8.8H607.715ZM607.523 7.12C607.587 6.8 607.779 6.64 608.099 6.64H610.499C610.819 6.64 610.947 6.8 610.883 7.12C610.83 7.44 610.643 7.6 610.323 7.6H607.923C607.603 7.6 607.47 7.44 607.523 7.12ZM607.747 5.92C607.8 5.6 607.987 5.44 608.307 5.44H610.707C611.027 5.44 611.16 5.6 611.107 5.92C611.043 6.24 610.851 6.4 610.531 6.4H608.131C607.811 6.4 607.683 6.24 607.747 5.92ZM608.355 5.2C608.035 5.2 607.902 5.04 607.955 4.72C608.008 4.4 608.195 4.24 608.515 4.24H610.915C611.235 4.24 611.368 4.4 611.315 4.72C611.262 5.04 611.075 5.2 610.755 5.2H608.355ZM608.563 4C608.243 4 608.11 3.84 608.163 3.52C608.216 3.2 608.403 3.04 608.723 3.04H611.123C611.443 3.04 611.576 3.2 611.523 3.52C611.47 3.84 611.283 4 610.963 4H608.563ZM597.651 15.52C597.704 15.2 597.891 15.04 598.211 15.04H607.811C608.131 15.04 608.264 15.2 608.211 15.52C608.158 15.84 607.971 16 607.651 16H598.051C597.731 16 597.598 15.84 597.651 15.52ZM629.212 14.8H622.012C621.692 14.8 621.559 14.64 621.612 14.32C621.665 14 621.852 13.84 622.172 13.84H629.372C629.692 13.84 629.825 14 629.772 14.32C629.719 14.64 629.532 14.8 629.212 14.8ZM629.42 13.6H622.22C621.9 13.6 621.767 13.44 621.82 13.12C621.884 12.8 622.076 12.64 622.396 12.64H629.596C629.916 12.64 630.044 12.8 629.98 13.12C629.927 13.44 629.74 13.6 629.42 13.6ZM630.684 6.4H623.484C623.164 6.4 623.036 6.24 623.1 5.92C623.153 5.6 623.34 5.44 623.66 5.44H630.86C631.18 5.44 631.313 5.6 631.26 5.92C631.196 6.24 631.004 6.4 630.684 6.4ZM630.908 5.2H623.708C623.388 5.2 623.255 5.04 623.308 4.72C623.361 4.4 623.548 4.24 623.868 4.24H631.068C631.388 4.24 631.521 4.4 631.468 4.72C631.415 5.04 631.228 5.2 630.908 5.2ZM625.404 11.92C625.34 12.24 625.148 12.4 624.828 12.4H622.428C622.108 12.4 621.98 12.24 622.044 11.92C622.097 11.6 622.284 11.44 622.604 11.44H625.004C625.324 11.44 625.457 11.6 625.404 11.92ZM631.036 7.12C630.983 7.44 630.796 7.6 630.476 7.6H628.076C627.756 7.6 627.623 7.44 627.676 7.12C627.74 6.8 627.932 6.64 628.252 6.64H630.652C630.972 6.64 631.1 6.8 631.036 7.12ZM630.828 8.32C630.775 8.64 630.588 8.8 630.268 8.8H624.268C623.948 8.8 623.815 8.64 623.868 8.32C623.932 8 624.124 7.84 624.444 7.84H630.444C630.764 7.84 630.892 8 630.828 8.32ZM629.324 10.72C629.26 11.04 629.068 11.2 628.748 11.2H622.636C622.316 11.2 622.188 11.04 622.252 10.72C622.305 10.4 622.492 10.24 622.812 10.24H628.924C629.244 10.24 629.377 10.4 629.324 10.72ZM629.564 15.52C629.511 15.84 629.324 16 629.004 16H621.804C621.484 16 621.351 15.84 621.404 15.52C621.457 15.2 621.644 15.04 621.964 15.04H629.164C629.484 15.04 629.617 15.2 629.564 15.52ZM630.476 3.52C630.423 3.84 630.236 4 629.916 4H623.916C623.596 4 623.463 3.84 623.516 3.52C623.569 3.2 623.756 3.04 624.076 3.04H630.076C630.396 3.04 630.529 3.2 630.476 3.52ZM630.62 9.52C630.567 9.84 630.38 10 630.06 10H622.86C622.54 10 622.407 9.84 622.46 9.52C622.513 9.2 622.7 9.04 623.02 9.04H630.22C630.54 9.04 630.673 9.2 630.62 9.52ZM632.09 14.8C631.77 14.8 631.637 14.64 631.69 14.32C631.743 14 631.93 13.84 632.25 13.84H639.45C639.77 13.84 639.903 14 639.85 14.32C639.797 14.64 639.61 14.8 639.29 14.8H632.09ZM632.298 13.6C631.978 13.6 631.845 13.44 631.898 13.12C631.962 12.8 632.154 12.64 632.474 12.64H639.674C639.994 12.64 640.122 12.8 640.058 13.12C640.005 13.44 639.818 13.6 639.498 13.6H632.298ZM633.562 6.4C633.242 6.4 633.114 6.24 633.178 5.92C633.231 5.6 633.418 5.44 633.738 5.44H640.938C641.258 5.44 641.391 5.6 641.338 5.92C641.274 6.24 641.082 6.4 640.762 6.4H633.562ZM633.786 5.2C633.466 5.2 633.333 5.04 633.386 4.72C633.439 4.4 633.626 4.24 633.946 4.24H641.146C641.466 4.24 641.599 4.4 641.546 4.72C641.493 5.04 641.306 5.2 640.986 5.2H633.786ZM636.922 11.92C636.975 11.6 637.162 11.44 637.482 11.44H639.882C640.202 11.44 640.335 11.6 640.282 11.92C640.218 12.24 640.026 12.4 639.706 12.4H637.306C636.986 12.4 636.858 12.24 636.922 11.92ZM632.954 7.12C633.018 6.8 633.21 6.64 633.53 6.64H635.93C636.25 6.64 636.378 6.8 636.314 7.12C636.261 7.44 636.074 7.6 635.754 7.6H633.354C633.034 7.6 632.901 7.44 632.954 7.12ZM632.746 8.32C632.81 8 633.002 7.84 633.322 7.84H639.322C639.642 7.84 639.77 8 639.706 8.32C639.653 8.64 639.466 8.8 639.146 8.8H633.146C632.826 8.8 632.693 8.64 632.746 8.32ZM633.418 10.72C633.471 10.4 633.658 10.24 633.978 10.24H640.09C640.41 10.24 640.543 10.4 640.49 10.72C640.426 11.04 640.234 11.2 639.914 11.2H633.802C633.482 11.2 633.354 11.04 633.418 10.72ZM631.482 15.52C631.535 15.2 631.722 15.04 632.042 15.04H638.042C638.362 15.04 638.495 15.2 638.442 15.52C638.389 15.84 638.202 16 637.882 16H631.882C631.562 16 631.429 15.84 631.482 15.52ZM633.834 3.52C633.887 3.2 634.074 3.04 634.394 3.04H641.354C641.674 3.04 641.807 3.2 641.754 3.52C641.701 3.84 641.514 4 641.194 4H634.234C633.914 4 633.781 3.84 633.834 3.52ZM632.538 9.52C632.591 9.2 632.778 9.04 633.098 9.04H640.298C640.618 9.04 640.751 9.2 640.698 9.52C640.645 9.84 640.458 10 640.138 10H632.938C632.618 10 632.485 9.84 632.538 9.52ZM643.608 3.056H646.008C646.328 3.056 646.456 3.216 646.392 3.536C646.339 3.856 646.152 4.016 645.832 4.016H643.432C643.112 4.016 642.979 3.856 643.032 3.536C643.096 3.216 643.288 3.056 643.608 3.056ZM643.384 4.256H645.784C646.104 4.256 646.238 4.416 646.184 4.736C646.131 5.056 645.944 5.216 645.624 5.216H643.224C642.904 5.216 642.771 5.056 642.824 4.736C642.878 4.416 643.064 4.256 643.384 4.256ZM642.616 5.92C642.67 5.6 642.856 5.44 643.176 5.44H645.576C645.896 5.44 646.03 5.6 645.976 5.92C645.923 6.24 645.736 6.4 645.416 6.4H643.016C642.696 6.4 642.563 6.24 642.616 5.92ZM643.4 8.32C643.454 8 643.64 7.84 643.96 7.84H645.16C645.48 7.84 645.614 8 645.56 8.32C645.496 8.64 645.304 8.8 644.984 8.8H643.784C643.464 8.8 643.336 8.64 643.4 8.32ZM642.408 7.12C642.462 6.8 642.648 6.64 642.968 6.64H645.368C645.688 6.64 645.822 6.8 645.768 7.12C645.715 7.44 645.528 7.6 645.208 7.6H642.808C642.488 7.6 642.355 7.44 642.408 7.12Z" fill="black"/>
</svg>
