<svg width="376" height="380" viewBox="0 0 376 380" fill="none" xmlns="http://www.w3.org/2000/svg">
<path fill-rule="evenodd" clip-rule="evenodd" d="M266.982 0C276.171 0.000211986 283.62 7.44951 283.62 16.6387C283.62 23.0663 288.831 28.2771 295.259 28.2773H343.675C361.072 28.2776 375.175 42.3805 375.175 59.7773V347.849C375.175 365.245 361.072 379.348 343.675 379.349H31.5001C14.0731 379.349 -0.0424724 365.198 9.60278e-05 347.771L0.77451 31.4229C0.817039 14.0561 14.9077 8.47806e-05 32.2745 0H266.982ZM64.4493 67.8047C57.822 67.8047 52.4494 73.1774 52.4493 79.8047V86.4072C52.4493 93.0345 47.0765 98.407 40.4493 98.4072H32.3468C25.7194 98.4072 20.3469 103.78 20.3468 110.407V121.381C20.3468 128.008 25.7194 133.381 32.3468 133.381H40.4493C47.0765 133.381 52.4492 138.754 52.4493 145.381V266.523C52.4493 273.151 47.0765 278.523 40.4493 278.523H32.3468C25.7194 278.523 20.3469 283.896 20.3468 290.523V346.09C20.3468 352.717 25.7194 358.09 32.3468 358.09H95.7364C102.364 358.09 107.736 352.717 107.736 346.09V328.995C107.737 322.368 113.109 316.995 119.736 316.995H255.358C261.985 316.995 267.357 322.368 267.358 328.995V346.09C267.358 352.717 272.73 358.09 279.358 358.09H342.747C349.374 358.09 354.747 352.717 354.747 346.09V290.523C354.747 283.896 349.374 278.524 342.747 278.523H335.536C328.909 278.523 323.536 273.151 323.536 266.523V145.381C323.536 138.754 328.909 133.381 335.536 133.381H342.747C349.374 133.381 354.747 128.008 354.747 121.381V110.407C354.747 103.78 349.374 98.4074 342.747 98.4072H335.536C328.909 98.4072 323.536 93.0346 323.536 86.4072V79.8047C323.536 73.1775 318.163 67.8049 311.536 67.8047H280.249C273.622 67.8047 268.249 73.1774 268.249 79.8047V86.4072C268.249 93.0345 262.876 98.407 256.249 98.4072H119.736C113.109 98.4072 107.736 93.0346 107.736 86.4072V79.8047C107.736 73.1775 102.364 67.8049 95.7364 67.8047H64.4493Z" fill="#E5E7E8"/>
</svg>
