<svg width="1839" height="1092" viewBox="0 0 1839 1092" fill="none" xmlns="http://www.w3.org/2000/svg">
<path d="M1739.17 383.5C1739.17 386.446 1741.55 388.833 1744.5 388.833C1747.45 388.833 1749.83 386.446 1749.83 383.5C1749.83 380.554 1747.45 378.167 1744.5 378.167C1741.55 378.167 1739.17 380.554 1739.17 383.5ZM1767 406H1768V405.586L1767.71 405.293L1767 406ZM1767 440.5H1766V440.914L1766.29 441.207L1767 440.5ZM1795 468.5H1796V468.086L1795.71 467.793L1795 468.5ZM1795 563H1794V563.414L1794.29 563.707L1795 563ZM1818 586L1817.29 586.707L1817.59 587H1818V586ZM1872 586L1872.71 585.293L1872.41 585H1872V586ZM1903 617H1904V616.586L1903.71 616.293L1903 617ZM1903 667H1902V667.414L1902.29 667.707L1903 667ZM1924 688H1925V687.586L1924.71 687.293L1924 688ZM1918.67 1085.5C1918.67 1088.45 1921.05 1090.83 1924 1090.83C1926.95 1090.83 1929.33 1088.45 1929.33 1085.5C1929.33 1082.55 1926.95 1080.17 1924 1080.17C1921.05 1080.17 1918.67 1082.55 1918.67 1085.5ZM1744.5 383.5L1743.79 384.207L1766.29 406.707L1767 406L1767.71 405.293L1745.21 382.793L1744.5 383.5ZM1767 406H1766V440.5H1767H1768V406H1767ZM1767 440.5L1766.29 441.207L1794.29 469.207L1795 468.5L1795.71 467.793L1767.71 439.793L1767 440.5ZM1795 468.5H1794V563H1795H1796V468.5H1795ZM1795 563L1794.29 563.707L1817.29 586.707L1818 586L1818.71 585.293L1795.71 562.293L1795 563ZM1818 586V587H1872V586V585H1818V586ZM1872 586L1871.29 586.707L1902.29 617.707L1903 617L1903.71 616.293L1872.71 585.293L1872 586ZM1903 617H1902V667H1903H1904V617H1903ZM1903 667L1902.29 667.707L1923.29 688.707L1924 688L1924.71 687.293L1903.71 666.293L1903 667ZM1924 688H1923V1085.5H1924H1925V688H1924Z" fill="#C65AFE"/>
<path d="M1832.67 426C1832.67 428.946 1835.05 431.333 1838 431.333C1840.95 431.333 1843.33 428.946 1843.33 426C1843.33 423.054 1840.95 420.667 1838 420.667C1835.05 420.667 1832.67 423.054 1832.67 426ZM1838 460.5H1837V460.914L1837.29 461.207L1838 460.5ZM1859 481.5H1860V481.086L1859.71 480.793L1859 481.5ZM1859 517.5H1858V517.914L1858.29 518.207L1859 517.5ZM1916.5 575L1915.79 575.707L1916.09 576H1916.5V575ZM1838 426H1837V460.5H1838H1839V426H1838ZM1838 460.5L1837.29 461.207L1858.29 482.207L1859 481.5L1859.71 480.793L1838.71 459.793L1838 460.5ZM1859 481.5H1858V517.5H1859H1860V481.5H1859ZM1859 517.5L1858.29 518.207L1915.79 575.707L1916.5 575L1917.21 574.293L1859.71 516.793L1859 517.5ZM1916.5 575V576H1949.5V575V574H1916.5V575Z" fill="#FC2F00"/>
<path d="M1802.17 382.5C1802.17 385.446 1804.55 387.833 1807.5 387.833C1810.45 387.833 1812.83 385.446 1812.83 382.5C1812.83 379.554 1810.45 377.167 1807.5 377.167C1804.55 377.167 1802.17 379.554 1802.17 382.5ZM1838 413L1837.29 413.707L1837.59 414H1838V413ZM1844.5 413L1845.21 412.293L1844.91 412H1844.5V413ZM1850 418.5H1851V418.086L1850.71 417.793L1850 418.5ZM1850 454H1849V454.414L1849.29 454.707L1850 454ZM1869.5 473.5H1870.5V473.086L1870.21 472.793L1869.5 473.5ZM1869.5 512H1868.5V512.414L1868.79 512.707L1869.5 512ZM1921 563.5L1920.29 564.207L1920.59 564.5H1921V563.5ZM1807.5 382.5L1806.79 383.207L1837.29 413.707L1838 413L1838.71 412.293L1808.21 381.793L1807.5 382.5ZM1838 413V414H1844.5V413V412H1838V413ZM1844.5 413L1843.79 413.707L1849.29 419.207L1850 418.5L1850.71 417.793L1845.21 412.293L1844.5 413ZM1850 418.5H1849V454H1850H1851V418.5H1850ZM1850 454L1849.29 454.707L1868.79 474.207L1869.5 473.5L1870.21 472.793L1850.71 453.293L1850 454ZM1869.5 473.5H1868.5V512H1869.5H1870.5V473.5H1869.5ZM1869.5 512L1868.79 512.707L1920.29 564.207L1921 563.5L1921.71 562.793L1870.21 511.293L1869.5 512ZM1921 563.5V564.5H1947.5V563.5V562.5H1921V563.5Z" fill="#FC2F00"/>
<path d="M1819.67 475C1819.67 477.946 1822.05 480.333 1825 480.333C1827.95 480.333 1830.33 477.946 1830.33 475C1830.33 472.054 1827.95 469.667 1825 469.667C1822.05 469.667 1819.67 472.054 1819.67 475ZM1840.5 490.5H1841.5V490.086L1841.21 489.793L1840.5 490.5ZM1840.5 528.5H1839.5V528.914L1839.79 529.207L1840.5 528.5ZM1917 605H1918V604.586L1917.71 604.293L1917 605ZM1917 630.5H1916V630.914L1916.29 631.207L1917 630.5ZM1933 646.5L1932.29 647.207L1932.59 647.5H1933V646.5ZM1825 475L1824.29 475.707L1839.79 491.207L1840.5 490.5L1841.21 489.793L1825.71 474.293L1825 475ZM1840.5 490.5H1839.5V528.5H1840.5H1841.5V490.5H1840.5ZM1840.5 528.5L1839.79 529.207L1916.29 605.707L1917 605L1917.71 604.293L1841.21 527.793L1840.5 528.5ZM1917 605H1916V630.5H1917H1918V605H1917ZM1917 630.5L1916.29 631.207L1932.29 647.207L1933 646.5L1933.71 645.793L1917.71 629.793L1917 630.5ZM1933 646.5V647.5H1959.5V646.5V645.5H1933V646.5Z" fill="#E5E7E8"/>
<path d="M1831.67 390.5C1831.67 393.446 1834.05 395.833 1837 395.833C1839.95 395.833 1842.33 393.446 1842.33 390.5C1842.33 387.554 1839.95 385.167 1837 385.167C1834.05 385.167 1831.67 387.554 1831.67 390.5ZM1869 358.5V357.5H1868.59L1868.29 357.793L1869 358.5ZM1891.5 358.5L1892.21 357.793L1891.91 357.5H1891.5V358.5ZM1908.5 375.5H1909.5V375.086L1909.21 374.793L1908.5 375.5ZM1908.5 438.5H1907.5V438.914L1907.79 439.207L1908.5 438.5ZM1924.5 454.5L1923.79 455.207L1924.09 455.5H1924.5V454.5ZM1837 390.5L1837.71 391.207L1869.71 359.207L1869 358.5L1868.29 357.793L1836.29 389.793L1837 390.5ZM1869 358.5V359.5H1891.5V358.5V357.5H1869V358.5ZM1891.5 358.5L1890.79 359.207L1907.79 376.207L1908.5 375.5L1909.21 374.793L1892.21 357.793L1891.5 358.5ZM1908.5 375.5H1907.5V438.5H1908.5H1909.5V375.5H1908.5ZM1908.5 438.5L1907.79 439.207L1923.79 455.207L1924.5 454.5L1925.21 453.793L1909.21 437.793L1908.5 438.5ZM1924.5 454.5V455.5H1950V454.5V453.5H1924.5V454.5Z" fill="#E5E7E8"/>
<path d="M1869.17 339C1869.17 341.946 1871.55 344.333 1874.5 344.333C1877.45 344.333 1879.83 341.946 1879.83 339C1879.83 336.054 1877.45 333.667 1874.5 333.667C1871.55 333.667 1869.17 336.054 1869.17 339ZM1845 368.5V369.5H1845.41L1845.71 369.207L1845 368.5ZM1699 368.5L1698.29 369.207L1698.59 369.5H1699V368.5ZM1677 346.5L1677.71 345.793L1677.41 345.5H1677V346.5ZM1635.5 346.5V345.5H1635.09L1634.79 345.793L1635.5 346.5ZM1613.5 368.5L1612.79 367.793L1612.5 368.086V368.5H1613.5ZM1608.17 449C1608.17 451.946 1610.55 454.333 1613.5 454.333C1616.45 454.333 1618.83 451.946 1618.83 449C1618.83 446.054 1616.45 443.667 1613.5 443.667C1610.55 443.667 1608.17 446.054 1608.17 449ZM1874.5 339L1873.79 338.293L1844.29 367.793L1845 368.5L1845.71 369.207L1875.21 339.707L1874.5 339ZM1845 368.5V367.5H1699V368.5V369.5H1845V368.5ZM1699 368.5L1699.71 367.793L1677.71 345.793L1677 346.5L1676.29 347.207L1698.29 369.207L1699 368.5ZM1677 346.5V345.5H1635.5V346.5V347.5H1677V346.5ZM1635.5 346.5L1634.79 345.793L1612.79 367.793L1613.5 368.5L1614.21 369.207L1636.21 347.207L1635.5 346.5ZM1613.5 368.5H1612.5V449H1613.5H1614.5V368.5H1613.5Z" fill="#E5E7E8"/>
<path d="M1618.67 392C1618.67 394.946 1621.05 397.333 1624 397.333C1626.95 397.333 1629.33 394.946 1629.33 392C1629.33 389.054 1626.95 386.667 1624 386.667C1621.05 386.667 1618.67 389.054 1618.67 392ZM1624 374.5L1623.29 373.793L1623 374.086V374.5H1624ZM1640 358.5V357.5H1639.59L1639.29 357.793L1640 358.5ZM1672.5 358.5L1673.21 357.793L1672.91 357.5H1672.5V358.5ZM1694 380L1693.29 380.707L1693.59 381H1694V380ZM1725.5 380L1726.21 379.293L1725.91 379H1725.5V380ZM1757 411.5H1758V411.086L1757.71 410.793L1757 411.5ZM1757 445.5H1756V445.914L1756.29 446.207L1757 445.5ZM1779.67 473.5C1779.67 476.446 1782.05 478.833 1785 478.833C1787.95 478.833 1790.33 476.446 1790.33 473.5C1790.33 470.554 1787.95 468.167 1785 468.167C1782.05 468.167 1779.67 470.554 1779.67 473.5ZM1624 392H1625V374.5H1624H1623V392H1624ZM1624 374.5L1624.71 375.207L1640.71 359.207L1640 358.5L1639.29 357.793L1623.29 373.793L1624 374.5ZM1640 358.5V359.5H1672.5V358.5V357.5H1640V358.5ZM1672.5 358.5L1671.79 359.207L1693.29 380.707L1694 380L1694.71 379.293L1673.21 357.793L1672.5 358.5ZM1694 380V381H1725.5V380V379H1694V380ZM1725.5 380L1724.79 380.707L1756.29 412.207L1757 411.5L1757.71 410.793L1726.21 379.293L1725.5 380ZM1757 411.5H1756V445.5H1757H1758V411.5H1757ZM1757 445.5L1756.29 446.207L1784.29 474.207L1785 473.5L1785.71 472.793L1757.71 444.793L1757 445.5Z" fill="#E5E7E8"/>
<path d="M1618.67 410C1618.67 412.946 1621.05 415.333 1624 415.333C1626.95 415.333 1629.33 412.946 1629.33 410C1629.33 407.054 1626.95 404.667 1624 404.667C1621.05 404.667 1618.67 407.054 1618.67 410ZM1634.5 399.5L1635.21 400.207L1635.5 399.914V399.5H1634.5ZM1634.5 380.5L1633.79 379.793L1633.5 380.086V380.5H1634.5ZM1644.5 370.5V369.5H1644.09L1643.79 369.793L1644.5 370.5ZM1669 370.5L1669.71 369.793L1669.41 369.5H1669V370.5ZM1690 391.5L1689.29 392.207L1689.59 392.5H1690V391.5ZM1721 391.5L1721.71 390.793L1721.41 390.5H1721V391.5ZM1746.5 417H1747.5V416.586L1747.21 416.293L1746.5 417ZM1746.5 451H1745.5V451.41L1745.79 451.702L1746.5 451ZM1779.5 484.5H1780.5V484.09L1780.21 483.798L1779.5 484.5ZM1774.17 509C1774.17 511.946 1776.55 514.333 1779.5 514.333C1782.45 514.333 1784.83 511.946 1784.83 509C1784.83 506.054 1782.45 503.667 1779.5 503.667C1776.55 503.667 1774.17 506.054 1774.17 509ZM1624 410L1624.71 410.707L1635.21 400.207L1634.5 399.5L1633.79 398.793L1623.29 409.293L1624 410ZM1634.5 399.5H1635.5V380.5H1634.5H1633.5V399.5H1634.5ZM1634.5 380.5L1635.21 381.207L1645.21 371.207L1644.5 370.5L1643.79 369.793L1633.79 379.793L1634.5 380.5ZM1644.5 370.5V371.5H1669V370.5V369.5H1644.5V370.5ZM1669 370.5L1668.29 371.207L1689.29 392.207L1690 391.5L1690.71 390.793L1669.71 369.793L1669 370.5ZM1690 391.5V392.5H1721V391.5V390.5H1690V391.5ZM1721 391.5L1720.29 392.207L1745.79 417.707L1746.5 417L1747.21 416.293L1721.71 390.793L1721 391.5ZM1746.5 417H1745.5V451H1746.5H1747.5V417H1746.5ZM1746.5 451L1745.79 451.702L1778.79 485.202L1779.5 484.5L1780.21 483.798L1747.21 450.298L1746.5 451ZM1779.5 484.5H1778.5V509H1779.5H1780.5V484.5H1779.5Z" fill="#E5E7E8"/>
<path d="M1619.17 427C1619.17 429.946 1621.55 432.333 1624.5 432.333C1627.45 432.333 1629.83 429.946 1629.83 427C1629.83 424.054 1627.45 421.667 1624.5 421.667C1621.55 421.667 1619.17 424.054 1619.17 427ZM1644.5 407L1645.21 407.707L1645.5 407.414V407H1644.5ZM1644.5 386.5L1643.79 385.793L1643.5 386.086V386.5H1644.5ZM1648.5 382.5V381.5H1648.09L1647.79 381.793L1648.5 382.5ZM1665 382.5L1665.71 381.793L1665.41 381.5H1665V382.5ZM1686 403.5L1685.29 404.207L1685.59 404.5H1686V403.5ZM1716.5 403.5L1717.21 402.793L1716.91 402.5H1716.5V403.5ZM1735 422H1736V421.586L1735.71 421.293L1735 422ZM1735 456H1734V456.414L1734.29 456.707L1735 456ZM1766.5 487.5H1767.5V487.086L1767.21 486.793L1766.5 487.5ZM1766.5 512H1765.5V512.414L1765.79 512.707L1766.5 512ZM1778.5 524H1779.5V523.586L1779.21 523.293L1778.5 524ZM1778.5 573.5H1777.5V573.914L1777.79 574.207L1778.5 573.5ZM1812 607L1811.29 607.707L1811.59 608H1812V607ZM1834.67 607C1834.67 609.946 1837.05 612.333 1840 612.333C1842.95 612.333 1845.33 609.946 1845.33 607C1845.33 604.054 1842.95 601.667 1840 601.667C1837.05 601.667 1834.67 604.054 1834.67 607ZM1624.5 427L1625.21 427.707L1645.21 407.707L1644.5 407L1643.79 406.293L1623.79 426.293L1624.5 427ZM1644.5 407H1645.5V386.5H1644.5H1643.5V407H1644.5ZM1644.5 386.5L1645.21 387.207L1649.21 383.207L1648.5 382.5L1647.79 381.793L1643.79 385.793L1644.5 386.5ZM1648.5 382.5V383.5H1665V382.5V381.5H1648.5V382.5ZM1665 382.5L1664.29 383.207L1685.29 404.207L1686 403.5L1686.71 402.793L1665.71 381.793L1665 382.5ZM1686 403.5V404.5H1716.5V403.5V402.5H1686V403.5ZM1716.5 403.5L1715.79 404.207L1734.29 422.707L1735 422L1735.71 421.293L1717.21 402.793L1716.5 403.5ZM1735 422H1734V456H1735H1736V422H1735ZM1735 456L1734.29 456.707L1765.79 488.207L1766.5 487.5L1767.21 486.793L1735.71 455.293L1735 456ZM1766.5 487.5H1765.5V512H1766.5H1767.5V487.5H1766.5ZM1766.5 512L1765.79 512.707L1777.79 524.707L1778.5 524L1779.21 523.293L1767.21 511.293L1766.5 512ZM1778.5 524H1777.5V573.5H1778.5H1779.5V524H1778.5ZM1778.5 573.5L1777.79 574.207L1811.29 607.707L1812 607L1812.71 606.293L1779.21 572.793L1778.5 573.5ZM1812 607V608H1840V607V606H1812V607Z" fill="#E5E7E8"/>
<path d="M1755 564L1809.5 618.5H1851L1867 634.5V676.5L1841 702.5H1799.5L1787 715V763L1776 774H1755" stroke="#E5E7E8" stroke-width="2"/>
<path d="M1755 577L1807 629H1845.5L1856 639.5V657.5L1820 693.5H1796.5L1777.5 712.5V757.5L1771.5 763.5H1755" stroke="#E5E7E8" stroke-width="2"/>
<path d="M1761.67 602C1761.67 604.946 1764.05 607.333 1767 607.333C1769.95 607.333 1772.33 604.946 1772.33 602C1772.33 599.054 1769.95 596.667 1767 596.667C1764.05 596.667 1761.67 599.054 1761.67 602ZM1805 640L1804.29 640.707L1804.59 641H1805V640ZM1841.5 640L1842.21 639.293L1841.91 639H1841.5V640ZM1847 645.5H1848V645.086L1847.71 644.793L1847 645.5ZM1847 652L1847.71 652.707L1848 652.414V652H1847ZM1816.5 682.5V683.5H1816.91L1817.21 683.207L1816.5 682.5ZM1793 682.5V681.5H1792.59L1792.29 681.793L1793 682.5ZM1769.5 706L1768.79 705.293L1768.5 705.586V706H1769.5ZM1764.17 750C1764.17 752.946 1766.55 755.333 1769.5 755.333C1772.45 755.333 1774.83 752.946 1774.83 750C1774.83 747.054 1772.45 744.667 1769.5 744.667C1766.55 744.667 1764.17 747.054 1764.17 750ZM1767 602L1766.29 602.707L1804.29 640.707L1805 640L1805.71 639.293L1767.71 601.293L1767 602ZM1805 640V641H1841.5V640V639H1805V640ZM1841.5 640L1840.79 640.707L1846.29 646.207L1847 645.5L1847.71 644.793L1842.21 639.293L1841.5 640ZM1847 645.5H1846V652H1847H1848V645.5H1847ZM1847 652L1846.29 651.293L1815.79 681.793L1816.5 682.5L1817.21 683.207L1847.71 652.707L1847 652ZM1816.5 682.5V681.5H1793V682.5V683.5H1816.5V682.5ZM1793 682.5L1792.29 681.793L1768.79 705.293L1769.5 706L1770.21 706.707L1793.71 683.207L1793 682.5ZM1769.5 706H1768.5V750H1769.5H1770.5V706H1769.5Z" fill="#E5E7E8"/>
<path d="M1853.17 705.5C1853.17 708.446 1855.55 710.833 1858.5 710.833C1861.45 710.833 1863.83 708.446 1863.83 705.5C1863.83 702.554 1861.45 700.167 1858.5 700.167C1855.55 700.167 1853.17 702.554 1853.17 705.5ZM1864.5 711.5H1865.5V711.086L1865.21 710.793L1864.5 711.5ZM1864.5 783L1865.21 783.707L1865.5 783.414V783H1864.5ZM1834 813.5L1833.29 812.793L1833 813.086V813.5H1834ZM1828.67 969.5C1828.67 972.446 1831.05 974.833 1834 974.833C1836.95 974.833 1839.33 972.446 1839.33 969.5C1839.33 966.554 1836.95 964.167 1834 964.167C1831.05 964.167 1828.67 966.554 1828.67 969.5ZM1858.5 705.5L1857.79 706.207L1863.79 712.207L1864.5 711.5L1865.21 710.793L1859.21 704.793L1858.5 705.5ZM1864.5 711.5H1863.5V783H1864.5H1865.5V711.5H1864.5ZM1864.5 783L1863.79 782.293L1833.29 812.793L1834 813.5L1834.71 814.207L1865.21 783.707L1864.5 783ZM1834 813.5H1833V969.5H1834H1835V813.5H1834Z" fill="#E5E7E8"/>
<path d="M1835.67 713C1835.67 715.946 1838.05 718.333 1841 718.333C1843.95 718.333 1846.33 715.946 1846.33 713C1846.33 710.054 1843.95 707.667 1841 707.667C1838.05 707.667 1835.67 710.054 1835.67 713ZM1803.5 713V712H1803.09L1802.79 712.293L1803.5 713ZM1796.5 720L1795.79 719.293L1795.5 719.586V720H1796.5ZM1796.5 769L1797.21 769.707L1797.5 769.414V769H1796.5ZM1776.17 784C1776.17 786.946 1778.55 789.333 1781.5 789.333C1784.45 789.333 1786.83 786.946 1786.83 784C1786.83 781.054 1784.45 778.667 1781.5 778.667C1778.55 778.667 1776.17 781.054 1776.17 784ZM1841 713V712H1803.5V713V714H1841V713ZM1803.5 713L1802.79 712.293L1795.79 719.293L1796.5 720L1797.21 720.707L1804.21 713.707L1803.5 713ZM1796.5 720H1795.5V769H1796.5H1797.5V720H1796.5ZM1796.5 769L1795.79 768.293L1780.79 783.293L1781.5 784L1782.21 784.707L1797.21 769.707L1796.5 769Z" fill="#E5E7E8"/>
<path d="M1754 833H1796.5L1823 859.5V1001.5L1796.5 1028V1086.5" stroke="#E5E7E8" stroke-width="2"/>
<path d="M1759.67 842.5C1759.67 845.446 1762.05 847.833 1765 847.833C1767.95 847.833 1770.33 845.446 1770.33 842.5C1770.33 839.554 1767.95 837.167 1765 837.167C1762.05 837.167 1759.67 839.554 1759.67 842.5ZM1791.5 842.5L1792.21 841.793L1791.91 841.5H1791.5V842.5ZM1813.5 864.5H1814.5V864.086L1814.21 863.793L1813.5 864.5ZM1813.5 996.5L1814.21 997.207L1814.5 996.914V996.5H1813.5ZM1785.5 1024.5L1784.79 1023.79L1784.5 1024.09V1024.5H1785.5ZM1765 842.5V843.5H1791.5V842.5V841.5H1765V842.5ZM1791.5 842.5L1790.79 843.207L1812.79 865.207L1813.5 864.5L1814.21 863.793L1792.21 841.793L1791.5 842.5ZM1813.5 864.5H1812.5V996.5H1813.5H1814.5V864.5H1813.5ZM1813.5 996.5L1812.79 995.793L1784.79 1023.79L1785.5 1024.5L1786.21 1025.21L1814.21 997.207L1813.5 996.5ZM1785.5 1024.5H1784.5V1074H1785.5H1786.5V1024.5H1785.5Z" fill="#E5E7E8"/>
<path d="M1755.5 853H1785.5L1803 870.5V940L1774.5 968.5V1065.5" stroke="#E5E7E8" stroke-width="2"/>
<path d="M983 199.333C985.946 199.333 988.333 196.946 988.333 194C988.333 191.054 985.946 188.667 983 188.667C980.054 188.667 977.667 191.054 977.667 194C977.667 196.946 980.054 199.333 983 199.333ZM1005.5 171.5L1005.5 170.5L1005.09 170.5L1004.79 170.793L1005.5 171.5ZM1040 171.5L1040 172.5L1040.41 172.5L1040.71 172.207L1040 171.5ZM1068 143.5L1068 142.5L1067.59 142.5L1067.29 142.793L1068 143.5ZM1162.5 143.5L1162.5 144.5L1162.91 144.5L1163.21 144.207L1162.5 143.5ZM1185.5 120.5L1186.21 121.207L1186.5 120.914L1186.5 120.5L1185.5 120.5ZM1185.5 66.5L1184.79 65.7929L1184.5 66.0858L1184.5 66.5L1185.5 66.5ZM1216.5 35.5L1216.5 34.5L1216.09 34.5L1215.79 34.7929L1216.5 35.5ZM1266.5 35.5L1266.5 36.5L1266.91 36.5L1267.21 36.2071L1266.5 35.5ZM1287.5 14.5L1287.5 13.5L1287.09 13.5L1286.79 13.7929L1287.5 14.5ZM1685 19.8333C1687.95 19.8333 1690.33 17.4455 1690.33 14.5C1690.33 11.5544 1687.95 9.16664 1685 9.16664C1682.05 9.16664 1679.67 11.5544 1679.67 14.5C1679.67 17.4455 1682.05 19.8333 1685 19.8333ZM983 194L983.707 194.707L1006.21 172.207L1005.5 171.5L1004.79 170.793L982.293 193.293L983 194ZM1005.5 171.5L1005.5 172.5L1040 172.5L1040 171.5L1040 170.5L1005.5 170.5L1005.5 171.5ZM1040 171.5L1040.71 172.207L1068.71 144.207L1068 143.5L1067.29 142.793L1039.29 170.793L1040 171.5ZM1068 143.5L1068 144.5L1162.5 144.5L1162.5 143.5L1162.5 142.5L1068 142.5L1068 143.5ZM1162.5 143.5L1163.21 144.207L1186.21 121.207L1185.5 120.5L1184.79 119.793L1161.79 142.793L1162.5 143.5ZM1185.5 120.5L1186.5 120.5L1186.5 66.5L1185.5 66.5L1184.5 66.5L1184.5 120.5L1185.5 120.5ZM1185.5 66.5L1186.21 67.2071L1217.21 36.2071L1216.5 35.5L1215.79 34.7929L1184.79 65.7929L1185.5 66.5ZM1216.5 35.5L1216.5 36.5L1266.5 36.5L1266.5 35.5L1266.5 34.5L1216.5 34.5L1216.5 35.5ZM1266.5 35.5L1267.21 36.2071L1288.21 15.2071L1287.5 14.5L1286.79 13.7929L1265.79 34.7929L1266.5 35.5ZM1287.5 14.5L1287.5 15.5L1685 15.5L1685 14.5L1685 13.5L1287.5 13.5L1287.5 14.5Z" fill="#E5E7E8"/>
<path d="M1206.5 70.3333C1209.45 70.3333 1211.83 67.9455 1211.83 65C1211.83 62.0545 1209.45 59.6667 1206.5 59.6667C1203.55 59.6667 1201.17 62.0545 1201.17 65C1201.17 67.9455 1203.55 70.3333 1206.5 70.3333ZM1223 48.5L1223 47.5L1222.59 47.5L1222.29 47.7929L1223 48.5ZM1272 48.5L1272 49.5L1272.41 49.5L1272.71 49.2071L1272 48.5ZM1292.5 28L1292.5 27L1292.09 27L1291.79 27.2929L1292.5 28ZM1409 28L1409.71 27.2929L1409.41 27L1409 27L1409 28ZM1441 60L1440.29 60.7071L1440.59 61L1441 61L1441 60ZM1550 60L1550 61L1550.41 61L1550.71 60.7071L1550 60ZM1582 28L1582 27L1581.59 27L1581.29 27.2929L1582 28ZM1690.5 33.3333C1693.45 33.3333 1695.83 30.9455 1695.83 28C1695.83 25.0545 1693.45 22.6666 1690.5 22.6666C1687.55 22.6666 1685.17 25.0545 1685.17 28C1685.17 30.9455 1687.55 33.3333 1690.5 33.3333ZM1206.5 65L1207.21 65.7071L1223.71 49.2071L1223 48.5L1222.29 47.7929L1205.79 64.2929L1206.5 65ZM1223 48.5L1223 49.5L1272 49.5L1272 48.5L1272 47.5L1223 47.5L1223 48.5ZM1272 48.5L1272.71 49.2071L1293.21 28.7071L1292.5 28L1291.79 27.2929L1271.29 47.7929L1272 48.5ZM1292.5 28L1292.5 29L1409 29L1409 28L1409 27L1292.5 27L1292.5 28ZM1409 28L1408.29 28.7071L1440.29 60.7071L1441 60L1441.71 59.2929L1409.71 27.2929L1409 28ZM1441 60L1441 61L1550 61L1550 60L1550 59L1441 59L1441 60ZM1550 60L1550.71 60.7071L1582.71 28.7071L1582 28L1581.29 27.2929L1549.29 59.2929L1550 60ZM1582 28L1582 29L1690.5 29L1690.5 28L1690.5 27L1582 27L1582 28Z" fill="#E5E7E8"/>
<path d="M1216.5 77.8333C1219.45 77.8333 1221.83 75.4455 1221.83 72.5C1221.83 69.5545 1219.45 67.1667 1216.5 67.1667C1213.55 67.1667 1211.17 69.5545 1211.17 72.5C1211.17 75.4455 1213.55 77.8333 1216.5 77.8333ZM1228.5 60.5L1228.5 59.5L1228.09 59.5L1227.79 59.7929L1228.5 60.5ZM1276 60.5L1276 61.5L1276.41 61.5L1276.71 61.2071L1276 60.5ZM1296.5 40L1296.5 39L1296.09 39L1295.79 39.2929L1296.5 40ZM1402.5 40L1403.21 39.2929L1402.91 39L1402.5 39L1402.5 40ZM1434 71.5L1433.29 72.2071L1433.59 72.5L1434 72.5L1434 71.5ZM1556.5 71.5L1556.5 72.5L1556.91 72.5L1557.21 72.2071L1556.5 71.5ZM1588 40L1588 39L1587.59 39L1587.29 39.2929L1588 40ZM1689 45.3333C1691.95 45.3333 1694.33 42.9455 1694.33 40C1694.33 37.0545 1691.95 34.6666 1689 34.6666C1686.05 34.6666 1683.67 37.0545 1683.67 40C1683.67 42.9455 1686.05 45.3333 1689 45.3333ZM1216.5 72.5L1217.21 73.2071L1229.21 61.2071L1228.5 60.5L1227.79 59.7929L1215.79 71.7929L1216.5 72.5ZM1228.5 60.5L1228.5 61.5L1276 61.5L1276 60.5L1276 59.5L1228.5 59.5L1228.5 60.5ZM1276 60.5L1276.71 61.2071L1297.21 40.7071L1296.5 40L1295.79 39.2929L1275.29 59.7929L1276 60.5ZM1296.5 40L1296.5 41L1402.5 41L1402.5 40L1402.5 39L1296.5 39L1296.5 40ZM1402.5 40L1401.79 40.7071L1433.29 72.2071L1434 71.5L1434.71 70.7929L1403.21 39.2929L1402.5 40ZM1434 71.5L1434 72.5L1556.5 72.5L1556.5 71.5L1556.5 70.5L1434 70.5L1434 71.5ZM1556.5 71.5L1557.21 72.2071L1588.71 40.7071L1588 40L1587.29 39.2929L1555.79 70.7929L1556.5 71.5ZM1588 40L1588 41L1689 41L1689 40L1689 39L1588 39L1588 40Z" fill="#E5E7E8"/>
<path d="M1025.5 105.833C1028.45 105.833 1030.83 103.446 1030.83 100.5C1030.83 97.5545 1028.45 95.1667 1025.5 95.1667C1022.55 95.1667 1020.17 97.5545 1020.17 100.5C1020.17 103.446 1022.55 105.833 1025.5 105.833ZM1060 100.5L1060 101.5L1060.41 101.5L1060.71 101.207L1060 100.5ZM1081 79.5L1081 78.5L1080.59 78.5L1080.29 78.7929L1081 79.5ZM1117 79.5L1117 80.5L1117.41 80.5L1117.71 80.2071L1117 79.5ZM1174.5 22L1175.21 22.7071L1175.5 22.4142L1175.5 22L1174.5 22ZM1025.5 100.5L1025.5 101.5L1060 101.5L1060 100.5L1060 99.5L1025.5 99.5L1025.5 100.5ZM1060 100.5L1060.71 101.207L1081.71 80.2071L1081 79.5L1080.29 78.7929L1059.29 99.7929L1060 100.5ZM1081 79.5L1081 80.5L1117 80.5L1117 79.5L1117 78.5L1081 78.5L1081 79.5ZM1117 79.5L1117.71 80.2071L1175.21 22.7071L1174.5 22L1173.79 21.2929L1116.29 78.7929L1117 79.5ZM1174.5 22L1175.5 22L1175.5 -11L1174.5 -11L1173.5 -11L1173.5 22L1174.5 22Z" fill="#E5E7E8"/>
<path d="M982 136.333C984.946 136.333 987.333 133.946 987.333 131C987.333 128.054 984.946 125.667 982 125.667C979.054 125.667 976.667 128.054 976.667 131C976.667 133.946 979.054 136.333 982 136.333ZM1012.5 100.5L1013.21 101.207L1013.5 100.914L1013.5 100.5L1012.5 100.5ZM1012.5 94L1011.79 93.2929L1011.5 93.5858L1011.5 94L1012.5 94ZM1018 88.5L1018 87.5L1017.59 87.5L1017.29 87.7929L1018 88.5ZM1053.5 88.5L1053.5 89.5L1053.91 89.5L1054.21 89.2071L1053.5 88.5ZM1073 69L1073 68L1072.59 68L1072.29 68.2929L1073 69ZM1111.5 69L1111.5 70L1111.91 70L1112.21 69.7071L1111.5 69ZM1163 17.5L1163.71 18.2071L1164 17.9142L1164 17.5L1163 17.5ZM982 131L982.707 131.707L1013.21 101.207L1012.5 100.5L1011.79 99.7929L981.293 130.293L982 131ZM1012.5 100.5L1013.5 100.5L1013.5 94L1012.5 94L1011.5 94L1011.5 100.5L1012.5 100.5ZM1012.5 94L1013.21 94.7071L1018.71 89.2071L1018 88.5L1017.29 87.7929L1011.79 93.2929L1012.5 94ZM1018 88.5L1018 89.5L1053.5 89.5L1053.5 88.5L1053.5 87.5L1018 87.5L1018 88.5ZM1053.5 88.5L1054.21 89.2071L1073.71 69.7071L1073 69L1072.29 68.2929L1052.79 87.7929L1053.5 88.5ZM1073 69L1073 70L1111.5 70L1111.5 69L1111.5 68L1073 68L1073 69ZM1111.5 69L1112.21 69.7071L1163.71 18.2071L1163 17.5L1162.29 16.7929L1110.79 68.2929L1111.5 69ZM1163 17.5L1164 17.5L1164 -9.00001L1163 -9.00001L1162 -9.00001L1162 17.5L1163 17.5Z" fill="#E5E7E8"/>
<path d="M1010.5 82.8333C1013.45 82.8333 1015.83 80.4455 1015.83 77.5C1015.83 74.5545 1013.45 72.1667 1010.5 72.1667C1007.55 72.1667 1005.17 74.5545 1005.17 77.5C1005.17 80.4455 1007.55 82.8333 1010.5 82.8333ZM1048 77.5L1048 78.5L1048.41 78.5L1048.71 78.2071L1048 77.5ZM1066 59.5L1066 58.5L1065.59 58.5L1065.29 58.7929L1066 59.5ZM1106 59.5L1106 60.5L1106.41 60.5L1106.71 60.2071L1106 59.5ZM1152 13.5L1152.71 14.2071L1153 13.9142L1153 13.5L1152 13.5ZM1010.5 77.5L1010.5 78.5L1048 78.5L1048 77.5L1048 76.5L1010.5 76.5L1010.5 77.5ZM1048 77.5L1048.71 78.2071L1066.71 60.2071L1066 59.5L1065.29 58.7929L1047.29 76.7929L1048 77.5ZM1066 59.5L1066 60.5L1106 60.5L1106 59.5L1106 58.5L1066 58.5L1066 59.5ZM1106 59.5L1106.71 60.2071L1152.71 14.2071L1152 13.5L1151.29 12.7929L1105.29 58.7929L1106 59.5ZM1152 13.5L1153 13.5L1153 -9.50001L1152 -9.50001L1151 -9.50001L1151 13.5L1152 13.5Z" fill="#E5E7E8"/>
<path d="M1016.5 72.3333C1019.45 72.3333 1021.83 69.9455 1021.83 67C1021.83 64.0545 1019.45 61.6667 1016.5 61.6667C1013.55 61.6667 1011.17 64.0545 1011.17 67C1011.17 69.9455 1013.55 72.3333 1016.5 72.3333ZM1042 67L1042 68L1042.41 68L1042.71 67.7071L1042 67ZM1059 50L1059 49L1058.59 49L1058.29 49.2929L1059 50ZM1100 50L1100 51L1100.41 51L1100.71 50.7071L1100 50ZM1141 8.99999L1141.71 9.7071L1142 9.41421L1142 8.99999L1141 8.99999ZM1016.5 67L1016.5 68L1042 68L1042 67L1042 66L1016.5 66L1016.5 67ZM1042 67L1042.71 67.7071L1059.71 50.7071L1059 50L1058.29 49.2929L1041.29 66.2929L1042 67ZM1059 50L1059 51L1100 51L1100 50L1100 49L1059 49L1059 50ZM1100 50L1100.71 50.7071L1141.71 9.7071L1141 8.99999L1140.29 8.29289L1099.29 49.2929L1100 50ZM1141 8.99999L1142 8.99999L1142 -10L1141 -10L1140 -10L1140 8.99999L1141 8.99999Z" fill="#E5E7E8"/>
<path d="M1043.5 45.8333C1046.45 45.8333 1048.83 43.4455 1048.83 40.5C1048.83 37.5545 1046.45 35.1667 1043.5 35.1667C1040.55 35.1667 1038.17 37.5545 1038.17 40.5C1038.17 43.4455 1040.55 45.8333 1043.5 45.8333ZM1064.5 40.5L1064.5 41.5L1064.91 41.5L1065.21 41.2071L1064.5 40.5ZM1079.5 25.5L1079.5 24.5L1079.09 24.5L1078.79 24.7929L1079.5 25.5ZM1110 25.5L1110 26.5L1110.41 26.5L1110.71 26.2071L1110 25.5ZM1130.5 5L1131.21 5.7071L1131.5 5.41421L1131.5 5L1130.5 5ZM1043.5 40.5L1043.5 41.5L1064.5 41.5L1064.5 40.5L1064.5 39.5L1043.5 39.5L1043.5 40.5ZM1064.5 40.5L1065.21 41.2071L1080.21 26.2071L1079.5 25.5L1078.79 24.7929L1063.79 39.7929L1064.5 40.5ZM1079.5 25.5L1079.5 26.5L1110 26.5L1110 25.5L1110 24.5L1079.5 24.5L1079.5 25.5ZM1110 25.5L1110.71 26.2071L1131.21 5.7071L1130.5 5L1129.79 4.29289L1109.29 24.7929L1110 25.5ZM1130.5 5L1131.5 5L1131.5 -16.5L1130.5 -16.5L1129.5 -16.5L1129.5 5L1130.5 5Z" fill="#E5E7E8"/>
<path d="M1067.5 22.3333C1070.45 22.3333 1072.83 19.9455 1072.83 17C1072.83 14.0545 1070.45 11.6667 1067.5 11.6667C1064.55 11.6667 1062.17 14.0545 1062.17 17C1062.17 19.9455 1064.55 22.3333 1067.5 22.3333ZM1104.5 17L1104.5 18L1104.91 18L1105.21 17.7071L1104.5 17ZM1120 1.5L1120.71 2.2071L1121 1.91421L1121 1.5L1120 1.5ZM1067.5 17L1067.5 18L1104.5 18L1104.5 17L1104.5 16L1067.5 16L1067.5 17ZM1104.5 17L1105.21 17.7071L1120.71 2.2071L1120 1.5L1119.29 0.79289L1103.79 16.2929L1104.5 17ZM1120 1.5L1121 1.5L1121 -11.5L1120 -11.5L1119 -11.5L1119 1.5L1120 1.5Z" fill="#E5E7E8"/>
<path d="M1080.5 13.3333C1083.45 13.3333 1085.83 10.9455 1085.83 8C1085.83 5.05448 1083.45 2.66667 1080.5 2.66667C1077.55 2.66667 1075.17 5.05448 1075.17 8C1075.17 10.9455 1077.55 13.3333 1080.5 13.3333ZM1099 8L1099 9L1099.41 9L1099.71 8.70711L1099 8ZM1109.5 -2.5L1110.21 -1.79289L1110.5 -2.08579L1110.5 -2.5L1109.5 -2.5ZM1080.5 8L1080.5 9L1099 9L1099 8L1099 7L1080.5 7L1080.5 8ZM1099 8L1099.71 8.70711L1110.21 -1.79289L1109.5 -2.5L1108.79 -3.20711L1098.29 7.29289L1099 8ZM1109.5 -2.5L1110.5 -2.5L1110.5 -15L1109.5 -15L1108.5 -15L1108.5 -2.5L1109.5 -2.5Z" fill="#E5E7E8"/>
<path d="M1074.5 118.833C1077.45 118.833 1079.83 116.446 1079.83 113.5C1079.83 110.554 1077.45 108.167 1074.5 108.167C1071.55 108.167 1069.17 110.554 1069.17 113.5C1069.17 116.446 1071.55 118.833 1074.5 118.833ZM1090 98L1090 97L1089.59 97L1089.29 97.2929L1090 98ZM1128 98L1128 99L1128.41 99L1128.71 98.7071L1128 98ZM1204.5 21.5L1204.5 20.5L1204.09 20.5L1203.79 20.7929L1204.5 21.5ZM1230 21.5L1230 22.5L1230.41 22.5L1230.71 22.2071L1230 21.5ZM1246 5.49999L1246.71 6.2071L1247 5.91421L1247 5.49999L1246 5.49999ZM1074.5 113.5L1075.21 114.207L1090.71 98.7071L1090 98L1089.29 97.2929L1073.79 112.793L1074.5 113.5ZM1090 98L1090 99L1128 99L1128 98L1128 97L1090 97L1090 98ZM1128 98L1128.71 98.7071L1205.21 22.2071L1204.5 21.5L1203.79 20.7929L1127.29 97.2929L1128 98ZM1204.5 21.5L1204.5 22.5L1230 22.5L1230 21.5L1230 20.5L1204.5 20.5L1204.5 21.5ZM1230 21.5L1230.71 22.2071L1246.71 6.2071L1246 5.49999L1245.29 4.79288L1229.29 20.7929L1230 21.5ZM1246 5.49999L1247 5.49999L1247 -21L1246 -21L1245 -21L1245 5.49999L1246 5.49999Z" fill="#C6FF00"/>
<path d="M1123.5 92.8333C1126.45 92.8333 1128.83 90.4455 1128.83 87.5C1128.83 84.5545 1126.45 82.1667 1123.5 82.1667C1120.55 82.1667 1118.17 84.5545 1118.17 87.5C1118.17 90.4455 1120.55 92.8333 1123.5 92.8333ZM1185.5 25.5L1186.21 26.2071L1186.5 25.9142L1186.5 25.5L1185.5 25.5ZM1123.5 87.5L1124.21 88.2071L1186.21 26.2071L1185.5 25.5L1184.79 24.7929L1122.79 86.7929L1123.5 87.5ZM1185.5 25.5L1186.5 25.5L1186.5 -11L1185.5 -11L1184.5 -11L1184.5 25.5L1185.5 25.5Z" fill="#C6FF00"/>
<path d="M1009.5 319.833C1012.45 319.833 1014.83 317.446 1014.83 314.5C1014.83 311.554 1012.45 309.167 1009.5 309.167C1006.55 309.167 1004.17 311.554 1004.17 314.5C1004.17 317.446 1006.55 319.833 1009.5 319.833ZM999 304L999.707 303.293L999.414 303L999 303L999 304ZM980 304L979.293 304.707L979.586 305L980 305L980 304ZM970 294L969 294L969 294.414L969.293 294.707L970 294ZM970 269.5L969.293 268.793L969 269.086L969 269.5L970 269.5ZM991 248.5L991.707 249.207L992 248.914L992 248.5L991 248.5ZM991 217.5L990.293 216.793L990 217.086L990 217.5L991 217.5ZM1016.5 192L1016.5 191L1016.09 191L1015.79 191.293L1016.5 192ZM1050.5 192L1050.5 193L1050.91 193L1051.2 192.712L1050.5 192ZM1084 159L1084 158L1083.59 158L1083.3 158.288L1084 159ZM1108.5 164.333C1111.45 164.333 1113.83 161.946 1113.83 159C1113.83 156.054 1111.45 153.667 1108.5 153.667C1105.55 153.667 1103.17 156.054 1103.17 159C1103.17 161.946 1105.55 164.333 1108.5 164.333ZM1009.5 314.5L1010.21 313.793L999.707 303.293L999 304L998.293 304.707L1008.79 315.207L1009.5 314.5ZM999 304L999 303L980 303L980 304L980 305L999 305L999 304ZM980 304L980.707 303.293L970.707 293.293L970 294L969.293 294.707L979.293 304.707L980 304ZM970 294L971 294L971 269.5L970 269.5L969 269.5L969 294L970 294ZM970 269.5L970.707 270.207L991.707 249.207L991 248.5L990.293 247.793L969.293 268.793L970 269.5ZM991 248.5L992 248.5L992 217.5L991 217.5L990 217.5L990 248.5L991 248.5ZM991 217.5L991.707 218.207L1017.21 192.707L1016.5 192L1015.79 191.293L990.293 216.793L991 217.5ZM1016.5 192L1016.5 193L1050.5 193L1050.5 192L1050.5 191L1016.5 191L1016.5 192ZM1050.5 192L1051.2 192.712L1084.7 159.712L1084 159L1083.3 158.288L1049.8 191.288L1050.5 192ZM1084 159L1084 160L1108.5 160L1108.5 159L1108.5 158L1084 158L1084 159Z" fill="#E5E7E8"/>
<path d="M1026.5 319.333C1029.45 319.333 1031.83 316.946 1031.83 314C1031.83 311.054 1029.45 308.667 1026.5 308.667C1023.55 308.667 1021.17 311.054 1021.17 314C1021.17 316.946 1023.55 319.333 1026.5 319.333ZM1006.5 294L1007.21 293.293L1006.91 293L1006.5 293L1006.5 294ZM986 294L985.293 294.707L985.586 295L986 295L986 294ZM982 290L981 290L981 290.414L981.293 290.707L982 290ZM982 273.5L981.293 272.793L981 273.086L981 273.5L982 273.5ZM1003 252.5L1003.71 253.207L1004 252.914L1004 252.5L1003 252.5ZM1003 222L1002.29 221.293L1002 221.586L1002 222L1003 222ZM1021.5 203.5L1021.5 202.5L1021.09 202.5L1020.79 202.793L1021.5 203.5ZM1055.5 203.5L1055.5 204.5L1055.91 204.5L1056.21 204.207L1055.5 203.5ZM1087 172L1087 171L1086.59 171L1086.29 171.293L1087 172ZM1111.5 172L1111.5 173L1111.91 173L1112.21 172.707L1111.5 172ZM1123.5 160L1123.5 159L1123.09 159L1122.79 159.293L1123.5 160ZM1173 160L1173 161L1173.41 161L1173.71 160.707L1173 160ZM1206.5 126.5L1207.21 127.207L1207.5 126.914L1207.5 126.5L1206.5 126.5ZM1206.5 103.833C1209.45 103.833 1211.83 101.446 1211.83 98.5C1211.83 95.5545 1209.45 93.1667 1206.5 93.1667C1203.55 93.1667 1201.17 95.5545 1201.17 98.5C1201.17 101.446 1203.55 103.833 1206.5 103.833ZM1026.5 314L1027.21 313.293L1007.21 293.293L1006.5 294L1005.79 294.707L1025.79 314.707L1026.5 314ZM1006.5 294L1006.5 293L986 293L986 294L986 295L1006.5 295L1006.5 294ZM986 294L986.707 293.293L982.707 289.293L982 290L981.293 290.707L985.293 294.707L986 294ZM982 290L983 290L983 273.5L982 273.5L981 273.5L981 290L982 290ZM982 273.5L982.707 274.207L1003.71 253.207L1003 252.5L1002.29 251.793L981.293 272.793L982 273.5ZM1003 252.5L1004 252.5L1004 222L1003 222L1002 222L1002 252.5L1003 252.5ZM1003 222L1003.71 222.707L1022.21 204.207L1021.5 203.5L1020.79 202.793L1002.29 221.293L1003 222ZM1021.5 203.5L1021.5 204.5L1055.5 204.5L1055.5 203.5L1055.5 202.5L1021.5 202.5L1021.5 203.5ZM1055.5 203.5L1056.21 204.207L1087.71 172.707L1087 172L1086.29 171.293L1054.79 202.793L1055.5 203.5ZM1087 172L1087 173L1111.5 173L1111.5 172L1111.5 171L1087 171L1087 172ZM1111.5 172L1112.21 172.707L1124.21 160.707L1123.5 160L1122.79 159.293L1110.79 171.293L1111.5 172ZM1123.5 160L1123.5 161L1173 161L1173 160L1173 159L1123.5 159L1123.5 160ZM1173 160L1173.71 160.707L1207.21 127.207L1206.5 126.5L1205.79 125.793L1172.29 159.293L1173 160ZM1206.5 126.5L1207.5 126.5L1207.5 98.5L1206.5 98.5L1205.5 98.5L1205.5 126.5L1206.5 126.5Z" fill="#E5E7E8"/>
<path d="M1163.5 188.833C1166.45 188.833 1168.83 186.446 1168.83 183.5C1168.83 180.554 1166.45 178.167 1163.5 178.167C1160.55 178.167 1158.17 180.554 1158.17 183.5C1158.17 186.446 1160.55 188.833 1163.5 188.833ZM1218 129L1218.71 129.707L1219 129.414L1219 129L1218 129ZM1218 87.5L1217.29 86.7929L1217 87.0858L1217 87.5L1218 87.5ZM1234 71.5L1234 70.5L1233.59 70.5L1233.29 70.7929L1234 71.5ZM1276 71.5L1276.71 70.7929L1276.41 70.5L1276 70.5L1276 71.5ZM1302 97.5L1303 97.5L1303 97.0858L1302.71 96.7929L1302 97.5ZM1302 139L1301 139L1301 139.414L1301.29 139.707L1302 139ZM1314.5 151.5L1313.79 152.207L1314.09 152.5L1314.5 152.5L1314.5 151.5ZM1362.5 151.5L1363.21 150.793L1362.91 150.5L1362.5 150.5L1362.5 151.5ZM1373.5 162.5L1374.5 162.5L1374.5 162.086L1374.21 161.793L1373.5 162.5ZM1373.5 188.833C1376.45 188.833 1378.83 186.446 1378.83 183.5C1378.83 180.554 1376.45 178.167 1373.5 178.167C1370.55 178.167 1368.17 180.554 1368.17 183.5C1368.17 186.446 1370.55 188.833 1373.5 188.833ZM1163.5 183.5L1164.21 184.207L1218.71 129.707L1218 129L1217.29 128.293L1162.79 182.793L1163.5 183.5ZM1218 129L1219 129L1219 87.5L1218 87.5L1217 87.5L1217 129L1218 129ZM1218 87.5L1218.71 88.2071L1234.71 72.2071L1234 71.5L1233.29 70.7929L1217.29 86.7929L1218 87.5ZM1234 71.5L1234 72.5L1276 72.5L1276 71.5L1276 70.5L1234 70.5L1234 71.5ZM1276 71.5L1275.29 72.2071L1301.29 98.2071L1302 97.5L1302.71 96.7929L1276.71 70.7929L1276 71.5ZM1302 97.5L1301 97.5L1301 139L1302 139L1303 139L1303 97.5L1302 97.5ZM1302 139L1301.29 139.707L1313.79 152.207L1314.5 151.5L1315.21 150.793L1302.71 138.293L1302 139ZM1314.5 151.5L1314.5 152.5L1362.5 152.5L1362.5 151.5L1362.5 150.5L1314.5 150.5L1314.5 151.5ZM1362.5 151.5L1361.79 152.207L1372.79 163.207L1373.5 162.5L1374.21 161.793L1363.21 150.793L1362.5 151.5ZM1373.5 162.5L1372.5 162.5L1372.5 183.5L1373.5 183.5L1374.5 183.5L1374.5 162.5L1373.5 162.5Z" fill="#E5E7E8"/>
<path d="M1176.5 188.833C1179.45 188.833 1181.83 186.446 1181.83 183.5C1181.83 180.554 1179.45 178.167 1176.5 178.167C1173.55 178.167 1171.17 180.554 1171.17 183.5C1171.17 186.446 1173.55 188.833 1176.5 188.833ZM1228.5 131.5L1229.21 132.207L1229.5 131.914L1229.5 131.5L1228.5 131.5ZM1228.5 93L1227.79 92.2929L1227.5 92.5858L1227.5 93L1228.5 93ZM1239 82.5L1239 81.5L1238.59 81.5L1238.29 81.7929L1239 82.5ZM1257 82.5L1257.71 81.7929L1257.41 81.5L1257 81.5L1257 82.5ZM1293 118.5L1294 118.5L1294 118.086L1293.71 117.793L1293 118.5ZM1293 142L1292 142L1292 142.414L1292.29 142.707L1293 142ZM1312 161L1311.29 161.707L1311.59 162L1312 162L1312 161ZM1357 161L1357.71 160.293L1357.41 160L1357 160L1357 161ZM1363 167L1364 167L1364 166.586L1363.71 166.293L1363 167ZM1363 188.833C1365.95 188.833 1368.33 186.446 1368.33 183.5C1368.33 180.554 1365.95 178.167 1363 178.167C1360.05 178.167 1357.67 180.554 1357.67 183.5C1357.67 186.446 1360.05 188.833 1363 188.833ZM1176.5 183.5L1177.21 184.207L1229.21 132.207L1228.5 131.5L1227.79 130.793L1175.79 182.793L1176.5 183.5ZM1228.5 131.5L1229.5 131.5L1229.5 93L1228.5 93L1227.5 93L1227.5 131.5L1228.5 131.5ZM1228.5 93L1229.21 93.7071L1239.71 83.2071L1239 82.5L1238.29 81.7929L1227.79 92.2929L1228.5 93ZM1239 82.5L1239 83.5L1257 83.5L1257 82.5L1257 81.5L1239 81.5L1239 82.5ZM1257 82.5L1256.29 83.2071L1292.29 119.207L1293 118.5L1293.71 117.793L1257.71 81.7929L1257 82.5ZM1293 118.5L1292 118.5L1292 142L1293 142L1294 142L1294 118.5L1293 118.5ZM1293 142L1292.29 142.707L1311.29 161.707L1312 161L1312.71 160.293L1293.71 141.293L1293 142ZM1312 161L1312 162L1357 162L1357 161L1357 160L1312 160L1312 161ZM1357 161L1356.29 161.707L1362.29 167.707L1363 167L1363.71 166.293L1357.71 160.293L1357 161ZM1363 167L1362 167L1362 183.5L1363 183.5L1364 183.5L1364 167L1363 167Z" fill="#E5E7E8"/>
<path d="M1201.5 176.833C1204.45 176.833 1206.83 174.446 1206.83 171.5C1206.83 168.554 1204.45 166.167 1201.5 166.167C1198.55 166.167 1196.17 168.554 1196.17 171.5C1196.17 174.446 1198.55 176.833 1201.5 176.833ZM1239.5 133.5L1240.21 134.207L1240.5 133.914L1240.5 133.5L1239.5 133.5ZM1239.5 97L1238.79 96.2929L1238.5 96.5858L1238.5 97L1239.5 97ZM1245 91.5L1245 90.5L1244.59 90.5L1244.29 90.7929L1245 91.5ZM1251.5 91.5L1252.21 90.7929L1251.91 90.5L1251.5 90.5L1251.5 91.5ZM1282 122L1283 122L1283 121.586L1282.71 121.293L1282 122ZM1282 145.5L1281 145.5L1281 145.914L1281.29 146.207L1282 145.5ZM1305.5 169L1304.79 169.707L1305.09 170L1305.5 170L1305.5 169ZM1349.5 174.333C1352.45 174.333 1354.83 171.946 1354.83 169C1354.83 166.054 1352.45 163.667 1349.5 163.667C1346.55 163.667 1344.17 166.054 1344.17 169C1344.17 171.946 1346.55 174.333 1349.5 174.333ZM1201.5 171.5L1202.21 172.207L1240.21 134.207L1239.5 133.5L1238.79 132.793L1200.79 170.793L1201.5 171.5ZM1239.5 133.5L1240.5 133.5L1240.5 97L1239.5 97L1238.5 97L1238.5 133.5L1239.5 133.5ZM1239.5 97L1240.21 97.7071L1245.71 92.2071L1245 91.5L1244.29 90.7929L1238.79 96.2929L1239.5 97ZM1245 91.5L1245 92.5L1251.5 92.5L1251.5 91.5L1251.5 90.5L1245 90.5L1245 91.5ZM1251.5 91.5L1250.79 92.2071L1281.29 122.707L1282 122L1282.71 121.293L1252.21 90.7929L1251.5 91.5ZM1282 122L1281 122L1281 145.5L1282 145.5L1283 145.5L1283 122L1282 122ZM1282 145.5L1281.29 146.207L1304.79 169.707L1305.5 169L1306.21 168.293L1282.71 144.793L1282 145.5ZM1305.5 169L1305.5 170L1349.5 170L1349.5 169L1349.5 168L1305.5 168L1305.5 169Z" fill="#E5E7E8"/>
<path d="M1288.5 68.3333C1291.45 68.3333 1293.83 65.9455 1293.83 63C1293.83 60.0545 1291.45 57.6667 1288.5 57.6667C1285.55 57.6667 1283.17 60.0545 1283.17 63C1283.17 65.9455 1285.55 68.3333 1288.5 68.3333ZM1300 51.5L1300 50.5L1299.59 50.5L1299.29 50.7929L1300 51.5ZM1395 51.5L1395.71 50.7929L1395.41 50.5L1395 50.5L1395 51.5ZM1425 81.5L1424.29 82.2071L1424.59 82.5L1425 82.5L1425 81.5ZM1521.5 86.8333C1524.45 86.8333 1526.83 84.4455 1526.83 81.5C1526.83 78.5545 1524.45 76.1667 1521.5 76.1667C1518.55 76.1667 1516.17 78.5545 1516.17 81.5C1516.17 84.4455 1518.55 86.8333 1521.5 86.8333ZM1288.5 63L1289.21 63.7071L1300.71 52.2071L1300 51.5L1299.29 50.7929L1287.79 62.2929L1288.5 63ZM1300 51.5L1300 52.5L1395 52.5L1395 51.5L1395 50.5L1300 50.5L1300 51.5ZM1395 51.5L1394.29 52.2071L1424.29 82.2071L1425 81.5L1425.71 80.7929L1395.71 50.7929L1395 51.5ZM1425 81.5L1425 82.5L1521.5 82.5L1521.5 81.5L1521.5 80.5L1425 80.5L1425 81.5Z" fill="#E5E7E8"/>
<path d="M1298 76.3333C1300.95 76.3333 1303.33 73.9455 1303.33 71C1303.33 68.0545 1300.95 65.6667 1298 65.6667C1295.05 65.6667 1292.67 68.0545 1292.67 71C1292.67 73.9455 1295.05 76.3333 1298 76.3333ZM1306.5 62.5L1306.5 61.5L1306.09 61.5L1305.79 61.7929L1306.5 62.5ZM1387.5 62.5L1388.21 61.7929L1387.91 61.5L1387.5 61.5L1387.5 62.5ZM1418 93L1417.29 93.7071L1417.59 94L1418 94L1418 93ZM1534.5 93L1534.5 94L1534.91 94L1535.21 93.7071L1534.5 93ZM1546 81.5L1546 80.5L1545.59 80.5L1545.29 80.7929L1546 81.5ZM1609.5 81.5L1609.5 82.5L1609.91 82.5L1610.21 82.2071L1609.5 81.5ZM1639 52L1639 51L1638.59 51L1638.29 51.2929L1639 52ZM1680 52L1680.71 51.2929L1680.41 51L1680 51L1680 52ZM1701.5 78.8333C1704.45 78.8333 1706.83 76.4455 1706.83 73.5C1706.83 70.5545 1704.45 68.1666 1701.5 68.1666C1698.55 68.1666 1696.17 70.5545 1696.17 73.5C1696.17 76.4455 1698.55 78.8333 1701.5 78.8333ZM1298 71L1298.71 71.7071L1307.21 63.2071L1306.5 62.5L1305.79 61.7929L1297.29 70.2929L1298 71ZM1306.5 62.5L1306.5 63.5L1387.5 63.5L1387.5 62.5L1387.5 61.5L1306.5 61.5L1306.5 62.5ZM1387.5 62.5L1386.79 63.2071L1417.29 93.7071L1418 93L1418.71 92.2929L1388.21 61.7929L1387.5 62.5ZM1418 93L1418 94L1534.5 94L1534.5 93L1534.5 92L1418 92L1418 93ZM1534.5 93L1535.21 93.7071L1546.71 82.2071L1546 81.5L1545.29 80.7929L1533.79 92.2929L1534.5 93ZM1546 81.5L1546 82.5L1609.5 82.5L1609.5 81.5L1609.5 80.5L1546 80.5L1546 81.5ZM1609.5 81.5L1610.21 82.2071L1639.71 52.7071L1639 52L1638.29 51.2929L1608.79 80.7929L1609.5 81.5ZM1639 52L1639 53L1680 53L1680 52L1680 51L1639 51L1639 52ZM1680 52L1679.29 52.7071L1700.79 74.2071L1701.5 73.5L1702.21 72.7929L1680.71 51.2929L1680 52Z" fill="#FC2F00"/>
<path d="M1305 85.3333C1307.95 85.3333 1310.33 82.9455 1310.33 80C1310.33 77.0545 1307.95 74.6667 1305 74.6667C1302.05 74.6667 1299.67 77.0545 1299.67 80C1299.67 82.9455 1302.05 85.3333 1305 85.3333ZM1311 74L1311 73L1310.59 73L1310.29 73.2929L1311 74ZM1382.5 74L1383.21 73.2929L1382.91 73L1382.5 73L1382.5 74ZM1413 104.5L1412.29 105.207L1412.59 105.5L1413 105.5L1413 104.5ZM1569 109.833C1571.95 109.833 1574.33 107.446 1574.33 104.5C1574.33 101.554 1571.95 99.1667 1569 99.1667C1566.05 99.1667 1563.67 101.554 1563.67 104.5C1563.67 107.446 1566.05 109.833 1569 109.833ZM1305 80L1305.71 80.7071L1311.71 74.7071L1311 74L1310.29 73.2929L1304.29 79.2929L1305 80ZM1311 74L1311 75L1382.5 75L1382.5 74L1382.5 73L1311 73L1311 74ZM1382.5 74L1381.79 74.7071L1412.29 105.207L1413 104.5L1413.71 103.793L1383.21 73.2929L1382.5 74ZM1413 104.5L1413 105.5L1569 105.5L1569 104.5L1569 103.5L1413 103.5L1413 104.5Z" fill="#FC2F00"/>
<path d="M1312.5 102.833C1315.45 102.833 1317.83 100.446 1317.83 97.5C1317.83 94.5545 1315.45 92.1667 1312.5 92.1667C1309.55 92.1667 1307.17 94.5545 1307.17 97.5C1307.17 100.446 1309.55 102.833 1312.5 102.833ZM1312.5 135L1311.5 135L1311.5 135.414L1311.79 135.707L1312.5 135ZM1319.5 142L1318.79 142.707L1319.09 143L1319.5 143L1319.5 142ZM1368.5 142L1369.21 141.293L1368.91 141L1368.5 141L1368.5 142ZM1383.5 162.333C1386.45 162.333 1388.83 159.946 1388.83 157C1388.83 154.054 1386.45 151.667 1383.5 151.667C1380.55 151.667 1378.17 154.054 1378.17 157C1378.17 159.946 1380.55 162.333 1383.5 162.333ZM1312.5 97.5L1311.5 97.5L1311.5 135L1312.5 135L1313.5 135L1313.5 97.5L1312.5 97.5ZM1312.5 135L1311.79 135.707L1318.79 142.707L1319.5 142L1320.21 141.293L1313.21 134.293L1312.5 135ZM1319.5 142L1319.5 143L1368.5 143L1368.5 142L1368.5 141L1319.5 141L1319.5 142ZM1368.5 142L1367.79 142.707L1382.79 157.707L1383.5 157L1384.21 156.293L1369.21 141.293L1368.5 142Z" fill="#E5E7E8"/>
<path d="M1432.5 189.833C1435.45 189.833 1437.83 187.446 1437.83 184.5C1437.83 181.554 1435.45 179.167 1432.5 179.167C1429.55 179.167 1427.17 181.554 1427.17 184.5C1427.17 187.446 1429.55 189.833 1432.5 189.833ZM1432.5 142L1431.79 141.293L1431.5 141.586L1431.5 142L1432.5 142ZM1459 115.5L1459 114.5L1458.59 114.5L1458.29 114.793L1459 115.5ZM1601 115.5L1601.71 114.793L1601.41 114.5L1601 114.5L1601 115.5ZM1627.5 142L1626.79 142.707L1627.09 143L1627.5 143L1627.5 142ZM1686 147.333C1688.95 147.333 1691.33 144.946 1691.33 142C1691.33 139.054 1688.95 136.667 1686 136.667C1683.05 136.667 1680.67 139.054 1680.67 142C1680.67 144.946 1683.05 147.333 1686 147.333ZM1432.5 184.5L1433.5 184.5L1433.5 142L1432.5 142L1431.5 142L1431.5 184.5L1432.5 184.5ZM1432.5 142L1433.21 142.707L1459.71 116.207L1459 115.5L1458.29 114.793L1431.79 141.293L1432.5 142ZM1459 115.5L1459 116.5L1601 116.5L1601 115.5L1601 114.5L1459 114.5L1459 115.5ZM1601 115.5L1600.29 116.207L1626.79 142.707L1627.5 142L1628.21 141.293L1601.71 114.793L1601 115.5ZM1627.5 142L1627.5 143L1686 143L1686 142L1686 141L1627.5 141L1627.5 142Z" fill="#C65AFE"/>
<path d="M1442 178.833C1444.95 178.833 1447.33 176.446 1447.33 173.5C1447.33 170.554 1444.95 168.167 1442 168.167C1439.05 168.167 1436.67 170.554 1436.67 173.5C1436.67 176.446 1439.05 178.833 1442 178.833ZM1442 147L1441.29 146.293L1441 146.586L1441 147L1442 147ZM1464 125L1464 124L1463.59 124L1463.29 124.293L1464 125ZM1596 125L1596.71 124.293L1596.41 124L1596 124L1596 125ZM1624 153L1623.29 153.707L1623.59 154L1624 154L1624 153ZM1673.5 158.333C1676.45 158.333 1678.83 155.946 1678.83 153C1678.83 150.054 1676.45 147.667 1673.5 147.667C1670.55 147.667 1668.17 150.054 1668.17 153C1668.17 155.946 1670.55 158.333 1673.5 158.333ZM1442 173.5L1443 173.5L1443 147L1442 147L1441 147L1441 173.5L1442 173.5ZM1442 147L1442.71 147.707L1464.71 125.707L1464 125L1463.29 124.293L1441.29 146.293L1442 147ZM1464 125L1464 126L1596 126L1596 125L1596 124L1464 124L1464 125ZM1596 125L1595.29 125.707L1623.29 153.707L1624 153L1624.71 152.293L1596.71 124.293L1596 125ZM1624 153L1624 154L1673.5 154L1673.5 153L1673.5 152L1624 152L1624 153Z" fill="#C65AFE"/>
<path d="M1452.5 188.333C1455.45 188.333 1457.83 185.946 1457.83 183C1457.83 180.054 1455.45 177.667 1452.5 177.667C1449.55 177.667 1447.17 180.054 1447.17 183C1447.17 185.946 1449.55 188.333 1452.5 188.333ZM1452.5 153L1451.79 152.293L1451.5 152.586L1451.5 153L1452.5 153ZM1470 135.5L1470 134.5L1469.59 134.5L1469.29 134.793L1470 135.5ZM1539.5 135.5L1540.21 134.793L1539.91 134.5L1539.5 134.5L1539.5 135.5ZM1568 164L1567.29 164.707L1567.59 165L1568 165L1568 164ZM1665 169.333C1667.95 169.333 1670.33 166.946 1670.33 164C1670.33 161.054 1667.95 158.667 1665 158.667C1662.05 158.667 1659.67 161.054 1659.67 164C1659.67 166.946 1662.05 169.333 1665 169.333ZM1452.5 183L1453.5 183L1453.5 153L1452.5 153L1451.5 153L1451.5 183L1452.5 183ZM1452.5 153L1453.21 153.707L1470.71 136.207L1470 135.5L1469.29 134.793L1451.79 152.293L1452.5 153ZM1470 135.5L1470 136.5L1539.5 136.5L1539.5 135.5L1539.5 134.5L1470 134.5L1470 135.5ZM1539.5 135.5L1538.79 136.207L1567.29 164.707L1568 164L1568.71 163.293L1540.21 134.793L1539.5 135.5ZM1568 164L1568 165L1665 165L1665 164L1665 163L1568 163L1568 164Z" fill="#E5E7E8"/>
<path d="M1378.5 446.5L1358 467H1319.5L1346.5 440V403.5L1386.5 363.5H1414L1447 330.5V309L1471 285H1516L1535 304H1758L1778 324H1833L1845 336V359H1738V321.5H1676V336H1634.5L1613.5 315H1485L1461.5 338.5V367.5L1414 415H1378.5V446.5Z" fill="#E5E7E8"/>
<path d="M1724.5 116.5L1725.21 117.207L1725.5 116.914V116.5H1724.5ZM1708.5 132.5L1707.79 131.793L1707.5 132.086V132.5H1708.5ZM1708.5 159L1709.21 159.707L1709.5 159.414V159H1708.5ZM1683.5 184V185H1683.91L1684.21 184.707L1683.5 184ZM1552 184L1551.29 184.707L1551.59 185H1552V184ZM1517.5 149.5L1518.21 148.793L1517.91 148.5H1517.5V149.5ZM1471.17 149.5C1471.17 152.446 1473.55 154.833 1476.5 154.833C1479.45 154.833 1481.83 152.446 1481.83 149.5C1481.83 146.554 1479.45 144.167 1476.5 144.167C1473.55 144.167 1471.17 146.554 1471.17 149.5ZM1724.5 0.5H1723.5V116.5H1724.5H1725.5V0.5H1724.5ZM1724.5 116.5L1723.79 115.793L1707.79 131.793L1708.5 132.5L1709.21 133.207L1725.21 117.207L1724.5 116.5ZM1708.5 132.5H1707.5V159H1708.5H1709.5V132.5H1708.5ZM1708.5 159L1707.79 158.293L1682.79 183.293L1683.5 184L1684.21 184.707L1709.21 159.707L1708.5 159ZM1683.5 184V183H1552V184V185H1683.5V184ZM1552 184L1552.71 183.293L1518.21 148.793L1517.5 149.5L1516.79 150.207L1551.29 184.707L1552 184ZM1517.5 149.5V148.5H1476.5V149.5V150.5H1517.5V149.5Z" fill="#E5E7E8"/>
<path d="M1541.67 251C1541.67 253.946 1544.05 256.333 1547 256.333C1549.95 256.333 1552.33 253.946 1552.33 251C1552.33 248.054 1549.95 245.667 1547 245.667C1544.05 245.667 1541.67 248.054 1541.67 251ZM1547 208.5L1546.29 207.793L1546 208.086V208.5H1547ZM1561 194.5V193.5H1560.59L1560.29 193.793L1561 194.5ZM1726 194.5L1726.71 193.793L1726.41 193.5H1726V194.5ZM1736 204.5L1735.29 205.207L1735.59 205.5H1736V204.5ZM1825.67 204.5C1825.67 207.446 1828.05 209.833 1831 209.833C1833.95 209.833 1836.33 207.446 1836.33 204.5C1836.33 201.554 1833.95 199.167 1831 199.167C1828.05 199.167 1825.67 201.554 1825.67 204.5ZM1547 251H1548V208.5H1547H1546V251H1547ZM1547 208.5L1547.71 209.207L1561.71 195.207L1561 194.5L1560.29 193.793L1546.29 207.793L1547 208.5ZM1561 194.5V195.5H1726V194.5V193.5H1561V194.5ZM1726 194.5L1725.29 195.207L1735.29 205.207L1736 204.5L1736.71 203.793L1726.71 193.793L1726 194.5ZM1736 204.5V205.5H1831V204.5V203.5H1736V204.5Z" fill="#E5E7E8"/>
<path d="M1593.17 272.5C1593.17 275.446 1595.55 277.833 1598.5 277.833C1601.45 277.833 1603.83 275.446 1603.83 272.5C1603.83 269.554 1601.45 267.167 1598.5 267.167C1595.55 267.167 1593.17 269.554 1593.17 272.5ZM1575.5 272.5L1574.79 273.207L1575.09 273.5H1575.5V272.5ZM1556.5 253.5H1555.5V253.914L1555.79 254.207L1556.5 253.5ZM1556.5 212.5L1555.79 211.793L1555.5 212.086V212.5H1556.5ZM1564.5 204.5V203.5H1564.09L1563.79 203.793L1564.5 204.5ZM1721 204.5L1721.71 203.793L1721.41 203.5H1721V204.5ZM1731 214.5L1730.29 215.207L1730.59 215.5H1731V214.5ZM1905.5 214.5V215.5H1905.91L1906.21 215.207L1905.5 214.5ZM1915.5 204.5V203.5H1915.09L1914.79 203.793L1915.5 204.5ZM1598.5 272.5V271.5H1575.5V272.5V273.5H1598.5V272.5ZM1575.5 272.5L1576.21 271.793L1557.21 252.793L1556.5 253.5L1555.79 254.207L1574.79 273.207L1575.5 272.5ZM1556.5 253.5H1557.5V212.5H1556.5H1555.5V253.5H1556.5ZM1556.5 212.5L1557.21 213.207L1565.21 205.207L1564.5 204.5L1563.79 203.793L1555.79 211.793L1556.5 212.5ZM1564.5 204.5V205.5H1721V204.5V203.5H1564.5V204.5ZM1721 204.5L1720.29 205.207L1730.29 215.207L1731 214.5L1731.71 213.793L1721.71 203.793L1721 204.5ZM1731 214.5V215.5H1905.5V214.5V213.5H1731V214.5ZM1905.5 214.5L1906.21 215.207L1916.21 205.207L1915.5 204.5L1914.79 203.793L1904.79 213.793L1905.5 214.5ZM1915.5 204.5V205.5H1946.5V204.5V203.5H1915.5V204.5Z" fill="#E5E7E8"/>
<path d="M1407.67 210.5C1407.67 213.446 1410.05 215.833 1413 215.833C1415.95 215.833 1418.33 213.446 1418.33 210.5C1418.33 207.554 1415.95 205.167 1413 205.167C1410.05 205.167 1407.67 207.554 1407.67 210.5ZM1413 287L1413.71 287.707L1414 287.414V287H1413ZM1349 351V352H1349.41L1349.71 351.707L1349 351ZM1303.5 351V350H1303.09L1302.79 350.293L1303.5 351ZM1260.17 389C1260.17 391.946 1262.55 394.333 1265.5 394.333C1268.45 394.333 1270.83 391.946 1270.83 389C1270.83 386.054 1268.45 383.667 1265.5 383.667C1262.55 383.667 1260.17 386.054 1260.17 389ZM1413 210.5H1412V287H1413H1414V210.5H1413ZM1413 287L1412.29 286.293L1348.29 350.293L1349 351L1349.71 351.707L1413.71 287.707L1413 287ZM1349 351V350H1303.5V351V352H1349V351ZM1303.5 351L1302.79 350.293L1264.79 388.293L1265.5 389L1266.21 389.707L1304.21 351.707L1303.5 351Z" fill="#E5E7E8"/>
<path d="M1394.17 211.5C1394.17 214.446 1396.55 216.833 1399.5 216.833C1402.45 216.833 1404.83 214.446 1404.83 211.5C1404.83 208.554 1402.45 206.167 1399.5 206.167C1396.55 206.167 1394.17 208.554 1394.17 211.5ZM1399.5 282.5L1400.21 283.207L1400.5 282.914V282.5H1399.5ZM1343.5 338.5V339.5H1343.91L1344.21 339.207L1343.5 338.5ZM1294.5 338.5V337.5H1294.09L1293.79 337.793L1294.5 338.5ZM1221.5 411.5L1220.79 410.793L1220.5 411.086V411.5H1221.5ZM1216.17 439.5C1216.17 442.446 1218.55 444.833 1221.5 444.833C1224.45 444.833 1226.83 442.446 1226.83 439.5C1226.83 436.554 1224.45 434.167 1221.5 434.167C1218.55 434.167 1216.17 436.554 1216.17 439.5ZM1399.5 211.5H1398.5V282.5H1399.5H1400.5V211.5H1399.5ZM1399.5 282.5L1398.79 281.793L1342.79 337.793L1343.5 338.5L1344.21 339.207L1400.21 283.207L1399.5 282.5ZM1343.5 338.5V337.5H1294.5V338.5V339.5H1343.5V338.5ZM1294.5 338.5L1293.79 337.793L1220.79 410.793L1221.5 411.5L1222.21 412.207L1295.21 339.207L1294.5 338.5ZM1221.5 411.5H1220.5V439.5H1221.5H1222.5V411.5H1221.5Z" fill="#E5E7E8"/>
<path d="M1399.17 184.5C1399.17 187.446 1401.55 189.833 1404.5 189.833C1407.45 189.833 1409.83 187.446 1409.83 184.5C1409.83 181.554 1407.45 179.167 1404.5 179.167C1401.55 179.167 1399.17 181.554 1399.17 184.5ZM1385.5 203.5L1384.79 202.793L1384.5 203.086V203.5H1385.5ZM1385.5 276L1386.21 276.707L1386.5 276.414V276H1385.5ZM1337.5 324V325H1337.91L1338.21 324.707L1337.5 324ZM1285.5 324V323H1285.09L1284.79 323.293L1285.5 324ZM1183.67 420.5C1183.67 423.446 1186.05 425.833 1189 425.833C1191.95 425.833 1194.33 423.446 1194.33 420.5C1194.33 417.554 1191.95 415.167 1189 415.167C1186.05 415.167 1183.67 417.554 1183.67 420.5ZM1404.5 184.5L1403.79 183.793L1384.79 202.793L1385.5 203.5L1386.21 204.207L1405.21 185.207L1404.5 184.5ZM1385.5 203.5H1384.5V276H1385.5H1386.5V203.5H1385.5ZM1385.5 276L1384.79 275.293L1336.79 323.293L1337.5 324L1338.21 324.707L1386.21 276.707L1385.5 276ZM1337.5 324V323H1285.5V324V325H1337.5V324ZM1285.5 324L1284.79 323.293L1188.29 419.793L1189 420.5L1189.71 421.207L1286.21 324.707L1285.5 324Z" fill="#E5E7E8"/>
<path d="M1366.67 232.5C1366.67 235.446 1369.05 237.833 1372 237.833C1374.95 237.833 1377.33 235.446 1377.33 232.5C1377.33 229.554 1374.95 227.167 1372 227.167C1369.05 227.167 1366.67 229.554 1366.67 232.5ZM1372 269.5L1372.71 270.207L1373 269.914V269.5H1372ZM1331 310.5V311.5H1331.41L1331.71 311.207L1331 310.5ZM1275 310.5V309.5H1274.59L1274.29 309.793L1275 310.5ZM1205.17 375C1205.17 377.946 1207.55 380.333 1210.5 380.333C1213.45 380.333 1215.83 377.946 1215.83 375C1215.83 372.054 1213.45 369.667 1210.5 369.667C1207.55 369.667 1205.17 372.054 1205.17 375ZM1372 232.5H1371V269.5H1372H1373V232.5H1372ZM1372 269.5L1371.29 268.793L1330.29 309.793L1331 310.5L1331.71 311.207L1372.71 270.207L1372 269.5ZM1331 310.5V309.5H1275V310.5V311.5H1331V310.5ZM1275 310.5L1274.29 309.793L1209.79 374.293L1210.5 375L1211.21 375.707L1275.71 311.207L1275 310.5Z" fill="#E5E7E8"/>
<path d="M1345.17 213.5C1345.17 216.446 1347.55 218.833 1350.5 218.833C1353.45 218.833 1355.83 216.446 1355.83 213.5C1355.83 210.554 1353.45 208.167 1350.5 208.167C1347.55 208.167 1345.17 210.554 1345.17 213.5ZM1292.5 213.5V212.5H1292.09L1291.79 212.793L1292.5 213.5ZM1217 289V290H1217.41L1217.71 289.707L1217 289ZM1161 289V288H1160.59L1160.29 288.293L1161 289ZM1124.67 320C1124.67 322.946 1127.05 325.333 1130 325.333C1132.95 325.333 1135.33 322.946 1135.33 320C1135.33 317.054 1132.95 314.667 1130 314.667C1127.05 314.667 1124.67 317.054 1124.67 320ZM1350.5 213.5V212.5H1292.5V213.5V214.5H1350.5V213.5ZM1292.5 213.5L1291.79 212.793L1216.29 288.293L1217 289L1217.71 289.707L1293.21 214.207L1292.5 213.5ZM1217 289V288H1161V289V290H1217V289ZM1161 289L1160.29 288.293L1129.29 319.293L1130 320L1130.71 320.707L1161.71 289.707L1161 289Z" fill="#E5E7E8"/>
<path d="M1282.17 197C1282.17 199.946 1284.55 202.333 1287.5 202.333C1290.45 202.333 1292.83 199.946 1292.83 197C1292.83 194.054 1290.45 191.667 1287.5 191.667C1284.55 191.667 1282.17 194.054 1282.17 197ZM1210 274.5V275.5H1210.41L1210.71 275.207L1210 274.5ZM1155 274.5V273.5H1154.59L1154.29 273.793L1155 274.5ZM1057.17 367C1057.17 369.946 1059.55 372.333 1062.5 372.333C1065.45 372.333 1067.83 369.946 1067.83 367C1067.83 364.054 1065.45 361.667 1062.5 361.667C1059.55 361.667 1057.17 364.054 1057.17 367ZM1287.5 197L1286.79 196.293L1209.29 273.793L1210 274.5L1210.71 275.207L1288.21 197.707L1287.5 197ZM1210 274.5V273.5H1155V274.5V275.5H1210V274.5ZM1155 274.5L1154.29 273.793L1061.79 366.293L1062.5 367L1063.21 367.707L1155.71 275.207L1155 274.5Z" fill="#E5E7E8"/>
<path d="M1320.67 182.5C1320.67 185.446 1323.05 187.833 1326 187.833C1328.95 187.833 1331.33 185.446 1331.33 182.5C1331.33 179.554 1328.95 177.167 1326 177.167C1323.05 177.167 1320.67 179.554 1320.67 182.5ZM1282.5 182.5V181.5H1282.09L1281.79 181.793L1282.5 182.5ZM1205.5 259.5V260.5H1205.91L1206.21 260.207L1205.5 259.5ZM1149.5 259.5V258.5H1149.09L1148.79 258.793L1149.5 259.5ZM1104 305V306H1104.41L1104.71 305.707L1104 305ZM1051.17 305C1051.17 307.946 1053.55 310.333 1056.5 310.333C1059.45 310.333 1061.83 307.946 1061.83 305C1061.83 302.054 1059.45 299.667 1056.5 299.667C1053.55 299.667 1051.17 302.054 1051.17 305ZM1326 182.5V181.5H1282.5V182.5V183.5H1326V182.5ZM1282.5 182.5L1281.79 181.793L1204.79 258.793L1205.5 259.5L1206.21 260.207L1283.21 183.207L1282.5 182.5ZM1205.5 259.5V258.5H1149.5V259.5V260.5H1205.5V259.5ZM1149.5 259.5L1148.79 258.793L1103.29 304.293L1104 305L1104.71 305.707L1150.21 260.207L1149.5 259.5ZM1104 305V304H1056.5V305V306H1104V305Z" fill="#E5E7E8"/>
<path d="M1925 227V226H1924.59L1924.29 226.293L1925 227ZM1908 244L1907.29 243.293L1907 243.586V244H1908ZM1908 283.5L1908.71 284.207L1909 283.914V283.5H1908ZM1876 315.5V316.5H1876.41L1876.71 316.207L1876 315.5ZM1784 315.5L1783.29 316.207L1783.59 316.5H1784V315.5ZM1761 292.5L1761.71 291.793L1761.41 291.5H1761V292.5ZM1542.5 292.5L1541.79 293.207L1542.09 293.5H1542.5V292.5ZM1526 276H1525V276.414L1525.29 276.707L1526 276ZM1526 241H1527V240.732L1526.87 240.5L1526 241ZM1517.92 227L1518.78 226.5L1518.49 226H1517.92V227ZM1472.5 227V226H1472.09L1471.79 226.293L1472.5 227ZM1436 263.5L1435.29 262.793L1435 263.086V263.5H1436ZM1436 323.5L1436.71 324.207L1437 323.914V323.5H1436ZM1408.5 351V352H1408.91L1409.21 351.707L1408.5 351ZM1380 351V350H1379.59L1379.29 350.293L1380 351ZM1335 396L1334.29 395.293L1334 395.586V396H1335ZM1329.67 430.5C1329.67 433.446 1332.05 435.833 1335 435.833C1337.95 435.833 1340.33 433.446 1340.33 430.5C1340.33 427.554 1337.95 425.167 1335 425.167C1332.05 425.167 1329.67 427.554 1329.67 430.5ZM1948 227V226H1925V227V228H1948V227ZM1925 227L1924.29 226.293L1907.29 243.293L1908 244L1908.71 244.707L1925.71 227.707L1925 227ZM1908 244H1907V283.5H1908H1909V244H1908ZM1908 283.5L1907.29 282.793L1875.29 314.793L1876 315.5L1876.71 316.207L1908.71 284.207L1908 283.5ZM1876 315.5V314.5H1784V315.5V316.5H1876V315.5ZM1784 315.5L1784.71 314.793L1761.71 291.793L1761 292.5L1760.29 293.207L1783.29 316.207L1784 315.5ZM1761 292.5V291.5H1542.5V292.5V293.5H1761V292.5ZM1542.5 292.5L1543.21 291.793L1526.71 275.293L1526 276L1525.29 276.707L1541.79 293.207L1542.5 292.5ZM1526 276H1527V241H1526H1525V276H1526ZM1526 241L1526.87 240.5L1518.78 226.5L1517.92 227L1517.05 227.5L1525.13 241.5L1526 241ZM1517.92 227V226H1472.5V227V228H1517.92V227ZM1472.5 227L1471.79 226.293L1435.29 262.793L1436 263.5L1436.71 264.207L1473.21 227.707L1472.5 227ZM1436 263.5H1435V323.5H1436H1437V263.5H1436ZM1436 323.5L1435.29 322.793L1407.79 350.293L1408.5 351L1409.21 351.707L1436.71 324.207L1436 323.5ZM1408.5 351V350H1380V351V352H1408.5V351ZM1380 351L1379.29 350.293L1334.29 395.293L1335 396L1335.71 396.707L1380.71 351.707L1380 351ZM1335 396H1334V430.5H1335H1336V396H1335Z" fill="#C6FF00"/>
<path d="M1919.5 215.5V214.5H1919.09L1918.79 214.793L1919.5 215.5ZM1898 237L1897.29 236.293L1897 236.586V237H1898ZM1898 278.5L1898.71 279.207L1899 278.914V278.5H1898ZM1871 305.5V306.5H1871.41L1871.71 306.207L1871 305.5ZM1789 305.5L1788.29 306.207L1788.59 306.5H1789V305.5ZM1765.5 282L1766.21 281.293L1765.91 281H1765.5V282ZM1547.5 282L1546.79 282.707L1547.09 283H1547.5V282ZM1536 270.5H1535V270.914L1535.29 271.207L1536 270.5ZM1536 228H1537V227.586L1536.71 227.293L1536 228ZM1524.5 216.5L1525.21 215.793L1524.91 215.5H1524.5V216.5ZM1436.5 216.5V215.5H1436.09L1435.79 215.793L1436.5 216.5ZM1425 228L1424.29 227.293L1424 227.586V228H1425ZM1425 318.5L1425.71 319.207L1426 318.914V318.5H1425ZM1403.5 340V341H1403.91L1404.21 340.707L1403.5 340ZM1375.5 340V339H1375.09L1374.79 339.293L1375.5 340ZM1325 390.5L1324.29 389.793L1324 390.086V390.5H1325ZM1319.67 444.5C1319.67 447.446 1322.05 449.833 1325 449.833C1327.95 449.833 1330.33 447.446 1330.33 444.5C1330.33 441.554 1327.95 439.167 1325 439.167C1322.05 439.167 1319.67 441.554 1319.67 444.5ZM1947.5 215.5V214.5H1919.5V215.5V216.5H1947.5V215.5ZM1919.5 215.5L1918.79 214.793L1897.29 236.293L1898 237L1898.71 237.707L1920.21 216.207L1919.5 215.5ZM1898 237H1897V278.5H1898H1899V237H1898ZM1898 278.5L1897.29 277.793L1870.29 304.793L1871 305.5L1871.71 306.207L1898.71 279.207L1898 278.5ZM1871 305.5V304.5H1789V305.5V306.5H1871V305.5ZM1789 305.5L1789.71 304.793L1766.21 281.293L1765.5 282L1764.79 282.707L1788.29 306.207L1789 305.5ZM1765.5 282V281H1547.5V282V283H1765.5V282ZM1547.5 282L1548.21 281.293L1536.71 269.793L1536 270.5L1535.29 271.207L1546.79 282.707L1547.5 282ZM1536 270.5H1537V228H1536H1535V270.5H1536ZM1536 228L1536.71 227.293L1525.21 215.793L1524.5 216.5L1523.79 217.207L1535.29 228.707L1536 228ZM1524.5 216.5V215.5H1436.5V216.5V217.5H1524.5V216.5ZM1436.5 216.5L1435.79 215.793L1424.29 227.293L1425 228L1425.71 228.707L1437.21 217.207L1436.5 216.5ZM1425 228H1424V318.5H1425H1426V228H1425ZM1425 318.5L1424.29 317.793L1402.79 339.293L1403.5 340L1404.21 340.707L1425.71 319.207L1425 318.5ZM1403.5 340V339H1375.5V340V341H1403.5V340ZM1375.5 340L1374.79 339.293L1324.29 389.793L1325 390.5L1325.71 391.207L1376.21 340.707L1375.5 340ZM1325 390.5H1324V444.5H1325H1326V390.5H1325Z" fill="#C6FF00"/>
<path d="M1715 110.5L1715.71 111.207L1716 110.914V110.5H1715ZM1698.5 127L1697.79 126.293L1697.5 126.586V127H1698.5ZM1698.5 153L1699.21 153.707L1699.5 153.414V153H1698.5ZM1678 173.5V174.5H1678.41L1678.71 174.207L1678 173.5ZM1560 173.5L1559.29 174.207L1559.59 174.5H1560V173.5ZM1529.17 148C1529.17 150.946 1531.55 153.333 1534.5 153.333C1537.45 153.333 1539.83 150.946 1539.83 148C1539.83 145.054 1537.45 142.667 1534.5 142.667C1531.55 142.667 1529.17 145.054 1529.17 148ZM1715 -1.5H1714V110.5H1715H1716V-1.5H1715ZM1715 110.5L1714.29 109.793L1697.79 126.293L1698.5 127L1699.21 127.707L1715.71 111.207L1715 110.5ZM1698.5 127H1697.5V153H1698.5H1699.5V127H1698.5ZM1698.5 153L1697.79 152.293L1677.29 172.793L1678 173.5L1678.71 174.207L1699.21 153.707L1698.5 153ZM1678 173.5V172.5H1560V173.5V174.5H1678V173.5ZM1560 173.5L1560.71 172.793L1535.21 147.293L1534.5 148L1533.79 148.707L1559.29 174.207L1560 173.5Z" fill="#E5E7E8"/>
<path d="M1741.5 129V-5H1920V69H1876V98.4889L1902 113.5H1936V145L1920 161V191.5H1741.5L1725.5 175.5V145L1741.5 129Z" fill="#E5E7E8" stroke="#C6FF00" stroke-width="2"/>
<path d="M1852 1089H1784.19L1754.34 1059.49V495.23L1728.02 469.218H26.783L3 445.707V-9" stroke="#E5E7E8" stroke-width="6"/>
</svg>
