<svg width="33" height="33" viewBox="0 0 33 33" fill="none" xmlns="http://www.w3.org/2000/svg">
<path d="M16.6951 0.647297C16.3109 0.647606 15.9997 0.95931 16 1.34351C16.0003 1.72771 16.312 2.03891 16.6962 2.0386C17.0804 2.03829 17.3916 1.72659 17.3913 1.34239C17.391 0.958192 17.0793 0.646989 16.6951 0.647297ZM13.7035 0.928234C13.3193 0.928543 13.0081 1.24025 13.0084 1.62445C13.0087 2.00864 13.3204 2.31985 13.7046 2.31954C14.0888 2.31923 14.4 2.00753 14.3997 1.62333C14.3994 1.23913 14.0877 0.927926 13.7035 0.928234ZM19.6872 0.923425C19.303 0.923734 18.9918 1.23544 18.9921 1.61964C18.9924 2.00383 19.3041 2.31504 19.6883 2.31473C20.0725 2.31442 20.3837 2.00272 20.3834 1.61852C20.3831 1.23432 20.0714 0.923117 19.6872 0.923425ZM10.8523 1.83406C10.4681 1.83437 10.1569 2.14607 10.1572 2.53027C10.1575 2.91447 10.4692 3.22567 10.8534 3.22536C11.2376 3.22505 11.5488 2.91335 11.5485 2.52915C11.5482 2.14495 11.2365 1.83375 10.8523 1.83406ZM22.5398 1.82467C22.1556 1.82497 21.8444 2.13668 21.8447 2.52088C21.845 2.90507 22.1567 3.21628 22.5409 3.21597C22.9251 3.21566 23.2363 2.90396 23.236 2.51976C23.2357 2.13556 22.924 1.82436 22.5398 1.82467ZM8.21078 3.22749C7.82658 3.2278 7.51538 3.5395 7.51569 3.9237C7.516 4.3079 7.8277 4.6191 8.2119 4.61879C8.5961 4.61848 8.9073 4.30678 8.90699 3.92258C8.90668 3.53838 8.59498 3.22718 8.21078 3.22749ZM25.1836 3.21385C24.7994 3.21415 24.4882 3.52586 24.4885 3.91006C24.4888 4.29425 24.8005 4.60546 25.1847 4.60515C25.5689 4.60484 25.8801 4.29314 25.8798 3.90894C25.8795 3.52474 25.5678 3.21354 25.1836 3.21385ZM16.6985 4.82121C10.1795 4.82645 4.87666 10.1378 4.8819 16.6568C4.88714 23.1758 10.1985 28.4786 16.7175 28.4734C23.2365 28.4681 28.5393 23.1568 28.5341 16.6378C28.5288 10.1188 23.2175 4.81597 16.6985 4.82121ZM5.8468 5.10846C5.46261 5.10877 5.1514 5.42048 5.15171 5.80467C5.15186 5.98917 5.22529 6.16606 5.35586 6.29641C5.48642 6.42677 5.66342 6.49992 5.84792 6.49977C6.03242 6.49962 6.2093 6.42619 6.33966 6.29562C6.47001 6.16506 6.54316 5.98805 6.54302 5.80356C6.54287 5.61906 6.46943 5.44217 6.33887 5.31182C6.2083 5.18146 6.0313 5.10831 5.8468 5.10846ZM27.5506 5.09102C27.1664 5.09133 26.8552 5.40303 26.8555 5.78723C26.8557 5.97173 26.9291 6.14861 27.0597 6.27897C27.1902 6.40932 27.3672 6.48247 27.5517 6.48232C27.7362 6.48218 27.9131 6.40874 28.0435 6.27818C28.1738 6.14761 28.247 5.97061 28.2468 5.78611C28.2465 5.40192 27.9348 5.09071 27.5506 5.09102ZM16.7002 6.90817C22.0913 6.90383 26.4428 11.2483 26.4471 16.6395C26.4514 22.0306 22.1069 26.3821 16.7158 26.3864C11.3247 26.3908 6.97319 22.0463 6.96886 16.6551C6.96452 11.264 11.309 6.9125 16.7002 6.90817ZM3.96963 7.47546C3.58543 7.47577 3.27423 7.78747 3.27454 8.17167C3.27485 8.55587 3.58655 8.86707 3.97075 8.86677C4.35495 8.86646 4.66615 8.55475 4.66584 8.17055C4.66553 7.78636 4.35383 7.47515 3.96963 7.47546ZM29.4316 7.455C29.0474 7.45531 28.7362 7.76701 28.7365 8.15121C28.7368 8.53541 29.0485 8.84661 29.4327 8.8463C29.8169 8.84599 30.1281 8.53429 30.1278 8.15009C30.1275 7.76589 29.8158 7.45469 29.4316 7.455ZM16.7024 9.69077C12.8851 9.69384 9.7484 12.8356 9.75146 16.6529C9.75453 20.4701 12.8963 23.6069 16.7136 23.6038C20.5308 23.6007 23.6676 20.459 23.6645 16.6417C23.6614 12.8244 20.5197 9.68771 16.7024 9.69077ZM2.58045 10.1192C2.19625 10.1196 1.88505 10.4313 1.88536 10.8155C1.88567 11.1997 2.19737 11.5109 2.58157 11.5105C2.96577 11.5102 3.27697 11.1985 3.27666 10.8143C3.27635 10.4301 2.96465 10.1189 2.58045 10.1192ZM30.825 10.0965C30.4408 10.0969 30.1296 10.4086 30.1299 10.7928C30.1302 11.177 30.4419 11.4882 30.8261 11.4878C31.2103 11.4875 31.5215 11.1758 31.5212 10.7916C31.5209 10.4074 31.2092 10.0962 30.825 10.0965ZM1.67921 12.9719C1.29501 12.9722 0.983807 13.2839 0.984116 13.6681C0.984425 14.0523 1.29613 14.3635 1.68033 14.3632C2.06453 14.3629 2.37573 14.0512 2.37542 13.667C2.37511 13.2828 2.06341 12.9716 1.67921 12.9719ZM31.7308 12.9477C31.3466 12.948 31.0354 13.2597 31.0357 13.6439C31.036 14.0281 31.3478 14.3393 31.7319 14.339C32.1161 14.3387 32.4273 14.027 32.427 13.6428C32.4267 13.2586 32.115 12.9474 31.7308 12.9477ZM16.7057 13.8647C18.2673 13.8634 19.4893 15.0835 19.4906 16.6451C19.4918 18.2066 18.2717 19.4286 16.7102 19.4299C15.1487 19.4312 13.9266 18.211 13.9254 16.6495C13.9241 15.088 15.1442 13.8659 16.7057 13.8647ZM1.40308 15.9639C1.01888 15.9642 0.707679 16.276 0.707988 16.6602C0.708297 17.0444 1.02 17.3556 1.4042 17.3552C1.7884 17.3549 2.0996 17.0432 2.09929 16.659C2.09898 16.2748 1.78728 15.9636 1.40308 15.9639ZM32.0118 15.9393C31.6276 15.9396 31.3164 16.2514 31.3167 16.6356C31.317 17.0198 31.6287 17.331 32.0129 17.3306C32.3971 17.3303 32.7083 17.0186 32.708 16.6344C32.7077 16.2502 32.396 15.939 32.0118 15.9393ZM1.68402 18.9556C1.29982 18.9559 0.988616 19.2676 0.988925 19.6518C0.989234 20.036 1.30094 20.3472 1.68514 20.3469C2.06933 20.3466 2.38054 20.0349 2.38023 19.6507C2.37992 19.2665 2.06822 18.9553 1.68402 18.9556ZM31.7356 18.9314C31.3514 18.9317 31.0402 19.2434 31.0405 19.6276C31.0409 20.0118 31.3526 20.323 31.7368 20.3227C32.121 20.3224 32.4322 20.0107 32.4318 19.6265C32.4315 19.2423 32.1198 18.9311 31.7356 18.9314ZM2.58984 21.8067C2.20564 21.807 1.89444 22.1188 1.89475 22.5029C1.89506 22.8871 2.20676 23.1984 2.59096 23.198C2.97516 23.1977 3.28636 22.886 3.28605 22.5018C3.28574 22.1176 2.97404 21.8064 2.58984 21.8067ZM30.8344 21.784C30.4502 21.7844 30.139 22.0961 30.1393 22.4803C30.1396 22.8644 30.4513 23.1757 30.8355 23.1753C31.2197 23.175 31.5309 22.8633 31.5306 22.4791C31.5303 22.0949 31.2186 21.7837 30.8344 21.784ZM3.98327 24.4483C3.59907 24.4486 3.28787 24.7603 3.28818 25.1445C3.28849 25.5287 3.60019 25.8399 3.98439 25.8396C4.36859 25.8393 4.67979 25.5276 4.67948 25.1434C4.67917 24.7592 4.36747 24.448 3.98327 24.4483ZM29.4452 24.4278C29.061 24.4281 28.7498 24.7398 28.7501 25.124C28.7504 25.5082 29.0621 25.8194 29.4463 25.8191C29.8305 25.8188 30.1417 25.5071 30.1414 25.1229C30.1411 24.7387 29.8294 24.4275 29.4452 24.4278ZM5.86425 26.8123C5.48005 26.8126 5.16885 27.1243 5.16915 27.5085C5.16946 27.8927 5.48117 28.2039 5.86536 28.2036C6.04986 28.2034 6.22675 28.13 6.3571 27.9994C6.48746 27.8689 6.56061 27.6919 6.56046 27.5074C6.56031 27.3229 6.48688 27.146 6.35631 27.0156C6.22575 26.8853 6.04875 26.8121 5.86425 26.8123ZM27.568 26.7948C27.1838 26.7951 26.8726 27.1068 26.873 27.491C26.8733 27.8752 27.185 28.1864 27.5692 28.1861C27.9534 28.1858 28.2646 27.8741 28.2643 27.4899C28.2639 27.1057 27.9522 26.7945 27.568 26.7948ZM8.23125 28.6894C7.84705 28.6897 7.53584 29.0014 7.53615 29.3856C7.53646 29.7698 7.84817 30.081 8.23236 30.0807C8.61656 30.0804 8.92777 29.7687 8.92746 29.3845C8.92715 29.0003 8.61544 28.6891 8.23125 28.6894ZM25.2041 28.6758C24.8199 28.6761 24.5087 28.9878 24.509 29.372C24.5093 29.7562 24.821 30.0674 25.2052 30.0671C25.5894 30.0668 25.9006 29.7551 25.9003 29.3709C25.9 28.9867 25.5883 28.6755 25.2041 28.6758ZM10.875 30.0786C10.4908 30.0789 10.1796 30.3906 10.1799 30.7748C10.1802 31.159 10.4919 31.4702 10.8761 31.4699C11.2603 31.4696 11.5715 31.1579 11.5712 30.7737C11.5709 30.3895 11.2592 30.0783 10.875 30.0786ZM22.5625 30.0692C22.1783 30.0695 21.8671 30.3812 21.8674 30.7654C21.8677 31.1496 22.1794 31.4608 22.5636 31.4605C22.9478 31.4602 23.259 31.1485 23.2587 30.7643C23.2584 30.3801 22.9467 30.0689 22.5625 30.0692ZM13.7277 30.9799C13.3435 30.9802 13.0323 31.2919 13.0326 31.6761C13.0329 32.0603 13.3446 32.3715 13.7288 32.3712C14.113 32.3708 14.4242 32.0591 14.4239 31.6749C14.4236 31.2908 14.1119 30.9795 13.7277 30.9799ZM19.7113 30.975C19.3271 30.9754 19.0159 31.2871 19.0163 31.6713C19.0166 32.0555 19.3283 32.3667 19.7125 32.3663C20.0967 32.366 20.4079 32.0543 20.4076 31.6701C20.4072 31.2859 20.0955 30.9747 19.7113 30.975ZM16.7197 31.256C16.3355 31.2563 16.0243 31.568 16.0246 31.9522C16.0249 32.3364 16.3366 32.6476 16.7208 32.6473C17.105 32.647 17.4162 32.3353 17.4159 31.9511C17.4156 31.5669 17.1039 31.2557 16.7197 31.256Z" fill="#E8E8E8"/>
</svg>
