<svg width="75" height="75" viewBox="0 0 75 75" fill="none" xmlns="http://www.w3.org/2000/svg">
<path d="M14.2678 21.2507C14.069 21.6279 13.978 22.0519 14.0045 22.4767C14.031 22.9016 14.1741 23.3112 14.4182 23.6611L35.5686 53.9954C35.7849 54.3054 36.0736 54.5587 36.41 54.7337C36.7464 54.9086 37.1206 55 37.5003 55C37.8801 55 38.2542 54.9086 38.5907 54.7337C38.9271 54.5587 39.2158 54.3054 39.4321 53.9954L60.5825 23.6611C60.8264 23.311 60.9693 22.9014 60.9956 22.4765C61.0219 22.0516 60.9306 21.6276 60.7316 21.2505C60.5327 20.8735 60.2336 20.5576 59.8668 20.3372C59.5 20.1167 59.0795 20.0001 58.6507 20H16.3499C15.921 19.9999 15.5001 20.1164 15.1331 20.3369C14.7661 20.5574 14.4668 20.8734 14.2678 21.2507Z" fill="currentColor"/>
<rect x="1" y="1" width="73" height="73" stroke="currentColor" stroke-width="2"/>
</svg>
