<svg width="33" height="33" viewBox="0 0 33 33" fill="none" xmlns="http://www.w3.org/2000/svg">
<path d="M5.45882 0.88866C2.94311 0.890682 0.889042 2.94806 0.891064 5.46376C0.893086 7.97947 2.95046 10.0335 5.46617 10.0315C7.98187 10.0295 10.0359 7.97212 10.0339 5.45641C10.0319 2.94071 7.97452 0.886638 5.45882 0.88866ZM16.8874 0.879475C14.3717 0.881497 12.3176 2.93887 12.3196 5.45458C12.3217 7.97028 14.379 10.0244 16.8947 10.0223C19.4104 10.0203 21.4645 7.96293 21.4625 5.44723C21.4605 2.93152 19.4031 0.877453 16.8874 0.879475ZM28.316 0.87029C25.8002 0.872312 23.7462 2.92969 23.7482 5.44539C23.7502 7.9611 25.8076 10.0152 28.3233 10.0131C30.839 10.0111 32.8931 7.95375 32.8911 5.43804C32.889 2.92234 30.8317 0.868268 28.316 0.87029ZM16.8886 2.40328C18.5808 2.40192 19.9373 3.75628 19.9387 5.44845C19.94 7.14063 18.5857 8.49716 16.8935 8.49852C15.2013 8.49988 13.8448 7.14553 13.8434 5.45335C13.8421 3.76117 15.1964 2.40464 16.8886 2.40328ZM28.3172 2.3941C30.0094 2.39274 31.3659 3.74709 31.3672 5.43927C31.3686 7.13145 30.0143 8.48798 28.3221 8.48934C26.6299 8.4907 25.2734 7.13634 25.272 5.44417C25.2706 3.75199 26.625 2.39546 28.3172 2.3941ZM5.468 12.3172C2.9523 12.3193 0.898227 14.3766 0.900249 16.8923C0.902271 19.408 2.95965 21.4621 5.47535 21.4601C7.99106 21.4581 10.0451 19.4007 10.0431 16.885C10.0411 14.3693 7.98371 12.3152 5.468 12.3172ZM16.8966 12.308C14.3809 12.3101 12.3268 14.3674 12.3288 16.8831C12.3308 19.3989 14.3882 21.4529 16.9039 21.4509C19.4196 21.4489 21.4737 19.3915 21.4717 16.8758C21.4696 14.3601 19.4123 12.306 16.8966 12.308ZM28.3251 12.2989C25.8094 12.3009 23.7554 14.3583 23.7574 16.874C23.7594 19.3897 25.8168 21.4437 28.3325 21.4417C30.8482 21.4397 32.9023 19.3823 32.9002 16.8666C32.8982 14.3509 30.8408 12.2968 28.3251 12.2989ZM5.46923 13.841C7.1614 13.8397 8.51793 15.194 8.51929 16.8862C8.52065 18.5784 7.1663 19.9349 5.47413 19.9363C3.78195 19.9376 2.42542 18.5833 2.42406 16.8911C2.4227 15.1989 3.77705 13.8424 5.46923 13.841ZM28.3264 13.8227C30.0185 13.8213 31.3751 15.1757 31.3764 16.8678C31.3778 18.56 30.0234 19.9165 28.3313 19.9179C26.6391 19.9193 25.2826 18.5649 25.2812 16.8727C25.2798 15.1806 26.6342 13.824 28.3264 13.8227ZM5.47719 23.7458C2.96148 23.7478 0.907412 25.8052 0.909434 28.3209C0.911456 30.8366 2.96883 32.8907 5.48454 32.8887C8.00024 32.8866 10.0543 30.8293 10.0523 28.3135C10.0503 25.7978 7.99289 23.7438 5.47719 23.7458ZM16.9058 23.7366C14.39 23.7386 12.336 25.796 12.338 28.3117C12.34 30.8274 14.3974 32.8815 16.9131 32.8795C19.4288 32.8774 21.4829 30.8201 21.4809 28.3044C21.4788 25.7887 19.4215 23.7346 16.9058 23.7366ZM28.3343 23.7274C25.8186 23.7294 23.7645 25.7868 23.7666 28.3025C23.7686 30.8182 25.826 32.8723 28.3417 32.8703C30.8574 32.8683 32.9114 30.8109 32.9094 28.2952C32.9074 25.7795 30.85 23.7254 28.3343 23.7274ZM5.47841 25.2696C7.17059 25.2682 8.52712 26.6226 8.52848 28.3148C8.52984 30.007 7.17549 31.3635 5.48331 31.3648C3.79113 31.3662 2.4346 30.0118 2.43324 28.3197C2.43188 26.6275 3.78623 25.271 5.47841 25.2696ZM16.907 25.2604C18.5992 25.2591 19.9557 26.6134 19.957 28.3056C19.9584 29.9978 18.6041 31.3543 16.9119 31.3557C15.2197 31.357 13.8632 30.0027 13.8618 28.3105C13.8605 26.6183 15.2148 25.2618 16.907 25.2604Z" fill="#E8E8E8"/>
</svg>
