<svg width="54" height="54" viewBox="0 0 54 54" fill="none" xmlns="http://www.w3.org/2000/svg">
<path d="M36.9643 10.7108L36.9642 10.7109L15.2917 25.8219C15.2917 25.8219 15.2916 25.822 15.2916 25.822C15.1366 25.9302 15.0096 26.0748 14.9218 26.2437C14.8339 26.4127 14.7879 26.6008 14.7879 26.792C14.7879 26.9832 14.8339 27.1713 14.9218 27.3403C15.0096 27.5092 15.1366 27.6538 15.2916 27.762L36.9643 10.7108ZM36.9643 10.7108C37.1393 10.5888 37.3438 10.5174 37.5556 10.5042C37.7673 10.491 37.9787 10.5363 38.1671 10.6355C38.3556 10.735 38.5139 10.8847 38.6246 11.069C38.7353 11.2533 38.794 11.4649 38.7939 11.6808V11.6809V41.9029C38.7939 41.903 38.7939 41.903 38.7939 41.9031C38.7938 42.1189 38.7351 42.3302 38.6245 42.5144C38.5138 42.6985 38.3555 42.8482 38.1672 42.9476C37.9788 43.047 37.7673 43.0924 37.5555 43.0793C37.3437 43.0662 37.1392 42.995 36.9642 42.8731C36.9642 42.8731 36.9641 42.8731 36.9641 42.873L15.2917 27.7621L36.9643 10.7108Z" fill="currentColor" stroke="currentColor"/>
<rect x="52.584" y="1" width="51.5844" height="51.5844" transform="rotate(90 52.584 1)" stroke="currentColor" stroke-width="2"/>
</svg>
