<svg width="32" height="32" viewBox="0 0 32 32" fill="none" xmlns="http://www.w3.org/2000/svg">
<path d="M6.99061 0C3.4551 0 0.571524 2.99375 0.571524 6.66434C0.571524 10.3349 3.4551 13.3287 6.99061 13.3287C10.5261 13.3287 13.4097 10.3349 13.4097 6.66434C13.4097 2.99375 10.5261 0 6.99061 0ZM19.8288 0.740482V12.5882H31.2405V0.740482H19.8288ZM6.99061 1.48096C9.75717 1.48096 11.9832 3.79208 11.9832 6.66434C11.9832 9.5366 9.75717 11.8477 6.99061 11.8477C4.22405 11.8477 1.99799 9.5366 1.99799 6.66434C1.99799 3.79208 4.22405 1.48096 6.99061 1.48096ZM29.5113 18.5139L32 26.8708L25.5346 32L19.0693 26.8708L21.558 18.5139H29.5113ZM28.5352 19.993H22.5341L20.6562 26.2987L25.5346 30.1689L30.413 26.2987L28.5352 19.993ZM6.98938 18.409L0 31.1003C3.35359 31.1003 5.66884 31.1003 6.94573 31.1003C8.20477 31.1003 10.52 31.1003 13.8915 31.1003L6.98938 18.409ZM6.99061 21.4856L11.4678 29.6193H2.5162L6.99061 21.4856Z" fill="#E8E8E8"/>
</svg>
