<svg width="54" height="54" viewBox="0 0 54 54" fill="none" xmlns="http://www.w3.org/2000/svg">
<path d="M15.1836 43.3907C15.4531 43.5327 15.756 43.5977 16.0596 43.5788C16.3631 43.5599 16.6557 43.4576 16.9058 43.2832L38.5784 28.1721C38.7998 28.0176 38.9808 27.8113 39.1058 27.571C39.2308 27.3306 39.2961 27.0633 39.2961 26.792C39.2961 26.5207 39.2308 26.2534 39.1058 26.013C38.9808 25.7726 38.7998 25.5664 38.5784 25.4118L16.9058 10.3007C16.6556 10.1264 16.363 10.0244 16.0594 10.0056C15.7558 9.98682 15.4529 10.052 15.1835 10.1942C14.9141 10.3363 14.6884 10.55 14.5309 10.8121C14.3734 11.0741 14.2901 11.3746 14.29 11.6809L14.29 41.9031C14.29 42.2096 14.3732 42.5102 14.5308 42.7724C14.6883 43.0347 14.914 43.2485 15.1836 43.3907Z" fill="currentColor"/>
<rect x="52.584" y="1" width="51.5844" height="51.5844" transform="rotate(90 52.584 1)" stroke="currentColor" stroke-width="2"/>
</svg>
