<svg width="33" height="33" viewBox="0 0 33 33" fill="none" xmlns="http://www.w3.org/2000/svg">
<path fill-rule="evenodd" clip-rule="evenodd" d="M16.6899 2.98496L16.7111 29.4018C16.7769 29.4027 16.8427 29.4032 16.9087 29.4031C24.2043 29.3972 30.1138 23.4782 30.1079 16.1826C30.1021 8.887 24.1831 2.97749 16.8874 2.98336C16.8215 2.98341 16.7556 2.98395 16.6899 2.98496ZM26.9724 16.5802C26.9738 18.2166 25.6483 19.5442 24.0119 19.5455C22.3755 19.5469 21.0478 18.2214 21.0465 16.585C21.0452 14.9486 22.3707 13.6209 24.0071 13.6196C25.6435 13.6183 26.9711 14.9438 26.9724 16.5802ZM32.8981 16.1803C32.9052 25.0169 25.7475 32.1861 16.9109 32.1932C8.07436 32.2003 0.905164 25.0426 0.898062 16.206C0.89096 7.3695 8.04865 0.200298 16.8852 0.193196C25.7218 0.186094 32.891 7.34378 32.8981 16.1803Z" fill="#E8E8E8"/>
</svg>
