<svg width="75" height="75" viewBox="0 0 75 75" fill="none" xmlns="http://www.w3.org/2000/svg">
<path d="M60.7322 53.7493C60.931 53.3721 61.022 52.9481 60.9955 52.5233C60.969 52.0984 60.8259 51.6888 60.5818 51.3389L39.4314 21.0046C39.2151 20.6946 38.9264 20.4413 38.59 20.2663C38.2536 20.0914 37.8794 20 37.4997 20C37.1199 20 36.7458 20.0914 36.4093 20.2663C36.0729 20.4413 35.7842 20.6946 35.5679 21.0046L14.4175 51.3389C14.1736 51.689 14.0307 52.0986 14.0044 52.5235C13.9781 52.9484 14.0694 53.3724 14.2684 53.7495C14.4673 54.1265 14.7664 54.4424 15.1332 54.6628C15.5 54.8833 15.9205 54.9999 16.3493 55H58.6501C59.079 55.0001 59.4999 54.8836 59.8669 54.6631C60.2339 54.4426 60.5332 54.1266 60.7322 53.7493Z" fill="currentColor"/>
<rect x="1" y="1" width="73" height="73" stroke="currentColor" stroke-width="2"/>
</svg>
