<svg width="42" height="56" viewBox="0 0 42 56" fill="none" xmlns="http://www.w3.org/2000/svg">
<path d="M23 0L25.7866 13.369C26.5344 16.9568 29.1849 19.8481 32.6943 20.9043L41.1429 23.447L33.5716 25.2981C29.6021 26.2686 26.6224 29.5567 26.0464 33.6023L22.8572 56L19.476 33.4219C18.8839 29.4678 15.9934 26.2465 12.1263 25.2309L5.33337 23.447L13.1289 20.9269C16.4624 19.8492 18.9889 17.1056 19.7887 13.6947L23 0Z" fill="white"/>
<path fill-rule="evenodd" clip-rule="evenodd" d="M39 35.4542L36.3752 33.7929C33.5692 35.2545 30.1875 36.2051 26.5929 36.5428C22.9982 36.8806 19.3261 36.5927 15.9702 35.7101C12.6144 34.8274 9.70133 33.3834 7.5434 31.5326C5.38547 29.6819 4.06405 27.4943 3.7208 25.2044C3.37755 22.9145 4.02543 20.6087 5.59496 18.5341C7.16448 16.4595 9.59647 14.6945 12.6302 13.4281C15.6639 12.1618 19.185 11.4419 22.8158 11.3457C26.4467 11.2496 30.0505 11.7807 33.2408 12.8821L30.7462 14.4611C28.5455 13.803 26.1411 13.4629 23.7071 13.4657C21.5213 13.4657 19.3569 13.7383 17.3376 14.268C15.3183 14.7976 13.4837 15.5739 11.9386 16.5525C10.3935 17.5311 9.16818 18.6929 8.33269 19.9713C7.4972 21.2498 7.06791 22.6199 7.06934 24.0034L7.06934 24.0446C7.07735 26.0182 7.96202 27.9507 9.62232 29.6213C11.2826 31.2918 13.6516 32.6332 16.4589 33.4923C19.2661 34.3514 22.3985 34.6935 25.4983 34.4796C28.598 34.2657 31.5403 33.5044 33.9891 32.2826L31.5813 30.7586C29.6169 31.6847 27.2841 32.2467 24.8439 32.3815C22.4036 32.5163 19.9523 32.2186 17.7641 31.5218C15.5759 30.825 13.7372 29.7566 12.4537 28.4361C11.1703 27.1156 10.4926 25.595 10.4967 24.0446L10.4207 24.0446L10.4207 24.0034C10.4167 22.4464 11.0961 20.9193 12.3834 19.5924C13.6706 18.2656 15.515 17.1913 17.7107 16.4892C19.9065 15.7872 22.3672 15.4852 24.8183 15.6168C27.2695 15.7484 29.6146 16.3085 31.5922 17.2346L39 12.5458C35.5494 10.6991 31.3366 9.51527 26.8582 9.13393C22.3798 8.75259 17.8226 9.18961 13.7236 10.3935C9.62465 11.5973 6.1549 13.5178 3.7234 15.9286C1.29189 18.3393 -4.34535e-06 21.1399 -4.47037e-06 24C-4.59539e-06 26.8601 1.29189 29.6607 3.7234 32.0714C6.1549 34.4822 9.62465 36.4027 13.7236 37.6065C17.8226 38.8104 22.3798 39.2474 26.8582 38.8661C31.3366 38.4847 35.5494 37.3009 39 35.4542Z" fill="#C6FF00"/>
<path d="M23 0L25.7866 13.369C26.5344 16.9568 29.1849 19.8481 32.6943 20.9043L41.1429 23.447L30.2236 26.1166C28.1307 26.6283 26.259 27.8023 24.8872 29.4638L23 31.7495L20.4771 29.0333C19.1857 27.643 17.5255 26.6488 15.6902 26.1669L5.33337 23.447L13.1289 20.9269C16.4624 19.8492 18.9889 17.1056 19.7887 13.6947L23 0Z" fill="white"/>
</svg>
