<svg width="1840" height="812" viewBox="0 0 1840 812" fill="none" xmlns="http://www.w3.org/2000/svg">
<path d="M100.333 708.5C100.333 705.555 97.9455 703.167 95 703.167C92.0545 703.167 89.6667 705.555 89.6667 708.5C89.6667 711.446 92.0545 713.833 95 713.833C97.9455 713.833 100.333 711.446 100.333 708.5ZM72.5 686L71.5 686L71.5 686.414L71.7929 686.707L72.5 686ZM72.5 651.5L73.5 651.5L73.5 651.086L73.2071 650.793L72.5 651.5ZM44.5 623.5L43.5 623.5L43.5 623.914L43.7929 624.207L44.5 623.5ZM44.5 529L45.5 529L45.5 528.586L45.2071 528.293L44.5 529ZM21.5 506L22.2071 505.293L21.9142 505L21.5 505L21.5 506ZM-32.5 506L-33.2071 506.707L-32.9142 507L-32.5 507L-32.5 506ZM-63.5 475L-64.5 475L-64.5 475.414L-64.2071 475.707L-63.5 475ZM-63.5 425L-62.5 425L-62.5 424.586L-62.7929 424.293L-63.5 425ZM-84.5 404L-85.5 404L-85.5 404.414L-85.2071 404.707L-84.5 404ZM-79.1666 6.50011C-79.1666 3.55461 -81.5544 1.16679 -84.4999 1.16679C-87.4455 1.16679 -89.8333 3.55461 -89.8333 6.50011C-89.8333 9.4456 -87.4455 11.8334 -84.4999 11.8334C-81.5544 11.8334 -79.1666 9.4456 -79.1666 6.50011ZM95 708.5L95.7071 707.793L73.2071 685.293L72.5 686L71.7929 686.707L94.2929 709.207L95 708.5ZM72.5 686L73.5 686L73.5 651.5L72.5 651.5L71.5 651.5L71.5 686L72.5 686ZM72.5 651.5L73.2071 650.793L45.2071 622.793L44.5 623.5L43.7929 624.207L71.7929 652.207L72.5 651.5ZM44.5 623.5L45.5 623.5L45.5 529L44.5 529L43.5 529L43.5 623.5L44.5 623.5ZM44.5 529L45.2071 528.293L22.2071 505.293L21.5 506L20.7929 506.707L43.7929 529.707L44.5 529ZM21.5 506L21.5 505L-32.5 505L-32.5 506L-32.5 507L21.5 507L21.5 506ZM-32.5 506L-31.7929 505.293L-62.7929 474.293L-63.5 475L-64.2071 475.707L-33.2071 506.707L-32.5 506ZM-63.5 475L-62.5 475L-62.5 425L-63.5 425L-64.5 425L-64.5 475L-63.5 475ZM-63.5 425L-62.7929 424.293L-83.7929 403.293L-84.5 404L-85.2071 404.707L-64.2071 425.707L-63.5 425ZM-84.5 404L-83.5 404L-83.4999 6.50011L-84.4999 6.50011L-85.4999 6.50011L-85.5 404L-84.5 404Z" fill="#616162"/>
<path d="M6.83333 666C6.83333 663.055 4.44552 660.667 1.5 660.667C-1.44552 660.667 -3.83333 663.055 -3.83333 666C-3.83333 668.946 -1.44552 671.333 1.5 671.333C4.44552 671.333 6.83333 668.946 6.83333 666ZM1.5 631.5L2.5 631.5L2.5 631.086L2.20711 630.793L1.5 631.5ZM-19.5 610.5L-20.5 610.5L-20.5 610.914L-20.2071 611.207L-19.5 610.5ZM-19.5 574.5L-18.5 574.5L-18.5 574.086L-18.7929 573.793L-19.5 574.5ZM-77 517L-76.2929 516.293L-76.5858 516L-77 516L-77 517ZM1.5 666L2.5 666L2.5 631.5L1.5 631.5L0.500003 631.5L0.5 666L1.5 666ZM1.5 631.5L2.20711 630.793L-18.7929 609.793L-19.5 610.5L-20.2071 611.207L0.792896 632.207L1.5 631.5ZM-19.5 610.5L-18.5 610.5L-18.5 574.5L-19.5 574.5L-20.5 574.5L-20.5 610.5L-19.5 610.5ZM-19.5 574.5L-18.7929 573.793L-76.2929 516.293L-77 517L-77.7071 517.707L-20.2071 575.207L-19.5 574.5ZM-77 517L-77 516L-110 516L-110 517L-110 518L-77 518L-77 517Z" fill="#616162"/>
<path d="M37.3333 709.5C37.3333 706.555 34.9455 704.167 32 704.167C29.0545 704.167 26.6667 706.555 26.6667 709.5C26.6667 712.446 29.0545 714.833 32 714.833C34.9455 714.833 37.3333 712.446 37.3333 709.5ZM1.5 679L2.20711 678.293L1.91422 678L1.5 678L1.5 679ZM-5 679L-5.7071 679.707L-5.41421 680L-5 680L-5 679ZM-10.5 673.5L-11.5 673.5L-11.5 673.914L-11.2071 674.207L-10.5 673.5ZM-10.5 638L-9.49999 638L-9.49999 637.586L-9.79289 637.293L-10.5 638ZM-30 618.5L-31 618.5L-31 618.914L-30.7071 619.207L-30 618.5ZM-30 580L-29 580L-29 579.586L-29.2929 579.293L-30 580ZM-81.5 528.5L-80.7929 527.793L-81.0858 527.5L-81.5 527.5L-81.5 528.5ZM32 709.5L32.7071 708.793L2.20711 678.293L1.5 679L0.792895 679.707L31.2929 710.207L32 709.5ZM1.5 679L1.5 678L-5 678L-5 679L-5 680L1.5 680L1.5 679ZM-5 679L-4.29289 678.293L-9.79289 672.793L-10.5 673.5L-11.2071 674.207L-5.7071 679.707L-5 679ZM-10.5 673.5L-9.5 673.5L-9.49999 638L-10.5 638L-11.5 638L-11.5 673.5L-10.5 673.5ZM-10.5 638L-9.79289 637.293L-29.2929 617.793L-30 618.5L-30.7071 619.207L-11.2071 638.707L-10.5 638ZM-30 618.5L-29 618.5L-29 580L-30 580L-31 580L-31 618.5L-30 618.5ZM-30 580L-29.2929 579.293L-80.7929 527.793L-81.5 528.5L-82.2071 529.207L-30.7071 580.707L-30 580ZM-81.5 528.5L-81.5 527.5L-108 527.5L-108 528.5L-108 529.5L-81.5 529.5L-81.5 528.5Z" fill="#616162"/>
<path d="M19.8333 617C19.8333 614.055 17.4455 611.667 14.5 611.667C11.5545 611.667 9.16667 614.055 9.16667 617C9.16667 619.946 11.5545 622.333 14.5 622.333C17.4455 622.333 19.8333 619.946 19.8333 617ZM-0.999999 601.5L-2 601.5L-2 601.914L-1.70711 602.207L-0.999999 601.5ZM-0.999995 563.5L4.67712e-06 563.5L4.71333e-06 563.086L-0.292889 562.793L-0.999995 563.5ZM-77.5 487L-78.5 487L-78.5 487.414L-78.2071 487.707L-77.5 487ZM-77.5 461.5L-76.5 461.5L-76.5 461.086L-76.7929 460.793L-77.5 461.5ZM-93.5 445.5L-92.7929 444.793L-93.0858 444.5L-93.5 444.5L-93.5 445.5ZM14.5 617L15.2071 616.293L-0.292892 600.793L-0.999999 601.5L-1.70711 602.207L13.7929 617.707L14.5 617ZM-0.999999 601.5L1.35505e-06 601.5L4.67712e-06 563.5L-0.999995 563.5L-2 563.5L-2 601.5L-0.999999 601.5ZM-0.999995 563.5L-0.292889 562.793L-76.7929 486.293L-77.5 487L-78.2071 487.707L-1.7071 564.207L-0.999995 563.5ZM-77.5 487L-76.5 487L-76.5 461.5L-77.5 461.5L-78.5 461.5L-78.5 487L-77.5 487ZM-77.5 461.5L-76.7929 460.793L-92.7929 444.793L-93.5 445.5L-94.2071 446.207L-78.2071 462.207L-77.5 461.5ZM-93.5 445.5L-93.5 444.5L-120 444.5L-120 445.5L-120 446.5L-93.5 446.5L-93.5 445.5Z" fill="#616162"/>
<path d="M7.83334 701.5C7.83334 698.555 5.44552 696.167 2.5 696.167C-0.445515 696.167 -2.83333 698.555 -2.83333 701.5C-2.83333 704.446 -0.445516 706.833 2.5 706.833C5.44552 706.833 7.83334 704.446 7.83334 701.5ZM-29.5 733.5L-29.5 734.5L-29.0858 734.5L-28.7929 734.207L-29.5 733.5ZM-52 733.5L-52.7071 734.207L-52.4142 734.5L-52 734.5L-52 733.5ZM-69 716.5L-70 716.5L-70 716.914L-69.7071 717.207L-69 716.5ZM-69 653.5L-68 653.5L-68 653.086L-68.2929 652.793L-69 653.5ZM-85 637.5L-84.2929 636.793L-84.5858 636.5L-85 636.5L-85 637.5ZM2.5 701.5L1.7929 700.793L-30.2071 732.793L-29.5 733.5L-28.7929 734.207L3.20711 702.207L2.5 701.5ZM-29.5 733.5L-29.5 732.5L-52 732.5L-52 733.5L-52 734.5L-29.5 734.5L-29.5 733.5ZM-52 733.5L-51.2929 732.793L-68.2929 715.793L-69 716.5L-69.7071 717.207L-52.7071 734.207L-52 733.5ZM-69 716.5L-68 716.5L-68 653.5L-69 653.5L-70 653.5L-70 716.5L-69 716.5ZM-69 653.5L-68.2929 652.793L-84.2929 636.793L-85 637.5L-85.7071 638.207L-69.7071 654.207L-69 653.5ZM-85 637.5L-85 636.5L-110.5 636.5L-110.5 637.5L-110.5 638.5L-85 638.5L-85 637.5Z" fill="#616162"/>
<path d="M-29.6667 753C-29.6667 750.055 -32.0545 747.667 -35 747.667C-37.9455 747.667 -40.3333 750.055 -40.3333 753C-40.3333 755.946 -37.9455 758.333 -35 758.333C-32.0545 758.333 -29.6667 755.946 -29.6667 753ZM-5.5 723.5L-5.5 722.5L-5.91421 722.5L-6.2071 722.793L-5.5 723.5ZM140.5 723.5L141.207 722.793L140.914 722.5L140.5 722.5L140.5 723.5ZM162.5 745.5L161.793 746.207L162.086 746.5L162.5 746.5L162.5 745.5ZM204 745.5L204 746.5L204.414 746.5L204.707 746.207L204 745.5ZM226 723.5L226.707 724.207L227 723.914L227 723.5L226 723.5ZM231.333 643C231.333 640.055 228.946 637.667 226 637.667C223.054 637.667 220.667 640.055 220.667 643C220.667 645.946 223.054 648.333 226 648.333C228.946 648.333 231.333 645.946 231.333 643ZM-35 753L-34.2929 753.707L-4.79289 724.207L-5.5 723.5L-6.2071 722.793L-35.7071 752.293L-35 753ZM-5.5 723.5L-5.5 724.5L140.5 724.5L140.5 723.5L140.5 722.5L-5.5 722.5L-5.5 723.5ZM140.5 723.5L139.793 724.207L161.793 746.207L162.5 745.5L163.207 744.793L141.207 722.793L140.5 723.5ZM162.5 745.5L162.5 746.5L204 746.5L204 745.5L204 744.5L162.5 744.5L162.5 745.5ZM204 745.5L204.707 746.207L226.707 724.207L226 723.5L225.293 722.793L203.293 744.793L204 745.5ZM226 723.5L227 723.5L227 643L226 643L225 643L225 723.5L226 723.5Z" fill="#616162"/>
<path d="M220.833 700C220.833 697.055 218.446 694.667 215.5 694.667C212.554 694.667 210.167 697.055 210.167 700C210.167 702.946 212.554 705.333 215.5 705.333C218.446 705.333 220.833 702.946 220.833 700ZM215.5 717.5L216.207 718.207L216.5 717.914L216.5 717.5L215.5 717.5ZM199.5 733.5L199.5 734.5L199.914 734.5L200.207 734.207L199.5 733.5ZM167 733.5L166.293 734.207L166.586 734.5L167 734.5L167 733.5ZM145.5 712L146.207 711.293L145.914 711L145.5 711L145.5 712ZM114 712L113.293 712.707L113.586 713L114 713L114 712ZM82.5 680.5L81.5 680.5L81.5 680.914L81.7929 681.207L82.5 680.5ZM82.5 646.5L83.5 646.5L83.5 646.086L83.2071 645.793L82.5 646.5ZM59.8333 618.5C59.8333 615.555 57.4455 613.167 54.5 613.167C51.5545 613.167 49.1667 615.555 49.1667 618.5C49.1667 621.446 51.5545 623.833 54.5 623.833C57.4455 623.833 59.8333 621.446 59.8333 618.5ZM215.5 700L214.5 700L214.5 717.5L215.5 717.5L216.5 717.5L216.5 700L215.5 700ZM215.5 717.5L214.793 716.793L198.793 732.793L199.5 733.5L200.207 734.207L216.207 718.207L215.5 717.5ZM199.5 733.5L199.5 732.5L167 732.5L167 733.5L167 734.5L199.5 734.5L199.5 733.5ZM167 733.5L167.707 732.793L146.207 711.293L145.5 712L144.793 712.707L166.293 734.207L167 733.5ZM145.5 712L145.5 711L114 711L114 712L114 713L145.5 713L145.5 712ZM114 712L114.707 711.293L83.2071 679.793L82.5 680.5L81.7929 681.207L113.293 712.707L114 712ZM82.5 680.5L83.5 680.5L83.5 646.5L82.5 646.5L81.5 646.5L81.5 680.5L82.5 680.5ZM82.5 646.5L83.2071 645.793L55.2071 617.793L54.5 618.5L53.7929 619.207L81.7929 647.207L82.5 646.5Z" fill="#616162"/>
<path d="M220.833 682C220.833 679.055 218.446 676.667 215.5 676.667C212.554 676.667 210.167 679.055 210.167 682C210.167 684.946 212.554 687.333 215.5 687.333C218.446 687.333 220.833 684.946 220.833 682ZM205 692.5L204.293 691.793L204 692.086L204 692.5L205 692.5ZM205 711.5L205.707 712.207L206 711.914L206 711.5L205 711.5ZM195 721.5L195 722.5L195.414 722.5L195.707 722.207L195 721.5ZM170.5 721.5L169.793 722.207L170.086 722.5L170.5 722.5L170.5 721.5ZM149.5 700.5L150.207 699.793L149.914 699.5L149.5 699.5L149.5 700.5ZM118.5 700.5L117.793 701.207L118.086 701.5L118.5 701.5L118.5 700.5ZM93 675L92 675L92 675.414L92.2929 675.707L93 675ZM93 641L94 641L94 640.59L93.7124 640.298L93 641ZM60 607.5L59 607.5L59 607.91L59.2876 608.202L60 607.5ZM65.3333 583C65.3333 580.055 62.9455 577.667 60 577.667C57.0545 577.667 54.6667 580.055 54.6667 583C54.6667 585.946 57.0545 588.333 60 588.333C62.9455 588.333 65.3333 585.946 65.3333 583ZM215.5 682L214.793 681.293L204.293 691.793L205 692.5L205.707 693.207L216.207 682.707L215.5 682ZM205 692.5L204 692.5L204 711.5L205 711.5L206 711.5L206 692.5L205 692.5ZM205 711.5L204.293 710.793L194.293 720.793L195 721.5L195.707 722.207L205.707 712.207L205 711.5ZM195 721.5L195 720.5L170.5 720.5L170.5 721.5L170.5 722.5L195 722.5L195 721.5ZM170.5 721.5L171.207 720.793L150.207 699.793L149.5 700.5L148.793 701.207L169.793 722.207L170.5 721.5ZM149.5 700.5L149.5 699.5L118.5 699.5L118.5 700.5L118.5 701.5L149.5 701.5L149.5 700.5ZM118.5 700.5L119.207 699.793L93.7071 674.293L93 675L92.2929 675.707L117.793 701.207L118.5 700.5ZM93 675L94 675L94 641L93 641L92 641L92 675L93 675ZM93 641L93.7124 640.298L60.7124 606.798L60 607.5L59.2876 608.202L92.2876 641.702L93 641ZM60 607.5L61 607.5L61 583L60 583L59 583L59 607.5L60 607.5Z" fill="#616162"/>
<path d="M220.333 665C220.333 662.055 217.946 659.667 215 659.667C212.054 659.667 209.667 662.055 209.667 665C209.667 667.946 212.054 670.333 215 670.333C217.946 670.333 220.333 667.946 220.333 665ZM195 685L194.293 684.293L194 684.586L194 685L195 685ZM195 705.5L195.707 706.207L196 705.914L196 705.5L195 705.5ZM191 709.5L191 710.5L191.414 710.5L191.707 710.207L191 709.5ZM174.5 709.5L173.793 710.207L174.086 710.5L174.5 710.5L174.5 709.5ZM153.5 688.5L154.207 687.793L153.914 687.5L153.5 687.5L153.5 688.5ZM123 688.5L122.293 689.207L122.586 689.5L123 689.5L123 688.5ZM104.5 670L103.5 670L103.5 670.414L103.793 670.707L104.5 670ZM104.5 636L105.5 636L105.5 635.586L105.207 635.293L104.5 636ZM73 604.5L72 604.5L72 604.914L72.2929 605.207L73 604.5ZM73 580L74 580L74 579.586L73.7071 579.293L73 580ZM61 568L60 568L60 568.414L60.2929 568.707L61 568ZM61 518.5L62 518.5L62 518.086L61.7071 517.793L61 518.5ZM27.5 485L28.2071 484.293L27.9142 484L27.5 484L27.5 485ZM4.83335 485C4.83335 482.055 2.44555 479.667 -0.49998 479.667C-3.44551 479.667 -5.83331 482.055 -5.83331 485C-5.83331 487.946 -3.44551 490.333 -0.499981 490.333C2.44555 490.333 4.83335 487.946 4.83335 485ZM215 665L214.293 664.293L194.293 684.293L195 685L195.707 685.707L215.707 665.707L215 665ZM195 685L194 685L194 705.5L195 705.5L196 705.5L196 685L195 685ZM195 705.5L194.293 704.793L190.293 708.793L191 709.5L191.707 710.207L195.707 706.207L195 705.5ZM191 709.5L191 708.5L174.5 708.5L174.5 709.5L174.5 710.5L191 710.5L191 709.5ZM174.5 709.5L175.207 708.793L154.207 687.793L153.5 688.5L152.793 689.207L173.793 710.207L174.5 709.5ZM153.5 688.5L153.5 687.5L123 687.5L123 688.5L123 689.5L153.5 689.5L153.5 688.5ZM123 688.5L123.707 687.793L105.207 669.293L104.5 670L103.793 670.707L122.293 689.207L123 688.5ZM104.5 670L105.5 670L105.5 636L104.5 636L103.5 636L103.5 670L104.5 670ZM104.5 636L105.207 635.293L73.7071 603.793L73 604.5L72.2929 605.207L103.793 636.707L104.5 636ZM73 604.5L74 604.5L74 580L73 580L72 580L72 604.5L73 604.5ZM73 580L73.7071 579.293L61.7071 567.293L61 568L60.2929 568.707L72.2929 580.707L73 580ZM61 568L62 568L62 518.5L61 518.5L60 518.5L60 568L61 568ZM61 518.5L61.7071 517.793L28.2071 484.293L27.5 485L26.7929 485.707L60.2929 519.207L61 518.5ZM27.5 485L27.5 484L-0.49998 484L-0.49998 485L-0.49998 486L27.5 486L27.5 485Z" fill="#616162"/>
<path d="M84.5 528L30 473.5L-11.5 473.5L-27.5 457.5L-27.5 415.5L-1.49999 389.5L40 389.5L52.5 377L52.5 329L63.5 318L84.5 318" stroke="#616162" stroke-width="2"/>
<path d="M84.5 515L32.5 463L-6 463L-16.5 452.5L-16.5 434.5L19.5 398.5L43 398.5L62 379.5L62 334.5L68 328.5L84.5 328.5" stroke="#616162" stroke-width="2"/>
<path d="M77.8333 490C77.8333 487.054 75.4455 484.666 72.5 484.666C69.5545 484.666 67.1667 487.054 67.1667 490C67.1667 492.945 69.5545 495.333 72.5 495.333C75.4455 495.333 77.8333 492.945 77.8333 490ZM34.5 452L35.2071 451.293L34.9142 451L34.5 451L34.5 452ZM-2 452L-2.7071 452.707L-2.41421 453L-2 453L-2 452ZM-7.5 446.5L-8.5 446.5L-8.5 446.914L-8.2071 447.207L-7.5 446.5ZM-7.5 440L-8.2071 439.293L-8.5 439.585L-8.5 440L-7.5 440ZM23 409.5L23 408.5L22.5858 408.5L22.2929 408.793L23 409.5ZM46.5 409.5L46.5 410.5L46.9142 410.5L47.2071 410.207L46.5 409.5ZM70 386L70.7071 386.707L71 386.414L71 386L70 386ZM75.3333 342C75.3333 339.054 72.9455 336.666 70 336.666C67.0545 336.666 64.6667 339.054 64.6667 342C64.6667 344.945 67.0545 347.333 70 347.333C72.9455 347.333 75.3333 344.945 75.3333 342ZM72.5 490L73.2071 489.293L35.2071 451.293L34.5 452L33.7929 452.707L71.7929 490.707L72.5 490ZM34.5 452L34.5 451L-2 451L-2 452L-2 453L34.5 453L34.5 452ZM-2 452L-1.29289 451.293L-6.79289 445.793L-7.5 446.5L-8.2071 447.207L-2.7071 452.707L-2 452ZM-7.5 446.5L-6.5 446.5L-6.5 440L-7.5 440L-8.5 440L-8.5 446.5L-7.5 446.5ZM-7.5 440L-6.79289 440.707L23.7071 410.207L23 409.5L22.2929 408.793L-8.2071 439.293L-7.5 440ZM23 409.5L23 410.5L46.5 410.5L46.5 409.5L46.5 408.5L23 408.5L23 409.5ZM46.5 409.5L47.2071 410.207L70.7071 386.707L70 386L69.2929 385.293L45.7929 408.793L46.5 409.5ZM70 386L71 386L71 342L70 342L69 342L69 386L70 386Z" fill="#616162"/>
<path d="M-13.6665 386.5C-13.6665 383.554 -16.0544 381.166 -18.9999 381.166C-21.9454 381.166 -24.3332 383.554 -24.3332 386.5C-24.3332 389.445 -21.9454 391.833 -18.9999 391.833C-16.0544 391.833 -13.6665 389.445 -13.6665 386.5ZM-24.9999 380.5L-25.9999 380.5L-25.9999 380.914L-25.707 381.207L-24.9999 380.5ZM-24.9999 309L-25.707 308.293L-25.9999 308.585L-25.9999 309L-24.9999 309ZM5.50013 278.5L6.20724 279.207L6.50013 278.914L6.50013 278.5L5.50013 278.5ZM10.8335 122.5C10.8335 119.554 8.44566 117.166 5.50015 117.166C2.55463 117.166 0.166812 119.554 0.166812 122.5C0.166811 125.445 2.55463 127.833 5.50014 127.833C8.44566 127.833 10.8335 125.445 10.8335 122.5ZM-18.9999 386.5L-18.2928 385.793L-24.2928 379.793L-24.9999 380.5L-25.707 381.207L-19.707 387.207L-18.9999 386.5ZM-24.9999 380.5L-23.9999 380.5L-23.9999 309L-24.9999 309L-25.9999 309L-25.9999 380.5L-24.9999 380.5ZM-24.9999 309L-24.2928 309.707L6.20724 279.207L5.50013 278.5L4.79302 277.793L-25.707 308.293L-24.9999 309ZM5.50013 278.5L6.50013 278.5L6.50015 122.5L5.50015 122.5L4.50015 122.5L4.50013 278.5L5.50013 278.5Z" fill="#616162"/>
<path d="M3.83345 379C3.83345 376.054 1.44564 373.666 -1.49988 373.666C-4.4454 373.666 -6.83321 376.054 -6.83321 379C-6.83321 381.945 -4.4454 384.333 -1.49988 384.333C1.44564 384.333 3.83345 381.945 3.83345 379ZM36.0001 379L36.0001 380L36.4143 380L36.7072 379.707L36.0001 379ZM43.0001 372L43.7072 372.707L44.0001 372.414L44.0001 372L43.0001 372ZM43.0001 323L42.293 322.293L42.0001 322.585L42.0001 323L43.0001 323ZM63.3335 308C63.3335 305.054 60.9456 302.666 58.0001 302.666C55.0546 302.666 52.6668 305.054 52.6668 308C52.6668 310.945 55.0546 313.333 58.0001 313.333C60.9456 313.333 63.3335 310.945 63.3335 308ZM-1.49988 379L-1.49988 380L36.0001 380L36.0001 379L36.0001 378L-1.49988 378L-1.49988 379ZM36.0001 379L36.7072 379.707L43.7072 372.707L43.0001 372L42.293 371.293L35.293 378.293L36.0001 379ZM43.0001 372L44.0001 372L44.0001 323L43.0001 323L42.0001 323L42.0001 372L43.0001 372ZM43.0001 323L43.7072 323.707L58.7072 308.707L58.0001 308L57.293 307.293L42.293 322.293L43.0001 323Z" fill="#616162"/>
<path d="M85.5001 259L43.0001 259L16.5001 232.5L16.5001 90.4996L43.0001 63.9996L43.0001 5.49963" stroke="#616162" stroke-width="2"/>
<path d="M79.8335 249.5C79.8335 246.554 77.4456 244.166 74.5001 244.166C71.5546 244.166 69.1668 246.554 69.1668 249.5C69.1668 252.445 71.5546 254.833 74.5001 254.833C77.4456 254.833 79.8335 252.445 79.8335 249.5ZM48.0001 249.5L47.293 250.207L47.5859 250.5L48.0001 250.5L48.0001 249.5ZM26.0001 227.5L25.0001 227.5L25.0001 227.914L25.293 228.207L26.0001 227.5ZM26.0001 95.4996L25.293 94.7925L25.0001 95.0854L25.0001 95.4996L26.0001 95.4996ZM54.0001 67.4996L54.7072 68.2067L55.0001 67.9138L55.0001 67.4996L54.0001 67.4996ZM74.5001 249.5L74.5001 248.5L48.0001 248.5L48.0001 249.5L48.0001 250.5L74.5001 250.5L74.5001 249.5ZM48.0001 249.5L48.7072 248.793L26.7072 226.793L26.0001 227.5L25.293 228.207L47.293 250.207L48.0001 249.5ZM26.0001 227.5L27.0001 227.5L27.0001 95.4996L26.0001 95.4996L25.0001 95.4996L25.0001 227.5L26.0001 227.5ZM26.0001 95.4996L26.7072 96.2067L54.7072 68.2067L54.0001 67.4996L53.293 66.7925L25.293 94.7925L26.0001 95.4996ZM54.0001 67.4996L55.0001 67.4996L55.0001 17.9996L54.0001 17.9996L53.0001 17.9996L53.0001 67.4996L54.0001 67.4996Z" fill="#616162"/>
<path d="M84.0001 239L54.0001 239L36.5001 221.5L36.5001 152L65.0001 123.5L65.0001 26.4996" stroke="#616162" stroke-width="2"/>
<path d="M830 772.167C827.054 772.167 824.667 774.555 824.667 777.5C824.667 780.446 827.054 782.833 830 782.833C832.946 782.833 835.333 780.446 835.333 777.5C835.333 774.555 832.946 772.167 830 772.167ZM840.5 788L839.793 788.707L840.086 789L840.5 789L840.5 788ZM859.5 788L860.207 787.293L859.914 787L859.5 787L859.5 788ZM869.5 798L870.5 798L870.5 797.586L870.207 797.293L869.5 798ZM869.5 822.5L870.207 823.207L870.5 822.914L870.5 822.5L869.5 822.5ZM848.5 843.5L847.793 842.793L847.5 843.086L847.5 843.5L848.5 843.5ZM848.5 874.5L849.207 875.207L849.5 874.914L849.5 874.5L848.5 874.5ZM823 900L823 901L823.414 901L823.707 900.707L823 900ZM789 900L789 899L788.59 899L788.298 899.288L789 900ZM755.5 933L755.5 934L755.91 934L756.202 933.713L755.5 933ZM731 927.667C728.054 927.667 725.667 930.055 725.667 933C725.667 935.946 728.054 938.333 731 938.333C733.946 938.333 736.333 935.946 736.333 933C736.333 930.055 733.946 927.667 731 927.667ZM830 777.5L829.293 778.207L839.793 788.707L840.5 788L841.207 787.293L830.707 776.793L830 777.5ZM840.5 788L840.5 789L859.5 789L859.5 788L859.5 787L840.5 787L840.5 788ZM859.5 788L858.793 788.707L868.793 798.707L869.5 798L870.207 797.293L860.207 787.293L859.5 788ZM869.5 798L868.5 798L868.5 822.5L869.5 822.5L870.5 822.5L870.5 798L869.5 798ZM869.5 822.5L868.793 821.793L847.793 842.793L848.5 843.5L849.207 844.207L870.207 823.207L869.5 822.5ZM848.5 843.5L847.5 843.5L847.5 874.5L848.5 874.5L849.5 874.5L849.5 843.5L848.5 843.5ZM848.5 874.5L847.793 873.793L822.293 899.293L823 900L823.707 900.707L849.207 875.207L848.5 874.5ZM823 900L823 899L789 899L789 900L789 901L823 901L823 900ZM789 900L788.298 899.288L754.798 932.288L755.5 933L756.202 933.713L789.702 900.713L789 900ZM755.5 933L755.5 932L731 932L731 933L731 934L755.5 934L755.5 933Z" fill="#616162"/>
<path d="M813 772.667C810.054 772.667 807.667 775.055 807.667 778C807.667 780.946 810.054 783.333 813 783.333C815.946 783.333 818.333 780.946 818.333 778C818.333 775.055 815.946 772.667 813 772.667ZM833 798L832.293 798.707L832.586 799L833 799L833 798ZM853.5 798L854.207 797.293L853.914 797L853.5 797L853.5 798ZM857.5 802L858.5 802L858.5 801.586L858.207 801.293L857.5 802ZM857.5 818.5L858.207 819.207L858.5 818.914L858.5 818.5L857.5 818.5ZM836.5 839.5L835.793 838.793L835.5 839.086L835.5 839.5L836.5 839.5ZM836.5 870L837.207 870.707L837.5 870.414L837.5 870L836.5 870ZM818 888.5L818 889.5L818.414 889.5L818.707 889.207L818 888.5ZM784 888.5L784 887.5L783.586 887.5L783.293 887.793L784 888.5ZM752.5 920L752.5 921L752.914 921L753.207 920.707L752.5 920ZM728 920L728 919L727.586 919L727.293 919.293L728 920ZM716 932L716 933L716.414 933L716.707 932.707L716 932ZM666.5 932L666.5 931L666.086 931L665.793 931.293L666.5 932ZM633 965.5L632.293 964.793L632 965.086L632 965.5L633 965.5ZM633 988.167C630.054 988.167 627.667 990.555 627.667 993.5C627.667 996.446 630.054 998.833 633 998.833C635.946 998.833 638.333 996.446 638.333 993.5C638.333 990.555 635.946 988.167 633 988.167ZM813 778L812.293 778.707L832.293 798.707L833 798L833.707 797.293L813.707 777.293L813 778ZM833 798L833 799L853.5 799L853.5 798L853.5 797L833 797L833 798ZM853.5 798L852.793 798.707L856.793 802.707L857.5 802L858.207 801.293L854.207 797.293L853.5 798ZM857.5 802L856.5 802L856.5 818.5L857.5 818.5L858.5 818.5L858.5 802L857.5 802ZM857.5 818.5L856.793 817.793L835.793 838.793L836.5 839.5L837.207 840.207L858.207 819.207L857.5 818.5ZM836.5 839.5L835.5 839.5L835.5 870L836.5 870L837.5 870L837.5 839.5L836.5 839.5ZM836.5 870L835.793 869.293L817.293 887.793L818 888.5L818.707 889.207L837.207 870.707L836.5 870ZM818 888.5L818 887.5L784 887.5L784 888.5L784 889.5L818 889.5L818 888.5ZM784 888.5L783.293 887.793L751.793 919.293L752.5 920L753.207 920.707L784.707 889.207L784 888.5ZM752.5 920L752.5 919L728 919L728 920L728 921L752.5 921L752.5 920ZM728 920L727.293 919.293L715.293 931.293L716 932L716.707 932.707L728.707 920.707L728 920ZM716 932L716 931L666.5 931L666.5 932L666.5 933L716 933L716 932ZM666.5 932L665.793 931.293L632.293 964.793L633 965.5L633.707 966.207L667.207 932.707L666.5 932ZM633 965.5L632 965.5L632 993.5L633 993.5L634 993.5L634 965.5L633 965.5Z" fill="#616162"/>
<path d="M461 645.5L481.5 625L520 625L493 652L493 688.5L453 728.5L425.5 728.5L392.5 761.5L392.5 783L368.5 807L323.5 807L304.5 788L81.5 788L61.5 768L6.5 768L-5.5 756L-5.49999 733L101.5 733L101.5 770.5L163.5 770.5L163.5 756L205 756L226 777L354.5 777L378 753.5L378 724.5L425.5 677L461 677L461 645.5Z" fill="#616162" stroke="#616162" stroke-width="2"/>
<path d="M431.833 881.5C431.833 878.554 429.446 876.167 426.5 876.167C423.554 876.167 421.167 878.554 421.167 881.5C421.167 884.445 423.554 886.833 426.5 886.833C429.446 886.833 431.833 884.445 431.833 881.5ZM426.5 805L425.793 804.293L425.5 804.586L425.5 805L426.5 805ZM490.5 741L490.5 740L490.086 740L489.793 740.293L490.5 741ZM536 741L536 742L536.414 742L536.707 741.707L536 741ZM579.333 703C579.333 700.054 576.946 697.667 574 697.667C571.054 697.667 568.667 700.054 568.667 703C568.667 705.945 571.054 708.333 574 708.333C576.946 708.333 579.333 705.945 579.333 703ZM426.5 881.5L427.5 881.5L427.5 805L426.5 805L425.5 805L425.5 881.5L426.5 881.5ZM426.5 805L427.207 805.707L491.207 741.707L490.5 741L489.793 740.293L425.793 804.293L426.5 805ZM490.5 741L490.5 742L536 742L536 741L536 740L490.5 740L490.5 741ZM536 741L536.707 741.707L574.707 703.707L574 703L573.293 702.293L535.293 740.293L536 741Z" fill="#616162"/>
<path d="M445.333 880.5C445.333 877.555 442.946 875.167 440 875.167C437.054 875.167 434.667 877.555 434.667 880.5C434.667 883.446 437.054 885.833 440 885.833C442.946 885.833 445.333 883.446 445.333 880.5ZM440 809.5L439.293 808.793L439 809.086L439 809.5L440 809.5ZM496 753.5L496 752.5L495.586 752.5L495.293 752.793L496 753.5ZM545 753.5L545 754.5L545.414 754.5L545.707 754.207L545 753.5ZM618 680.5L618.707 681.207L619 680.914L619 680.5L618 680.5ZM623.333 652.5C623.333 649.555 620.946 647.167 618 647.167C615.055 647.167 612.667 649.555 612.667 652.5C612.667 655.446 615.055 657.833 618 657.833C620.946 657.833 623.333 655.446 623.333 652.5ZM440 880.5L441 880.5L441 809.5L440 809.5L439 809.5L439 880.5L440 880.5ZM440 809.5L440.707 810.207L496.707 754.207L496 753.5L495.293 752.793L439.293 808.793L440 809.5ZM496 753.5L496 754.5L545 754.5L545 753.5L545 752.5L496 752.5L496 753.5ZM545 753.5L545.707 754.207L618.707 681.207L618 680.5L617.293 679.793L544.293 752.793L545 753.5ZM618 680.5L619 680.5L619 652.5L618 652.5L617 652.5L617 680.5L618 680.5Z" fill="#616162"/>
<path d="M440.333 907.5C440.333 904.555 437.946 902.167 435 902.167C432.054 902.167 429.667 904.555 429.667 907.5C429.667 910.446 432.054 912.833 435 912.833C437.946 912.833 440.333 910.446 440.333 907.5ZM454 888.5L454.707 889.207L455 888.914L455 888.5L454 888.5ZM454 816L453.293 815.293L453 815.586L453 816L454 816ZM502 768L502 767L501.586 767L501.293 767.293L502 768ZM554 768L554 769L554.414 769L554.707 768.707L554 768ZM655.833 671.5C655.833 668.555 653.446 666.167 650.5 666.167C647.555 666.167 645.167 668.555 645.167 671.5C645.167 674.446 647.555 676.833 650.5 676.833C653.446 676.833 655.833 674.446 655.833 671.5ZM435 907.5L435.707 908.207L454.707 889.207L454 888.5L453.293 887.793L434.293 906.793L435 907.5ZM454 888.5L455 888.5L455 816L454 816L453 816L453 888.5L454 888.5ZM454 816L454.707 816.707L502.707 768.707L502 768L501.293 767.293L453.293 815.293L454 816ZM502 768L502 769L554 769L554 768L554 767L502 767L502 768ZM554 768L554.707 768.707L651.207 672.207L650.5 671.5L649.793 670.793L553.293 767.293L554 768Z" fill="#616162"/>
<path d="M472.833 859.5C472.833 856.554 470.446 854.167 467.5 854.167C464.554 854.167 462.167 856.554 462.167 859.5C462.167 862.445 464.554 864.833 467.5 864.833C470.446 864.833 472.833 862.445 472.833 859.5ZM467.5 822.5L466.793 821.793L466.5 822.086L466.5 822.5L467.5 822.5ZM508.5 781.5L508.5 780.5L508.086 780.5L507.793 780.793L508.5 781.5ZM564.5 781.5L564.5 782.5L564.914 782.5L565.207 782.207L564.5 781.5ZM634.333 717C634.333 714.054 631.946 711.667 629 711.667C626.054 711.667 623.667 714.054 623.667 717C623.667 719.945 626.054 722.333 629 722.333C631.946 722.333 634.333 719.945 634.333 717ZM467.5 859.5L468.5 859.5L468.5 822.5L467.5 822.5L466.5 822.5L466.5 859.5L467.5 859.5ZM467.5 822.5L468.207 823.207L509.207 782.207L508.5 781.5L507.793 780.793L466.793 821.793L467.5 822.5ZM508.5 781.5L508.5 782.5L564.5 782.5L564.5 781.5L564.5 780.5L508.5 780.5L508.5 781.5ZM564.5 781.5L565.207 782.207L629.707 717.707L629 717L628.293 716.293L563.793 780.793L564.5 781.5Z" fill="#616162"/>
<path d="M494.333 878.5C494.333 875.555 491.946 873.167 489 873.167C486.054 873.167 483.667 875.555 483.667 878.5C483.667 881.446 486.054 883.833 489 883.833C491.946 883.833 494.333 881.446 494.333 878.5ZM547 878.5L547 879.5L547.414 879.5L547.707 879.207L547 878.5ZM622.5 803L622.5 802L622.086 802L621.793 802.293L622.5 803ZM678.5 803L678.5 804L678.914 804L679.207 803.707L678.5 803ZM714.833 772C714.833 769.055 712.446 766.667 709.5 766.667C706.554 766.667 704.167 769.055 704.167 772C704.167 774.946 706.554 777.333 709.5 777.333C712.446 777.333 714.833 774.946 714.833 772ZM489 878.5L489 879.5L547 879.5L547 878.5L547 877.5L489 877.5L489 878.5ZM547 878.5L547.707 879.207L623.207 803.707L622.5 803L621.793 802.293L546.293 877.793L547 878.5ZM622.5 803L622.5 804L678.5 804L678.5 803L678.5 802L622.5 802L622.5 803ZM678.5 803L679.207 803.707L710.207 772.707L709.5 772L708.793 771.293L677.793 802.293L678.5 803Z" fill="#616162"/>
<path d="M557.333 895C557.333 892.054 554.946 889.667 552 889.667C549.054 889.667 546.667 892.054 546.667 895C546.667 897.945 549.054 900.333 552 900.333C554.946 900.333 557.333 897.945 557.333 895ZM629.5 817.5L629.5 816.5L629.086 816.5L628.793 816.793L629.5 817.5ZM684.5 817.5L684.5 818.5L684.914 818.5L685.207 818.207L684.5 817.5ZM782.333 725C782.333 722.054 779.946 719.667 777 719.667C774.054 719.667 771.667 722.054 771.667 725C771.667 727.945 774.054 730.333 777 730.333C779.946 730.333 782.333 727.945 782.333 725ZM552 895L552.707 895.707L630.207 818.207L629.5 817.5L628.793 816.793L551.293 894.293L552 895ZM629.5 817.5L629.5 818.5L684.5 818.5L684.5 817.5L684.5 816.5L629.5 816.5L629.5 817.5ZM684.5 817.5L685.207 818.207L777.707 725.707L777 725L776.293 724.293L683.793 816.793L684.5 817.5Z" fill="#616162"/>
<path d="M518.833 909.5C518.833 906.555 516.446 904.167 513.5 904.167C510.554 904.167 508.167 906.555 508.167 909.5C508.167 912.446 510.554 914.833 513.5 914.833C516.446 914.833 518.833 912.446 518.833 909.5ZM557 909.5L557 910.5L557.414 910.5L557.707 910.207L557 909.5ZM634 832.5L634 831.5L633.586 831.5L633.293 831.793L634 832.5ZM690 832.5L690 833.5L690.414 833.5L690.707 833.207L690 832.5ZM735.5 787L735.5 786L735.086 786L734.793 786.293L735.5 787ZM788.333 787C788.333 784.055 785.946 781.667 783 781.667C780.054 781.667 777.667 784.055 777.667 787C777.667 789.946 780.054 792.333 783 792.333C785.946 792.333 788.333 789.946 788.333 787ZM513.5 909.5L513.5 910.5L557 910.5L557 909.5L557 908.5L513.5 908.5L513.5 909.5ZM557 909.5L557.707 910.207L634.707 833.207L634 832.5L633.293 831.793L556.293 908.793L557 909.5ZM634 832.5L634 833.5L690 833.5L690 832.5L690 831.5L634 831.5L634 832.5ZM690 832.5L690.707 833.207L736.207 787.707L735.5 787L734.793 786.293L689.293 831.793L690 832.5ZM735.5 787L735.5 788L783 788L783 787L783 786L735.5 786L735.5 787Z" fill="#616162"/>
<path d="M-85.4999 865L-85.4999 866L-85.0857 866L-84.7928 865.707L-85.4999 865ZM-68.4999 848L-67.7928 848.707L-67.4999 848.414L-67.4999 848L-68.4999 848ZM-68.4999 808.5L-69.207 807.793L-69.4999 808.086L-69.4999 808.5L-68.4999 808.5ZM-36.4999 776.5L-36.4999 775.5L-36.9141 775.5L-37.207 775.793L-36.4999 776.5ZM55.5001 776.5L56.2072 775.793L55.9143 775.5L55.5001 775.5L55.5001 776.5ZM78.5001 799.5L77.793 800.207L78.0859 800.5L78.5001 800.5L78.5001 799.5ZM297 799.5L297.707 798.793L297.414 798.5L297 798.5L297 799.5ZM313.5 816L314.5 816L314.5 815.586L314.207 815.293L313.5 816ZM313.5 851L312.5 851L312.5 851.268L312.634 851.5L313.5 851ZM321.583 865L320.717 865.5L321.006 866L321.583 866L321.583 865ZM367 865L367 866L367.414 866L367.707 865.707L367 865ZM403.5 828.5L404.207 829.207L404.5 828.914L404.5 828.5L403.5 828.5ZM403.5 768.5L402.793 767.793L402.5 768.086L402.5 768.5L403.5 768.5ZM431 741L431 740L430.586 740L430.293 740.293L431 741ZM459.5 741L459.5 742L459.914 742L460.207 741.707L459.5 741ZM504.5 696L505.207 696.707L505.5 696.414L505.5 696L504.5 696ZM509.833 661.5C509.833 658.554 507.446 656.167 504.5 656.167C501.554 656.167 499.167 658.554 499.167 661.5C499.167 664.445 501.554 666.833 504.5 666.833C507.446 666.833 509.833 664.445 509.833 661.5ZM-108.5 865L-108.5 866L-85.4999 866L-85.4999 865L-85.4999 864L-108.5 864L-108.5 865ZM-85.4999 865L-84.7928 865.707L-67.7928 848.707L-68.4999 848L-69.207 847.293L-86.207 864.293L-85.4999 865ZM-68.4999 848L-67.4999 848L-67.4999 808.5L-68.4999 808.5L-69.4999 808.5L-69.4999 848L-68.4999 848ZM-68.4999 808.5L-67.7928 809.207L-35.7928 777.207L-36.4999 776.5L-37.207 775.793L-69.207 807.793L-68.4999 808.5ZM-36.4999 776.5L-36.4999 777.5L55.5001 777.5L55.5001 776.5L55.5001 775.5L-36.4999 775.5L-36.4999 776.5ZM55.5001 776.5L54.793 777.207L77.793 800.207L78.5001 799.5L79.2072 798.793L56.2072 775.793L55.5001 776.5ZM78.5001 799.5L78.5001 800.5L297 800.5L297 799.5L297 798.5L78.5001 798.5L78.5001 799.5ZM297 799.5L296.293 800.207L312.793 816.707L313.5 816L314.207 815.293L297.707 798.793L297 799.5ZM313.5 816L312.5 816L312.5 851L313.5 851L314.5 851L314.5 816L313.5 816ZM313.5 851L312.634 851.5L320.717 865.5L321.583 865L322.449 864.5L314.366 850.5L313.5 851ZM321.583 865L321.583 866L367 866L367 865L367 864L321.583 864L321.583 865ZM367 865L367.707 865.707L404.207 829.207L403.5 828.5L402.793 827.793L366.293 864.293L367 865ZM403.5 828.5L404.5 828.5L404.5 768.5L403.5 768.5L402.5 768.5L402.5 828.5L403.5 828.5ZM403.5 768.5L404.207 769.207L431.707 741.707L431 741L430.293 740.293L402.793 767.793L403.5 768.5ZM431 741L431 742L459.5 742L459.5 741L459.5 740L431 740L431 741ZM459.5 741L460.207 741.707L505.207 696.707L504.5 696L503.793 695.293L458.793 740.293L459.5 741ZM504.5 696L505.5 696L505.5 661.5L504.5 661.5L503.5 661.5L503.5 696L504.5 696Z" fill="#616162"/>
<path d="M-80 876.5L-80 877.5L-79.5858 877.5L-79.2929 877.207L-80 876.5ZM-58.5 855L-57.7929 855.707L-57.5 855.414L-57.5 855L-58.5 855ZM-58.5 813.5L-59.2071 812.793L-59.5 813.086L-59.5 813.5L-58.5 813.5ZM-31.5 786.5L-31.5 785.5L-31.9142 785.5L-32.2071 785.793L-31.5 786.5ZM50.5 786.5L51.2071 785.793L50.9142 785.5L50.5 785.5L50.5 786.5ZM74 810L73.2929 810.707L73.5858 811L74 811L74 810ZM292 810L292.707 809.293L292.414 809L292 809L292 810ZM303.5 821.5L304.5 821.5L304.5 821.086L304.207 820.793L303.5 821.5ZM303.5 864L302.5 864L302.5 864.414L302.793 864.707L303.5 864ZM315 875.5L314.293 876.207L314.586 876.5L315 876.5L315 875.5ZM403 875.5L403 876.5L403.414 876.5L403.707 876.207L403 875.5ZM414.5 864L415.207 864.707L415.5 864.414L415.5 864L414.5 864ZM414.5 773.5L413.793 772.793L413.5 773.086L413.5 773.5L414.5 773.5ZM436 752L436 751L435.586 751L435.293 751.293L436 752ZM464 752L464 753L464.414 753L464.707 752.707L464 752ZM514.5 701.5L515.207 702.207L515.5 701.914L515.5 701.5L514.5 701.5ZM519.833 647.5C519.833 644.555 517.446 642.167 514.5 642.167C511.555 642.167 509.167 644.555 509.167 647.5C509.167 650.446 511.555 652.833 514.5 652.833C517.446 652.833 519.833 650.446 519.833 647.5ZM-108 876.5L-108 877.5L-80 877.5L-80 876.5L-80 875.5L-108 875.5L-108 876.5ZM-80 876.5L-79.2929 877.207L-57.7929 855.707L-58.5 855L-59.2071 854.293L-80.7071 875.793L-80 876.5ZM-58.5 855L-57.5 855L-57.5 813.5L-58.5 813.5L-59.5 813.5L-59.5 855L-58.5 855ZM-58.5 813.5L-57.7929 814.207L-30.7929 787.207L-31.5 786.5L-32.2071 785.793L-59.2071 812.793L-58.5 813.5ZM-31.5 786.5L-31.5 787.5L50.5 787.5L50.5 786.5L50.5 785.5L-31.5 785.5L-31.5 786.5ZM50.5 786.5L49.7929 787.207L73.2929 810.707L74 810L74.7071 809.293L51.2071 785.793L50.5 786.5ZM74 810L74 811L292 811L292 810L292 809L74 809L74 810ZM292 810L291.293 810.707L302.793 822.207L303.5 821.5L304.207 820.793L292.707 809.293L292 810ZM303.5 821.5L302.5 821.5L302.5 864L303.5 864L304.5 864L304.5 821.5L303.5 821.5ZM303.5 864L302.793 864.707L314.293 876.207L315 875.5L315.707 874.793L304.207 863.293L303.5 864ZM315 875.5L315 876.5L403 876.5L403 875.5L403 874.5L315 874.5L315 875.5ZM403 875.5L403.707 876.207L415.207 864.707L414.5 864L413.793 863.293L402.293 874.793L403 875.5ZM414.5 864L415.5 864L415.5 773.5L414.5 773.5L413.5 773.5L413.5 864L414.5 864ZM414.5 773.5L415.207 774.207L436.707 752.707L436 752L435.293 751.293L413.793 772.793L414.5 773.5ZM436 752L436 753L464 753L464 752L464 751L436 751L436 752ZM464 752L464.707 752.707L515.207 702.207L514.5 701.5L513.793 700.793L463.293 751.293L464 752ZM514.5 701.5L515.5 701.5L515.5 647.5L514.5 647.5L513.5 647.5L513.5 701.5L514.5 701.5Z" fill="#616162"/>
<path d="M-12.4999 2.99992L55.3069 2.99993L85.1622 32.5134L85.1621 596.77L111.475 622.782L1812.72 622.782L1836.5 646.293L1836.5 1101" stroke="#616162" stroke-width="6"/>
</svg>
